<?xml version="1.0" encoding="utf-8"?>
<!-- Generator: Adobe Illustrator 17.0.0, SVG Export Plug-In . SVG Version: 6.00 Build 0)  -->
<!DOCTYPE svg PUBLIC "-//W3C//DTD SVG 1.1//EN" "http://www.w3.org/Graphics/SVG/1.1/DTD/svg11.dtd">
<svg version="1.1" xmlns="http://www.w3.org/2000/svg" xmlns:xlink="http://www.w3.org/1999/xlink" x="0px" y="0px" width="157.1px"
	 height="179.4px" viewBox="0 0 157.1 179.4" enable-background="new 0 0 157.1 179.4" xml:space="preserve">
<g id="cut_line">
	<g>
		<g>
			<g>
				<line fill="none" stroke="#DE398D" stroke-miterlimit="10" x1="365.2" y1="-126.4" x2="365.2" y2="-127.9"/>
				<path fill="none" stroke="#DE398D" stroke-miterlimit="10" stroke-dasharray="2.9962,2.9962" d="M365.2-130.9v-58v0
					c0-8.5-6-19-13.4-23.2l-28.7-16.6l-15.9-9.2c-7.4-4.3-19.5-4.3-26.8,0l-15.6,9l-29.1,16.8c-7.4,4.3-13.4,14.7-13.4,23.2v59.5"/>
				<line fill="none" stroke="#DE398D" stroke-miterlimit="10" x1="222.3" y1="-127.9" x2="222.3" y2="-126.4"/>
			</g>
		</g>
		<g>
			<g>
				<line fill="none" stroke="#DE398D" stroke-miterlimit="10" x1="222.3" y1="-136.2" x2="222.3" y2="-134.7"/>
				<path fill="none" stroke="#DE398D" stroke-miterlimit="10" stroke-dasharray="2.9785,2.9785" d="M222.3-131.7v79.2
					c0,5.5,4.5,10,10,10h122.9c5.5,0,10-4.5,10-10v-80.7"/>
				<line fill="none" stroke="#DE398D" stroke-miterlimit="10" x1="365.2" y1="-134.7" x2="365.2" y2="-136.2"/>
			</g>
		</g>
	</g>
	<g>
		<path fill="#DE398D" d="M327.2-229.3c0,0.1,0,0.2,0,0.2s0,0.2,0,0.2c-0.1,0-0.3,0-0.4,0c-0.1,0-0.3-0.1-0.4-0.1
			c-0.1-0.1-0.3-0.2-0.4-0.3c-0.1-0.1-0.2-0.3-0.2-0.4c0-0.1-0.1-0.3,0-0.5c0-0.2,0.1-0.3,0.1-0.4c0.1-0.1,0.2-0.3,0.3-0.3
			s0.3-0.2,0.4-0.2c0.1,0,0.3,0,0.5,0c0.2,0,0.3,0.1,0.5,0.2c0.1,0.1,0.2,0.2,0.3,0.3c0.1,0.1,0.2,0.2,0.2,0.3
			c-0.1,0-0.2,0.1-0.2,0.1c-0.1,0-0.2,0.1-0.2,0.1c-0.1-0.1-0.2-0.3-0.3-0.3c-0.2-0.1-0.4-0.1-0.5-0.1c-0.2,0-0.3,0.2-0.4,0.3
			c-0.1,0.2-0.1,0.3-0.1,0.5c0,0.2,0.2,0.3,0.3,0.4C326.9-229.3,327-229.3,327.2-229.3z"/>
		<path fill="#DE398D" d="M329.5-227.2l-0.4-0.2l0.2-0.3l0.2-0.2c-0.2,0.1-0.4,0.2-0.6,0.2c-0.2,0-0.4,0-0.6-0.1
			c-0.2-0.1-0.3-0.3-0.4-0.4s0-0.4,0.1-0.5l0.8-1.4l0.4,0.2l-0.7,1.2c0,0.1-0.1,0.2,0,0.3c0,0.1,0.1,0.2,0.2,0.3
			c0.1,0.1,0.2,0.1,0.3,0.1c0.1,0,0.2,0,0.3,0c0.1,0,0.2-0.1,0.3-0.1c0.1-0.1,0.1-0.1,0.2-0.2l0.5-0.9l0.4,0.2L329.5-227.2z"/>
		<path fill="#DE398D" d="M332.4-229.9l0.4,0.2l-0.7,1.2l0.5,0.3l-0.2,0.4l-0.5-0.3l-0.9,1.6l-0.4-0.2l0.9-1.6l-0.4-0.3l0.2-0.4
			l0.4,0.2L332.4-229.9z"/>
		<path fill="#DE398D" d="M333.8-224.8l-0.4-0.2l2.2-3.9l0.4,0.2L333.8-224.8z"/>
		<path fill="#DE398D" d="M334.8-224.2l-0.4-0.2l1.1-2l0.4,0.2L334.8-224.2z M335.9-227.2c0-0.1,0.1-0.1,0.2-0.2c0.1,0,0.2,0,0.2,0
			c0.1,0,0.1,0.1,0.1,0.2c0,0.1,0,0.2,0,0.2c0,0.1-0.1,0.1-0.2,0.1c-0.1,0-0.2,0-0.2,0c-0.1,0-0.1-0.1-0.1-0.2
			C335.8-227,335.8-227.1,335.9-227.2z"/>
		<path fill="#DE398D" d="M336.7-225.8l0.4,0.2l0,0c0,0.1-0.1,0.2-0.1,0.2c0,0.1-0.1,0.2-0.1,0.2c0.2-0.1,0.4-0.2,0.6-0.2
			c0.2,0,0.4,0,0.6,0.1c0.2,0.1,0.3,0.3,0.4,0.4c0.1,0.2,0,0.4-0.1,0.5l-0.8,1.4l-0.4-0.2l0.7-1.2c0-0.1,0.1-0.2,0-0.3
			c0-0.1-0.1-0.2-0.2-0.3c-0.1-0.1-0.2-0.1-0.3-0.1c-0.1,0-0.2,0-0.3,0c-0.1,0-0.2,0.1-0.3,0.1c-0.1,0.1-0.1,0.1-0.2,0.2l-0.5,0.9
			l-0.4-0.2L336.7-225.8z"/>
		<path fill="#DE398D" d="M340.5-222.5c-0.3,0-0.6-0.1-0.9-0.1c-0.3,0-0.6-0.1-0.9-0.1c0,0.1,0,0.2,0.1,0.3c0.1,0.1,0.1,0.2,0.3,0.2
			c0.2,0.1,0.3,0.1,0.5,0.1l0.1,0.5c-0.1,0-0.3,0-0.4,0c-0.1,0-0.3-0.1-0.4-0.1c-0.1-0.1-0.3-0.2-0.4-0.3c-0.1-0.1-0.2-0.3-0.2-0.4
			c0-0.1-0.1-0.3,0-0.5c0-0.2,0.1-0.3,0.1-0.4c0.1-0.1,0.2-0.3,0.3-0.3c0.1-0.1,0.3-0.2,0.4-0.2c0.1,0,0.3,0,0.5,0
			c0.2,0,0.3,0.1,0.5,0.2c0.1,0.1,0.2,0.1,0.3,0.2c0.1,0.1,0.1,0.2,0.2,0.3c0,0.1,0,0.3,0,0.4C340.6-222.8,340.5-222.6,340.5-222.5z
			 M339.8-223.4c-0.1-0.1-0.3-0.1-0.4-0.1c-0.1,0-0.3,0.1-0.4,0.1c0,0-0.1,0.1-0.1,0.2c0.2,0,0.4,0.1,0.6,0.1c0.2,0,0.4,0.1,0.6,0.1
			c0-0.1,0-0.2-0.1-0.2C340-223.3,339.9-223.4,339.8-223.4z"/>
	</g>
</g>
<g id="main_graphic">
	<path fill="#FFFFFF" d="M157.1,123.3c0,9.2-6.6,20.4-14.7,25l-49.1,27.7c-8.1,4.6-21.4,4.6-29.5,0l-49.1-27.7
		C6.6,143.7,0,132.4,0,123.3V56.1c0-9.2,6.6-20.4,14.7-25L63.8,3.4c8.1-4.6,21.4-4.6,29.5,0l49.1,27.7c8.1,4.6,14.7,15.8,14.7,25
		V123.3z"/>
	<polygon fill="#EED3B8" points="644.6,-230.6 587.4,-198.1 530.6,-231.5 531.1,-297.3 588.4,-329.8 645.1,-296.4 	"/>
	<polygon fill="#313130" points="644.6,-230.6 617.4,-215.2 617.2,-248.3 588.1,-237 559.1,-248.3 559.1,-214.7 530.6,-231.5 
		531.1,-297.3 588.4,-329.8 645.1,-296.4 	"/>
	<path fill="#EED3B8" d="M1073.3-610.3c0,7.8-5.5,17.4-12.3,21.3l-40.8,23.6c-6.8,3.9-17.8,3.9-24.5,0l-40.8-23.6
		c-6.8-3.9-12.3-13.5-12.3-21.3v-57.2c0-7.8,5.5-17.4,12.3-21.3l40.8-23.6c6.8-3.9,17.8-3.9,24.5,0l40.8,23.6
		c6.8,3.9,12.3,13.5,12.3,21.3V-610.3z"/>
	<polygon fill="#D5B69C" points="972.7,-597.5 1007.9,-592.3 1043.1,-597.5 1043.1,-606.3 972.7,-606.3 	"/>
	<path fill="#3FB289" d="M1061-688.7l-40.8-23.6c-6.8-3.9-17.8-3.9-24.5,0l-40.8,23.6c-6.8,3.9-12.3,13.5-12.3,21.3v57.2
		c0,7.8,5.5,17.4,12.3,21.3l17.9,10.3v-22.7l35.2,5.2l35.2-5.2v22.7l17.9-10.3c6.8-3.9,12.3-13.5,12.3-21.3v-57.2
		C1073.3-675.3,1067.8-684.8,1061-688.7"/>
	<path fill="#3B3A3A" d="M1061-688.7l-40.8-23.6c-6.8-3.9-17.8-3.9-24.5,0l-40.8,23.6c-6.8,3.9-12.3,13.5-12.3,21.3v57.2
		c0,7.8,5.5,17.4,12.3,21.3l17.9,10.3v-22.7l35.2,5.2l35.2-5.2v22.7l17.9-10.3c6.8-3.9,12.3-13.5,12.3-21.3v-57.2
		C1073.3-675.3,1067.8-684.8,1061-688.7"/>
	<path fill="#313130" d="M1007.9-715.2c4.3,0,9,1,12.3,2.9l40.8,23.6c6.8,3.9,12.3,13.5,12.3,21.3v57.2c0,7.8-5.5,17.4-12.3,21.3
		l-17.9,10.3v-22.7l-35.2,5.2V-715.2z"/>
	<polygon fill="#D5B69C" points="972.7,-601.5 972.7,-578.7 976.7,-600.9 	"/>
	<polygon fill="#D5B69C" points="1043.1,-601.5 1043.1,-578.7 1039.1,-600.9 	"/>
	<path fill="#63BB96" d="M1007.9-687.3c-12.1,0-22,9.9-22,22c0,12.1,9.9,22,22,22c12.1,0,22-9.9,22-22
		C1029.9-677.4,1020-687.3,1007.9-687.3 M1007.9-648.3c-9.4,0-17-7.6-17-17c0-9.4,7.6-17,17-17c9.4,0,17,7.6,17,17
		C1024.9-655.9,1017.3-648.3,1007.9-648.3"/>
	<path fill="#63BB96" d="M1007.9-678c-7,0-12.7,5.7-12.7,12.7c0,7,5.7,12.7,12.7,12.7c7,0,12.7-5.7,12.7-12.7
		C1020.6-672.3,1014.9-678,1007.9-678 M1007.9-657.6c-4.3,0-7.7-3.5-7.7-7.7c0-4.3,3.5-7.7,7.7-7.7c4.3,0,7.7,3.5,7.7,7.7
		C1015.6-661,1012.1-657.6,1007.9-657.6"/>
	<path fill="#63BB96" d="M1007.9-668.5c-1.8,0-3.2,1.4-3.2,3.2c0,1.8,1.5,3.2,3.2,3.2c1.8,0,3.2-1.4,3.2-3.2
		C1011.1-667.1,1009.7-668.5,1007.9-668.5"/>
	<path fill="#3FB289" d="M1007.9-682.3c9.4,0,17,7.6,17,17c0,9.4-7.6,17-17,17v5c12.1,0,22-9.9,22-22c0-12.1-9.9-22-22-22V-682.3z"
		/>
	<path fill="#3FB289" d="M1007.9-673c4.3,0,7.7,3.5,7.7,7.7c0,4.3-3.5,7.7-7.7,7.7v5c7,0,12.7-5.7,12.7-12.7c0-7-5.7-12.7-12.7-12.7
		V-673z"/>
	<path fill="#3FB289" d="M1007.9-662.1c1.8,0,3.2-1.4,3.2-3.2c0-1.8-1.5-3.2-3.2-3.2V-662.1z"/>
	<path fill="#EED3B8" d="M1039.7-630v1.9c0,4.8-2.9,6.4-7.5,6.4c-1.8,0-3.8-0.3-5.9-0.5c-2.2-0.2-4.6-0.5-7.3-0.5
		c-7.9-0.1-11,3.1-12.2,8.9h-0.2c-1.3-5.7-4.2-9-12.1-8.9c-2.6,0-5,0.3-7.1,0.5c-2.2,0.2-4.1,0.5-6,0.5c-4.6,0-7.4-1.7-7.4-6.4v-1.9
		h-8.9v3.7c0,9.7,4.3,15.9,14.1,15.9c2.6,0,5.4-0.2,8.3-0.5c2.8-0.3,5.5-0.6,8.2-0.6c3.1,0,5.9,0.7,6.1,7.9h10
		c0.2-7.2,3.2-7.9,6.1-7.9c2.6,0,5.3,0.3,8.2,0.6c2.8,0.3,5.6,0.5,8.3,0.5c10.5,0,14.2-6.5,14.2-15.8v-3.8H1039.7z"/>
	<path fill="#D5B69C" d="M1026.5-619.7c2.1,0.2,4.1,0.5,5.9,0.5c4.6,0,7.5-1.6,7.5-6.4v-1.9h8.8v-2.7h-8.8v1.9
		c0,4.8-2.9,6.4-7.5,6.4c-1.8,0-3.8-0.3-5.9-0.5c-2.2-0.2-4.6-0.5-7.3-0.5c-7.9-0.1-11,3.1-12.2,8.9h-0.2c-1.3-5.7-4.2-9-12.1-8.9
		c-2.6,0-5,0.3-7.1,0.5c-2.2,0.2-4.1,0.5-6,0.5c-4.6,0-7.4-1.7-7.4-6.4v-1.9h-8.9v2.7h8.9v1.9c0,4.7,2.8,6.4,7.4,6.4
		c1.9,0,3.8-0.3,6-0.5c2.1-0.2,4.5-0.5,7.1-0.5c7.9-0.1,10.9,3.1,12.1,8.9h0.2c1.3-5.7,4.3-9,12.2-8.9
		C1021.9-620.2,1024.3-619.9,1026.5-619.7"/>
	<path fill="#FFFFFF" d="M980.2-615.7c0,2.5-2,4.5-4.5,4.5c-2.5,0-4.5-2-4.5-4.5c0-2.5,2-4.5,4.5-4.5
		C978.2-620.1,980.2-618.1,980.2-615.7"/>
	<path fill="#FFFFFF" d="M1041.5-615.7c0,2.5-2,4.5-4.5,4.5s-4.5-2-4.5-4.5c0-2.5,2-4.5,4.5-4.5S1041.5-618.1,1041.5-615.7"/>
	<path fill="none" stroke="#A9856B" stroke-width="4" stroke-linecap="round" stroke-linejoin="round" stroke-miterlimit="10" d="
		M993.7-581.4h23.3c0,0,5.3,0,6.7-4.4"/>
	<path fill="#EED3B8" d="M1229.8-610.3c0,7.8-5.5,17.4-12.3,21.3l-40.8,23.6c-6.8,3.9-17.8,3.9-24.5,0l-40.8-23.6
		c-6.8-3.9-12.3-13.5-12.3-21.3v-57.2c0-7.8,5.5-17.4,12.3-21.3l40.8-23.6c6.8-3.9,17.8-3.9,24.5,0l40.8,23.6
		c6.8,3.9,12.3,13.5,12.3,21.3V-610.3z"/>
	<polygon fill="#D5B69C" points="1129.2,-597.5 1164.4,-592.3 1199.6,-597.5 1199.6,-606.3 1129.2,-606.3 	"/>
	<path fill="#3FB289" d="M1217.5-688.7l-40.8-23.6c-6.8-3.9-17.8-3.9-24.5,0l-40.8,23.6c-6.8,3.9-12.3,13.5-12.3,21.3v57.2
		c0,7.8,5.5,17.4,12.3,21.3l17.9,10.3v-22.7l35.2,5.2l35.2-5.2v22.7l17.9-10.3c6.8-3.9,12.3-13.5,12.3-21.3v-57.2
		C1229.8-675.3,1224.3-684.8,1217.5-688.7"/>
	<path fill="#3B3A3A" d="M1217.5-688.7l-40.8-23.6c-6.8-3.9-17.8-3.9-24.5,0l-40.8,23.6c-6.8,3.9-12.3,13.5-12.3,21.3v57.2
		c0,7.8,5.5,17.4,12.3,21.3l17.9,10.3v-22.7l35.2,5.2l35.2-5.2v22.7l17.9-10.3c6.8-3.9,12.3-13.5,12.3-21.3v-57.2
		C1229.8-675.3,1224.3-684.8,1217.5-688.7"/>
	<path fill="#313130" d="M1164.4-715.2c4.3,0,9,1,12.3,2.9l40.8,23.6c6.8,3.9,12.3,13.5,12.3,21.3v57.2c0,7.8-5.5,17.4-12.3,21.3
		l-17.9,10.3v-22.7l-35.2,5.2V-715.2z"/>
	<polygon fill="#D5B69C" points="1129.2,-601.5 1129.2,-578.7 1133.2,-600.9 	"/>
	<polygon fill="#D5B69C" points="1199.6,-601.5 1199.6,-578.7 1195.6,-600.9 	"/>
	<path fill="#63BB96" d="M1164.4-687.3c-12.1,0-22,9.9-22,22c0,12.1,9.9,22,22,22c12.1,0,22-9.9,22-22
		C1186.4-677.4,1176.5-687.3,1164.4-687.3 M1164.4-648.3c-9.4,0-17-7.6-17-17c0-9.4,7.6-17,17-17c9.4,0,17,7.6,17,17
		C1181.4-655.9,1173.8-648.3,1164.4-648.3"/>
	<path fill="#63BB96" d="M1164.4-678c-7,0-12.7,5.7-12.7,12.7c0,7,5.7,12.7,12.7,12.7c7,0,12.7-5.7,12.7-12.7
		C1177.1-672.3,1171.4-678,1164.4-678 M1164.4-657.6c-4.3,0-7.7-3.5-7.7-7.7c0-4.3,3.5-7.7,7.7-7.7c4.3,0,7.7,3.5,7.7,7.7
		C1172.1-661,1168.6-657.6,1164.4-657.6"/>
	<path fill="#63BB96" d="M1164.4-668.5c-1.8,0-3.2,1.4-3.2,3.2c0,1.8,1.5,3.2,3.2,3.2c1.8,0,3.2-1.4,3.2-3.2
		C1167.6-667.1,1166.2-668.5,1164.4-668.5"/>
	<path fill="#3FB289" d="M1164.4-682.3c9.4,0,17,7.6,17,17c0,9.4-7.6,17-17,17v5c12.1,0,22-9.9,22-22c0-12.1-9.9-22-22-22V-682.3z"
		/>
	<path fill="#3FB289" d="M1164.4-673c4.3,0,7.7,3.5,7.7,7.7c0,4.3-3.5,7.7-7.7,7.7v5c7,0,12.7-5.7,12.7-12.7c0-7-5.7-12.7-12.7-12.7
		V-673z"/>
	<path fill="#3FB289" d="M1164.4-662.1c1.8,0,3.2-1.4,3.2-3.2c0-1.8-1.5-3.2-3.2-3.2V-662.1z"/>
	<path fill="#EED3B8" d="M1197.4-630v1.9c0,4.8-2.9,6.4-7.5,6.4c-1.8,0-3.8-0.3-5.9-0.5c-2.2-0.2-4.6-0.5-7.3-0.5
		c-7.9-0.1-11,3.1-12.2,8.9h-0.2c-1.3-5.7-4.2-9-12.1-8.9c-2.6,0-5,0.3-7.1,0.5c-2.2,0.2-4.1,0.5-6,0.5c-4.6,0-7.4-1.7-7.4-6.4v-1.9
		h-8.9v3.7c0,9.7,4.3,15.9,14.1,15.9c2.6,0,5.4-0.2,8.3-0.5c2.8-0.3,5.5-0.6,8.2-0.6c3.1,0,5.9,0.7,6.1,7.9h10
		c0.2-7.2,3.2-7.9,6.1-7.9c2.6,0,5.3,0.3,8.2,0.6c2.8,0.3,5.6,0.5,8.3,0.5c10.5,0,14.2-6.5,14.2-15.8v-3.8H1197.4z"/>
	<path fill="#FFFFFF" d="M1140-617.4c0,2.5-2,4.5-4.5,4.5s-4.5-2-4.5-4.5c0-2.5,2-4.5,4.5-4.5S1140-619.9,1140-617.4"/>
	<path fill="#FFFFFF" d="M1196.8-617.4c0,2.5-2,4.5-4.5,4.5s-4.5-2-4.5-4.5c0-2.5,2-4.5,4.5-4.5S1196.8-619.9,1196.8-617.4"/>
	<path fill="none" stroke="#A9856B" stroke-width="4" stroke-linecap="round" stroke-linejoin="round" stroke-miterlimit="10" d="
		M1150.2-581.4h23.3c0,0,5.3,0,6.7-4.4"/>
	<path fill="#EED3B8" d="M1229.8-408.3c0,7.8-5.5,17.4-12.3,21.3l-40.8,23.6c-6.8,3.9-17.8,3.9-24.5,0l-40.8-23.6
		c-6.8-3.9-12.3-13.5-12.3-21.3v-57.2c0-7.8,5.5-17.4,12.3-21.3l40.8-23.6c6.8-3.9,17.8-3.9,24.5,0l40.8,23.6
		c6.8,3.9,12.3,13.5,12.3,21.3V-408.3z"/>
	<path fill="#3FB289" d="M1217.5-486.7l-40.8-23.6c-6.8-3.9-17.8-3.9-24.5,0l-40.8,23.6c-6.8,3.9-12.3,13.5-12.3,21.3v57.2
		c0,7.8,5.5,17.4,12.3,21.3l17.9,10.3v-22.7l35.2,5.2l35.2-5.2v22.7l17.9-10.3c6.8-3.9,12.3-13.5,12.3-21.3v-57.2
		C1229.8-473.3,1224.3-482.8,1217.5-486.7"/>
	<path fill="#3B3A3A" d="M1217.5-486.7l-40.8-23.6c-6.8-3.9-17.8-3.9-24.5,0l-40.8,23.6c-6.8,3.9-12.3,13.5-12.3,21.3v57.2
		c0,7.8,5.5,17.4,12.3,21.3l17.9,10.3v-22.7l35.2,5.2l35.2-5.2v22.7l17.9-10.3c6.8-3.9,12.3-13.5,12.3-21.3v-57.2
		C1229.8-473.3,1224.3-482.8,1217.5-486.7"/>
	<path fill="#313130" d="M1164.4-513.2c4.3,0,9,1,12.3,2.9l40.8,23.6c6.8,3.9,12.3,13.5,12.3,21.3v57.2c0,7.8-5.5,17.4-12.3,21.3
		l-17.9,10.3v-22.7l-35.2,5.2V-513.2z"/>
	<polygon fill="#D5B69C" points="1129.2,-399.5 1129.2,-376.7 1133.2,-398.9 	"/>
	<polygon fill="#D5B69C" points="1199.6,-399.5 1199.6,-376.7 1195.6,-398.9 	"/>
	<path fill="#63BB96" d="M1164.4-485.3c-12.1,0-22,9.9-22,22c0,12.1,9.9,22,22,22c12.1,0,22-9.9,22-22
		C1186.4-475.4,1176.5-485.3,1164.4-485.3 M1164.4-446.3c-9.4,0-17-7.6-17-17c0-9.4,7.6-17,17-17c9.4,0,17,7.6,17,17
		C1181.4-453.9,1173.8-446.3,1164.4-446.3"/>
	<path fill="#63BB96" d="M1164.4-476c-7,0-12.7,5.7-12.7,12.7c0,7,5.7,12.7,12.7,12.7c7,0,12.7-5.7,12.7-12.7
		C1177.1-470.3,1171.4-476,1164.4-476 M1164.4-455.6c-4.3,0-7.7-3.5-7.7-7.7c0-4.3,3.5-7.7,7.7-7.7c4.3,0,7.7,3.5,7.7,7.7
		C1172.1-459,1168.6-455.6,1164.4-455.6"/>
	<path fill="#63BB96" d="M1164.4-466.5c-1.8,0-3.2,1.4-3.2,3.2c0,1.8,1.5,3.2,3.2,3.2c1.8,0,3.2-1.4,3.2-3.2
		C1167.6-465.1,1166.2-466.5,1164.4-466.5"/>
	<path fill="#3FB289" d="M1164.4-480.3c9.4,0,17,7.6,17,17c0,9.4-7.6,17-17,17v5c12.1,0,22-9.9,22-22c0-12.1-9.9-22-22-22V-480.3z"
		/>
	<path fill="#3FB289" d="M1164.4-471c4.3,0,7.7,3.5,7.7,7.7c0,4.3-3.5,7.7-7.7,7.7v5c7,0,12.7-5.7,12.7-12.7c0-7-5.7-12.7-12.7-12.7
		V-471z"/>
	<path fill="#3FB289" d="M1164.4-460.1c1.8,0,3.2-1.4,3.2-3.2c0-1.8-1.5-3.2-3.2-3.2V-460.1z"/>
	<path fill="#EED3B8" d="M1197.4-428v1.9c0,4.8-2.9,6.4-7.5,6.4c-1.8,0-3.8-0.3-5.9-0.5c-2.2-0.2-4.6-0.5-7.3-0.5
		c-7.9-0.1-11,3.1-12.2,8.9h-0.2c-1.3-5.7-4.2-9-12.1-8.9c-2.6,0-5,0.3-7.1,0.5c-2.2,0.2-4.1,0.5-6,0.5c-4.6,0-7.4-1.7-7.4-6.4v-1.9
		h-8.9v3.7c0,9.7,4.3,15.9,14.1,15.9c2.6,0,5.4-0.2,8.3-0.5c2.8-0.3,5.5-0.6,8.2-0.6c3.1,0,5.9,0.7,6.1,7.9h10
		c0.2-7.2,3.2-7.9,6.1-7.9c2.6,0,5.3,0.3,8.2,0.6c2.8,0.3,5.6,0.5,8.3,0.5c10.5,0,14.2-6.5,14.2-15.8v-3.8H1197.4z"/>
	<path fill="#FFFFFF" d="M1140-415.4c0,2.5-2,4.5-4.5,4.5s-4.5-2-4.5-4.5c0-2.5,2-4.5,4.5-4.5S1140-417.9,1140-415.4"/>
	<path fill="#FFFFFF" d="M1196.8-415.4c0,2.5-2,4.5-4.5,4.5s-4.5-2-4.5-4.5c0-2.5,2-4.5,4.5-4.5S1196.8-417.9,1196.8-415.4"/>
	<path fill="none" stroke="#A9856B" stroke-width="4" stroke-linecap="round" stroke-linejoin="round" stroke-miterlimit="10" d="
		M1150.2-379.4h23.3c0,0,5.3,0,6.7-4.4"/>
	<path fill="#EED3B8" d="M1074.9-408.3c0,7.8-5.5,17.4-12.3,21.3l-40.8,23.6c-6.8,3.9-17.8,3.9-24.5,0l-40.8-23.6
		c-6.8-3.9-12.3-13.5-12.3-21.3v-57.2c0-7.8,5.5-17.4,12.3-21.3l40.8-23.6c6.8-3.9,17.8-3.9,24.5,0l40.8,23.6
		c6.8,3.9,12.3,13.5,12.3,21.3V-408.3z"/>
	<path fill="#3FB289" d="M1062.6-486.7l-40.8-23.6c-6.8-3.9-17.8-3.9-24.5,0l-40.8,23.6c-6.8,3.9-12.3,13.5-12.3,21.3v57.2
		c0,7.8,5.5,17.4,12.3,21.3l17.9,10.3v-22.7l35.2,5.2l35.2-5.2v22.7l17.9-10.3c6.8-3.9,12.3-13.5,12.3-21.3v-57.2
		C1074.9-473.3,1069.4-482.8,1062.6-486.7"/>
	<path fill="#3B3A3A" d="M1062.6-486.7l-40.8-23.6c-6.8-3.9-17.8-3.9-24.5,0l-40.8,23.6c-6.8,3.9-12.3,13.5-12.3,21.3v57.2
		c0,7.8,5.5,17.4,12.3,21.3l17.9,10.3v-22.7l35.2,5.2l35.2-5.2v22.7l17.9-10.3c6.8-3.9,12.3-13.5,12.3-21.3v-57.2
		C1074.9-473.3,1069.4-482.8,1062.6-486.7"/>
	<path fill="#313130" d="M1009.5-513.2c4.3,0,9,1,12.3,2.9l40.8,23.6c6.8,3.9,12.3,13.5,12.3,21.3v57.2c0,7.8-5.5,17.4-12.3,21.3
		l-17.9,10.3v-22.7l-35.2,5.2V-513.2z"/>
	<path fill="#63BB96" d="M1009.5-485.3c-12.1,0-22,9.9-22,22c0,12.1,9.9,22,22,22c12.1,0,22-9.9,22-22
		C1031.5-475.4,1021.7-485.3,1009.5-485.3 M1009.5-446.3c-9.4,0-17-7.6-17-17c0-9.4,7.6-17,17-17c9.4,0,17,7.6,17,17
		C1026.5-453.9,1018.9-446.3,1009.5-446.3"/>
	<path fill="#63BB96" d="M1009.5-476c-7,0-12.7,5.7-12.7,12.7c0,7,5.7,12.7,12.7,12.7c7,0,12.7-5.7,12.7-12.7
		C1022.2-470.3,1016.5-476,1009.5-476 M1009.5-455.6c-4.3,0-7.7-3.5-7.7-7.7c0-4.3,3.5-7.7,7.7-7.7c4.3,0,7.7,3.5,7.7,7.7
		C1017.2-459,1013.8-455.6,1009.5-455.6"/>
	<path fill="#63BB96" d="M1009.5-466.5c-1.8,0-3.2,1.4-3.2,3.2c0,1.8,1.5,3.2,3.2,3.2c1.8,0,3.2-1.4,3.2-3.2
		C1012.7-465.1,1011.3-466.5,1009.5-466.5"/>
	<path fill="#3FB289" d="M1009.5-480.3c9.4,0,17,7.6,17,17c0,9.4-7.6,17-17,17v5c12.1,0,22-9.9,22-22c0-12.1-9.9-22-22-22V-480.3z"
		/>
	<path fill="#3FB289" d="M1009.5-471c4.3,0,7.7,3.5,7.7,7.7c0,4.3-3.5,7.7-7.7,7.7v5c7,0,12.7-5.7,12.7-12.7c0-7-5.7-12.7-12.7-12.7
		V-471z"/>
	<path fill="#3FB289" d="M1009.5-460.1c1.8,0,3.2-1.4,3.2-3.2c0-1.8-1.5-3.2-3.2-3.2V-460.1z"/>
	<path fill="#EED3B8" d="M1042.5-428v1.9c0,4.8-2.9,6.4-7.5,6.4c-1.8,0-3.8-0.3-5.9-0.5c-2.2-0.2-4.6-0.5-7.3-0.5
		c-7.9-0.1-11,3.1-12.2,8.9h-0.2c-1.3-5.7-4.2-9-12.1-8.9c-2.6,0-5,0.3-7.1,0.5c-2.2,0.2-4.1,0.5-6,0.5c-4.6,0-7.4-1.7-7.4-6.4v-1.9
		h-8.9v3.7c0,9.7,4.3,15.9,14.1,15.9c2.6,0,5.4-0.2,8.3-0.5c2.8-0.3,5.5-0.6,8.2-0.6c3.1,0,5.9,0.7,6.1,7.9h10
		c0.2-7.2,3.2-7.9,6.1-7.9c2.6,0,5.3,0.3,8.2,0.6c2.8,0.3,5.6,0.5,8.3,0.5c10.5,0,14.2-6.5,14.2-15.8v-3.8H1042.5z"/>
	<path fill="#FFFFFF" d="M985.1-415.4c0,2.5-2,4.5-4.5,4.5c-2.5,0-4.5-2-4.5-4.5c0-2.5,2-4.5,4.5-4.5
		C983.1-419.9,985.1-417.9,985.1-415.4"/>
	<path fill="#FFFFFF" d="M1041.9-415.4c0,2.5-2,4.5-4.5,4.5c-2.5,0-4.5-2-4.5-4.5c0-2.5,2-4.5,4.5-4.5
		C1039.9-419.9,1041.9-417.9,1041.9-415.4"/>
	<path fill="none" stroke="#A9856B" stroke-width="4" stroke-linecap="round" stroke-linejoin="round" stroke-miterlimit="10" d="
		M995.4-379.4h23.3c0,0,5.3,0,6.7-4.4"/>
	<path fill="#EED3B8" d="M1391.8-609.8c0,7.8-5.5,17.4-12.3,21.3l-40.8,23.6c-6.8,3.9-17.8,3.9-24.5,0l-40.8-23.6
		c-6.8-3.9-12.3-13.5-12.3-21.3V-667c0-7.8,5.5-17.4,12.3-21.3l40.8-23.6c6.8-3.9,17.8-3.9,24.5,0l40.8,23.6
		c6.8,3.9,12.3,13.5,12.3,21.3V-609.8z"/>
	<polygon fill="#D5B69C" points="1291.2,-597 1326.4,-591.8 1361.6,-597 1361.6,-605.8 1291.2,-605.8 	"/>
	<path fill="#3FB289" d="M1379.5-688.2l-40.8-23.6c-6.8-3.9-17.8-3.9-24.5,0l-40.8,23.6c-6.8,3.9-12.3,13.5-12.3,21.3v57.2
		c0,7.8,5.5,17.4,12.3,21.3l17.9,10.3V-601l35.2,5.2l35.2-5.2v22.7l17.9-10.3c6.8-3.9,12.3-13.5,12.3-21.3V-667
		C1391.8-674.8,1386.3-684.3,1379.5-688.2"/>
	<path fill="#3B3A3A" d="M1379.5-688.2l-40.8-23.6c-6.8-3.9-17.8-3.9-24.5,0l-40.8,23.6c-6.8,3.9-12.3,13.5-12.3,21.3v57.2
		c0,7.8,5.5,17.4,12.3,21.3l17.9,10.3V-601l35.2,5.2l35.2-5.2v22.7l17.9-10.3c6.8-3.9,12.3-13.5,12.3-21.3V-667
		C1391.8-674.8,1386.3-684.3,1379.5-688.2"/>
	<path fill="#313130" d="M1326.4-714.7c4.3,0,9,1,12.3,2.9l40.8,23.6c6.8,3.9,12.3,13.5,12.3,21.3v57.2c0,7.8-5.5,17.4-12.3,21.3
		l-17.9,10.3V-601l-35.2,5.2V-714.7z"/>
	<polygon fill="#D5B69C" points="1291.2,-601 1291.2,-578.2 1295.2,-600.4 	"/>
	<polygon fill="#D5B69C" points="1361.6,-601 1361.6,-578.2 1357.6,-600.4 	"/>
	<path fill="#63BB96" d="M1326.4-686.8c-12.1,0-22,9.9-22,22c0,12.1,9.9,22,22,22c12.1,0,22-9.9,22-22
		C1348.4-676.9,1338.5-686.8,1326.4-686.8 M1326.4-647.8c-9.4,0-17-7.6-17-17c0-9.4,7.6-17,17-17c9.4,0,17,7.6,17,17
		C1343.4-655.4,1335.8-647.8,1326.4-647.8"/>
	<path fill="#63BB96" d="M1326.4-677.5c-7,0-12.7,5.7-12.7,12.7c0,7,5.7,12.7,12.7,12.7c7,0,12.7-5.7,12.7-12.7
		C1339.1-671.8,1333.4-677.5,1326.4-677.5 M1326.4-657.1c-4.3,0-7.7-3.5-7.7-7.7c0-4.3,3.5-7.7,7.7-7.7c4.3,0,7.7,3.5,7.7,7.7
		C1334.1-660.5,1330.6-657.1,1326.4-657.1"/>
	<path fill="#63BB96" d="M1326.4-668c-1.8,0-3.2,1.4-3.2,3.2c0,1.8,1.5,3.2,3.2,3.2s3.2-1.4,3.2-3.2
		C1329.6-666.6,1328.2-668,1326.4-668"/>
	<path fill="#3FB289" d="M1326.4-681.8c9.4,0,17,7.6,17,17c0,9.4-7.6,17-17,17v5c12.1,0,22-9.9,22-22c0-12.1-9.9-22-22-22V-681.8z"
		/>
	<path fill="#3FB289" d="M1326.4-672.5c4.3,0,7.7,3.5,7.7,7.7c0,4.3-3.5,7.7-7.7,7.7v5c7,0,12.7-5.7,12.7-12.7
		c0-7-5.7-12.7-12.7-12.7V-672.5z"/>
	<path fill="#3FB289" d="M1326.4-661.6c1.8,0,3.2-1.4,3.2-3.2c0-1.8-1.4-3.2-3.2-3.2V-661.6z"/>
	<path fill="#EED3B8" d="M1359.4-629.5v1.9c0,4.8-2.9,6.4-7.5,6.4c-1.8,0-3.8-0.3-5.9-0.5c-2.2-0.2-4.6-0.5-7.3-0.5
		c-7.9-0.1-11,3.1-12.2,8.9h-0.2c-1.3-5.7-4.2-9-12.1-8.9c-2.6,0-5,0.3-7.1,0.5c-2.2,0.2-4.1,0.5-6,0.5c-4.6,0-7.4-1.7-7.4-6.4v-1.9
		h-8.9v3.7c0,9.7,4.3,15.9,14.1,15.9c2.6,0,5.4-0.2,8.3-0.5c2.8-0.3,5.5-0.6,8.2-0.6c3.1,0,5.9,0.7,6.1,7.9h10
		c0.2-7.2,3.2-7.9,6.1-7.9c2.6,0,5.3,0.3,8.2,0.6c2.8,0.3,5.6,0.5,8.3,0.5c10.5,0,14.2-6.5,14.2-15.8v-3.8H1359.4z"/>
	<path fill="#FFFFFF" d="M1302-616.9c0,2.5-2,4.5-4.5,4.5c-2.5,0-4.5-2-4.5-4.5c0-2.5,2-4.5,4.5-4.5
		C1300-621.4,1302-619.4,1302-616.9"/>
	<path fill="#FFFFFF" d="M1358.8-616.9c0,2.5-2,4.5-4.5,4.5c-2.5,0-4.5-2-4.5-4.5c0-2.5,2-4.5,4.5-4.5
		C1356.8-621.4,1358.8-619.4,1358.8-616.9"/>
	<path fill="none" stroke="#A9856B" stroke-width="4" stroke-linecap="round" stroke-linejoin="round" stroke-miterlimit="10" d="
		M1312.2-580.9h23.3c0,0,5.3,0,6.7-4.4"/>
	<path opacity="0.5" fill="#D5B69C" d="M1346.1-619.6c2.1,0.2,4.1,0.5,5.9,0.5c4.6,0,7.5-1.6,7.5-6.4v-1.9h8.8v-2.7h-8.8v1.9
		c0,4.8-2.9,6.4-7.5,6.4c-1.8,0-3.8-0.3-5.9-0.5c-2.2-0.2-4.6-0.5-7.3-0.5c-7.9-0.1-11,3.1-12.2,8.9h-0.2c-1.3-5.7-4.2-9-12.1-8.9
		c-2.6,0-5,0.3-7.1,0.5c-2.2,0.2-4.1,0.5-6,0.5c-4.6,0-7.4-1.7-7.4-6.4v-1.9h-8.9v2.7h8.9v1.9c0,4.7,2.8,6.4,7.4,6.4
		c1.9,0,3.8-0.3,6-0.5c2.1-0.2,4.5-0.5,7.1-0.5c7.9-0.1,10.9,3.1,12.1,8.9h0.2c1.3-5.7,4.3-9,12.2-8.9
		C1341.5-620.1,1343.9-619.8,1346.1-619.6"/>
	<path fill="#EED3B8" d="M1591.4-610.3c0,7.8-5.5,17.4-12.3,21.3l-40.8,23.6c-6.8,3.9-17.8,3.9-24.5,0l-40.8-23.6
		c-6.8-3.9-12.3-13.5-12.3-21.3v-57.2c0-7.8,5.5-17.4,12.3-21.3l40.8-23.6c6.8-3.9,17.8-3.9,24.5,0l40.8,23.6
		c6.8,3.9,12.3,13.5,12.3,21.3V-610.3z"/>
	<polygon fill="#D5B69C" points="1490.8,-597.5 1526.1,-592.3 1561.3,-597.5 1561.3,-606.3 1490.8,-606.3 	"/>
	<path fill="#3FB289" d="M1579.2-688.7l-40.8-23.6c-6.8-3.9-17.8-3.9-24.5,0l-40.8,23.6c-6.8,3.9-12.3,13.5-12.3,21.3v57.2
		c0,7.8,5.5,17.4,12.3,21.3l17.9,10.3v-22.7l35.2,5.2l35.2-5.2v22.7l17.9-10.3c6.8-3.9,12.3-13.5,12.3-21.3v-57.2
		C1591.4-675.3,1585.9-684.8,1579.2-688.7"/>
	<path fill="#313130" d="M1526-715.2c4.3,0,9,1,12.3,2.9l40.8,23.6c6.8,3.9,12.3,13.5,12.3,21.3v57.2c0,7.8-5.5,17.4-12.3,21.3
		l-17.9,10.3v-22.7l-35.2,5.2V-715.2z"/>
	<path fill="#313130" d="M1526.1-687.3c-12.1,0-22,9.9-22,22c0,12.1,9.9,22,22,22c12.1,0,22-9.9,22-22
		C1548.1-677.4,1538.2-687.3,1526.1-687.3 M1526.1-648.3c-9.4,0-17-7.6-17-17c0-9.4,7.6-17,17-17c9.4,0,17,7.6,17,17
		C1543.1-655.9,1535.4-648.3,1526.1-648.3"/>
	<path fill="#313130" d="M1526.1-678c-7,0-12.7,5.7-12.7,12.7c0,7,5.7,12.7,12.7,12.7c7,0,12.7-5.7,12.7-12.7
		C1538.8-672.3,1533.1-678,1526.1-678 M1526.1-657.6c-4.3,0-7.7-3.5-7.7-7.7c0-4.3,3.5-7.7,7.7-7.7c4.3,0,7.7,3.5,7.7,7.7
		C1533.8-661,1530.3-657.6,1526.1-657.6"/>
	<path fill="#313130" d="M1526.1-668.5c-1.8,0-3.2,1.4-3.2,3.2c0,1.8,1.4,3.2,3.2,3.2c1.8,0,3.2-1.4,3.2-3.2
		C1529.3-667.1,1527.8-668.5,1526.1-668.5"/>
	<path fill="#3FB289" d="M1526.1-682.3c9.4,0,17,7.6,17,17c0,9.4-7.6,17-17,17v5c12.1,0,22-9.9,22-22c0-12.1-9.9-22-22-22V-682.3z"
		/>
	<path fill="#3FB289" d="M1526.1-673c4.3,0,7.7,3.5,7.7,7.7c0,4.3-3.5,7.7-7.7,7.7v5c7,0,12.7-5.7,12.7-12.7c0-7-5.7-12.7-12.7-12.7
		V-673z"/>
	<path fill="#3FB289" d="M1526.1-662.1c1.8,0,3.2-1.4,3.2-3.2c0-1.8-1.5-3.2-3.2-3.2V-662.1z"/>
	<path fill="#FFFFFF" d="M1501.6-617.4c0,2.5-2,4.5-4.5,4.5s-4.5-2-4.5-4.5c0-2.5,2-4.5,4.5-4.5S1501.6-619.9,1501.6-617.4"/>
	<path fill="#FFFFFF" d="M1558.5-617.4c0,2.5-2,4.5-4.5,4.5s-4.5-2-4.5-4.5c0-2.5,2-4.5,4.5-4.5S1558.5-619.9,1558.5-617.4"/>
	<path fill="none" stroke="#A9856B" stroke-width="4" stroke-linecap="round" stroke-linejoin="round" stroke-miterlimit="10" d="
		M1511.9-581.4h23.3c0,0,5.3,0,6.7-4.4"/>
	<path fill="#EED3B8" d="M1554.3-609.3v1.6c0,4.1-2.5,5.5-6.4,5.5c-1.5,0-3.2-0.3-5-0.4c-1.9-0.2-3.9-0.4-6.2-0.4
		c-6.8-0.1-9.4,2.7-10.4,7.6h-0.2c-1.1-4.9-3.6-7.7-10.4-7.6c-2.2,0-4.3,0.3-6.1,0.4c-1.9,0.2-3.5,0.4-5.1,0.4
		c-3.9,0-6.3-1.4-6.3-5.5v-1.6h-7.6v3.1c0,8.3,3.7,13.6,12,13.6c2.2,0,4.6-0.2,7.1-0.4c2.4-0.3,4.7-0.5,7-0.5c2.7,0,5,0.6,5.2,6.8
		h8.6c0.2-6.2,2.7-6.8,5.2-6.8c2.2,0,4.6,0.3,7,0.5c2.4,0.3,4.8,0.4,7.1,0.4c8.9,0,12.1-5.6,12.1-13.5v-3.2H1554.3z"/>
	<path fill="#D5B69C" d="M1542.8-602c1.8,0.2,3.5,0.4,5,0.4c3.9,0,6.4-1.3,6.4-5.5v-1.6h7.5v-2.3h-7.5v1.6c0,4.1-2.5,5.5-6.4,5.5
		c-1.5,0-3.2-0.3-5-0.4c-1.9-0.2-3.9-0.4-6.2-0.4c-6.8-0.1-9.4,2.7-10.4,7.6h-0.2c-1.1-4.9-3.6-7.7-10.4-7.6c-2.2,0-4.3,0.3-6.1,0.4
		c-1.9,0.2-3.5,0.4-5.1,0.4c-3.9,0-6.3-1.4-6.3-5.5v-1.6h-7.6v2.3h7.6v1.6c0,4,2.4,5.5,6.3,5.5c1.6,0,3.2-0.3,5.1-0.4
		c1.8-0.2,3.8-0.4,6.1-0.4c6.8-0.1,9.3,2.7,10.4,7.6h0.2c1.1-4.9,3.7-7.7,10.4-7.6C1538.9-602.4,1541-602.1,1542.8-602"/>
	<polygon fill="#D5B69C" points="1490.5,-610.7 1490.5,-578.9 1494.5,-609.9 	"/>
	<polygon fill="#D5B69C" points="1561.6,-610.9 1561.4,-578.6 1557.7,-610.1 	"/>
	<path fill="#EED3B8" d="M1769.9-610.3c0,7.8-5.5,17.4-12.3,21.3l-40.8,23.6c-6.8,3.9-17.8,3.9-24.5,0l-40.8-23.6
		c-6.8-3.9-12.3-13.5-12.3-21.3v-57.2c0-7.8,5.5-17.4,12.3-21.3l40.8-23.6c6.8-3.9,17.8-3.9,24.5,0l40.8,23.6
		c6.8,3.9,12.3,13.5,12.3,21.3V-610.3z"/>
	<polygon fill="#D5B69C" points="1669.3,-597.5 1704.6,-592.3 1739.8,-597.5 1739.8,-606.3 1669.3,-606.3 	"/>
	<path fill="#3FB289" d="M1757.7-688.7l-40.8-23.6c-6.8-3.9-17.8-3.9-24.5,0l-40.8,23.6c-6.8,3.9-12.3,13.5-12.3,21.3v57.2
		c0,7.8,5.5,17.4,12.3,21.3l17.9,10.3v-22.7l35.2,5.2l35.2-5.2v22.7l17.9-10.3c6.8-3.9,12.3-13.5,12.3-21.3v-57.2
		C1769.9-675.3,1764.4-684.8,1757.7-688.7"/>
	<path fill="#313130" d="M1704.5-715.2c4.3,0,9,1,12.3,2.9l40.8,23.6c6.8,3.9,12.3,13.5,12.3,21.3v57.2c0,7.8-5.5,17.4-12.3,21.3
		l-17.9,10.3v-22.7l-35.2,5.2V-715.2z"/>
	<path fill="#313130" d="M1704.6-687.3c-12.1,0-22,9.9-22,22c0,12.1,9.9,22,22,22c12.1,0,22-9.9,22-22
		C1726.6-677.4,1716.7-687.3,1704.6-687.3 M1704.6-648.3c-9.4,0-17-7.6-17-17c0-9.4,7.6-17,17-17c9.4,0,17,7.6,17,17
		C1721.6-655.9,1713.9-648.3,1704.6-648.3"/>
	<path fill="#313130" d="M1704.6-678c-7,0-12.7,5.7-12.7,12.7c0,7,5.7,12.7,12.7,12.7c7,0,12.7-5.7,12.7-12.7
		C1717.3-672.3,1711.6-678,1704.6-678 M1704.6-657.6c-4.3,0-7.7-3.5-7.7-7.7c0-4.3,3.5-7.7,7.7-7.7c4.3,0,7.7,3.5,7.7,7.7
		C1712.3-661,1708.8-657.6,1704.6-657.6"/>
	<path fill="#313130" d="M1704.6-668.5c-1.8,0-3.2,1.4-3.2,3.2c0,1.8,1.4,3.2,3.2,3.2c1.8,0,3.2-1.4,3.2-3.2
		C1707.8-667.1,1706.3-668.5,1704.6-668.5"/>
	<path fill="#3FB289" d="M1704.6-682.3c9.4,0,17,7.6,17,17c0,9.4-7.6,17-17,17v5c12.1,0,22-9.9,22-22c0-12.1-9.9-22-22-22V-682.3z"
		/>
	<path fill="#3FB289" d="M1704.6-673c4.3,0,7.7,3.5,7.7,7.7c0,4.3-3.5,7.7-7.7,7.7v5c7,0,12.7-5.7,12.7-12.7c0-7-5.7-12.7-12.7-12.7
		V-673z"/>
	<path fill="#3FB289" d="M1704.6-662.1c1.8,0,3.2-1.4,3.2-3.2c0-1.8-1.5-3.2-3.2-3.2V-662.1z"/>
	<path fill="#FFFFFF" d="M1680.1-617.4c0,2.5-2,4.5-4.5,4.5s-4.5-2-4.5-4.5c0-2.5,2-4.5,4.5-4.5S1680.1-619.9,1680.1-617.4"/>
	<path fill="#FFFFFF" d="M1737-617.4c0,2.5-2,4.5-4.5,4.5s-4.5-2-4.5-4.5c0-2.5,2-4.5,4.5-4.5S1737-619.9,1737-617.4"/>
	<path fill="none" stroke="#A9856B" stroke-width="4" stroke-linecap="round" stroke-linejoin="round" stroke-miterlimit="10" d="
		M1690.4-581.4h23.3c0,0,5.3,0,6.7-4.4"/>
	<path fill="#EED3B8" d="M1732.8-607.3v1.6c0,4.1-2.5,5.5-6.4,5.5c-1.5,0-3.2-0.3-5-0.4c-1.9-0.2-3.9-0.4-6.2-0.4
		c-6.8-0.1-9.4,2.7-10.4,7.6h-0.2c-1.1-4.9-3.6-7.7-10.4-7.6c-2.2,0-4.3,0.3-6.1,0.4c-1.9,0.2-3.5,0.4-5.1,0.4
		c-3.9,0-6.3-1.4-6.3-5.5v-1.6h-7.6v3.1c0,8.3,3.7,13.6,12,13.6c2.2,0,4.6-0.2,7.1-0.4c2.4-0.3,4.7-0.5,7-0.5c2.7,0,5,0.6,5.2,6.8
		h8.6c0.2-6.2,2.7-6.8,5.2-6.8c2.2,0,4.6,0.3,7,0.5c2.4,0.3,4.8,0.4,7.1,0.4c8.9,0,12.1-5.6,12.1-13.5v-3.2H1732.8z"/>
	<path fill="#EED3B8" d="M1962.9-610.3c0,7.8-5.5,17.4-12.3,21.3l-40.8,23.6c-6.8,3.9-17.8,3.9-24.5,0l-40.8-23.6
		c-6.8-3.9-12.3-13.5-12.3-21.3v-57.2c0-7.8,5.5-17.4,12.3-21.3l40.8-23.6c6.8-3.9,17.8-3.9,24.5,0l40.8,23.6
		c6.8,3.9,12.3,13.5,12.3,21.3V-610.3z"/>
	<path fill="#3FB289" d="M1950.7-688.7l-40.8-23.6c-6.8-3.9-17.8-3.9-24.5,0l-40.8,23.6c-6.8,3.9-12.3,13.5-12.3,21.3v57.2
		c0,7.8,5.5,17.4,12.3,21.3l17.9,10.3v-22.7l35.2,8.7l35.2-8.7v22.7l17.9-10.3c6.8-3.9,12.3-13.5,12.3-21.3v-57.2
		C1962.9-675.3,1957.4-684.8,1950.7-688.7"/>
	<path fill="#313130" d="M1897.5-715.2c4.3,0,9,1,12.3,2.9l40.8,23.6c6.8,3.9,12.3,13.5,12.3,21.3v57.2c0,7.8-5.5,17.4-12.3,21.3
		l-17.9,10.3v-22.7l-35.2,7.9L1897.5-715.2z"/>
	<path fill="#313130" d="M1897.6-687.3c-12.1,0-22,9.9-22,22c0,12.1,9.9,22,22,22c12.1,0,22-9.9,22-22
		C1919.6-677.4,1909.7-687.3,1897.6-687.3 M1897.6-648.3c-9.4,0-17-7.6-17-17c0-9.4,7.6-17,17-17c9.4,0,17,7.6,17,17
		C1914.6-655.9,1906.9-648.3,1897.6-648.3"/>
	<path fill="#313130" d="M1897.6-678c-7,0-12.7,5.7-12.7,12.7c0,7,5.7,12.7,12.7,12.7c7,0,12.7-5.7,12.7-12.7
		C1910.3-672.3,1904.6-678,1897.6-678 M1897.6-657.6c-4.3,0-7.7-3.5-7.7-7.7c0-4.3,3.5-7.7,7.7-7.7c4.3,0,7.7,3.5,7.7,7.7
		C1905.3-661,1901.8-657.6,1897.6-657.6"/>
	<path fill="#313130" d="M1897.6-668.5c-1.8,0-3.2,1.4-3.2,3.2c0,1.8,1.4,3.2,3.2,3.2c1.8,0,3.2-1.4,3.2-3.2
		C1900.8-667.1,1899.3-668.5,1897.6-668.5"/>
	<path fill="#3FB289" d="M1897.6-682.3c9.4,0,17,7.6,17,17c0,9.4-7.6,17-17,17v5c12.1,0,22-9.9,22-22c0-12.1-9.9-22-22-22V-682.3z"
		/>
	<path fill="#3FB289" d="M1897.6-673c4.3,0,7.7,3.5,7.7,7.7c0,4.3-3.5,7.7-7.7,7.7v5c7,0,12.7-5.7,12.7-12.7c0-7-5.7-12.7-12.7-12.7
		V-673z"/>
	<path fill="#3FB289" d="M1897.6-662.1c1.8,0,3.2-1.4,3.2-3.2c0-1.8-1.5-3.2-3.2-3.2V-662.1z"/>
	<path fill="#FFFFFF" d="M1873.1-617.4c0,2.5-2,4.5-4.5,4.5s-4.5-2-4.5-4.5c0-2.5,2-4.5,4.5-4.5S1873.1-619.9,1873.1-617.4"/>
	<path fill="#FFFFFF" d="M1930-617.4c0,2.5-2,4.5-4.5,4.5s-4.5-2-4.5-4.5c0-2.5,2-4.5,4.5-4.5S1930-619.9,1930-617.4"/>
	<path fill="none" stroke="#A9856B" stroke-width="4" stroke-linecap="round" stroke-linejoin="round" stroke-miterlimit="10" d="
		M1883.4-581.4h23.3c0,0,5.3,0,6.7-4.4"/>
	<path fill="#EED3B8" d="M1921.2-599.3c-2.2,0-4.7-0.2-7.1-0.5c-2.4-0.3-4.8-0.5-7-0.5c-2.5,0-9.5,0.5-9.6,6.7l0,0
		c-0.2-6.2-6.8-6.7-9.5-6.7c-2.2,0-4.6,0.3-7,0.5c-2.4,0.3-4.9,0.5-7.1,0.5c-7.1,0-10.9-3.8-11.9-10.1h-0.1v3.1
		c0,8.3,3.7,13.6,12,13.6c2.2,0,4.6-0.2,7.1-0.4c2.4-0.3,4.7-0.5,7-0.5c2.7,0,5,0.6,5.2,6.8h8.6c0.2-6.2,2.7-6.8,5.2-6.8
		c2.2,0,4.6,0.3,7,0.5c2.4,0.3,4.8,0.4,7.1,0.4c8.9,0,12.1-5.6,12.1-13.5v-2.5C1932-603,1928.5-599.3,1921.2-599.3z"/>
	<path fill="#EED3B8" d="M1962.9-399.4c0,7.8-5.5,17.4-12.3,21.3l-40.8,23.6c-6.8,3.9-17.8,3.9-24.5,0l-40.8-23.6
		c-6.8-3.9-12.3-13.5-12.3-21.3v-57.2c0-7.8,5.5-17.4,12.3-21.3l40.8-23.6c6.8-3.9,17.8-3.9,24.5,0l40.8,23.6
		c6.8,3.9,12.3,13.5,12.3,21.3V-399.4z"/>
	<path fill="#484848" d="M1950.7-477.9l-40.8-23.6c-6.8-3.9-17.8-3.9-24.5,0l-40.8,23.6c-6.8,3.9-12.3,13.5-12.3,21.3v57.2
		c0,7.8,5.5,17.4,12.3,21.3l17.9,10.3l0-24.4l35.2,10.3l35.1-9.9l0.1,23.9l17.9-10.3c6.8-3.9,12.3-13.5,12.3-21.3v-57.2
		C1962.9-464.4,1957.4-474,1950.7-477.9"/>
	<path fill="#313130" d="M1897.5-504.3c4.3,0,9,1,12.3,2.9l40.8,23.6c6.8,3.9,12.3,13.5,12.3,21.3v57.2c0,7.8-5.5,17.4-12.3,21.3
		l-17.9,10.3l0-24.1l-35.2,9.2L1897.5-504.3z"/>
	<path fill="#FFFFFF" d="M1873.1-406.5c0,2.5-2,4.5-4.5,4.5s-4.5-2-4.5-4.5c0-2.5,2-4.5,4.5-4.5S1873.1-409,1873.1-406.5"/>
	<path fill="#FFFFFF" d="M1930-406.5c0,2.5-2,4.5-4.5,4.5s-4.5-2-4.5-4.5c0-2.5,2-4.5,4.5-4.5S1930-409,1930-406.5"/>
	<g>
		<path fill="#63BB96" d="M1897.5-476.4c-12.1,0-22,9.9-22,22c0,12.1,9.9,22,22,22c12.1,0,22-9.9,22-22
			C1919.5-466.6,1909.6-476.4,1897.5-476.4 M1897.5-437.4c-9.4,0-17-7.6-17-17c0-9.4,7.6-17,17-17c9.4,0,17,7.6,17,17
			C1914.5-445,1906.8-437.4,1897.5-437.4"/>
		<path fill="#63BB96" d="M1897.5-467.1c-7,0-12.7,5.7-12.7,12.7c0,7,5.7,12.7,12.7,12.7s12.7-5.7,12.7-12.7
			C1910.2-461.4,1904.5-467.1,1897.5-467.1 M1897.5-446.7c-4.3,0-7.7-3.5-7.7-7.7c0-4.3,3.5-7.7,7.7-7.7c4.3,0,7.7,3.5,7.7,7.7
			C1905.2-450.2,1901.7-446.7,1897.5-446.7"/>
		<path fill="#63BB96" d="M1897.5-457.7c-1.8,0-3.2,1.4-3.2,3.2c0,1.8,1.5,3.2,3.2,3.2c1.8,0,3.2-1.4,3.2-3.2
			C1900.7-456.2,1899.2-457.7,1897.5-457.7"/>
	</g>
	<g>
		<path fill="#3FB289" d="M1897.6-471.4c9.4,0,17,7.6,17,17c0,9.4-7.6,17-17,17v5c12.1,0,22-9.9,22-22c0-12.1-9.9-22-22-22V-471.4z"
			/>
		<path fill="#3FB289" d="M1897.6-462.1c4.3,0,7.7,3.5,7.7,7.7c0,4.3-3.5,7.7-7.7,7.7v5c7,0,12.7-5.7,12.7-12.7
			c0-7-5.7-12.7-12.7-12.7V-462.1z"/>
		<path fill="#3FB289" d="M1897.6-451.2c1.8,0,3.2-1.4,3.2-3.2c0-1.8-1.5-3.2-3.2-3.2V-451.2z"/>
	</g>
	<g>
		<path fill="#FFFFFF" d="M1920.9-389.7c-2.2,0-4.6-0.2-7-0.5c-2.4-0.3-4.7-0.5-6.9-0.5c-2.5,0-9.3,0.5-9.5,6.7l0,0
			c-0.2-6.2-6.7-6.7-9.4-6.7c-2.2,0-4.5,0.3-6.9,0.5c-2.4,0.3-4.8,0.5-7,0.5c-7,0-10.7-3.8-11.7-10.1h-0.1v3.1
			c0,8.3,3.6,13.6,11.9,13.6c2.2,0,4.6-0.2,7-0.4c2.4-0.3,4.7-0.5,6.9-0.5c2.6,0,5,0.6,5.2,6.8h8.5c0.2-6.2,2.7-6.8,5.1-6.8
			c2.2,0,4.5,0.3,6.9,0.5c2.4,0.3,4.8,0.4,7,0.4c8.8,0,12-5.6,12-13.5v-2.5C1931.6-393.4,1928.2-389.7,1920.9-389.7z"/>
		<path fill="#D5B69C" d="M1920.9-386.9c-2.2,0-4.6-0.2-7-0.5c-2.4-0.3-4.7-0.5-6.9-0.5c-2.5,0-9.3,0.5-9.5,6.7l0,0
			c-0.2-6.2-6.7-6.7-9.4-6.7c-2.2,0-4.5,0.3-6.9,0.5c-2.4,0.3-4.8,0.5-7,0.5c-7,0-10.7-3.8-11.7-10.1h-0.1v3.1
			c0,8.3,3.6,13.6,11.9,13.6c2.2,0,4.6-0.2,7-0.4c2.4-0.3,4.7-0.5,6.9-0.5c2.6,0,5,0.6,5.2,6.8h8.5c0.2-6.2,2.7-6.8,5.1-6.8
			c2.2,0,4.5,0.3,6.9,0.5c2.4,0.3,4.8,0.4,7,0.4c8.8,0,12-5.6,12-13.5v-2.5C1931.6-390.6,1928.2-386.9,1920.9-386.9z"/>
		<path fill="#EED3B8" d="M1920.9-385.3c-2.2,0-4.6-0.2-7-0.5c-2.4-0.3-4.7-0.5-6.9-0.5c-2.5,0-9.3,0.5-9.5,6.7l0,0
			c-0.2-6.2-6.7-6.7-9.4-6.7c-2.2,0-4.5,0.3-6.9,0.5c-2.4,0.3-4.8,0.5-7,0.5c-7,0-10.7-3.8-11.7-10.1h-0.1v3.1
			c0,8.3,3.6,13.6,11.9,13.6c2.2,0,4.6-0.2,7-0.4c2.4-0.3,4.7-0.5,6.9-0.5c2.6,0,5,0.6,5.2,6.8h8.5c0.2-6.2,2.7-6.8,5.1-6.8
			c2.2,0,4.5,0.3,6.9,0.5c2.4,0.3,4.8,0.4,7,0.4c8.8,0,12-5.6,12-13.5v-2.5C1931.6-389,1928.2-385.3,1920.9-385.3z"/>
	</g>
	<path fill="none" stroke="#A9856B" stroke-width="4" stroke-linecap="round" stroke-linejoin="round" stroke-miterlimit="10" d="
		M1883.4-370.5h23.3c0,0,5.3,0,6.7-4.4"/>
	<g>
		<path id="j" fill="#63BB96" d="M1975.3-416.8l10-6c1.9,3.4,3.7,6.3,7.9,6.3c4,0,6.6-1.6,6.6-7.7v-41.6h12.2v41.8
			c0,12.7-7.4,18.4-18.3,18.4C1983.8-405.7,1978.2-410.7,1975.3-416.8"/>
		<path id="s" fill="#3FB289" d="M2018.5-418.2l10-5.8c2.6,4.3,6,7.4,12.1,7.4c5.1,0,8.3-2.5,8.3-6c0-4.2-3.3-5.7-8.9-8.1l-3.1-1.3
			c-8.8-3.8-14.7-8.5-14.7-18.4c0-9.2,7-16.2,17.9-16.2c7.8,0,13.4,2.7,17.4,9.8l-9.5,6.1c-2.1-3.8-4.4-5.2-7.9-5.2
			c-3.6,0-5.9,2.3-5.9,5.2c0,3.7,2.3,5.2,7.5,7.4l3.1,1.3c10.4,4.5,16.2,9,16.2,19.2c0,11-8.6,17-20.3,17
			C2029.4-405.7,2022.1-411.1,2018.5-418.2"/>
	</g>
	<path fill="#EED3B8" d="M1686.9-399.4c0,7.8-5.5,17.4-12.3,21.3l-40.8,23.6c-6.8,3.9-17.8,3.9-24.5,0l-40.8-23.6
		c-6.8-3.9-12.3-13.5-12.3-21.3v-57.2c0-7.8,5.5-17.4,12.3-21.3l40.8-23.6c6.8-3.9,17.8-3.9,24.5,0l40.8,23.6
		c6.8,3.9,12.3,13.5,12.3,21.3V-399.4z"/>
	<path fill="#484848" d="M1674.7-477.9l-40.8-23.6c-6.8-3.9-17.8-3.9-24.5,0l-40.8,23.6c-6.8,3.9-12.3,13.5-12.3,21.3v57.2
		c0,7.8,5.5,17.4,12.3,21.3l17.9,10.3l0-24.4l35.2,10.3l35.1-9.9l0.1,23.9l17.9-10.3c6.8-3.9,12.3-13.5,12.3-21.3v-57.2
		C1686.9-464.4,1681.4-474,1674.7-477.9"/>
	<path fill="#313130" d="M1621.5-504.3c4.3,0,9,1,12.3,2.9l40.8,23.6c6.8,3.9,12.3,13.5,12.3,21.3v57.2c0,7.8-5.5,17.4-12.3,21.3
		l-17.9,10.3l0-24.1l-35.2,9.2L1621.5-504.3z"/>
	<path fill="#FFFFFF" d="M1597.1-406.5c0,2.5-2,4.5-4.5,4.5s-4.5-2-4.5-4.5c0-2.5,2-4.5,4.5-4.5S1597.1-409,1597.1-406.5"/>
	<path fill="#FFFFFF" d="M1654-406.5c0,2.5-2,4.5-4.5,4.5s-4.5-2-4.5-4.5c0-2.5,2-4.5,4.5-4.5S1654-409,1654-406.5"/>
	<g>
		<path fill="#FFFFFF" d="M1644.9-389.7c-2.2,0-4.6-0.2-7-0.5c-2.4-0.3-4.7-0.5-6.9-0.5c-2.5,0-9.3,0.5-9.5,6.7l0,0
			c-0.2-6.2-6.7-6.7-9.4-6.7c-2.2,0-4.5,0.3-6.9,0.5c-2.4,0.3-4.8,0.5-7,0.5c-7,0-10.7-3.8-11.7-10.1h-0.1v3.1
			c0,8.3,3.6,13.6,11.9,13.6c2.2,0,4.6-0.2,7-0.4c2.4-0.3,4.7-0.5,6.9-0.5c2.6,0,5,0.6,5.2,6.8h8.5c0.2-6.2,2.7-6.8,5.1-6.8
			c2.2,0,4.5,0.3,6.9,0.5c2.4,0.3,4.8,0.4,7,0.4c8.8,0,12-5.6,12-13.5v-2.5C1655.6-393.4,1652.2-389.7,1644.9-389.7z"/>
		<path fill="#D5B69C" d="M1644.9-386.9c-2.2,0-4.6-0.2-7-0.5c-2.4-0.3-4.7-0.5-6.9-0.5c-2.5,0-9.3,0.5-9.5,6.7l0,0
			c-0.2-6.2-6.7-6.7-9.4-6.7c-2.2,0-4.5,0.3-6.9,0.5c-2.4,0.3-4.8,0.5-7,0.5c-7,0-10.7-3.8-11.7-10.1h-0.1v3.1
			c0,8.3,3.6,13.6,11.9,13.6c2.2,0,4.6-0.2,7-0.4c2.4-0.3,4.7-0.5,6.9-0.5c2.6,0,5,0.6,5.2,6.8h8.5c0.2-6.2,2.7-6.8,5.1-6.8
			c2.2,0,4.5,0.3,6.9,0.5c2.4,0.3,4.8,0.4,7,0.4c8.8,0,12-5.6,12-13.5v-2.5C1655.6-390.6,1652.2-386.9,1644.9-386.9z"/>
		<path fill="#EED3B8" d="M1644.9-385.3c-2.2,0-4.6-0.2-7-0.5c-2.4-0.3-4.7-0.5-6.9-0.5c-2.5,0-9.3,0.5-9.5,6.7l0,0
			c-0.2-6.2-6.7-6.7-9.4-6.7c-2.2,0-4.5,0.3-6.9,0.5c-2.4,0.3-4.8,0.5-7,0.5c-7,0-10.7-3.8-11.7-10.1h-0.1v3.1
			c0,8.3,3.6,13.6,11.9,13.6c2.2,0,4.6-0.2,7-0.4c2.4-0.3,4.7-0.5,6.9-0.5c2.6,0,5,0.6,5.2,6.8h8.5c0.2-6.2,2.7-6.8,5.1-6.8
			c2.2,0,4.5,0.3,6.9,0.5c2.4,0.3,4.8,0.4,7,0.4c8.8,0,12-5.6,12-13.5v-2.5C1655.6-389,1652.2-385.3,1644.9-385.3z"/>
	</g>
	<path fill="none" stroke="#A9856B" stroke-width="4" stroke-linecap="round" stroke-linejoin="round" stroke-miterlimit="10" d="
		M1607.4-370.5h23.3c0,0,5.3,0,6.7-4.4"/>
	<g>
		<path id="j_1_" fill="#63BB96" d="M1597.7-439l5.5-3.3c1.1,1.9,2,3.5,4.4,3.5c2.2,0,3.6-0.9,3.6-4.3v-23h6.8v23.1
			c0,7-4.1,10.2-10.1,10.2C1602.4-432.8,1599.3-435.6,1597.7-439"/>
		<path id="s_1_" fill="#3FB289" d="M1621.6-439.7l5.5-3.2c1.5,2.4,3.3,4.1,6.7,4.1c2.8,0,4.6-1.4,4.6-3.3c0-2.3-1.8-3.1-4.9-4.5
			l-1.7-0.7c-4.9-2.1-8.1-4.7-8.1-10.2c0-5.1,3.9-9,9.9-9c4.3,0,7.4,1.5,9.6,5.4l-5.3,3.4c-1.2-2.1-2.4-2.9-4.4-2.9
			c-2,0-3.2,1.3-3.2,2.9c0,2,1.3,2.9,4.2,4.1l1.7,0.7c5.8,2.5,9,5,9,10.6c0,6.1-4.8,9.4-11.2,9.4
			C1627.7-432.8,1623.6-435.8,1621.6-439.7"/>
	</g>
	<path fill="#EED3B8" d="M1686.9-129.1c0,7.8-5.5,17.4-12.3,21.3l-40.8,23.6c-6.8,3.9-17.8,3.9-24.5,0l-40.8-23.6
		c-6.8-3.9-12.3-13.5-12.3-21.3v-57.2c0-7.8,5.5-17.4,12.3-21.3l40.8-23.6c6.8-3.9,17.8-3.9,24.5,0l40.8,23.6
		c6.8,3.9,12.3,13.5,12.3,21.3V-129.1z"/>
	<path fill="#484848" d="M1674.7-207.5l-40.8-23.6c-6.8-3.9-17.8-3.9-24.5,0l-40.8,23.6c-6.8,3.9-12.3,13.5-12.3,21.3v57.2
		c0,7.8,5.5,17.4,12.3,21.3l17.9,10.3l0-24.4l35.2,10.3l35.1-9.9l0.1,23.9l17.9-10.3c6.8-3.9,12.3-13.5,12.3-21.3v-57.2
		C1686.9-194.1,1681.4-203.6,1674.7-207.5"/>
	<path fill="#313130" d="M1621.5-234c4.3,0,9,1,12.3,2.9l40.8,23.6c6.8,3.9,12.3,13.5,12.3,21.3v57.2c0,7.8-5.5,17.4-12.3,21.3
		l-17.9,10.3l0-24.1l-35.2,9.2L1621.5-234z"/>
	<path fill="#FFFFFF" d="M1597.1-136.2c0,2.5-2,4.5-4.5,4.5s-4.5-2-4.5-4.5c0-2.5,2-4.5,4.5-4.5S1597.1-138.7,1597.1-136.2"/>
	<path fill="#FFFFFF" d="M1654-136.2c0,2.5-2,4.5-4.5,4.5s-4.5-2-4.5-4.5c0-2.5,2-4.5,4.5-4.5S1654-138.7,1654-136.2"/>
	<g>
		<path fill="#FFFFFF" d="M1644.9-119.4c-2.2,0-4.6-0.2-7-0.5c-2.4-0.3-4.7-0.5-6.9-0.5c-2.5,0-9.3,0.5-9.5,6.7l0,0
			c-0.2-6.2-6.7-6.7-9.4-6.7c-2.2,0-4.5,0.3-6.9,0.5c-2.4,0.3-4.8,0.5-7,0.5c-7,0-10.7-3.8-11.7-10.1h-0.1v3.1
			c0,8.3,3.6,13.6,11.9,13.6c2.2,0,4.6-0.2,7-0.4c2.4-0.3,4.7-0.5,6.9-0.5c2.6,0,5,0.6,5.2,6.8h8.5c0.2-6.2,2.7-6.8,5.1-6.8
			c2.2,0,4.5,0.3,6.9,0.5c2.4,0.3,4.8,0.4,7,0.4c8.8,0,12-5.6,12-13.5v-2.5C1655.6-123,1652.2-119.4,1644.9-119.4z"/>
		<path fill="#D5B69C" d="M1644.9-116.6c-2.2,0-4.6-0.2-7-0.5c-2.4-0.3-4.7-0.5-6.9-0.5c-2.5,0-9.3,0.5-9.5,6.7l0,0
			c-0.2-6.2-6.7-6.7-9.4-6.7c-2.2,0-4.5,0.3-6.9,0.5c-2.4,0.3-4.8,0.5-7,0.5c-7,0-10.7-3.8-11.7-10.1h-0.1v3.1
			c0,8.3,3.6,13.6,11.9,13.6c2.2,0,4.6-0.2,7-0.4c2.4-0.3,4.7-0.5,6.9-0.5c2.6,0,5,0.6,5.2,6.8h8.5c0.2-6.2,2.7-6.8,5.1-6.8
			c2.2,0,4.5,0.3,6.9,0.5c2.4,0.3,4.8,0.4,7,0.4c8.8,0,12-5.6,12-13.5v-2.5C1655.6-120.3,1652.2-116.6,1644.9-116.6z"/>
		<path fill="#EED3B8" d="M1644.9-115c-2.2,0-4.6-0.2-7-0.5c-2.4-0.3-4.7-0.5-6.9-0.5c-2.5,0-9.3,0.5-9.5,6.7l0,0
			c-0.2-6.2-6.7-6.7-9.4-6.7c-2.2,0-4.5,0.3-6.9,0.5c-2.4,0.3-4.8,0.5-7,0.5c-7,0-10.7-3.8-11.7-10.1h-0.1v3.1
			c0,8.3,3.6,13.6,11.9,13.6c2.2,0,4.6-0.2,7-0.4c2.4-0.3,4.7-0.5,6.9-0.5c2.6,0,5,0.6,5.2,6.8h8.5c0.2-6.2,2.7-6.8,5.1-6.8
			c2.2,0,4.5,0.3,6.9,0.5c2.4,0.3,4.8,0.4,7,0.4c8.8,0,12-5.6,12-13.5v-2.5C1655.6-118.7,1652.2-115,1644.9-115z"/>
	</g>
	<path fill="none" stroke="#A9856B" stroke-width="4" stroke-linecap="round" stroke-linejoin="round" stroke-miterlimit="10" d="
		M1607.4-100.2h23.3c0,0,5.3,0,6.7-4.4"/>
	<g>
		<path id="j_2_" fill="#63BB96" d="M1597.7-168.7l5.5-3.3c1.1,1.9,2,3.5,4.4,3.5c2.2,0,3.6-0.9,3.6-4.3v-23h6.8v23.1
			c0,7-4.1,10.2-10.1,10.2C1602.4-162.5,1599.3-165.3,1597.7-168.7"/>
		<path id="s_2_" fill="#3FB289" d="M1621.6-169.4l5.5-3.2c1.5,2.4,3.3,4.1,6.7,4.1c2.8,0,4.6-1.4,4.6-3.3c0-2.3-1.8-3.1-4.9-4.5
			l-1.7-0.7c-4.9-2.1-8.1-4.7-8.1-10.2c0-5.1,3.9-9,9.9-9c4.3,0,7.4,1.5,9.6,5.4l-5.3,3.4c-1.2-2.1-2.4-2.9-4.4-2.9
			c-2,0-3.2,1.3-3.2,2.9c0,2,1.3,2.9,4.2,4.1l1.7,0.7c5.8,2.5,9,5,9,10.6c0,6.1-4.8,9.4-11.2,9.4
			C1627.7-162.5,1623.6-165.5,1621.6-169.4"/>
	</g>
	<g>
		<rect x="1547.8" y="-71.7" fill="none" width="149.3" height="43.3"/>
		<path fill="#3FB289" d="M1576.1-69.3c-0.1,0.1-0.2,0.2-0.3,0.4c-0.1,0.1-0.2,0.2-0.3,0.4c-0.1-0.1-0.3-0.2-0.5-0.4
			c-0.2-0.1-0.4-0.3-0.7-0.4c-0.3-0.1-0.5-0.2-0.9-0.3c-0.3-0.1-0.7-0.1-1-0.1c-0.5,0-1,0.1-1.3,0.3c-0.4,0.2-0.7,0.4-1,0.7
			s-0.4,0.6-0.6,1c-0.1,0.4-0.2,0.8-0.2,1.2c0,0.4,0.1,0.8,0.2,1.1c0.1,0.3,0.3,0.6,0.6,0.8s0.5,0.4,0.9,0.5
			c0.3,0.2,0.7,0.3,1.1,0.4c0.5,0.2,1,0.3,1.6,0.5c0.6,0.2,1.1,0.5,1.6,0.8c0.5,0.3,0.9,0.8,1.3,1.3s0.5,1.2,0.5,2
			c0,0.6-0.1,1.2-0.4,1.8s-0.6,1-1,1.4c-0.4,0.4-0.9,0.7-1.5,0.9c-0.6,0.2-1.2,0.3-1.8,0.3c-0.6,0-1.1-0.1-1.6-0.2s-0.9-0.3-1.3-0.5
			c-0.4-0.2-0.7-0.5-1-0.7s-0.5-0.5-0.7-0.7l0.6-0.6c0.2,0.2,0.4,0.4,0.7,0.6c0.3,0.2,0.6,0.4,0.9,0.6s0.7,0.3,1,0.5
			c0.4,0.1,0.8,0.2,1.2,0.2c0.5,0,1-0.1,1.4-0.2c0.5-0.2,0.9-0.4,1.2-0.7c0.4-0.3,0.6-0.6,0.8-1c0.2-0.4,0.3-0.9,0.3-1.4
			c0-0.7-0.1-1.2-0.4-1.6c-0.3-0.4-0.7-0.8-1.1-1.1c-0.4-0.3-0.9-0.5-1.4-0.7c-0.5-0.2-1-0.3-1.4-0.5c-0.3-0.1-0.6-0.2-1-0.4
			s-0.7-0.4-1.1-0.6c-0.3-0.3-0.6-0.6-0.9-1s-0.4-0.9-0.4-1.5c0-0.5,0-1,0.2-1.5c0.1-0.5,0.4-0.9,0.7-1.3s0.7-0.7,1.3-1
			c0.5-0.2,1.1-0.4,1.9-0.4c0.6,0,1.1,0.1,1.7,0.3C1574.8-70.2,1575.4-69.9,1576.1-69.3z"/>
		<path fill="#3FB289" d="M1581-70.6h0.9v15.4h-0.9V-70.6z"/>
		<path fill="#3FB289" d="M1585.9-70.6h3.2c1.1,0,2.1,0.2,3,0.5c0.9,0.4,1.8,0.9,2.5,1.5c0.7,0.7,1.3,1.5,1.7,2.4
			c0.4,1,0.6,2,0.6,3.2c0,0.9-0.2,1.8-0.5,2.7c-0.3,0.9-0.8,1.7-1.5,2.5c-0.7,0.7-1.6,1.4-2.6,1.8c-1.1,0.5-2.4,0.7-3.9,0.7h-2.5
			V-70.6z M1586.8-69.7v13.6h1.9c1.2,0,2.3-0.2,3.2-0.6c0.9-0.4,1.7-0.9,2.3-1.5c0.6-0.6,1.1-1.4,1.4-2.2c0.3-0.8,0.5-1.7,0.5-2.5
			c0-1-0.2-2-0.5-2.8c-0.4-0.8-0.9-1.6-1.5-2.2c-0.6-0.6-1.3-1-2.2-1.4c-0.8-0.3-1.7-0.5-2.7-0.5H1586.8z"/>
		<path fill="#3FB289" d="M1600.4-55.2v-15.4h9.1v0.9h-8.2v6.3h7.4v0.9h-7.4v6.4h8.5v0.9H1600.4z"/>
		<path fill="#3FB289" d="M1624-55.2h-1.1c-1.1-1.5-2.3-2.9-3.4-4.3c-1.1-1.4-2.3-2.9-3.4-4.3c-0.3,0.3-0.7,0.6-1,0.9
			c-0.3,0.3-0.6,0.6-0.9,0.9v6.8h-0.9v-15.4h0.9v6.9c0,0.1,0,0.2,0,0.3c0,0.1,0,0.2,0,0.3c0.1-0.1,0.1-0.2,0.2-0.2
			c0.1-0.1,0.1-0.1,0.2-0.2c1.2-1.2,2.5-2.4,3.7-3.6s2.5-2.4,3.7-3.6h1.2l-6.5,6.1c1.2,1.6,2.5,3.1,3.7,4.6
			C1621.5-58.3,1622.8-56.8,1624-55.2z"/>
		<path fill="#3FB289" d="M1627.2-70.6h0.9v15.4h-0.9V-70.6z"/>
		<path fill="#3FB289" d="M1643.1-56.9l0.5,0.7c-0.6,0.3-1.2,0.6-1.9,0.8s-1.4,0.3-2.1,0.3c-1.1,0-2.1-0.2-3.1-0.6
			c-1-0.4-1.8-1-2.5-1.7c-0.7-0.7-1.3-1.5-1.7-2.5c-0.4-1-0.6-2-0.6-3.1c0-1.1,0.2-2.1,0.6-3.1c0.4-1,1-1.8,1.7-2.5
			c0.7-0.7,1.5-1.3,2.5-1.7c1-0.4,2-0.6,3.1-0.6c0.7,0,1.5,0.1,2.1,0.3s1.3,0.5,1.9,0.8c-0.1,0.1-0.2,0.2-0.3,0.4
			c-0.1,0.1-0.2,0.3-0.3,0.4c-0.5-0.3-1.1-0.5-1.7-0.7c-0.6-0.2-1.2-0.3-1.9-0.3c-1,0-1.9,0.2-2.7,0.6c-0.8,0.4-1.6,0.9-2.2,1.5
			c-0.6,0.6-1.1,1.4-1.5,2.2s-0.5,1.8-0.5,2.7c0,1,0.2,1.9,0.5,2.7s0.9,1.6,1.5,2.2c0.6,0.6,1.4,1.1,2.2,1.5
			c0.8,0.4,1.7,0.5,2.7,0.5c0.7,0,1.3-0.1,1.9-0.3C1642-56.3,1642.6-56.6,1643.1-56.9z"/>
		<path fill="#3FB289" d="M1657.4-55.2h-1.1c-1.1-1.5-2.3-2.9-3.4-4.3c-1.1-1.4-2.3-2.9-3.4-4.3c-0.3,0.3-0.7,0.6-1,0.9
			c-0.3,0.3-0.6,0.6-0.9,0.9v6.8h-0.9v-15.4h0.9v6.9c0,0.1,0,0.2,0,0.3c0,0.1,0,0.2,0,0.3c0.1-0.1,0.1-0.2,0.2-0.2
			c0.1-0.1,0.1-0.1,0.2-0.2c1.2-1.2,2.5-2.4,3.7-3.6s2.5-2.4,3.7-3.6h1.2l-6.5,6.1c1.2,1.6,2.5,3.1,3.7,4.6
			C1654.9-58.3,1656.2-56.8,1657.4-55.2z"/>
		<path fill="#3FB289" d="M1658.7-52v-1.7c1-0.1,1.8-0.4,2.5-1c0.7-0.6,1-1.4,1-2.5v-13.4h1.8v13.4c0,0.8-0.1,1.5-0.4,2.2
			c-0.3,0.6-0.6,1.2-1.1,1.6c-0.5,0.4-1,0.8-1.7,1S1659.5-52.1,1658.7-52z"/>
		<path fill="#3FB289" d="M1675.8-69.1c-0.2,0.2-0.3,0.4-0.5,0.7c-0.2,0.2-0.3,0.4-0.5,0.7c-0.1-0.1-0.3-0.2-0.5-0.4
			c-0.2-0.1-0.4-0.3-0.6-0.4c-0.2-0.1-0.5-0.2-0.8-0.3c-0.3-0.1-0.6-0.1-1-0.1c-0.9,0-1.5,0.2-1.9,0.7c-0.4,0.5-0.6,1.1-0.6,1.7
			c0,0.4,0.1,0.7,0.2,0.9c0.1,0.2,0.3,0.5,0.5,0.6s0.5,0.3,0.8,0.4c0.3,0.1,0.6,0.2,0.9,0.3c0.5,0.2,1,0.4,1.6,0.6
			c0.6,0.2,1.1,0.5,1.6,0.9c0.5,0.4,0.9,0.8,1.2,1.4c0.3,0.5,0.5,1.2,0.5,2c0,0.7-0.1,1.3-0.4,1.8s-0.6,1-1,1.4
			c-0.4,0.4-0.9,0.7-1.5,0.9s-1.1,0.3-1.8,0.3c-0.6,0-1.1-0.1-1.6-0.2c-0.5-0.2-1-0.4-1.5-0.6c-0.4-0.2-0.8-0.5-1.2-0.8
			c-0.3-0.3-0.6-0.6-0.8-0.9l1.1-1.1c0.2,0.2,0.4,0.4,0.7,0.6s0.5,0.4,0.9,0.6c0.3,0.2,0.6,0.3,1,0.5c0.4,0.1,0.8,0.2,1.2,0.2
			c0.4,0,0.7-0.1,1.1-0.2c0.4-0.1,0.7-0.3,0.9-0.5s0.5-0.5,0.6-0.8c0.2-0.3,0.2-0.7,0.2-1.1c0-0.6-0.1-1.1-0.4-1.4
			c-0.3-0.4-0.6-0.7-1.1-0.9c-0.4-0.2-0.9-0.4-1.3-0.6c-0.5-0.1-0.9-0.3-1.2-0.4c-0.3-0.1-0.6-0.2-0.9-0.4c-0.4-0.2-0.7-0.4-1-0.7
			c-0.3-0.3-0.6-0.7-0.8-1.1c-0.2-0.4-0.4-1-0.4-1.6c0-0.5,0.1-1,0.2-1.5c0.1-0.5,0.4-0.9,0.7-1.3c0.3-0.4,0.8-0.7,1.3-1
			c0.6-0.2,1.2-0.4,2-0.4c0.6,0,1.2,0.1,1.8,0.3S1675-69.7,1675.8-69.1z"/>
	</g>
	<path fill="#EED3B8" d="M1913.9-129.1c0,7.8-5.5,17.4-12.3,21.3l-40.8,23.6c-6.8,3.9-17.8,3.9-24.5,0l-40.8-23.6
		c-6.8-3.9-12.3-13.5-12.3-21.3v-57.2c0-7.8,5.5-17.4,12.3-21.3l40.8-23.6c6.8-3.9,17.8-3.9,24.5,0l40.8,23.6
		c6.8,3.9,12.3,13.5,12.3,21.3V-129.1z"/>
	<path fill="#484848" d="M1901.6-207.5l-40.8-23.6c-6.8-3.9-17.8-3.9-24.5,0l-40.8,23.6c-6.8,3.9-12.3,13.5-12.3,21.3v57.2
		c0,7.8,5.5,17.4,12.3,21.3l17.9,10.3l0-24.4l35.2,10.3l35.1-9.9l0.1,23.9l17.9-10.3c6.8-3.9,12.3-13.5,12.3-21.3v-57.2
		C1913.9-194.1,1908.4-203.6,1901.6-207.5"/>
	<path fill="#313130" d="M1848.4-234c4.3,0,9,1,12.3,2.9l40.8,23.6c6.8,3.9,12.3,13.5,12.3,21.3v57.2c0,7.8-5.5,17.4-12.3,21.3
		l-17.9,10.3l0-24.1l-35.2,9.2L1848.4-234z"/>
	<path fill="#FFFFFF" d="M1824.1-136.2c0,2.5-2,4.5-4.5,4.5c-2.5,0-4.5-2-4.5-4.5c0-2.5,2-4.5,4.5-4.5
		C1822.1-140.7,1824.1-138.7,1824.1-136.2"/>
	<path fill="#FFFFFF" d="M1880.9-136.2c0,2.5-2,4.5-4.5,4.5s-4.5-2-4.5-4.5c0-2.5,2-4.5,4.5-4.5S1880.9-138.7,1880.9-136.2"/>
	<g>
		<path fill="#FFFFFF" d="M1871.9-120.4c-2.2,0-4.6-0.2-7-0.5c-2.4-0.3-4.7-0.5-6.9-0.5c-2.5,0-9.3,0.5-9.5,6.7l0,0
			c-0.2-6.2-6.7-6.7-9.4-6.7c-2.2,0-4.5,0.3-6.9,0.5c-2.4,0.3-4.8,0.5-7,0.5c-7,0-10.7-3.8-11.7-10.1h-0.1v3.1
			c0,8.3,3.6,13.6,11.9,13.6c2.2,0,4.6-0.2,7-0.4c2.4-0.3,4.7-0.5,6.9-0.5c2.6,0,5,0.6,5.2,6.8h8.5c0.2-6.2,2.7-6.8,5.1-6.8
			c2.2,0,4.5,0.3,6.9,0.5c2.4,0.3,4.8,0.4,7,0.4c8.8,0,12-5.6,12-13.5v-2.5C1882.6-124,1879.1-120.4,1871.9-120.4z"/>
		<path fill="#D5B69C" d="M1871.9-116.6c-2.2,0-4.6-0.2-7-0.5c-2.4-0.3-4.7-0.5-6.9-0.5c-2.5,0-9.3,0.5-9.5,6.7l0,0
			c-0.2-6.2-6.7-6.7-9.4-6.7c-2.2,0-4.5,0.3-6.9,0.5c-2.4,0.3-4.8,0.5-7,0.5c-7,0-10.7-3.8-11.7-10.1h-0.1v3.1
			c0,8.3,3.6,13.6,11.9,13.6c2.2,0,4.6-0.2,7-0.4c2.4-0.3,4.7-0.5,6.9-0.5c2.6,0,5,0.6,5.2,6.8h8.5c0.2-6.2,2.7-6.8,5.1-6.8
			c2.2,0,4.5,0.3,6.9,0.5c2.4,0.3,4.8,0.4,7,0.4c8.8,0,12-5.6,12-13.5v-2.5C1882.6-120.3,1879.1-116.6,1871.9-116.6z"/>
		<path fill="#EED3B8" d="M1871.9-115c-2.2,0-4.6-0.2-7-0.5c-2.4-0.3-4.7-0.5-6.9-0.5c-2.5,0-9.3,0.5-9.5,6.7l0,0
			c-0.2-6.2-6.7-6.7-9.4-6.7c-2.2,0-4.5,0.3-6.9,0.5c-2.4,0.3-4.8,0.5-7,0.5c-7,0-10.7-3.8-11.7-10.1h-0.1v3.1
			c0,8.3,3.6,13.6,11.9,13.6c2.2,0,4.6-0.2,7-0.4c2.4-0.3,4.7-0.5,6.9-0.5c2.6,0,5,0.6,5.2,6.8h8.5c0.2-6.2,2.7-6.8,5.1-6.8
			c2.2,0,4.5,0.3,6.9,0.5c2.4,0.3,4.8,0.4,7,0.4c8.8,0,12-5.6,12-13.5v-2.5C1882.6-118.7,1879.1-115,1871.9-115z"/>
	</g>
	<path fill="none" stroke="#A9856B" stroke-width="4" stroke-linecap="round" stroke-linejoin="round" stroke-miterlimit="10" d="
		M1834.4-100.2h23.3c0,0,5.3,0,6.7-4.4"/>
	<g>
		<path id="j_3_" fill="#63BB96" d="M1824.7-168.7l5.5-3.3c1.1,1.9,2,3.5,4.4,3.5c2.2,0,3.6-0.9,3.6-4.3v-23h6.8v23.1
			c0,7-4.1,10.2-10.1,10.2C1829.4-162.5,1826.2-165.3,1824.7-168.7"/>
		<path id="s_3_" fill="#3FB289" d="M1848.6-169.4l5.5-3.2c1.5,2.4,3.3,4.1,6.7,4.1c2.8,0,4.6-1.4,4.6-3.3c0-2.3-1.8-3.1-4.9-4.5
			l-1.7-0.7c-4.9-2.1-8.1-4.7-8.1-10.2c0-5.1,3.9-9,9.9-9c4.3,0,7.4,1.5,9.6,5.4l-5.3,3.4c-1.2-2.1-2.4-2.9-4.4-2.9
			c-2,0-3.2,1.3-3.2,2.9c0,2,1.3,2.9,4.2,4.1l1.7,0.7c5.8,2.5,9,5,9,10.6c0,6.1-4.8,9.4-11.2,9.4
			C1854.7-162.5,1850.6-165.5,1848.6-169.4"/>
	</g>
	<path fill="#FFFFFF" d="M563.6-261.7c0,3-2.4,5.4-5.4,5.4s-5.4-2.4-5.4-5.4c0-3,2.4-5.4,5.4-5.4S563.6-264.7,563.6-261.7"/>
	<path fill="#FFFFFF" d="M623.4-261.2c0,3.2-2.6,5.9-5.9,5.9s-5.9-2.6-5.9-5.9c0-3.2,2.6-5.9,5.9-5.9S623.4-264.4,623.4-261.2"/>
	<path id="j_7_" fill="#3FB289" d="M564.1-281.3l5.5-3.3c1.1,1.9,2,3.5,4.4,3.5c2.2,0,3.6-0.9,3.6-4.3v-23h6.8v23.1
		c0,7-4.1,10.2-10.1,10.2C568.9-275.1,565.7-277.9,564.1-281.3"/>
	<path id="s_7_" fill="#3FB289" d="M588.1-282l5.5-3.2c1.5,2.4,3.3,4.1,6.7,4.1c2.8,0,4.6-1.4,4.6-3.3c0-2.3-1.8-3.1-4.9-4.5
		l-1.7-0.7c-4.9-2.1-8.1-4.7-8.1-10.2c0-5.1,3.9-9,9.9-9c4.3,0,7.4,1.5,9.6,5.4l-5.3,3.4c-1.2-2.1-2.4-2.9-4.4-2.9
		c-2,0-3.2,1.3-3.2,2.9c0,2,1.3,2.9,4.2,4.1l1.7,0.7c5.8,2.5,9,5,9,10.6c0,6.1-4.8,9.4-11.2,9.4C594.1-275.1,590.1-278.1,588.1-282"
		/>
	<g>
		<rect x="1774.7" y="-71.7" fill="none" width="149.3" height="43.3"/>
		<path fill="#3FB289" d="M1803-69.3c-0.1,0.1-0.2,0.2-0.3,0.4c-0.1,0.1-0.2,0.2-0.3,0.4c-0.1-0.1-0.3-0.2-0.5-0.4
			c-0.2-0.1-0.4-0.3-0.7-0.4c-0.3-0.1-0.5-0.2-0.9-0.3c-0.3-0.1-0.7-0.1-1-0.1c-0.5,0-1,0.1-1.3,0.3c-0.4,0.2-0.7,0.4-1,0.7
			s-0.4,0.6-0.6,1c-0.1,0.4-0.2,0.8-0.2,1.2c0,0.4,0.1,0.8,0.2,1.1c0.1,0.3,0.3,0.6,0.6,0.8s0.5,0.4,0.9,0.5
			c0.3,0.2,0.7,0.3,1.1,0.4c0.5,0.2,1,0.3,1.6,0.5c0.6,0.2,1.1,0.5,1.6,0.8c0.5,0.3,0.9,0.8,1.3,1.3s0.5,1.2,0.5,2
			c0,0.6-0.1,1.2-0.4,1.8s-0.6,1-1,1.4c-0.4,0.4-0.9,0.7-1.5,0.9c-0.6,0.2-1.2,0.3-1.8,0.3c-0.6,0-1.1-0.1-1.6-0.2s-0.9-0.3-1.3-0.5
			c-0.4-0.2-0.7-0.5-1-0.7s-0.5-0.5-0.7-0.7l0.6-0.6c0.2,0.2,0.4,0.4,0.7,0.6c0.3,0.2,0.6,0.4,0.9,0.6s0.7,0.3,1,0.5
			c0.4,0.1,0.8,0.2,1.2,0.2c0.5,0,1-0.1,1.4-0.2c0.5-0.2,0.9-0.4,1.2-0.7c0.4-0.3,0.6-0.6,0.8-1c0.2-0.4,0.3-0.9,0.3-1.4
			c0-0.7-0.1-1.2-0.4-1.6c-0.3-0.4-0.7-0.8-1.1-1.1c-0.4-0.3-0.9-0.5-1.4-0.7c-0.5-0.2-1-0.3-1.4-0.5c-0.3-0.1-0.6-0.2-1-0.4
			s-0.7-0.4-1.1-0.6c-0.3-0.3-0.6-0.6-0.9-1s-0.4-0.9-0.4-1.5c0-0.5,0-1,0.2-1.5c0.1-0.5,0.4-0.9,0.7-1.3s0.7-0.7,1.3-1
			c0.5-0.2,1.1-0.4,1.9-0.4c0.6,0,1.1,0.1,1.7,0.3C1801.8-70.2,1802.4-69.8,1803-69.3z"/>
		<path fill="#3FB289" d="M1808-70.6h0.9v15.4h-0.9V-70.6z"/>
		<path fill="#3FB289" d="M1812.8-70.6h3.2c1.1,0,2.1,0.2,3,0.5c0.9,0.4,1.8,0.9,2.5,1.5c0.7,0.7,1.3,1.5,1.7,2.4
			c0.4,1,0.6,2,0.6,3.2c0,0.9-0.2,1.8-0.5,2.7c-0.3,0.9-0.8,1.7-1.5,2.5c-0.7,0.7-1.6,1.4-2.6,1.8c-1.1,0.5-2.4,0.7-3.9,0.7h-2.5
			V-70.6z M1813.7-69.7v13.6h1.9c1.2,0,2.3-0.2,3.2-0.6c0.9-0.4,1.7-0.9,2.3-1.5c0.6-0.6,1.1-1.4,1.4-2.2c0.3-0.8,0.5-1.7,0.5-2.5
			c0-1-0.2-2-0.5-2.8c-0.4-0.8-0.9-1.6-1.5-2.2c-0.6-0.6-1.3-1-2.2-1.4c-0.8-0.3-1.7-0.5-2.7-0.5H1813.7z"/>
		<path fill="#3FB289" d="M1827.4-55.2v-15.4h9.1v0.9h-8.2v6.3h7.4v0.9h-7.4v6.4h8.5v0.9H1827.4z"/>
		<path fill="#3FB289" d="M1850.9-55.2h-1.1c-1.1-1.5-2.3-2.9-3.4-4.3c-1.1-1.4-2.3-2.9-3.4-4.3c-0.3,0.3-0.7,0.6-1,0.9
			c-0.3,0.3-0.6,0.6-0.9,0.9v6.8h-0.9v-15.4h0.9v6.9c0,0.1,0,0.2,0,0.3c0,0.1,0,0.2,0,0.3c0.1-0.1,0.1-0.2,0.2-0.2
			c0.1-0.1,0.1-0.1,0.2-0.2c1.2-1.2,2.5-2.4,3.7-3.6s2.5-2.4,3.7-3.6h1.2l-6.5,6.1c1.2,1.6,2.5,3.1,3.7,4.6
			C1848.5-58.3,1849.7-56.8,1850.9-55.2z"/>
		<path fill="#3FB289" d="M1854.2-70.6h0.9v15.4h-0.9V-70.6z"/>
		<path fill="#3FB289" d="M1870.1-56.9l0.5,0.7c-0.6,0.3-1.2,0.6-1.9,0.8s-1.4,0.3-2.1,0.3c-1.1,0-2.1-0.2-3.1-0.6
			c-1-0.4-1.8-1-2.5-1.7c-0.7-0.7-1.3-1.5-1.7-2.5c-0.4-1-0.6-2-0.6-3.1c0-1.1,0.2-2.1,0.6-3.1c0.4-1,1-1.8,1.7-2.5
			c0.7-0.7,1.5-1.3,2.5-1.7c1-0.4,2-0.6,3.1-0.6c0.7,0,1.5,0.1,2.1,0.3s1.3,0.5,1.9,0.8c-0.1,0.1-0.2,0.2-0.3,0.4
			c-0.1,0.1-0.2,0.3-0.3,0.4c-0.5-0.3-1.1-0.5-1.7-0.7c-0.6-0.2-1.2-0.3-1.9-0.3c-1,0-1.9,0.2-2.7,0.6c-0.8,0.4-1.6,0.9-2.2,1.5
			c-0.6,0.6-1.1,1.4-1.5,2.2s-0.5,1.8-0.5,2.7c0,1,0.2,1.9,0.5,2.7s0.9,1.6,1.5,2.2c0.6,0.6,1.4,1.1,2.2,1.5
			c0.8,0.4,1.7,0.5,2.7,0.5c0.7,0,1.3-0.1,1.9-0.3C1869-56.3,1869.6-56.6,1870.1-56.9z"/>
		<path fill="#3FB289" d="M1884.3-55.2h-1.1c-1.1-1.5-2.3-2.9-3.4-4.3c-1.1-1.4-2.3-2.9-3.4-4.3c-0.3,0.3-0.7,0.6-1,0.9
			c-0.3,0.3-0.6,0.6-0.9,0.9v6.8h-0.9v-15.4h0.9v6.9c0,0.1,0,0.2,0,0.3c0,0.1,0,0.2,0,0.3c0.1-0.1,0.1-0.2,0.2-0.2
			c0.1-0.1,0.1-0.1,0.2-0.2c1.2-1.2,2.5-2.4,3.7-3.6s2.5-2.4,3.7-3.6h1.2l-6.5,6.1c1.2,1.6,2.5,3.1,3.7,4.6
			C1881.9-58.3,1883.1-56.8,1884.3-55.2z"/>
		<path fill="#3FB289" d="M1885.7-52v-1.7c1-0.1,1.8-0.4,2.5-1c0.7-0.6,1-1.4,1-2.5v-13.4h1.8v13.4c0,0.8-0.1,1.5-0.4,2.2
			c-0.3,0.6-0.6,1.2-1.1,1.6c-0.5,0.4-1,0.8-1.7,1S1886.4-52.1,1885.7-52z"/>
		<path fill="#3FB289" d="M1902.7-69.1c-0.2,0.2-0.3,0.4-0.5,0.7c-0.2,0.2-0.3,0.4-0.5,0.7c-0.1-0.1-0.3-0.2-0.5-0.4
			c-0.2-0.1-0.4-0.3-0.6-0.4c-0.2-0.1-0.5-0.2-0.8-0.3c-0.3-0.1-0.6-0.1-1-0.1c-0.9,0-1.5,0.2-1.9,0.7c-0.4,0.5-0.6,1.1-0.6,1.7
			c0,0.4,0.1,0.7,0.2,0.9c0.1,0.2,0.3,0.5,0.5,0.6s0.5,0.3,0.8,0.4c0.3,0.1,0.6,0.2,0.9,0.3c0.5,0.2,1,0.4,1.6,0.6
			c0.6,0.2,1.1,0.5,1.6,0.9c0.5,0.4,0.9,0.8,1.2,1.4c0.3,0.5,0.5,1.2,0.5,2c0,0.7-0.1,1.3-0.4,1.8s-0.6,1-1,1.4
			c-0.4,0.4-0.9,0.7-1.5,0.9s-1.1,0.3-1.8,0.3c-0.6,0-1.1-0.1-1.6-0.2c-0.5-0.2-1-0.4-1.5-0.6c-0.4-0.2-0.8-0.5-1.2-0.8
			c-0.3-0.3-0.6-0.6-0.8-0.9l1.1-1.1c0.2,0.2,0.4,0.4,0.7,0.6s0.5,0.4,0.9,0.6c0.3,0.2,0.6,0.3,1,0.5c0.4,0.1,0.8,0.2,1.2,0.2
			c0.4,0,0.7-0.1,1.1-0.2c0.4-0.1,0.7-0.3,0.9-0.5s0.5-0.5,0.6-0.8c0.2-0.3,0.2-0.7,0.2-1.1c0-0.6-0.1-1.1-0.4-1.4
			c-0.3-0.4-0.6-0.7-1.1-0.9c-0.4-0.2-0.9-0.4-1.3-0.6c-0.5-0.1-0.9-0.3-1.2-0.4c-0.3-0.1-0.6-0.2-0.9-0.4c-0.4-0.2-0.7-0.4-1-0.7
			c-0.3-0.3-0.6-0.7-0.8-1.1c-0.2-0.4-0.4-1-0.4-1.6c0-0.5,0.1-1,0.2-1.5c0.1-0.5,0.4-0.9,0.7-1.3c0.3-0.4,0.8-0.7,1.3-1
			c0.6-0.2,1.2-0.4,2-0.4c0.6,0,1.2,0.1,1.8,0.3S1901.9-69.7,1902.7-69.1z"/>
	</g>
	<path fill="#EED3B8" d="M408.4,94.6c0,7.8-5.5,17.4-12.3,21.3l-40.8,23.6c-6.8,3.9-17.8,3.9-24.5,0l-40.8-23.6
		c-6.8-3.9-12.3-13.5-12.3-21.3V37.4c0-7.8,5.5-17.4,12.3-21.3l40.8-23.6c6.8-3.9,17.8-3.9,24.5,0l40.8,23.6
		c6.8,3.9,12.3,13.5,12.3,21.3V94.6z"/>
	<path fill="#313130" d="M396.2,16.2L355.3-7.4c-6.8-3.9-17.8-3.9-24.5,0l-40.8,23.6c-6.8,3.9-12.3,13.5-12.3,21.3v57.2
		c0,7.8,5.5,17.4,12.3,21.3l17.9,10.3l0-24.4l35.2,10.3l35.1-9.9l0.1,23.9l17.9-10.3c6.8-3.9,12.3-13.5,12.3-21.3V37.4
		C408.4,29.6,402.9,20.1,396.2,16.2"/>
	<path fill="#0E0E0E" d="M343-10.3c4.3,0,9,1,12.3,2.9l40.8,23.6c6.8,3.9,12.3,13.5,12.3,21.3v57.2c0,7.8-5.5,17.4-12.3,21.3
		l-17.9,10.3l0-24.1l-35.2,9.2L343-10.3z"/>
	<path fill="#FFFFFF" d="M319.5,84.1c0,2.7-2.2,4.9-4.9,4.9c-2.7,0-4.9-2.2-4.9-4.9c0-2.7,2.2-4.9,4.9-4.9
		C317.3,79.1,319.5,81.3,319.5,84.1"/>
	<path fill="#FFFFFF" d="M377.8,84.1c0,2.7-2.2,4.9-4.9,4.9s-4.9-2.2-4.9-4.9c0-2.7,2.2-4.9,4.9-4.9S377.8,81.3,377.8,84.1"/>
	<path fill="#FFFFFF" d="M366.4,103.4c-2.2,0-4.6-0.2-7-0.5c-2.4-0.3-4.7-0.5-6.9-0.5c-2.5,0-9.3,0.5-9.5,6.7l0,0
		c-0.2-6.2-6.7-6.7-9.4-6.7c-2.2,0-4.5,0.3-6.9,0.5c-2.4,0.3-4.8,0.5-7,0.5c-7,0-10.7-3.8-11.7-10.1h-0.1v3.1
		c0,8.3,3.6,13.6,11.9,13.6c2.2,0,4.6-0.2,7-0.4c2.4-0.3,4.7-0.5,6.9-0.5c2.6,0,5,0.6,5.2,6.8h8.5c0.2-6.2,2.7-6.8,5.1-6.8
		c2.2,0,4.5,0.3,6.9,0.5c2.4,0.3,4.8,0.4,7,0.4c8.8,0,12-5.6,12-13.5V94C377.1,99.7,373.6,103.4,366.4,103.4z"/>
	<path fill="#EED3B8" d="M366.4,108.7c-2.2,0-4.6-0.2-7-0.5c-2.4-0.3-4.7-0.5-6.9-0.5c-2.5,0-9.3,0.5-9.5,6.7l0,0
		c-0.2-6.2-6.7-6.7-9.4-6.7c-2.2,0-4.5,0.3-6.9,0.5c-2.4,0.3-4.8,0.5-7,0.5c-7,0-10.7-3.8-11.7-10.1h-0.1v3.1
		c0,8.3,3.6,13.6,11.9,13.6c2.2,0,4.6-0.2,7-0.4c2.4-0.3,4.7-0.5,6.9-0.5c2.6,0,5,0.6,5.2,6.8h8.5c0.2-6.2,2.7-6.8,5.1-6.8
		c2.2,0,4.5,0.3,6.9,0.5c2.4,0.3,4.8,0.4,7,0.4c8.8,0,12-5.6,12-13.5v-2.5C377.1,105,373.6,108.7,366.4,108.7z"/>
	<g>
		<path id="j_9_" fill="#3FB289" d="M319.2,55l5.5-3.3c1.1,1.9,2,3.5,4.4,3.5c2.2,0,3.6-0.9,3.6-4.3v-23h6.8V51
			c0,7-4.1,10.2-10.1,10.2C323.9,61.2,320.8,58.4,319.2,55"/>
		<path id="s_9_" fill="#3FB289" d="M343.1,54.3l5.5-3.2c1.5,2.4,3.3,4.1,6.7,4.1c2.8,0,4.6-1.4,4.6-3.3c0-2.3-1.8-3.1-4.9-4.5
			l-1.7-0.7c-4.9-2.1-8.1-4.7-8.1-10.2c0-5.1,3.9-9,9.9-9c4.3,0,7.4,1.5,9.6,5.4l-5.3,3.4c-1.2-2.1-2.4-2.9-4.4-2.9
			c-2,0-3.2,1.3-3.2,2.9c0,2,1.3,2.9,4.2,4.1l1.7,0.7c5.8,2.5,9,5,9,10.6c0,6.1-4.8,9.4-11.2,9.4C349.2,61.2,345.1,58.2,343.1,54.3"
			/>
	</g>
	<g>
		<path fill="#EED3B8" d="M648.9,23c0,7.8-5.5,17.4-12.3,21.3l-40.8,23.6c-6.8,3.9-17.8,3.9-24.5,0l-40.8-23.6
			c-6.8-3.9-12.3-13.5-12.3-21.3v-57.2c0-7.8,5.5-17.4,12.3-21.3L571.3-79c6.8-3.9,17.8-3.9,24.5,0l40.8,23.6
			c6.8,3.9,12.3,13.5,12.3,21.3V23z"/>
		<path fill="#484848" d="M636.7-55.4L595.8-79c-6.8-3.9-17.8-3.9-24.5,0l-40.8,23.6c-6.8,3.9-12.3,13.5-12.3,21.3V23
			c0,7.8,5.5,17.4,12.3,21.3l17.9,10.3l0-24.4l35.2,10.3l35.1-9.9l0.1,23.9l17.9-10.3c6.8-3.9,12.3-13.5,12.3-21.3v-57.2
			C648.9-41.9,643.4-51.5,636.7-55.4"/>
		<path fill="#313130" d="M583.4-81.8c4.3,0,9,1,12.3,2.9l40.8,23.6c6.8,3.9,12.3,13.5,12.3,21.3v57.2c0,7.8-5.5,17.4-12.3,21.3
			l-17.9,10.3l0-24.1l-35.2,9.2L583.4-81.8z"/>
		<path fill="#FFFFFF" d="M559.1,15.9c0,2.5-2,4.5-4.5,4.5s-4.5-2-4.5-4.5c0-2.5,2-4.5,4.5-4.5S559.1,13.5,559.1,15.9"/>
		<path fill="#FFFFFF" d="M615.9,15.9c0,2.5-2,4.5-4.5,4.5s-4.5-2-4.5-4.5c0-2.5,2-4.5,4.5-4.5S615.9,13.5,615.9,15.9"/>
		<g>
			<path fill="#FFFFFF" d="M606.9,31.8c-2.2,0-4.6-0.2-7-0.5c-2.4-0.3-4.7-0.5-6.9-0.5c-2.5,0-9.3,0.5-9.5,6.7l0,0
				c-0.2-6.2-6.7-6.7-9.4-6.7c-2.2,0-4.5,0.3-6.9,0.5c-2.4,0.3-4.8,0.5-7,0.5c-7,0-10.7-3.8-11.7-10.1h-0.1v3.1
				c0,8.3,3.6,13.6,11.9,13.6c2.2,0,4.6-0.2,7-0.4c2.4-0.3,4.7-0.5,6.9-0.5c2.6,0,5,0.6,5.2,6.8h8.5c0.2-6.2,2.7-6.8,5.1-6.8
				c2.2,0,4.5,0.3,6.9,0.5c2.4,0.3,4.8,0.4,7,0.4c8.8,0,12-5.6,12-13.5v-2.5C617.6,28.1,614.1,31.8,606.9,31.8z"/>
			<path fill="#D5B69C" d="M606.9,35.6c-2.2,0-4.6-0.2-7-0.5c-2.4-0.3-4.7-0.5-6.9-0.5c-2.5,0-9.3,0.5-9.5,6.7l0,0
				c-0.2-6.2-6.7-6.7-9.4-6.7c-2.2,0-4.5,0.3-6.9,0.5c-2.4,0.3-4.8,0.5-7,0.5c-7,0-10.7-3.8-11.7-10.1h-0.1v3.1
				c0,8.3,3.6,13.6,11.9,13.6c2.2,0,4.6-0.2,7-0.4c2.4-0.3,4.7-0.5,6.9-0.5c2.6,0,5,0.6,5.2,6.8h8.5c0.2-6.2,2.7-6.8,5.1-6.8
				c2.2,0,4.5,0.3,6.9,0.5c2.4,0.3,4.8,0.4,7,0.4c8.8,0,12-5.6,12-13.5v-2.5C617.6,31.9,614.1,35.6,606.9,35.6z"/>
			<path fill="#EED3B8" d="M606.9,37.2c-2.2,0-4.6-0.2-7-0.5c-2.4-0.3-4.7-0.5-6.9-0.5c-2.5,0-9.3,0.5-9.5,6.7l0,0
				c-0.2-6.2-6.7-6.7-9.4-6.7c-2.2,0-4.5,0.3-6.9,0.5c-2.4,0.3-4.8,0.5-7,0.5c-7,0-10.7-3.8-11.7-10.1h-0.1v3.1
				c0,8.3,3.6,13.6,11.9,13.6c2.2,0,4.6-0.2,7-0.4c2.4-0.3,4.7-0.5,6.9-0.5c2.6,0,5,0.6,5.2,6.8h8.5c0.2-6.2,2.7-6.8,5.1-6.8
				c2.2,0,4.5,0.3,6.9,0.5c2.4,0.3,4.8,0.4,7,0.4c8.8,0,12-5.6,12-13.5v-2.5C617.6,33.5,614.1,37.2,606.9,37.2z"/>
		</g>
		<path fill="none" stroke="#A9856B" stroke-width="4" stroke-linecap="round" stroke-linejoin="round" stroke-miterlimit="10" d="
			M569.4,51.9h23.3c0,0,5.3,0,6.7-4.4"/>
		<g>
			<path id="j_8_" fill="#63BB96" d="M559.7-16.5l5.5-3.3c1.1,1.9,2,3.5,4.4,3.5c2.2,0,3.6-0.9,3.6-4.3v-23h6.8v23.1
				c0,7-4.1,10.2-10.1,10.2C564.4-10.3,561.3-13.1,559.7-16.5"/>
			<path id="s_8_" fill="#3FB289" d="M583.6-17.3l5.5-3.2c1.5,2.4,3.3,4.1,6.7,4.1c2.8,0,4.6-1.4,4.6-3.3c0-2.3-1.8-3.1-4.9-4.5
				l-1.7-0.7c-4.9-2.1-8.1-4.7-8.1-10.2c0-5.1,3.9-9,9.9-9c4.3,0,7.4,1.5,9.6,5.4l-5.3,3.4c-1.2-2.1-2.4-2.9-4.4-2.9
				c-2,0-3.2,1.3-3.2,2.9c0,2,1.3,2.9,4.2,4.1l1.7,0.7c5.8,2.5,9,5,9,10.6c0,6.1-4.8,9.4-11.2,9.4C589.7-10.3,585.6-13.3,583.6-17.3
				"/>
		</g>
		<g>
			<rect x="509.7" y="80.5" fill="none" width="149.3" height="43.3"/>
			<path fill="#3FB289" d="M538.1,82.9c-0.1,0.1-0.2,0.2-0.3,0.4c-0.1,0.1-0.2,0.2-0.3,0.4c-0.1-0.1-0.3-0.2-0.5-0.4
				c-0.2-0.1-0.4-0.3-0.7-0.4c-0.3-0.1-0.5-0.2-0.9-0.3c-0.3-0.1-0.7-0.1-1-0.1c-0.5,0-1,0.1-1.3,0.3c-0.4,0.2-0.7,0.4-1,0.7
				s-0.4,0.6-0.6,1c-0.1,0.4-0.2,0.8-0.2,1.2c0,0.4,0.1,0.8,0.2,1.1c0.1,0.3,0.3,0.6,0.6,0.8s0.5,0.4,0.9,0.5
				c0.3,0.2,0.7,0.3,1.1,0.4c0.5,0.2,1,0.3,1.6,0.5c0.6,0.2,1.1,0.5,1.6,0.8c0.5,0.3,0.9,0.8,1.3,1.3s0.5,1.2,0.5,2
				c0,0.6-0.1,1.2-0.4,1.8s-0.6,1-1,1.4c-0.4,0.4-0.9,0.7-1.5,0.9c-0.6,0.2-1.2,0.3-1.8,0.3c-0.6,0-1.1-0.1-1.6-0.2
				s-0.9-0.3-1.3-0.5c-0.4-0.2-0.7-0.5-1-0.7s-0.5-0.5-0.7-0.7l0.6-0.6c0.2,0.2,0.4,0.4,0.7,0.6c0.3,0.2,0.6,0.4,0.9,0.6
				s0.7,0.3,1,0.5c0.4,0.1,0.8,0.2,1.2,0.2c0.5,0,1-0.1,1.4-0.2c0.5-0.2,0.9-0.4,1.2-0.7c0.4-0.3,0.6-0.6,0.8-1
				c0.2-0.4,0.3-0.9,0.3-1.4c0-0.7-0.1-1.2-0.4-1.6c-0.3-0.4-0.7-0.8-1.1-1.1c-0.4-0.3-0.9-0.5-1.4-0.7c-0.5-0.2-1-0.3-1.4-0.5
				c-0.3-0.1-0.6-0.2-1-0.4s-0.7-0.4-1.1-0.6c-0.3-0.3-0.6-0.6-0.9-1s-0.4-0.9-0.4-1.5c0-0.5,0-1,0.2-1.5c0.1-0.5,0.4-0.9,0.7-1.3
				s0.7-0.7,1.3-1c0.5-0.2,1.1-0.4,1.9-0.4c0.6,0,1.1,0.1,1.7,0.3C536.8,81.9,537.4,82.3,538.1,82.9z"/>
			<path fill="#3FB289" d="M543,81.6h0.9V97H543V81.6z"/>
			<path fill="#3FB289" d="M547.8,81.6h3.2c1.1,0,2.1,0.2,3,0.5c0.9,0.4,1.8,0.9,2.5,1.5c0.7,0.7,1.3,1.5,1.7,2.4
				c0.4,1,0.6,2,0.6,3.2c0,0.9-0.2,1.8-0.5,2.7c-0.3,0.9-0.8,1.7-1.5,2.5c-0.7,0.7-1.6,1.4-2.6,1.8c-1.1,0.5-2.4,0.7-3.9,0.7h-2.5
				V81.6z M548.7,82.4v13.6h1.9c1.2,0,2.3-0.2,3.2-0.6c0.9-0.4,1.7-0.9,2.3-1.5c0.6-0.6,1.1-1.4,1.4-2.2c0.3-0.8,0.5-1.7,0.5-2.5
				c0-1-0.2-2-0.5-2.8c-0.4-0.8-0.9-1.6-1.5-2.2c-0.6-0.6-1.3-1-2.2-1.4c-0.8-0.3-1.7-0.5-2.7-0.5H548.7z"/>
			<path fill="#3FB289" d="M562.4,97V81.6h9.1v0.9h-8.2v6.3h7.4v0.9h-7.4v6.4h8.5V97H562.4z"/>
			<path fill="#3FB289" d="M586,97h-1.1c-1.1-1.5-2.3-2.9-3.4-4.3c-1.1-1.4-2.3-2.9-3.4-4.3c-0.3,0.3-0.7,0.6-1,0.9
				c-0.3,0.3-0.6,0.6-0.9,0.9V97h-0.9V81.6h0.9v6.9c0,0.1,0,0.2,0,0.3c0,0.1,0,0.2,0,0.3c0.1-0.1,0.1-0.2,0.2-0.2
				c0.1-0.1,0.1-0.1,0.2-0.2c1.2-1.2,2.5-2.4,3.7-3.6s2.5-2.4,3.7-3.6h1.2l-6.5,6.1c1.2,1.6,2.5,3.1,3.7,4.6
				C583.5,93.9,584.7,95.4,586,97z"/>
			<path fill="#3FB289" d="M589.2,81.6h0.9V97h-0.9V81.6z"/>
			<path fill="#3FB289" d="M605.1,95.3l0.5,0.7c-0.6,0.3-1.2,0.6-1.9,0.8s-1.4,0.3-2.1,0.3c-1.1,0-2.1-0.2-3.1-0.6
				c-1-0.4-1.8-1-2.5-1.7c-0.7-0.7-1.3-1.5-1.7-2.5c-0.4-1-0.6-2-0.6-3.1c0-1.1,0.2-2.1,0.6-3.1c0.4-1,1-1.8,1.7-2.5
				c0.7-0.7,1.5-1.3,2.5-1.7c1-0.4,2-0.6,3.1-0.6c0.7,0,1.5,0.1,2.1,0.3s1.3,0.5,1.9,0.8c-0.1,0.1-0.2,0.2-0.3,0.4
				c-0.1,0.1-0.2,0.3-0.3,0.4c-0.5-0.3-1.1-0.5-1.7-0.7c-0.6-0.2-1.2-0.3-1.9-0.3c-1,0-1.9,0.2-2.7,0.6c-0.8,0.4-1.6,0.9-2.2,1.5
				c-0.6,0.6-1.1,1.4-1.5,2.2s-0.5,1.8-0.5,2.7c0,1,0.2,1.9,0.5,2.7s0.9,1.6,1.5,2.2c0.6,0.6,1.4,1.1,2.2,1.5
				c0.8,0.4,1.7,0.5,2.7,0.5c0.7,0,1.3-0.1,1.9-0.3C604,95.8,604.6,95.6,605.1,95.3z"/>
			<path fill="#3FB289" d="M619.4,97h-1.1c-1.1-1.5-2.3-2.9-3.4-4.3c-1.1-1.4-2.3-2.9-3.4-4.3c-0.3,0.3-0.7,0.6-1,0.9
				c-0.3,0.3-0.6,0.6-0.9,0.9V97h-0.9V81.6h0.9v6.9c0,0.1,0,0.2,0,0.3c0,0.1,0,0.2,0,0.3c0.1-0.1,0.1-0.2,0.2-0.2
				c0.1-0.1,0.1-0.1,0.2-0.2c1.2-1.2,2.5-2.4,3.7-3.6s2.5-2.4,3.7-3.6h1.2l-6.5,6.1c1.2,1.6,2.5,3.1,3.7,4.6
				C616.9,93.9,618.1,95.4,619.4,97z"/>
			<path fill="#3FB289" d="M620.7,100.1v-1.7c1-0.1,1.8-0.4,2.5-1c0.7-0.6,1-1.4,1-2.5V81.6h1.8V95c0,0.8-0.1,1.5-0.4,2.2
				c-0.3,0.6-0.6,1.2-1.1,1.6c-0.5,0.4-1,0.8-1.7,1S621.5,100.1,620.7,100.1z"/>
			<path fill="#3FB289" d="M637.7,83.1c-0.2,0.2-0.3,0.4-0.5,0.7c-0.2,0.2-0.3,0.4-0.5,0.7c-0.1-0.1-0.3-0.2-0.5-0.4
				c-0.2-0.1-0.4-0.3-0.6-0.4c-0.2-0.1-0.5-0.2-0.8-0.3c-0.3-0.1-0.6-0.1-1-0.1c-0.9,0-1.5,0.2-1.9,0.7c-0.4,0.5-0.6,1.1-0.6,1.7
				c0,0.4,0.1,0.7,0.2,0.9c0.1,0.2,0.3,0.5,0.5,0.6s0.5,0.3,0.8,0.4c0.3,0.1,0.6,0.2,0.9,0.3c0.5,0.2,1,0.4,1.6,0.6
				c0.6,0.2,1.1,0.5,1.6,0.9c0.5,0.4,0.9,0.8,1.2,1.4c0.3,0.5,0.5,1.2,0.5,2c0,0.7-0.1,1.3-0.4,1.8s-0.6,1-1,1.4
				c-0.4,0.4-0.9,0.7-1.5,0.9s-1.1,0.3-1.8,0.3c-0.6,0-1.1-0.1-1.6-0.2c-0.5-0.2-1-0.4-1.5-0.6c-0.4-0.2-0.8-0.5-1.2-0.8
				c-0.3-0.3-0.6-0.6-0.8-0.9l1.1-1.1c0.2,0.2,0.4,0.4,0.7,0.6s0.5,0.4,0.9,0.6c0.3,0.2,0.6,0.3,1,0.5c0.4,0.1,0.8,0.2,1.2,0.2
				c0.4,0,0.7-0.1,1.1-0.2c0.4-0.1,0.7-0.3,0.9-0.5s0.5-0.5,0.6-0.8c0.2-0.3,0.2-0.7,0.2-1.1c0-0.6-0.1-1.1-0.4-1.4
				c-0.3-0.4-0.6-0.7-1.1-0.9c-0.4-0.2-0.9-0.4-1.3-0.6c-0.5-0.1-0.9-0.3-1.2-0.4c-0.3-0.1-0.6-0.2-0.9-0.4c-0.4-0.2-0.7-0.4-1-0.7
				c-0.3-0.3-0.6-0.7-0.8-1.1c-0.2-0.4-0.4-1-0.4-1.6c0-0.5,0.1-1,0.2-1.5c0.1-0.5,0.4-0.9,0.7-1.3c0.3-0.4,0.8-0.7,1.3-1
				c0.6-0.2,1.2-0.4,2-0.4c0.6,0,1.2,0.1,1.8,0.3S637,82.4,637.7,83.1z"/>
		</g>
	</g>
	<g>
		<path fill="#EED3B8" d="M143.9,118.3c0,7.8-5.5,17.4-12.3,21.3l-40.8,23.6c-6.8,3.9-17.8,3.9-24.5,0l-40.8-23.6
			c-6.8-3.9-12.3-13.5-12.3-21.3V61.1c0-7.8,5.5-17.4,12.3-21.3l40.8-23.6c6.8-3.9,17.8-3.9,24.5,0l40.8,23.6
			c6.8,3.9,12.3,13.5,12.3,21.3V118.3z"/>
		<path fill="#484848" d="M131.7,39.8L90.8,16.3c-6.8-3.9-17.8-3.9-24.5,0L25.4,39.8c-6.8,3.9-12.3,13.5-12.3,21.3v57.2
			c0,7.8,5.5,17.4,12.3,21.3l17.9,10.3l0-24.4l35.2,10.3l35.1-9.9l0.1,23.9l17.9-10.3c6.8-3.9,12.3-13.5,12.3-21.3V61.1
			C143.9,53.3,138.4,43.7,131.7,39.8"/>
		<path fill="#313130" d="M78.4,13.4c4.3,0,9,1,12.3,2.9l40.8,23.6c6.8,3.9,12.3,13.5,12.3,21.3v57.2c0,7.8-5.5,17.4-12.3,21.3
			l-17.9,10.3l0-24.1L78.4,135L78.4,13.4z"/>
		<path fill="#FFFFFF" d="M54.1,111.2c0,2.5-2,4.5-4.5,4.5c-2.5,0-4.5-2-4.5-4.5c0-2.5,2-4.5,4.5-4.5
			C52.1,106.7,54.1,108.7,54.1,111.2"/>
		<path fill="#FFFFFF" d="M110.9,111.2c0,2.5-2,4.5-4.5,4.5c-2.5,0-4.5-2-4.5-4.5c0-2.5,2-4.5,4.5-4.5
			C108.9,106.7,110.9,108.7,110.9,111.2"/>
		<g>
			<path fill="#FFFFFF" d="M101.9,127c-2.2,0-4.6-0.2-7-0.5c-2.4-0.3-4.7-0.5-6.9-0.5c-2.5,0-9.3,0.5-9.5,6.7l0,0
				c-0.2-6.2-6.7-6.7-9.4-6.7c-2.2,0-4.5,0.3-6.9,0.5c-2.4,0.3-4.8,0.5-7,0.5c-7,0-10.7-3.8-11.7-10.1h-0.1v3.1
				c0,8.3,3.6,13.6,11.9,13.6c2.2,0,4.6-0.2,7-0.4c2.4-0.3,4.7-0.5,6.9-0.5c2.6,0,5,0.6,5.2,6.8h8.5c0.2-6.2,2.7-6.8,5.1-6.8
				c2.2,0,4.5,0.3,6.9,0.5c2.4,0.3,4.8,0.4,7,0.4c8.8,0,12-5.6,12-13.5v-2.5C112.6,123.3,109.1,127,101.9,127z"/>
			<path fill="#D5B69C" d="M101.9,130.8c-2.2,0-4.6-0.2-7-0.5c-2.4-0.3-4.7-0.5-6.9-0.5c-2.5,0-9.3,0.5-9.5,6.7l0,0
				c-0.2-6.2-6.7-6.7-9.4-6.7c-2.2,0-4.5,0.3-6.9,0.5c-2.4,0.3-4.8,0.5-7,0.5c-7,0-10.7-3.8-11.7-10.1h-0.1v3.1
				c0,8.3,3.6,13.6,11.9,13.6c2.2,0,4.6-0.2,7-0.4c2.4-0.3,4.7-0.5,6.9-0.5c2.6,0,5,0.6,5.2,6.8h8.5c0.2-6.2,2.7-6.8,5.1-6.8
				c2.2,0,4.5,0.3,6.9,0.5c2.4,0.3,4.8,0.4,7,0.4c8.8,0,12-5.6,12-13.5v-2.5C112.6,127.1,109.1,130.8,101.9,130.8z"/>
			<path fill="#EED3B8" d="M101.9,132.4c-2.2,0-4.6-0.2-7-0.5c-2.4-0.3-4.7-0.5-6.9-0.5c-2.5,0-9.3,0.5-9.5,6.7l0,0
				c-0.2-6.2-6.7-6.7-9.4-6.7c-2.2,0-4.5,0.3-6.9,0.5c-2.4,0.3-4.8,0.5-7,0.5c-7,0-10.7-3.8-11.7-10.1h-0.1v3.1
				c0,8.3,3.6,13.6,11.9,13.6c2.2,0,4.6-0.2,7-0.4c2.4-0.3,4.7-0.5,6.9-0.5c2.6,0,5,0.6,5.2,6.8h8.5c0.2-6.2,2.7-6.8,5.1-6.8
				c2.2,0,4.5,0.3,6.9,0.5c2.4,0.3,4.8,0.4,7,0.4c8.8,0,12-5.6,12-13.5V123C112.6,128.7,109.1,132.4,101.9,132.4z"/>
		</g>
		<path fill="none" stroke="#A9856B" stroke-width="4" stroke-linecap="round" stroke-linejoin="round" stroke-miterlimit="10" d="
			M64.4,147.2h23.3c0,0,5.3,0,6.7-4.4"/>
		<g>
			<path id="j_11_" fill="#63BB96" d="M54.7,78.7l5.5-3.3c1.1,1.9,2,3.5,4.4,3.5c2.2,0,3.6-0.9,3.6-4.3v-23h6.8v23.1
				c0,7-4.1,10.2-10.1,10.2C59.4,84.9,56.3,82.1,54.7,78.7"/>
			<path id="s_11_" fill="#3FB289" d="M78.6,78l5.5-3.2c1.5,2.4,3.3,4.1,6.7,4.1c2.8,0,4.6-1.4,4.6-3.3c0-2.3-1.8-3.1-4.9-4.5
				l-1.7-0.7c-4.9-2.1-8.1-4.7-8.1-10.2c0-5.1,3.9-9,9.9-9c4.3,0,7.4,1.5,9.6,5.4L94.9,60c-1.2-2.1-2.4-2.9-4.4-2.9
				c-2,0-3.2,1.3-3.2,2.9c0,2,1.3,2.9,4.2,4.1l1.7,0.7c5.8,2.5,9,5,9,10.6c0,6.1-4.8,9.4-11.2,9.4C84.7,84.9,80.6,81.9,78.6,78"/>
		</g>
	</g>
	<g>
		<path fill="#DADCDB" d="M1386.9-212.1l-28.7-16.6l-15.9-9.2c-7.4-4.3-19.5-4.3-26.8,0l-15.6,9l-29.1,16.8
			c-7.4,4.3-13.4,14.7-13.4,23.2v62.5c0,4.7,1.8,10,4.7,14.5c1.5,2.4,3.3,4.5,5.3,6.3c1.1,1,2.2,1.8,3.4,2.5l44.6,25.8
			c7.4,4.3,19.5,4.3,26.8,0l44.6-25.8c2-1.1,3.9-2.7,5.5-4.6c3.3-3.6,5.8-8.3,7-12.9c0.4-1.3,0.6-2.6,0.7-3.9
			c0.1-0.6,0.1-1.2,0.1-1.8v-62.5v0C1400.3-197.4,1394.3-207.8,1386.9-212.1z"/>
		<g>
			<path fill="#DADCDB" d="M1257.4-52.5c0,5.5,4.5,10,10,10h122.9c5.5,0,10-4.5,10-10v-73.7c0-5.5-4.5-10-10-10h-122.9
				c-5.5,0-10,4.5-10,10V-52.5z"/>
		</g>
	</g>
	<g>
		<path fill="#EED3B8" d="M1394.3-129.6c0,7.8-5.5,17.4-12.3,21.3l-40.8,23.6c-6.8,3.9-17.8,3.9-24.5,0l-40.8-23.6
			c-6.8-3.9-12.3-13.5-12.3-21.3v-57.2c0-7.8,5.5-17.4,12.3-21.3l40.8-23.6c6.8-3.9,17.8-3.9,24.5,0l40.8,23.6
			c6.8,3.9,12.3,13.5,12.3,21.3V-129.6z"/>
		<path fill="#484848" d="M1382-208.1l-40.8-23.6c-6.8-3.9-17.8-3.9-24.5,0l-40.8,23.6c-6.8,3.9-12.3,13.5-12.3,21.3v57.2
			c0,7.8,5.5,17.4,12.3,21.3l17.9,10.3l0-24.4l35.2,10.3l35.1-9.9l0.1,23.9l17.9-10.3c6.8-3.9,12.3-13.5,12.3-21.3v-57.2
			C1394.3-194.6,1388.8-204.2,1382-208.1"/>
		<path fill="#313130" d="M1328.8-234.5c4.3,0,9,1,12.3,2.9l40.8,23.6c6.8,3.9,12.3,13.5,12.3,21.3v57.2c0,7.8-5.5,17.4-12.3,21.3
			L1364-98l0-24.1l-35.2,9.2L1328.8-234.5z"/>
		<path fill="#FFFFFF" d="M1304.5-136.7c0,2.5-2,4.5-4.5,4.5s-4.5-2-4.5-4.5c0-2.5,2-4.5,4.5-4.5S1304.5-139.2,1304.5-136.7"/>
		<path fill="#FFFFFF" d="M1361.3-136.7c0,2.5-2,4.5-4.5,4.5c-2.5,0-4.5-2-4.5-4.5c0-2.5,2-4.5,4.5-4.5
			C1359.3-141.2,1361.3-139.2,1361.3-136.7"/>
		<g>
			<path fill="#FFFFFF" d="M1352.3-120.9c-2.2,0-4.6-0.2-7-0.5c-2.4-0.3-4.7-0.5-6.9-0.5c-2.5,0-9.3,0.5-9.5,6.7l0,0
				c-0.2-6.2-6.7-6.7-9.4-6.7c-2.2,0-4.5,0.3-6.9,0.5c-2.4,0.3-4.8,0.5-7,0.5c-7,0-10.7-3.8-11.7-10.1h-0.1v3.1
				c0,8.3,3.6,13.6,11.9,13.6c2.2,0,4.6-0.2,7-0.4c2.4-0.3,4.7-0.5,6.9-0.5c2.6,0,5,0.6,5.2,6.8h8.5c0.2-6.2,2.7-6.8,5.1-6.8
				c2.2,0,4.5,0.3,6.9,0.5c2.4,0.3,4.8,0.4,7,0.4c8.8,0,12-5.6,12-13.5v-2.5C1362.9-124.6,1359.5-120.9,1352.3-120.9z"/>
			<path fill="#D5B69C" d="M1352.3-117.1c-2.2,0-4.6-0.2-7-0.5c-2.4-0.3-4.7-0.5-6.9-0.5c-2.5,0-9.3,0.5-9.5,6.7l0,0
				c-0.2-6.2-6.7-6.7-9.4-6.7c-2.2,0-4.5,0.3-6.9,0.5c-2.4,0.3-4.8,0.5-7,0.5c-7,0-10.7-3.8-11.7-10.1h-0.1v3.1
				c0,8.3,3.6,13.6,11.9,13.6c2.2,0,4.6-0.2,7-0.4c2.4-0.3,4.7-0.5,6.9-0.5c2.6,0,5,0.6,5.2,6.8h8.5c0.2-6.2,2.7-6.8,5.1-6.8
				c2.2,0,4.5,0.3,6.9,0.5c2.4,0.3,4.8,0.4,7,0.4c8.8,0,12-5.6,12-13.5v-2.5C1362.9-120.8,1359.5-117.1,1352.3-117.1z"/>
			<path fill="#EED3B8" d="M1352.3-115.5c-2.2,0-4.6-0.2-7-0.5c-2.4-0.3-4.7-0.5-6.9-0.5c-2.5,0-9.3,0.5-9.5,6.7l0,0
				c-0.2-6.2-6.7-6.7-9.4-6.7c-2.2,0-4.5,0.3-6.9,0.5c-2.4,0.3-4.8,0.5-7,0.5c-7,0-10.7-3.8-11.7-10.1h-0.1v3.1
				c0,8.3,3.6,13.6,11.9,13.6c2.2,0,4.6-0.2,7-0.4c2.4-0.3,4.7-0.5,6.9-0.5c2.6,0,5,0.6,5.2,6.8h8.5c0.2-6.2,2.7-6.8,5.1-6.8
				c2.2,0,4.5,0.3,6.9,0.5c2.4,0.3,4.8,0.4,7,0.4c8.8,0,12-5.6,12-13.5v-2.5C1362.9-119.2,1359.5-115.5,1352.3-115.5z"/>
		</g>
		<path fill="none" stroke="#A9856B" stroke-width="4" stroke-linecap="round" stroke-linejoin="round" stroke-miterlimit="10" d="
			M1314.7-100.8h23.3c0,0,5.3,0,6.7-4.4"/>
		<g>
			<path id="j_4_" fill="#63BB96" d="M1305-169.2l5.5-3.3c1.1,1.9,2,3.5,4.4,3.5c2.2,0,3.6-0.9,3.6-4.3v-23h6.8v23.1
				c0,7-4.1,10.2-10.1,10.2C1309.8-163,1306.6-165.8,1305-169.2"/>
			<path id="s_4_" fill="#3FB289" d="M1329-169.9l5.5-3.2c1.5,2.4,3.3,4.1,6.7,4.1c2.8,0,4.6-1.4,4.6-3.3c0-2.3-1.8-3.1-4.9-4.5
				l-1.7-0.7c-4.9-2.1-8.1-4.7-8.1-10.2c0-5.1,3.9-9,9.9-9c4.3,0,7.4,1.5,9.6,5.4l-5.3,3.4c-1.2-2.1-2.4-2.9-4.4-2.9
				c-2,0-3.2,1.3-3.2,2.9c0,2,1.3,2.9,4.2,4.1l1.7,0.7c5.8,2.5,9,5,9,10.6c0,6.1-4.8,9.4-11.2,9.4C1335-163,1331-166,1329-169.9"/>
		</g>
	</g>
	<g>
		<rect x="1254.2" y="-72.2" fill="none" width="149.3" height="43.3"/>
		<path fill="#3FB289" d="M1282.6-69.8c-0.1,0.1-0.2,0.2-0.3,0.4c-0.1,0.1-0.2,0.2-0.3,0.4c-0.1-0.1-0.3-0.2-0.5-0.4
			c-0.2-0.1-0.4-0.3-0.7-0.4c-0.3-0.1-0.5-0.2-0.9-0.3c-0.3-0.1-0.7-0.1-1-0.1c-0.5,0-1,0.1-1.3,0.3c-0.4,0.2-0.7,0.4-1,0.7
			s-0.4,0.6-0.6,1c-0.1,0.4-0.2,0.8-0.2,1.2c0,0.4,0.1,0.8,0.2,1.1c0.1,0.3,0.3,0.6,0.6,0.8s0.5,0.4,0.9,0.5
			c0.3,0.2,0.7,0.3,1.1,0.4c0.5,0.2,1,0.3,1.6,0.5c0.6,0.2,1.1,0.5,1.6,0.8c0.5,0.3,0.9,0.8,1.3,1.3s0.5,1.2,0.5,2
			c0,0.6-0.1,1.2-0.4,1.8s-0.6,1-1,1.4c-0.4,0.4-0.9,0.7-1.5,0.9c-0.6,0.2-1.2,0.3-1.8,0.3c-0.6,0-1.1-0.1-1.6-0.2s-0.9-0.3-1.3-0.5
			c-0.4-0.2-0.7-0.5-1-0.7s-0.5-0.5-0.7-0.7l0.6-0.6c0.2,0.2,0.4,0.4,0.7,0.6c0.3,0.2,0.6,0.4,0.9,0.6s0.7,0.3,1,0.5
			c0.4,0.1,0.8,0.2,1.2,0.2c0.5,0,1-0.1,1.4-0.2c0.5-0.2,0.9-0.4,1.2-0.7c0.4-0.3,0.6-0.6,0.8-1c0.2-0.4,0.3-0.9,0.3-1.4
			c0-0.7-0.1-1.2-0.4-1.6c-0.3-0.4-0.7-0.8-1.1-1.1c-0.4-0.3-0.9-0.5-1.4-0.7c-0.5-0.2-1-0.3-1.4-0.5c-0.3-0.1-0.6-0.2-1-0.4
			s-0.7-0.4-1.1-0.6c-0.3-0.3-0.6-0.6-0.9-1s-0.4-0.9-0.4-1.5c0-0.5,0-1,0.2-1.5c0.1-0.5,0.4-0.9,0.7-1.3s0.7-0.7,1.3-1
			c0.5-0.2,1.1-0.4,1.9-0.4c0.6,0,1.1,0.1,1.7,0.3C1281.3-70.7,1281.9-70.4,1282.6-69.8z"/>
		<path fill="#3FB289" d="M1287.5-71.1h0.9v15.4h-0.9V-71.1z"/>
		<path fill="#3FB289" d="M1292.3-71.1h3.2c1.1,0,2.1,0.2,3,0.5c0.9,0.4,1.8,0.9,2.5,1.5c0.7,0.7,1.3,1.5,1.7,2.4
			c0.4,1,0.6,2,0.6,3.2c0,0.9-0.2,1.8-0.5,2.7c-0.3,0.9-0.8,1.7-1.5,2.5c-0.7,0.7-1.6,1.4-2.6,1.8c-1.1,0.5-2.4,0.7-3.9,0.7h-2.5
			V-71.1z M1293.2-70.2v13.6h1.9c1.2,0,2.3-0.2,3.2-0.6c0.9-0.4,1.7-0.9,2.3-1.5c0.6-0.6,1.1-1.4,1.4-2.2c0.3-0.8,0.5-1.7,0.5-2.5
			c0-1-0.2-2-0.5-2.8c-0.4-0.8-0.9-1.6-1.5-2.2c-0.6-0.6-1.3-1-2.2-1.4c-0.8-0.3-1.7-0.5-2.7-0.5H1293.2z"/>
		<path fill="#3FB289" d="M1306.9-55.7v-15.4h9.1v0.9h-8.2v6.3h7.4v0.9h-7.4v6.4h8.5v0.9H1306.9z"/>
		<path fill="#3FB289" d="M1330.5-55.7h-1.1c-1.1-1.5-2.3-2.9-3.4-4.3c-1.1-1.4-2.3-2.9-3.4-4.3c-0.3,0.3-0.7,0.6-1,0.9
			c-0.3,0.3-0.6,0.6-0.9,0.9v6.8h-0.9v-15.4h0.9v6.9c0,0.1,0,0.2,0,0.3c0,0.1,0,0.2,0,0.3c0.1-0.1,0.1-0.2,0.2-0.2
			c0.1-0.1,0.1-0.1,0.2-0.2c1.2-1.2,2.5-2.4,3.7-3.6s2.5-2.4,3.7-3.6h1.2l-6.5,6.1c1.2,1.6,2.5,3.1,3.7,4.6
			C1328-58.8,1329.2-57.3,1330.5-55.7z"/>
		<path fill="#3FB289" d="M1333.7-71.1h0.9v15.4h-0.9V-71.1z"/>
		<path fill="#3FB289" d="M1349.6-57.4l0.5,0.7c-0.6,0.3-1.2,0.6-1.9,0.8s-1.4,0.3-2.1,0.3c-1.1,0-2.1-0.2-3.1-0.6
			c-1-0.4-1.8-1-2.5-1.7c-0.7-0.7-1.3-1.5-1.7-2.5c-0.4-1-0.6-2-0.6-3.1c0-1.1,0.2-2.1,0.6-3.1c0.4-1,1-1.8,1.7-2.5
			c0.7-0.7,1.5-1.3,2.5-1.7c1-0.4,2-0.6,3.1-0.6c0.7,0,1.5,0.1,2.1,0.3s1.3,0.5,1.9,0.8c-0.1,0.1-0.2,0.2-0.3,0.4
			c-0.1,0.1-0.2,0.3-0.3,0.4c-0.5-0.3-1.1-0.5-1.7-0.7c-0.6-0.2-1.2-0.3-1.9-0.3c-1,0-1.9,0.2-2.7,0.6c-0.8,0.4-1.6,0.9-2.2,1.5
			c-0.6,0.6-1.1,1.4-1.5,2.2s-0.5,1.8-0.5,2.7c0,1,0.2,1.9,0.5,2.7s0.9,1.6,1.5,2.2c0.6,0.6,1.4,1.1,2.2,1.5
			c0.8,0.4,1.7,0.5,2.7,0.5c0.7,0,1.3-0.1,1.9-0.3C1348.5-56.9,1349.1-57.1,1349.6-57.4z"/>
		<path fill="#3FB289" d="M1363.8-55.7h-1.1c-1.1-1.5-2.3-2.9-3.4-4.3c-1.1-1.4-2.3-2.9-3.4-4.3c-0.3,0.3-0.7,0.6-1,0.9
			c-0.3,0.3-0.6,0.6-0.9,0.9v6.8h-0.9v-15.4h0.9v6.9c0,0.1,0,0.2,0,0.3c0,0.1,0,0.2,0,0.3c0.1-0.1,0.1-0.2,0.2-0.2
			c0.1-0.1,0.1-0.1,0.2-0.2c1.2-1.2,2.5-2.4,3.7-3.6s2.5-2.4,3.7-3.6h1.2l-6.5,6.1c1.2,1.6,2.5,3.1,3.7,4.6
			C1361.4-58.8,1362.6-57.3,1363.8-55.7z"/>
		<path fill="#3FB289" d="M1365.2-52.6v-1.7c1-0.1,1.8-0.4,2.5-1c0.7-0.6,1-1.4,1-2.5v-13.4h1.8v13.4c0,0.8-0.1,1.5-0.4,2.2
			c-0.3,0.6-0.6,1.2-1.1,1.6c-0.5,0.4-1,0.8-1.7,1S1365.9-52.6,1365.2-52.6z"/>
		<path fill="#3FB289" d="M1382.2-69.6c-0.2,0.2-0.3,0.4-0.5,0.7c-0.2,0.2-0.3,0.4-0.5,0.7c-0.1-0.1-0.3-0.2-0.5-0.4
			c-0.2-0.1-0.4-0.3-0.6-0.4c-0.2-0.1-0.5-0.2-0.8-0.3c-0.3-0.1-0.6-0.1-1-0.1c-0.9,0-1.5,0.2-1.9,0.7c-0.4,0.5-0.6,1.1-0.6,1.7
			c0,0.4,0.1,0.7,0.2,0.9c0.1,0.2,0.3,0.5,0.5,0.6s0.5,0.3,0.8,0.4c0.3,0.1,0.6,0.2,0.9,0.3c0.5,0.2,1,0.4,1.6,0.6
			c0.6,0.2,1.1,0.5,1.6,0.9c0.5,0.4,0.9,0.8,1.2,1.4c0.3,0.5,0.5,1.2,0.5,2c0,0.7-0.1,1.3-0.4,1.8s-0.6,1-1,1.4
			c-0.4,0.4-0.9,0.7-1.5,0.9s-1.1,0.3-1.8,0.3c-0.6,0-1.1-0.1-1.6-0.2c-0.5-0.2-1-0.4-1.5-0.6c-0.4-0.2-0.8-0.5-1.2-0.8
			c-0.3-0.3-0.6-0.6-0.8-0.9l1.1-1.1c0.2,0.2,0.4,0.4,0.7,0.6s0.5,0.4,0.9,0.6c0.3,0.2,0.6,0.3,1,0.5c0.4,0.1,0.8,0.2,1.2,0.2
			c0.4,0,0.7-0.1,1.1-0.2c0.4-0.1,0.7-0.3,0.9-0.5s0.5-0.5,0.6-0.8c0.2-0.3,0.2-0.7,0.2-1.1c0-0.6-0.1-1.1-0.4-1.4
			c-0.3-0.4-0.6-0.7-1.1-0.9c-0.4-0.2-0.9-0.4-1.3-0.6c-0.5-0.1-0.9-0.3-1.2-0.4c-0.3-0.1-0.6-0.2-0.9-0.4c-0.4-0.2-0.7-0.4-1-0.7
			c-0.3-0.3-0.6-0.7-0.8-1.1c-0.2-0.4-0.4-1-0.4-1.6c0-0.5,0.1-1,0.2-1.5c0.1-0.5,0.4-0.9,0.7-1.3c0.3-0.4,0.8-0.7,1.3-1
			c0.6-0.2,1.2-0.4,2-0.4c0.6,0,1.2,0.1,1.8,0.3S1381.4-70.3,1382.2-69.6z"/>
	</g>
	<path fill="#EED3B8" d="M359.2-129.6c0,7.8-5.5,17.4-12.3,21.3l-40.8,23.6c-6.8,3.9-17.8,3.9-24.5,0l-40.8-23.6
		c-6.8-3.9-12.3-13.5-12.3-21.3v-57.2c0-7.8,5.5-17.4,12.3-21.3l40.8-23.6c6.8-3.9,17.8-3.9,24.5,0l40.8,23.6
		c6.8,3.9,12.3,13.5,12.3,21.3V-129.6z"/>
	<path fill="#242626" d="M346.9-208.1l-40.8-23.6c-6.8-3.9-17.8-3.9-24.5,0l-40.8,23.6c-6.8,3.9-12.3,13.5-12.3,21.3v57.2
		c0,7.8,5.5,17.4,12.3,21.3l17.9,10.3l0-24.4l35.2,10.3l35.1-9.9l0.1,23.9l17.9-10.3c6.8-3.9,12.3-13.5,12.3-21.3v-57.2
		C359.2-194.6,353.6-204.2,346.9-208.1"/>
	<path fill="#0E0E0E" d="M293.7-234.5c4.3,0,9,1,12.3,2.9l40.8,23.6c6.8,3.9,12.3,13.5,12.3,21.3v57.2c0,7.8-5.5,17.4-12.3,21.3
		L328.9-98l0-24.1l-35.2,9.2L293.7-234.5z"/>
	<path fill="#FFFFFF" d="M269.3-136.7c0,2.5-2,4.5-4.5,4.5c-2.5,0-4.5-2-4.5-4.5c0-2.5,2-4.5,4.5-4.5
		C267.3-141.2,269.3-139.2,269.3-136.7"/>
	<path fill="#FFFFFF" d="M326.2-136.7c0,2.5-2,4.5-4.5,4.5c-2.5,0-4.5-2-4.5-4.5c0-2.5,2-4.5,4.5-4.5
		C324.2-141.2,326.2-139.2,326.2-136.7"/>
	<g>
		<path fill="#FFFFFF" d="M317.2-120.9c-2.2,0-4.6-0.2-7-0.5c-2.4-0.3-4.7-0.5-6.9-0.5c-2.5,0-9.3,0.5-9.5,6.7l0,0
			c-0.2-6.2-6.7-6.7-9.4-6.7c-2.2,0-4.5,0.3-6.9,0.5c-2.4,0.3-4.8,0.5-7,0.5c-7,0-10.7-3.8-11.7-10.1h-0.1v3.1
			c0,8.3,3.6,13.6,11.9,13.6c2.2,0,4.6-0.2,7-0.4c2.4-0.3,4.7-0.5,6.9-0.5c2.6,0,5,0.6,5.2,6.8h8.5c0.2-6.2,2.7-6.8,5.1-6.8
			c2.2,0,4.5,0.3,6.9,0.5c2.4,0.3,4.8,0.4,7,0.4c8.8,0,12-5.6,12-13.5v-2.5C327.8-124.6,324.4-120.9,317.2-120.9z"/>
		<path fill="#D5B69C" d="M317.2-117.1c-2.2,0-4.6-0.2-7-0.5c-2.4-0.3-4.7-0.5-6.9-0.5c-2.5,0-9.3,0.5-9.5,6.7l0,0
			c-0.2-6.2-6.7-6.7-9.4-6.7c-2.2,0-4.5,0.3-6.9,0.5c-2.4,0.3-4.8,0.5-7,0.5c-7,0-10.7-3.8-11.7-10.1h-0.1v3.1
			c0,8.3,3.6,13.6,11.9,13.6c2.2,0,4.6-0.2,7-0.4c2.4-0.3,4.7-0.5,6.9-0.5c2.6,0,5,0.6,5.2,6.8h8.5c0.2-6.2,2.7-6.8,5.1-6.8
			c2.2,0,4.5,0.3,6.9,0.5c2.4,0.3,4.8,0.4,7,0.4c8.8,0,12-5.6,12-13.5v-2.5C327.8-120.8,324.4-117.1,317.2-117.1z"/>
		<path fill="#EED3B8" d="M317.2-115.5c-2.2,0-4.6-0.2-7-0.5c-2.4-0.3-4.7-0.5-6.9-0.5c-2.5,0-9.3,0.5-9.5,6.7l0,0
			c-0.2-6.2-6.7-6.7-9.4-6.7c-2.2,0-4.5,0.3-6.9,0.5c-2.4,0.3-4.8,0.5-7,0.5c-7,0-10.7-3.8-11.7-10.1h-0.1v3.1
			c0,8.3,3.6,13.6,11.9,13.6c2.2,0,4.6-0.2,7-0.4c2.4-0.3,4.7-0.5,6.9-0.5c2.6,0,5,0.6,5.2,6.8h8.5c0.2-6.2,2.7-6.8,5.1-6.8
			c2.2,0,4.5,0.3,6.9,0.5c2.4,0.3,4.8,0.4,7,0.4c8.8,0,12-5.6,12-13.5v-2.5C327.8-119.2,324.4-115.5,317.2-115.5z"/>
	</g>
	<path fill="none" stroke="#A9856B" stroke-width="4" stroke-linecap="round" stroke-linejoin="round" stroke-miterlimit="10" d="
		M279.6-100.8H303c0,0,5.3,0,6.7-4.4"/>
	<path fill="none" stroke="#774E31" stroke-width="6" stroke-linecap="round" stroke-linejoin="round" stroke-miterlimit="10" d="
		M572.1-223.6h23.3c0,0,10.6,0,10.5-10.2"/>
	<g>
		<path id="j_5_" fill="#63BB96" d="M269.9-169.2l5.5-3.3c1.1,1.9,2,3.5,4.4,3.5c2.2,0,3.6-0.9,3.6-4.3v-23h6.8v23.1
			c0,7-4.1,10.2-10.1,10.2C274.7-163,271.5-165.8,269.9-169.2"/>
		<path id="s_5_" fill="#3FB289" d="M293.9-169.9l5.5-3.2c1.5,2.4,3.3,4.1,6.7,4.1c2.8,0,4.6-1.4,4.6-3.3c0-2.3-1.8-3.1-4.9-4.5
			l-1.7-0.7c-4.9-2.1-8.1-4.7-8.1-10.2c0-5.1,3.9-9,9.9-9c4.3,0,7.4,1.5,9.6,5.4l-5.3,3.4c-1.2-2.1-2.4-2.9-4.4-2.9
			c-2,0-3.2,1.3-3.2,2.9c0,2,1.3,2.9,4.2,4.1l1.7,0.7c5.8,2.5,9,5,9,10.6c0,6.1-4.8,9.4-11.2,9.4C299.9-163,295.8-166,293.9-169.9"
			/>
	</g>
	<g>
		<path fill="#3FB289" d="M247.4-69.8c-0.1,0.1-0.2,0.2-0.3,0.4c-0.1,0.1-0.2,0.2-0.3,0.4c-0.1-0.1-0.3-0.2-0.5-0.4
			c-0.2-0.1-0.4-0.3-0.7-0.4c-0.3-0.1-0.5-0.2-0.9-0.3c-0.3-0.1-0.7-0.1-1-0.1c-0.5,0-1,0.1-1.3,0.3c-0.4,0.2-0.7,0.4-1,0.7
			s-0.4,0.6-0.6,1c-0.1,0.4-0.2,0.8-0.2,1.2c0,0.4,0.1,0.8,0.2,1.1c0.1,0.3,0.3,0.6,0.6,0.8s0.5,0.4,0.9,0.5
			c0.3,0.2,0.7,0.3,1.1,0.4c0.5,0.2,1,0.3,1.6,0.5c0.6,0.2,1.1,0.5,1.6,0.8c0.5,0.3,0.9,0.8,1.3,1.3s0.5,1.2,0.5,2
			c0,0.6-0.1,1.2-0.4,1.8s-0.6,1-1,1.4c-0.4,0.4-0.9,0.7-1.5,0.9c-0.6,0.2-1.2,0.3-1.8,0.3c-0.6,0-1.1-0.1-1.6-0.2s-0.9-0.3-1.3-0.5
			c-0.4-0.2-0.7-0.5-1-0.7s-0.5-0.5-0.7-0.7l0.6-0.6c0.2,0.2,0.4,0.4,0.7,0.6c0.3,0.2,0.6,0.4,0.9,0.6s0.7,0.3,1,0.5
			c0.4,0.1,0.8,0.2,1.2,0.2c0.5,0,1-0.1,1.4-0.2c0.5-0.2,0.9-0.4,1.2-0.7c0.4-0.3,0.6-0.6,0.8-1c0.2-0.4,0.3-0.9,0.3-1.4
			c0-0.7-0.1-1.2-0.4-1.6c-0.3-0.4-0.7-0.8-1.1-1.1c-0.4-0.3-0.9-0.5-1.4-0.7c-0.5-0.2-1-0.3-1.4-0.5c-0.3-0.1-0.6-0.2-1-0.4
			s-0.7-0.4-1.1-0.6c-0.3-0.3-0.6-0.6-0.9-1s-0.4-0.9-0.4-1.5c0-0.5,0-1,0.2-1.5c0.1-0.5,0.4-0.9,0.7-1.3s0.7-0.7,1.3-1
			c0.5-0.2,1.1-0.4,1.9-0.4c0.6,0,1.1,0.1,1.7,0.3C246.2-70.7,246.8-70.4,247.4-69.8z"/>
		<path fill="#3FB289" d="M252.4-71.1h0.9v15.4h-0.9V-71.1z"/>
		<path fill="#3FB289" d="M257.2-71.1h3.2c1.1,0,2.1,0.2,3,0.5c0.9,0.4,1.8,0.9,2.5,1.5c0.7,0.7,1.3,1.5,1.7,2.4
			c0.4,1,0.6,2,0.6,3.2c0,0.9-0.2,1.8-0.5,2.7c-0.3,0.9-0.8,1.7-1.5,2.5c-0.7,0.7-1.6,1.4-2.6,1.8c-1.1,0.5-2.4,0.7-3.9,0.7h-2.5
			V-71.1z M258.1-70.2v13.6h1.9c1.2,0,2.3-0.2,3.2-0.6c0.9-0.4,1.7-0.9,2.3-1.5c0.6-0.6,1.1-1.4,1.4-2.2c0.3-0.8,0.5-1.7,0.5-2.5
			c0-1-0.2-2-0.5-2.8c-0.4-0.8-0.9-1.6-1.5-2.2c-0.6-0.6-1.3-1-2.2-1.4c-0.8-0.3-1.7-0.5-2.7-0.5H258.1z"/>
		<path fill="#3FB289" d="M271.8-55.7v-15.4h9.1v0.9h-8.2v6.3h7.4v0.9h-7.4v6.4h8.5v0.9H271.8z"/>
		<path fill="#3FB289" d="M295.3-55.7h-1.1c-1.1-1.5-2.3-2.9-3.4-4.3c-1.1-1.4-2.3-2.9-3.4-4.3c-0.3,0.3-0.7,0.6-1,0.9
			c-0.3,0.3-0.6,0.6-0.9,0.9v6.8h-0.9v-15.4h0.9v6.9c0,0.1,0,0.2,0,0.3c0,0.1,0,0.2,0,0.3c0.1-0.1,0.1-0.2,0.2-0.2
			c0.1-0.1,0.1-0.1,0.2-0.2c1.2-1.2,2.5-2.4,3.7-3.6s2.5-2.4,3.7-3.6h1.2L288-65c1.2,1.6,2.5,3.1,3.7,4.6
			C292.9-58.8,294.1-57.3,295.3-55.7z"/>
		<path fill="#3FB289" d="M298.6-71.1h0.9v15.4h-0.9V-71.1z"/>
		<path fill="#3FB289" d="M314.5-57.4l0.5,0.7c-0.6,0.3-1.2,0.6-1.9,0.8s-1.4,0.3-2.1,0.3c-1.1,0-2.1-0.2-3.1-0.6
			c-1-0.4-1.8-1-2.5-1.7c-0.7-0.7-1.3-1.5-1.7-2.5c-0.4-1-0.6-2-0.6-3.1c0-1.1,0.2-2.1,0.6-3.1c0.4-1,1-1.8,1.7-2.5
			c0.7-0.7,1.5-1.3,2.5-1.7c1-0.4,2-0.6,3.1-0.6c0.7,0,1.5,0.1,2.1,0.3s1.3,0.5,1.9,0.8c-0.1,0.1-0.2,0.2-0.3,0.4
			c-0.1,0.1-0.2,0.3-0.3,0.4c-0.5-0.3-1.1-0.5-1.7-0.7c-0.6-0.2-1.2-0.3-1.9-0.3c-1,0-1.9,0.2-2.7,0.6c-0.8,0.4-1.6,0.9-2.2,1.5
			c-0.6,0.6-1.1,1.4-1.5,2.2s-0.5,1.8-0.5,2.7c0,1,0.2,1.9,0.5,2.7s0.9,1.6,1.5,2.2c0.6,0.6,1.4,1.1,2.2,1.5
			c0.8,0.4,1.7,0.5,2.7,0.5c0.7,0,1.3-0.1,1.9-0.3C313.4-56.9,313.9-57.1,314.5-57.4z"/>
		<path fill="#3FB289" d="M328.7-55.7h-1.1c-1.1-1.5-2.3-2.9-3.4-4.3c-1.1-1.4-2.3-2.9-3.4-4.3c-0.3,0.3-0.7,0.6-1,0.9
			c-0.3,0.3-0.6,0.6-0.9,0.9v6.8H318v-15.4h0.9v6.9c0,0.1,0,0.2,0,0.3c0,0.1,0,0.2,0,0.3c0.1-0.1,0.1-0.2,0.2-0.2
			c0.1-0.1,0.1-0.1,0.2-0.2c1.2-1.2,2.5-2.4,3.7-3.6s2.5-2.4,3.7-3.6h1.2l-6.5,6.1c1.2,1.6,2.5,3.1,3.7,4.6
			C326.3-58.8,327.5-57.3,328.7-55.7z"/>
		<path fill="#3FB289" d="M330.1-52.6v-1.7c1-0.1,1.8-0.4,2.5-1c0.7-0.6,1-1.4,1-2.5v-13.4h1.8v13.4c0,0.8-0.1,1.5-0.4,2.2
			c-0.3,0.6-0.6,1.2-1.1,1.6c-0.5,0.4-1,0.8-1.7,1S330.8-52.6,330.1-52.6z"/>
		<path fill="#3FB289" d="M347.1-69.6c-0.2,0.2-0.3,0.4-0.5,0.7c-0.2,0.2-0.3,0.4-0.5,0.7c-0.1-0.1-0.3-0.2-0.5-0.4
			c-0.2-0.1-0.4-0.3-0.6-0.4c-0.2-0.1-0.5-0.2-0.8-0.3c-0.3-0.1-0.6-0.1-1-0.1c-0.9,0-1.5,0.2-1.9,0.7c-0.4,0.5-0.6,1.1-0.6,1.7
			c0,0.4,0.1,0.7,0.2,0.9c0.1,0.2,0.3,0.5,0.5,0.6s0.5,0.3,0.8,0.4c0.3,0.1,0.6,0.2,0.9,0.3c0.5,0.2,1,0.4,1.6,0.6
			c0.6,0.2,1.1,0.5,1.6,0.9c0.5,0.4,0.9,0.8,1.2,1.4c0.3,0.5,0.5,1.2,0.5,2c0,0.7-0.1,1.3-0.4,1.8s-0.6,1-1,1.4
			c-0.4,0.4-0.9,0.7-1.5,0.9s-1.1,0.3-1.8,0.3c-0.6,0-1.1-0.1-1.6-0.2c-0.5-0.2-1-0.4-1.5-0.6c-0.4-0.2-0.8-0.5-1.2-0.8
			c-0.3-0.3-0.6-0.6-0.8-0.9l1.1-1.1c0.2,0.2,0.4,0.4,0.7,0.6s0.5,0.4,0.9,0.6c0.3,0.2,0.6,0.3,1,0.5c0.4,0.1,0.8,0.2,1.2,0.2
			c0.4,0,0.7-0.1,1.1-0.2c0.4-0.1,0.7-0.3,0.9-0.5s0.5-0.5,0.6-0.8c0.2-0.3,0.2-0.7,0.2-1.1c0-0.6-0.1-1.1-0.4-1.4
			c-0.3-0.4-0.6-0.7-1.1-0.9c-0.4-0.2-0.9-0.4-1.3-0.6c-0.5-0.1-0.9-0.3-1.2-0.4c-0.3-0.1-0.6-0.2-0.9-0.4c-0.4-0.2-0.7-0.4-1-0.7
			c-0.3-0.3-0.6-0.7-0.8-1.1c-0.2-0.4-0.4-1-0.4-1.6c0-0.5,0.1-1,0.2-1.5c0.1-0.5,0.4-0.9,0.7-1.3c0.3-0.4,0.8-0.7,1.3-1
			c0.6-0.2,1.2-0.4,2-0.4c0.6,0,1.2,0.1,1.8,0.3S346.3-70.3,347.1-69.6z"/>
	</g>
	<g>
		<path fill="#E0E0E0" d="M369.3-422.6c0,7.8-5.5,17.4-12.3,21.3l-40.8,23.6c-6.8,3.9-17.8,3.9-24.5,0l-40.8-23.6
			c-6.8-3.9-12.3-13.5-12.3-21.3v-57.2c0-7.8,5.5-17.4,12.3-21.3l40.8-23.6c6.8-3.9,17.8-3.9,24.5,0L357-501
			c6.8,3.9,12.3,13.5,12.3,21.3V-422.6z"/>
		<path fill="#242626" d="M357-501l-40.8-23.6c-6.8-3.9-17.8-3.9-24.5,0L250.8-501c-6.8,3.9-12.3,13.5-12.3,21.3v57.2
			c0,7.8,5.5,17.4,12.3,21.3l17.9,10.3l0-24.4l35.2,10.3l35.1-9.9l0.1,23.9l17.9-10.3c6.8-3.9,12.3-13.5,12.3-21.3v-57.2
			C369.3-487.6,363.7-497.1,357-501"/>
		<path fill="#0E0E0E" d="M303.8-527.5c4.3,0,9,1,12.3,2.9l40.8,23.6c6.8,3.9,12.3,13.5,12.3,21.3v57.2c0,7.8-5.5,17.4-12.3,21.3
			L339-391l0-24.1l-35.2,9.2L303.8-527.5z"/>
		<path fill="#FFFFFF" d="M279.4-429.7c0,2.5-2,4.5-4.5,4.5c-2.5,0-4.5-2-4.5-4.5c0-2.5,2-4.5,4.5-4.5
			C277.4-434.2,279.4-432.2,279.4-429.7"/>
		<path fill="#FFFFFF" d="M336.3-429.7c0,2.5-2,4.5-4.5,4.5c-2.5,0-4.5-2-4.5-4.5c0-2.5,2-4.5,4.5-4.5
			C334.3-434.2,336.3-432.2,336.3-429.7"/>
		<path fill="#B5B5B5" d="M327.3-413.8c-2.2,0-4.6-0.2-7-0.5c-2.4-0.3-4.7-0.5-6.9-0.5c-2.5,0-9.3,0.5-9.5,6.7l0,0
			c-0.2-6.2-6.7-6.7-9.4-6.7c-2.2,0-4.5,0.3-6.9,0.5c-2.4,0.3-4.8,0.5-7,0.5c-7,0-10.7-3.8-11.7-10.1h-0.1v3.1
			c0,8.3,3.6,13.6,11.9,13.6c2.2,0,4.6-0.2,7-0.4c2.4-0.3,4.7-0.5,6.9-0.5c2.6,0,5,0.6,5.2,6.8h8.5c0.2-6.2,2.7-6.8,5.1-6.8
			c2.2,0,4.5,0.3,6.9,0.5c2.4,0.3,4.8,0.4,7,0.4c8.8,0,12-5.6,12-13.5v-2.5C337.9-417.5,334.5-413.8,327.3-413.8z"/>
		<path fill="#E0E0E0" d="M327.3-410.1c-2.2,0-4.6-0.2-7-0.5c-2.4-0.3-4.7-0.5-6.9-0.5c-2.5,0-9.3,0.5-9.5,6.7l0,0
			c-0.2-6.2-6.7-6.7-9.4-6.7c-2.2,0-4.5,0.3-6.9,0.5c-2.4,0.3-4.8,0.5-7,0.5c-7,0-10.7-3.8-11.7-10.1h-0.1v3.1
			c0,8.3,3.6,13.6,11.9,13.6c2.2,0,4.6-0.2,7-0.4c2.4-0.3,4.7-0.5,6.9-0.5c2.6,0,5,0.6,5.2,6.8h8.5c0.2-6.2,2.7-6.8,5.1-6.8
			c2.2,0,4.5,0.3,6.9,0.5c2.4,0.3,4.8,0.4,7,0.4c8.8,0,12-5.6,12-13.5v-2.5C337.9-413.8,334.5-410.1,327.3-410.1z"/>
		<path fill="#E0E0E0" d="M327.3-408.5c-2.2,0-4.6-0.2-7-0.5c-2.4-0.3-4.7-0.5-6.9-0.5c-2.5,0-9.3,0.5-9.5,6.7l0,0
			c-0.2-6.2-6.7-6.7-9.4-6.7c-2.2,0-4.5,0.3-6.9,0.5c-2.4,0.3-4.8,0.5-7,0.5c-7,0-10.7-3.8-11.7-10.1h-0.1v3.1
			c0,8.3,3.6,13.6,11.9,13.6c2.2,0,4.6-0.2,7-0.4c2.4-0.3,4.7-0.5,6.9-0.5c2.6,0,5,0.6,5.2,6.8h8.5c0.2-6.2,2.7-6.8,5.1-6.8
			c2.2,0,4.5,0.3,6.9,0.5c2.4,0.3,4.8,0.4,7,0.4c8.8,0,12-5.6,12-13.5v-2.5C337.9-412.2,334.5-408.5,327.3-408.5z"/>
		<path fill="none" stroke="#B5B5B5" stroke-width="4" stroke-linecap="round" stroke-linejoin="round" stroke-miterlimit="10" d="
			M289.7-393.7h23.3c0,0,5.3,0,6.7-4.4"/>
		<g>
			<path id="j_6_" fill="#E2E2E1" d="M280-462.2l5.5-3.3c1.1,1.9,2,3.5,4.4,3.5c2.2,0,3.6-0.9,3.6-4.3v-23h6.8v23.1
				c0,7-4.1,10.2-10.1,10.2C284.7-456,281.6-458.8,280-462.2"/>
			<path id="s_6_" fill="#E2E2E1" d="M304-462.9l5.5-3.2c1.5,2.4,3.3,4.1,6.7,4.1c2.8,0,4.6-1.4,4.6-3.3c0-2.3-1.8-3.1-4.9-4.5
				l-1.7-0.7c-4.9-2.1-8.1-4.7-8.1-10.2c0-5.1,3.9-9,9.9-9c4.3,0,7.4,1.5,9.6,5.4l-5.3,3.4c-1.2-2.1-2.4-2.9-4.4-2.9
				c-2,0-3.2,1.3-3.2,2.9c0,2,1.3,2.9,4.2,4.1l1.7,0.7c5.8,2.5,9,5,9,10.6c0,6.1-4.8,9.4-11.2,9.4C310-456,305.9-459,304-462.9"/>
		</g>
	</g>
	<rect x="856.7" y="194" fill="#4AB484" width="448.5" height="165"/>
	<path fill="#313130" d="M706-233.8"/>
	<path fill="#313130" d="M559.1-245.5"/>
	<path fill="none" stroke="#774E31" stroke-width="6" stroke-linecap="round" stroke-linejoin="round" stroke-miterlimit="10" d="
		M325.5,126.3h23.3c0,0,10.6,0,10.5-10.2"/>
	<g>
		<path fill="#EED2B7" d="M924.5,281.5c0,3.2-2.3,7.1-5,8.7l-16.7,9.6c-2.8,1.6-7.3,1.6-10,0l-16.7-9.6c-2.8-1.6-5-5.5-5-8.7v-23.3
			c0-3.2,2.3-7.1,5-8.7l16.7-9.6c2.8-1.6,7.3-1.6,10,0l16.7,9.6c2.8,1.6,5,5.5,5,8.7V281.5z"/>
		<path fill="#494848" d="M919.5,249.4l-16.7-9.6c-2.8-1.6-7.3-1.6-10,0l-16.7,9.6c-2.8,1.6-5,5.5-5,8.7v23.3c0,3.2,2.3,7.1,5,8.7
			l7.3,4.2l0-9.9l14.4,4.2l14.3-4l0.1,9.8l7.3-4.2c2.8-1.6,5-5.5,5-8.7v-23.3C924.5,254.9,922.3,251,919.5,249.4"/>
		<path fill="#313231" d="M897.8,238.6c1.8,0,3.7,0.4,5,1.2l16.7,9.6c2.8,1.6,5,5.5,5,8.7v23.3c0,3.2-2.3,7.1-5,8.7l-7.3,4.2l0-9.8
			l-14.4,3.8L897.8,238.6z"/>
		<path fill="#FFFFFF" d="M887.8,278.6c0,1-0.8,1.8-1.8,1.8c-1,0-1.8-0.8-1.8-1.8c0-1,0.8-1.8,1.8-1.8
			C887,276.7,887.8,277.6,887.8,278.6"/>
		<path fill="#FFFFFF" d="M911.1,278.6c0,1-0.8,1.8-1.8,1.8c-1,0-1.8-0.8-1.8-1.8c0-1,0.8-1.8,1.8-1.8
			C910.2,276.7,911.1,277.6,911.1,278.6"/>
		<g>
			<path fill="#FFFFFF" d="M907.4,285.1c-0.9,0-1.9-0.1-2.9-0.2c-1-0.1-1.9-0.2-2.8-0.2c-1,0-3.8,0.2-3.9,2.8l0,0
				c-0.1-2.5-2.7-2.8-3.8-2.8c-0.9,0-1.8,0.1-2.8,0.2c-1,0.1-2,0.2-2.9,0.2c-2.9,0-4.4-1.6-4.8-4.1h-0.1v1.3c0,3.4,1.5,5.6,4.9,5.6
				c0.9,0,1.9-0.1,2.8-0.2c1-0.1,1.9-0.2,2.8-0.2c1.1,0,2,0.3,2.1,2.8h3.5c0.1-2.5,1.1-2.8,2.1-2.8c0.9,0,1.8,0.1,2.8,0.2
				c1,0.1,1.9,0.2,2.8,0.2c3.6,0,4.9-2.3,4.9-5.5v-1C911.7,283.5,910.3,285.1,907.4,285.1z"/>
			<path fill="#D4B59B" d="M907.4,286.6c-0.9,0-1.9-0.1-2.9-0.2c-1-0.1-1.9-0.2-2.8-0.2c-1,0-3.8,0.2-3.9,2.8l0,0
				c-0.1-2.5-2.7-2.8-3.8-2.8c-0.9,0-1.8,0.1-2.8,0.2c-1,0.1-2,0.2-2.9,0.2c-2.9,0-4.4-1.6-4.8-4.1h-0.1v1.3c0,3.4,1.5,5.6,4.9,5.6
				c0.9,0,1.9-0.1,2.8-0.2c1-0.1,1.9-0.2,2.8-0.2c1.1,0,2,0.3,2.1,2.8h3.5c0.1-2.5,1.1-2.8,2.1-2.8c0.9,0,1.8,0.1,2.8,0.2
				c1,0.1,1.9,0.2,2.8,0.2c3.6,0,4.9-2.3,4.9-5.5v-1C911.7,285.1,910.3,286.6,907.4,286.6z"/>
			<path fill="#EED2B7" d="M907.4,287.2c-0.9,0-1.9-0.1-2.9-0.2c-1-0.1-1.9-0.2-2.8-0.2c-1,0-3.8,0.2-3.9,2.8l0,0
				c-0.1-2.5-2.7-2.8-3.8-2.8c-0.9,0-1.8,0.1-2.8,0.2c-1,0.1-2,0.2-2.9,0.2c-2.9,0-4.4-1.6-4.8-4.1h-0.1v1.3c0,3.4,1.5,5.6,4.9,5.6
				c0.9,0,1.9-0.1,2.8-0.2c1-0.1,1.9-0.2,2.8-0.2c1.1,0,2,0.3,2.1,2.8h3.5c0.1-2.5,1.1-2.8,2.1-2.8c0.9,0,1.8,0.1,2.8,0.2
				c1,0.1,1.9,0.2,2.8,0.2c3.6,0,4.9-2.3,4.9-5.5v-1C911.7,285.7,910.3,287.2,907.4,287.2z"/>
		</g>
		<path fill="none" stroke="#A6846B" stroke-linecap="round" stroke-linejoin="round" stroke-miterlimit="10" d="M892,293.3h9.5
			c0,0,2.2,0,2.7-1.8"/>
		<g>
			<path id="j_10_" fill="#64BA95" d="M888.1,265.3l2.3-1.4c0.4,0.8,0.8,1.4,1.8,1.4c0.9,0,1.5-0.4,1.5-1.7v-9.4h2.8v9.4
				c0,2.9-1.7,4.2-4.1,4.2C890,267.8,888.7,266.7,888.1,265.3"/>
			<path id="s_10_" fill="#40B288" d="M897.9,265l2.3-1.3c0.6,1,1.4,1.7,2.7,1.7c1.1,0,1.9-0.6,1.9-1.4c0-0.9-0.8-1.3-2-1.8
				l-0.7-0.3c-2-0.8-3.3-1.9-3.3-4.2c0-2.1,1.6-3.7,4.1-3.7c1.8,0,3,0.6,3.9,2.2l-2.2,1.4c-0.5-0.8-1-1.2-1.8-1.2
				c-0.8,0-1.3,0.5-1.3,1.2c0,0.8,0.5,1.2,1.7,1.7l0.7,0.3c2.4,1,3.7,2,3.7,4.3c0,2.5-2,3.9-4.6,3.9
				C900.3,267.8,898.7,266.6,897.9,265"/>
		</g>
	</g>
	<g>
		<rect x="941.5" y="253.1" fill="none" width="502" height="108.2"/>
		<path fill="#FFFFFF" d="M961,258c-0.2,0.2-0.4,0.5-0.6,0.7c-0.2,0.2-0.3,0.5-0.5,0.7c-0.3-0.2-0.6-0.5-1-0.8
			c-0.4-0.3-0.8-0.6-1.4-0.8c-0.5-0.3-1.1-0.5-1.8-0.6c-0.6-0.2-1.3-0.2-2.1-0.2c-1.1,0-2,0.2-2.7,0.5c-0.8,0.3-1.4,0.8-2,1.4
			s-0.9,1.3-1.2,2s-0.4,1.6-0.4,2.4c0,0.9,0.1,1.6,0.4,2.2c0.3,0.6,0.7,1.1,1.2,1.6c0.5,0.4,1.1,0.8,1.8,1.1
			c0.7,0.3,1.4,0.6,2.2,0.9c1,0.3,2,0.7,3.2,1.1c1.2,0.4,2.3,1,3.4,1.7c1,0.7,1.9,1.6,2.6,2.7c0.7,1.1,1.1,2.4,1.1,4
			c0,1.3-0.2,2.5-0.7,3.6c-0.5,1.1-1.2,2-2,2.8c-0.9,0.8-1.9,1.4-3,1.8c-1.2,0.4-2.4,0.6-3.7,0.6c-1.2,0-2.3-0.2-3.3-0.5
			c-1-0.3-1.9-0.7-2.7-1.1c-0.8-0.5-1.5-0.9-2-1.4c-0.6-0.5-1-1-1.4-1.3l1.3-1.3c0.4,0.4,0.9,0.9,1.4,1.3s1.1,0.9,1.8,1.2
			c0.6,0.4,1.4,0.7,2.1,0.9c0.8,0.2,1.6,0.4,2.5,0.4c1,0,2-0.2,2.9-0.5c0.9-0.3,1.8-0.8,2.5-1.4c0.7-0.6,1.3-1.3,1.7-2.1
			c0.4-0.8,0.7-1.8,0.7-2.9c0-1.3-0.3-2.5-0.9-3.3c-0.6-0.9-1.3-1.6-2.2-2.2c-0.9-0.6-1.9-1-2.9-1.4c-1.1-0.4-2-0.7-2.9-1
			c-0.6-0.2-1.2-0.4-2-0.7c-0.8-0.3-1.5-0.7-2.2-1.3c-0.7-0.5-1.3-1.2-1.8-2c-0.5-0.8-0.8-1.9-0.8-3.1c-0.1-1,0.1-2,0.3-3
			c0.3-1,0.8-1.9,1.4-2.7c0.7-0.8,1.5-1.4,2.6-2c1-0.5,2.3-0.8,3.8-0.8c1.1,0,2.3,0.2,3.5,0.6C958.4,256.1,959.7,256.9,961,258z"/>
		<path fill="#FFFFFF" d="M971.1,255.3h1.8v31.5h-1.8V255.3z"/>
		<path fill="#FFFFFF" d="M981,255.3h6.6c2.2,0,4.2,0.4,6.1,1.1c1.9,0.7,3.6,1.8,5,3.2s2.6,3,3.4,5c0.8,2,1.3,4.1,1.3,6.5
			c0,1.8-0.3,3.6-0.9,5.4c-0.6,1.9-1.6,3.6-3,5.1c-1.4,1.5-3.2,2.8-5.4,3.8c-2.2,1-4.9,1.5-8.1,1.5H981V255.3z M982.8,257.1V285h3.9
			c2.5,0,4.7-0.4,6.5-1.2c1.9-0.8,3.4-1.8,4.6-3.1c1.2-1.3,2.2-2.8,2.8-4.4c0.6-1.7,0.9-3.4,0.9-5.2c0-2.1-0.4-4.1-1.1-5.8
			c-0.7-1.7-1.7-3.2-3-4.4c-1.3-1.2-2.8-2.1-4.5-2.8c-1.7-0.6-3.5-1-5.4-1H982.8z"/>
		<path fill="#FFFFFF" d="M1010.7,286.8v-31.5h18.7v1.8h-16.8V270h15.1v1.8h-15.1V285h17.5v1.8H1010.7z"/>
		<path fill="#FFFFFF" d="M1058.9,286.8h-2.3c-2.3-3-4.7-5.9-7-8.8c-2.3-2.9-4.6-5.9-7-8.9c-0.7,0.6-1.4,1.3-2,1.9
			c-0.6,0.6-1.3,1.2-1.9,1.9v14h-1.8v-31.5h1.8v14.1c0,0.2,0,0.5,0,0.7c0,0.2,0,0.4-0.1,0.7c0.1-0.2,0.3-0.3,0.4-0.5
			c0.1-0.2,0.3-0.3,0.4-0.5c2.5-2.4,5.1-4.9,7.6-7.3c2.5-2.4,5.1-4.8,7.6-7.3h2.4l-13.2,12.6c2.5,3.2,5.1,6.3,7.5,9.5
			C1053.9,280.5,1056.4,283.6,1058.9,286.8z"/>
		<path fill="#FFFFFF" d="M1065.6,255.3h1.8v31.5h-1.8V255.3z"/>
		<path fill="#FFFFFF" d="M1098.1,283.4l1,1.5c-1.2,0.7-2.5,1.2-3.8,1.6c-1.4,0.4-2.8,0.6-4.3,0.6c-2.2,0-4.3-0.4-6.3-1.3
			c-2-0.8-3.7-2-5.1-3.4c-1.5-1.5-2.6-3.2-3.4-5.1c-0.8-1.9-1.3-4-1.3-6.3c0-2.2,0.4-4.3,1.3-6.3s2-3.7,3.4-5.1
			c1.5-1.5,3.2-2.6,5.1-3.5c1.9-0.9,4-1.3,6.3-1.3c1.5,0,3,0.2,4.3,0.6c1.4,0.4,2.7,0.9,3.9,1.7c-0.2,0.2-0.4,0.5-0.5,0.8
			c-0.2,0.3-0.3,0.5-0.5,0.8c-1.1-0.6-2.2-1.1-3.4-1.5c-1.2-0.3-2.5-0.5-3.8-0.5c-2,0-3.8,0.4-5.5,1.1c-1.7,0.8-3.2,1.8-4.5,3.1
			c-1.3,1.3-2.3,2.8-3,4.6c-0.7,1.7-1.1,3.6-1.1,5.6c0,2,0.4,3.8,1.1,5.5c0.7,1.7,1.7,3.2,3,4.5c1.3,1.3,2.8,2.3,4.5,3.1
			c1.7,0.8,3.5,1.1,5.5,1.1c1.4,0,2.6-0.2,3.8-0.5C1095.9,284.5,1097,284,1098.1,283.4z"/>
		<path fill="#FFFFFF" d="M1127.2,286.8h-2.3c-2.3-3-4.7-5.9-7-8.8c-2.3-2.9-4.6-5.9-7-8.9c-0.7,0.6-1.4,1.3-2,1.9
			c-0.6,0.6-1.3,1.2-1.9,1.9v14h-1.8v-31.5h1.8v14.1c0,0.2,0,0.5,0,0.7c0,0.2,0,0.4-0.1,0.7c0.1-0.2,0.3-0.3,0.4-0.5
			c0.1-0.2,0.3-0.3,0.4-0.5c2.5-2.4,5.1-4.9,7.6-7.3c2.5-2.4,5.1-4.8,7.6-7.3h2.4l-13.2,12.6c2.5,3.2,5.1,6.3,7.5,9.5
			C1122.2,280.5,1124.7,283.6,1127.2,286.8z"/>
		<path fill="#FFFFFF" d="M1130,293.3v-3.6c2.1-0.1,3.8-0.8,5.1-2c1.3-1.2,2-2.9,2-5.1v-27.3h3.7v27.5c0,1.7-0.3,3.2-0.8,4.5
			c-0.6,1.3-1.3,2.4-2.3,3.3c-1,0.9-2.1,1.6-3.4,2C1133,293,1131.5,293.3,1130,293.3z"/>
		<path fill="#FFFFFF" d="M1164.8,258.4c-0.4,0.4-0.7,0.9-1.1,1.3c-0.3,0.5-0.7,0.9-1.1,1.3c-0.2-0.2-0.6-0.5-0.9-0.8
			c-0.4-0.3-0.8-0.5-1.3-0.8s-1.1-0.4-1.7-0.6c-0.6-0.2-1.3-0.2-2-0.2c-1.7,0-3,0.5-3.9,1.5c-0.8,1-1.3,2.2-1.3,3.5
			c0,0.8,0.1,1.4,0.4,1.9c0.3,0.5,0.7,0.9,1.1,1.3c0.5,0.3,1,0.6,1.6,0.9c0.6,0.2,1.2,0.5,1.8,0.7c1,0.4,2.1,0.8,3.2,1.3
			c1.1,0.5,2.2,1.1,3.2,1.9c1,0.8,1.8,1.7,2.4,2.8c0.6,1.1,1,2.4,1,4c0,1.3-0.2,2.6-0.7,3.6c-0.5,1.1-1.2,2-2,2.8
			c-0.9,0.8-1.9,1.4-3,1.8c-1.1,0.4-2.3,0.6-3.6,0.6c-1.1,0-2.2-0.2-3.3-0.5c-1.1-0.3-2.1-0.7-3-1.2s-1.7-1-2.4-1.6
			c-0.7-0.6-1.3-1.2-1.6-1.8l2.3-2.3c0.4,0.4,0.9,0.9,1.4,1.3s1.1,0.9,1.8,1.3c0.6,0.4,1.3,0.7,2.1,0.9c0.7,0.2,1.6,0.4,2.4,0.4
			c0.8,0,1.5-0.1,2.2-0.3c0.7-0.2,1.4-0.6,1.9-1c0.6-0.4,1-1,1.3-1.6c0.3-0.7,0.5-1.4,0.5-2.3c0-1.2-0.3-2.2-0.9-2.9
			s-1.3-1.4-2.2-1.9c-0.9-0.5-1.7-0.9-2.7-1.2c-0.9-0.3-1.7-0.6-2.4-0.9c-0.5-0.2-1.2-0.5-1.9-0.9c-0.8-0.4-1.5-0.8-2.1-1.5
			c-0.7-0.6-1.3-1.4-1.7-2.3c-0.5-0.9-0.7-2-0.8-3.4c0-1,0.1-2,0.4-3c0.3-1,0.8-1.9,1.5-2.7c0.7-0.8,1.6-1.5,2.7-2
			c1.1-0.5,2.5-0.8,4.2-0.8c1.2,0,2.4,0.2,3.7,0.6C1161.8,256.2,1163.2,257.1,1164.8,258.4z"/>
	</g>
	<g>
	</g>
	<g>
	</g>
	<g>
	</g>
	<g>
	</g>
	<g>
	</g>
	<g>
	</g>
</g>
</svg>
