<?xml version="1.0" encoding="utf-8"?>
<!-- Generator: Adobe Illustrator 17.0.0, SVG Export Plug-In . SVG Version: 6.00 Build 0)  -->
<!DOCTYPE svg PUBLIC "-//W3C//DTD SVG 1.1//EN" "http://www.w3.org/Graphics/SVG/1.1/DTD/svg11.dtd">
<svg version="1.1" xmlns="http://www.w3.org/2000/svg" xmlns:xlink="http://www.w3.org/1999/xlink" x="0px" y="0px" width="187.3px"
	 height="218.7px" viewBox="0 0 187.3 218.7" enable-background="new 0 0 187.3 218.7" xml:space="preserve">
<g id="cut_line">
	<g>
		<g>
			<g>
				<line fill="none" stroke="#DE398D" stroke-miterlimit="10" x1="111" y1="-354.3" x2="111" y2="-355.8"/>
				<path fill="none" stroke="#DE398D" stroke-miterlimit="10" stroke-dasharray="2.9962,2.9962" d="M111-358.8v-58v0
					c0-8.5-6-19-13.4-23.2l-28.7-16.6L53-465.8c-7.4-4.3-19.5-4.3-26.8,0l-15.6,9L-18.5-440c-7.4,4.3-13.4,14.7-13.4,23.2v59.5"/>
				<line fill="none" stroke="#DE398D" stroke-miterlimit="10" x1="-31.9" y1="-355.8" x2="-31.9" y2="-354.3"/>
			</g>
		</g>
		<g>
			<g>
				<line fill="none" stroke="#DE398D" stroke-miterlimit="10" x1="-31.9" y1="-364.2" x2="-31.9" y2="-362.7"/>
				<path fill="none" stroke="#DE398D" stroke-miterlimit="10" stroke-dasharray="2.9785,2.9785" d="M-31.9-359.7v79.2
					c0,5.5,4.5,10,10,10H101c5.5,0,10-4.5,10-10v-80.7"/>
				<line fill="none" stroke="#DE398D" stroke-miterlimit="10" x1="111" y1="-362.7" x2="111" y2="-364.2"/>
			</g>
		</g>
	</g>
	<g>
		<path fill="#DE398D" d="M73-457.2c0,0.1,0,0.2,0,0.2s0,0.2,0,0.2c-0.1,0-0.3,0-0.4,0c-0.1,0-0.3-0.1-0.4-0.1
			c-0.1-0.1-0.3-0.2-0.4-0.3c-0.1-0.1-0.2-0.3-0.2-0.4c0-0.1-0.1-0.3,0-0.5c0-0.2,0.1-0.3,0.1-0.4c0.1-0.1,0.2-0.3,0.3-0.3
			s0.3-0.2,0.4-0.2c0.1,0,0.3,0,0.5,0c0.2,0,0.3,0.1,0.5,0.2c0.1,0.1,0.2,0.2,0.3,0.3c0.1,0.1,0.2,0.2,0.2,0.3
			c-0.1,0-0.2,0.1-0.2,0.1c-0.1,0-0.2,0.1-0.2,0.1c-0.1-0.1-0.2-0.3-0.3-0.3c-0.2-0.1-0.4-0.1-0.5-0.1c-0.2,0-0.3,0.2-0.4,0.3
			c-0.1,0.2-0.1,0.3-0.1,0.5c0,0.2,0.2,0.3,0.3,0.4C72.7-457.2,72.8-457.2,73-457.2z"/>
		<path fill="#DE398D" d="M75.3-455.1l-0.4-0.2l0.2-0.3l0.2-0.2c-0.2,0.1-0.4,0.2-0.6,0.2c-0.2,0-0.4,0-0.6-0.1
			c-0.2-0.1-0.3-0.3-0.4-0.4s0-0.4,0.1-0.5l0.8-1.4L75-458l-0.7,1.2c0,0.1-0.1,0.2,0,0.3c0,0.1,0.1,0.2,0.2,0.3
			c0.1,0.1,0.2,0.1,0.3,0.1c0.1,0,0.2,0,0.3,0c0.1,0,0.2-0.1,0.3-0.1c0.1-0.1,0.1-0.1,0.2-0.2l0.5-0.9l0.4,0.2L75.3-455.1z"/>
		<path fill="#DE398D" d="M78.1-457.9l0.4,0.2l-0.7,1.2l0.5,0.3l-0.2,0.4l-0.5-0.3l-0.9,1.6l-0.4-0.2l0.9-1.6l-0.4-0.3l0.2-0.4
			l0.4,0.2L78.1-457.9z"/>
		<path fill="#DE398D" d="M79.6-452.8l-0.4-0.2l2.2-3.9l0.4,0.2L79.6-452.8z"/>
		<path fill="#DE398D" d="M80.6-452.2l-0.4-0.2l1.1-2l0.4,0.2L80.6-452.2z M81.7-455.2c0-0.1,0.1-0.1,0.2-0.2c0.1,0,0.2,0,0.2,0
			c0.1,0,0.1,0.1,0.1,0.2c0,0.1,0,0.2,0,0.2c0,0.1-0.1,0.1-0.2,0.1c-0.1,0-0.2,0-0.2,0c-0.1,0-0.1-0.1-0.1-0.2
			C81.6-455,81.6-455.1,81.7-455.2z"/>
		<path fill="#DE398D" d="M82.5-453.7l0.4,0.2l0,0c0,0.1-0.1,0.2-0.1,0.2c0,0.1-0.1,0.2-0.1,0.2c0.2-0.1,0.4-0.2,0.6-0.2
			c0.2,0,0.4,0,0.6,0.1c0.2,0.1,0.3,0.3,0.4,0.4c0.1,0.2,0,0.4-0.1,0.5l-0.8,1.4l-0.4-0.2l0.7-1.2c0-0.1,0.1-0.2,0-0.3
			c0-0.1-0.1-0.2-0.2-0.3c-0.1-0.1-0.2-0.1-0.3-0.1c-0.1,0-0.2,0-0.3,0c-0.1,0-0.2,0.1-0.3,0.1c-0.1,0.1-0.1,0.1-0.2,0.2l-0.5,0.9
			l-0.4-0.2L82.5-453.7z"/>
		<path fill="#DE398D" d="M86.3-450.4c-0.3,0-0.6-0.1-0.9-0.1c-0.3,0-0.6-0.1-0.9-0.1c0,0.1,0,0.2,0.1,0.3c0.1,0.1,0.1,0.2,0.3,0.2
			c0.2,0.1,0.3,0.1,0.5,0.1l0.1,0.5c-0.1,0-0.3,0-0.4,0c-0.1,0-0.3-0.1-0.4-0.1c-0.1-0.1-0.3-0.2-0.4-0.3c-0.1-0.1-0.2-0.3-0.2-0.4
			c0-0.1-0.1-0.3,0-0.5c0-0.2,0.1-0.3,0.1-0.4c0.1-0.1,0.2-0.3,0.3-0.3c0.1-0.1,0.3-0.2,0.4-0.2c0.1,0,0.3,0,0.5,0
			c0.2,0,0.3,0.1,0.5,0.2c0.1,0.1,0.2,0.1,0.3,0.2c0.1,0.1,0.1,0.2,0.2,0.3c0,0.1,0,0.3,0,0.4C86.3-450.7,86.3-450.6,86.3-450.4z
			 M85.6-451.4c-0.1-0.1-0.3-0.1-0.4-0.1c-0.1,0-0.3,0.1-0.4,0.1c0,0-0.1,0.1-0.1,0.2c0.2,0,0.4,0.1,0.6,0.1c0.2,0,0.4,0.1,0.6,0.1
			c0-0.1,0-0.2-0.1-0.2C85.7-451.3,85.7-451.4,85.6-451.4z"/>
	</g>
</g>
<g id="main_graphic">
	<polygon fill="#EED3B8" points="390.4,-458.6 333.2,-426.1 276.4,-459.4 276.9,-525.2 334.2,-557.7 390.9,-524.4 	"/>
	<polygon fill="#313130" points="390.4,-458.6 363.2,-443.1 363,-476.2 333.9,-465 304.9,-476.2 304.9,-442.6 276.4,-459.4 
		276.9,-525.2 334.2,-557.7 390.9,-524.4 	"/>
	<path fill="#EED3B8" d="M819.1-838.3c0,7.8-5.5,17.4-12.3,21.3L766-793.4c-6.8,3.9-17.8,3.9-24.5,0L700.6-817
		c-6.8-3.9-12.3-13.5-12.3-21.3v-57.2c0-7.8,5.5-17.4,12.3-21.3l40.8-23.6c6.8-3.9,17.8-3.9,24.5,0l40.8,23.6
		c6.8,3.9,12.3,13.5,12.3,21.3V-838.3z"/>
	<polygon fill="#D5B69C" points="718.5,-825.4 753.7,-820.2 788.9,-825.4 788.9,-834.2 718.5,-834.2 	"/>
	<path fill="#3FB289" d="M806.8-916.7l-40.8-23.6c-6.8-3.9-17.8-3.9-24.5,0l-40.8,23.6c-6.8,3.9-12.3,13.5-12.3,21.3v57.2
		c0,7.8,5.5,17.4,12.3,21.3l17.9,10.3v-22.7l35.2,5.2l35.2-5.2v22.7l17.9-10.3c6.8-3.9,12.3-13.5,12.3-21.3v-57.2
		C819.1-903.2,813.5-912.8,806.8-916.7"/>
	<path fill="#3B3A3A" d="M806.8-916.7l-40.8-23.6c-6.8-3.9-17.8-3.9-24.5,0l-40.8,23.6c-6.8,3.9-12.3,13.5-12.3,21.3v57.2
		c0,7.8,5.5,17.4,12.3,21.3l17.9,10.3v-22.7l35.2,5.2l35.2-5.2v22.7l17.9-10.3c6.8-3.9,12.3-13.5,12.3-21.3v-57.2
		C819.1-903.2,813.5-912.8,806.8-916.7"/>
	<path fill="#313130" d="M753.7-943.2c4.3,0,9,1,12.3,2.9l40.8,23.6c6.8,3.9,12.3,13.5,12.3,21.3v57.2c0,7.8-5.5,17.4-12.3,21.3
		l-17.9,10.3v-22.7l-35.2,5.2V-943.2z"/>
	<polygon fill="#D5B69C" points="718.5,-829.4 718.5,-806.7 722.4,-828.8 	"/>
	<polygon fill="#D5B69C" points="788.9,-829.4 788.9,-806.7 784.9,-828.8 	"/>
	<path fill="#63BB96" d="M753.7-915.3c-12.1,0-22,9.9-22,22c0,12.1,9.9,22,22,22c12.1,0,22-9.9,22-22
		C775.7-905.4,765.8-915.3,753.7-915.3 M753.7-876.2c-9.4,0-17-7.6-17-17c0-9.4,7.6-17,17-17c9.4,0,17,7.6,17,17
		C770.7-883.9,763.1-876.2,753.7-876.2"/>
	<path fill="#63BB96" d="M753.7-906c-7,0-12.7,5.7-12.7,12.7c0,7,5.7,12.7,12.7,12.7c7,0,12.7-5.7,12.7-12.7
		C766.4-900.3,760.7-906,753.7-906 M753.7-885.5c-4.3,0-7.7-3.5-7.7-7.7c0-4.3,3.5-7.7,7.7-7.7c4.3,0,7.7,3.5,7.7,7.7
		C761.4-889,757.9-885.5,753.7-885.5"/>
	<path fill="#63BB96" d="M753.7-896.5c-1.8,0-3.2,1.4-3.2,3.2c0,1.8,1.5,3.2,3.2,3.2c1.8,0,3.2-1.4,3.2-3.2
		C756.9-895,755.5-896.5,753.7-896.5"/>
	<path fill="#3FB289" d="M753.7-910.3c9.4,0,17,7.6,17,17c0,9.4-7.6,17-17,17v5c12.1,0,22-9.9,22-22c0-12.1-9.9-22-22-22V-910.3z"/>
	<path fill="#3FB289" d="M753.7-901c4.3,0,7.7,3.5,7.7,7.7c0,4.3-3.5,7.7-7.7,7.7v5c7,0,12.7-5.7,12.7-12.7c0-7-5.7-12.7-12.7-12.7
		V-901z"/>
	<path fill="#3FB289" d="M753.7-890c1.8,0,3.2-1.4,3.2-3.2c0-1.8-1.5-3.2-3.2-3.2V-890z"/>
	<path fill="#EED3B8" d="M785.5-858v1.9c0,4.8-2.9,6.4-7.5,6.4c-1.8,0-3.8-0.3-5.9-0.5c-2.2-0.2-4.6-0.5-7.3-0.5
		c-7.9-0.1-11,3.1-12.2,8.9h-0.2c-1.3-5.7-4.2-9-12.1-8.9c-2.6,0-5,0.3-7.1,0.5c-2.2,0.2-4.1,0.5-6,0.5c-4.6,0-7.4-1.7-7.4-6.4v-1.9
		h-8.9v3.7c0,9.7,4.3,15.9,14.1,15.9c2.6,0,5.4-0.2,8.3-0.5c2.8-0.3,5.5-0.6,8.2-0.6c3.1,0,5.9,0.7,6.1,7.9h10
		c0.2-7.2,3.2-7.9,6.1-7.9c2.6,0,5.3,0.3,8.2,0.6c2.8,0.3,5.6,0.5,8.3,0.5c10.5,0,14.2-6.5,14.2-15.8v-3.8H785.5z"/>
	<path fill="#D5B69C" d="M772.3-847.6c2.1,0.2,4.1,0.5,5.9,0.5c4.6,0,7.5-1.6,7.5-6.4v-1.9h8.8v-2.7h-8.8v1.9c0,4.8-2.9,6.4-7.5,6.4
		c-1.8,0-3.8-0.3-5.9-0.5c-2.2-0.2-4.6-0.5-7.3-0.5c-7.9-0.1-11,3.1-12.2,8.9h-0.2c-1.3-5.7-4.2-9-12.1-8.9c-2.6,0-5,0.3-7.1,0.5
		c-2.2,0.2-4.1,0.5-6,0.5c-4.6,0-7.4-1.7-7.4-6.4v-1.9h-8.9v2.7h8.9v1.9c0,4.7,2.8,6.4,7.4,6.4c1.9,0,3.8-0.3,6-0.5
		c2.1-0.2,4.5-0.5,7.1-0.5c7.9-0.1,10.9,3.1,12.1,8.9h0.2c1.3-5.7,4.3-9,12.2-8.9C767.7-848.2,770.1-847.9,772.3-847.6"/>
	<path fill="#FFFFFF" d="M726-843.6c0,2.5-2,4.5-4.5,4.5c-2.5,0-4.5-2-4.5-4.5c0-2.5,2-4.5,4.5-4.5C724-848.1,726-846.1,726-843.6"
		/>
	<path fill="#FFFFFF" d="M787.3-843.6c0,2.5-2,4.5-4.5,4.5s-4.5-2-4.5-4.5c0-2.5,2-4.5,4.5-4.5S787.3-846.1,787.3-843.6"/>
	<path fill="none" stroke="#A9856B" stroke-width="4" stroke-linecap="round" stroke-linejoin="round" stroke-miterlimit="10" d="
		M739.5-809.4h23.3c0,0,5.3,0,6.7-4.4"/>
	<path fill="#EED3B8" d="M975.6-838.3c0,7.8-5.5,17.4-12.3,21.3l-40.8,23.6c-6.8,3.9-17.8,3.9-24.5,0L857.1-817
		c-6.8-3.9-12.3-13.5-12.3-21.3v-57.2c0-7.8,5.5-17.4,12.3-21.3l40.8-23.6c6.8-3.9,17.8-3.9,24.5,0l40.8,23.6
		c6.8,3.9,12.3,13.5,12.3,21.3V-838.3z"/>
	<polygon fill="#D5B69C" points="875,-825.4 910.2,-820.2 945.4,-825.4 945.4,-834.2 875,-834.2 	"/>
	<path fill="#3FB289" d="M963.3-916.7l-40.8-23.6c-6.8-3.9-17.8-3.9-24.5,0l-40.8,23.6c-6.8,3.9-12.3,13.5-12.3,21.3v57.2
		c0,7.8,5.5,17.4,12.3,21.3l17.9,10.3v-22.7l35.2,5.2l35.2-5.2v22.7l17.9-10.3c6.8-3.9,12.3-13.5,12.3-21.3v-57.2
		C975.6-903.2,970-912.8,963.3-916.7"/>
	<path fill="#3B3A3A" d="M963.3-916.7l-40.8-23.6c-6.8-3.9-17.8-3.9-24.5,0l-40.8,23.6c-6.8,3.9-12.3,13.5-12.3,21.3v57.2
		c0,7.8,5.5,17.4,12.3,21.3l17.9,10.3v-22.7l35.2,5.2l35.2-5.2v22.7l17.9-10.3c6.8-3.9,12.3-13.5,12.3-21.3v-57.2
		C975.6-903.2,970-912.8,963.3-916.7"/>
	<path fill="#313130" d="M910.2-943.2c4.3,0,9,1,12.3,2.9l40.8,23.6c6.8,3.9,12.3,13.5,12.3,21.3v57.2c0,7.8-5.5,17.4-12.3,21.3
		l-17.9,10.3v-22.7l-35.2,5.2V-943.2z"/>
	<polygon fill="#D5B69C" points="875,-829.4 875,-806.7 878.9,-828.8 	"/>
	<polygon fill="#D5B69C" points="945.4,-829.4 945.4,-806.7 941.4,-828.8 	"/>
	<path fill="#63BB96" d="M910.2-915.3c-12.1,0-22,9.9-22,22c0,12.1,9.9,22,22,22c12.1,0,22-9.9,22-22
		C932.2-905.4,922.3-915.3,910.2-915.3 M910.2-876.2c-9.4,0-17-7.6-17-17c0-9.4,7.6-17,17-17c9.4,0,17,7.6,17,17
		C927.2-883.9,919.6-876.2,910.2-876.2"/>
	<path fill="#63BB96" d="M910.2-906c-7,0-12.7,5.7-12.7,12.7c0,7,5.7,12.7,12.7,12.7c7,0,12.7-5.7,12.7-12.7
		C922.9-900.3,917.2-906,910.2-906 M910.2-885.5c-4.3,0-7.7-3.5-7.7-7.7c0-4.3,3.5-7.7,7.7-7.7c4.3,0,7.7,3.5,7.7,7.7
		C917.9-889,914.4-885.5,910.2-885.5"/>
	<path fill="#63BB96" d="M910.2-896.5c-1.8,0-3.2,1.4-3.2,3.2c0,1.8,1.5,3.2,3.2,3.2c1.8,0,3.2-1.4,3.2-3.2
		C913.4-895,912-896.5,910.2-896.5"/>
	<path fill="#3FB289" d="M910.2-910.3c9.4,0,17,7.6,17,17c0,9.4-7.6,17-17,17v5c12.1,0,22-9.9,22-22c0-12.1-9.9-22-22-22V-910.3z"/>
	<path fill="#3FB289" d="M910.2-901c4.3,0,7.7,3.5,7.7,7.7c0,4.3-3.5,7.7-7.7,7.7v5c7,0,12.7-5.7,12.7-12.7c0-7-5.7-12.7-12.7-12.7
		V-901z"/>
	<path fill="#3FB289" d="M910.2-890c1.8,0,3.2-1.4,3.2-3.2c0-1.8-1.5-3.2-3.2-3.2V-890z"/>
	<path fill="#EED3B8" d="M943.2-858v1.9c0,4.8-2.9,6.4-7.5,6.4c-1.8,0-3.8-0.3-5.9-0.5c-2.2-0.2-4.6-0.5-7.3-0.5
		c-7.9-0.1-11,3.1-12.2,8.9h-0.2c-1.3-5.7-4.2-9-12.1-8.9c-2.6,0-5,0.3-7.1,0.5c-2.2,0.2-4.1,0.5-6,0.5c-4.6,0-7.4-1.7-7.4-6.4v-1.9
		h-8.9v3.7c0,9.7,4.3,15.9,14.1,15.9c2.6,0,5.4-0.2,8.3-0.5c2.8-0.3,5.5-0.6,8.2-0.6c3.1,0,5.9,0.7,6.1,7.9h10
		c0.2-7.2,3.2-7.9,6.1-7.9c2.6,0,5.3,0.3,8.2,0.6c2.8,0.3,5.6,0.5,8.3,0.5c10.5,0,14.2-6.5,14.2-15.8v-3.8H943.2z"/>
	<path fill="#FFFFFF" d="M885.7-845.4c0,2.5-2,4.5-4.5,4.5c-2.5,0-4.5-2-4.5-4.5c0-2.5,2-4.5,4.5-4.5
		C883.7-849.8,885.7-847.8,885.7-845.4"/>
	<path fill="#FFFFFF" d="M942.6-845.4c0,2.5-2,4.5-4.5,4.5s-4.5-2-4.5-4.5c0-2.5,2-4.5,4.5-4.5S942.6-847.8,942.6-845.4"/>
	<path fill="none" stroke="#A9856B" stroke-width="4" stroke-linecap="round" stroke-linejoin="round" stroke-miterlimit="10" d="
		M896-809.4h23.3c0,0,5.3,0,6.7-4.4"/>
	<path fill="#EED3B8" d="M975.6-636.3c0,7.8-5.5,17.4-12.3,21.3l-40.8,23.6c-6.8,3.9-17.8,3.9-24.5,0L857.1-615
		c-6.8-3.9-12.3-13.5-12.3-21.3v-57.2c0-7.8,5.5-17.4,12.3-21.3l40.8-23.6c6.8-3.9,17.8-3.9,24.5,0l40.8,23.6
		c6.8,3.9,12.3,13.5,12.3,21.3V-636.3z"/>
	<path fill="#3FB289" d="M963.3-714.7l-40.8-23.6c-6.8-3.9-17.8-3.9-24.5,0l-40.8,23.6c-6.8,3.9-12.3,13.5-12.3,21.3v57.2
		c0,7.8,5.5,17.4,12.3,21.3l17.9,10.3v-22.7l35.2,5.2l35.2-5.2v22.7l17.9-10.3c6.8-3.9,12.3-13.5,12.3-21.3v-57.2
		C975.6-701.2,970-710.8,963.3-714.7"/>
	<path fill="#3B3A3A" d="M963.3-714.7l-40.8-23.6c-6.8-3.9-17.8-3.9-24.5,0l-40.8,23.6c-6.8,3.9-12.3,13.5-12.3,21.3v57.2
		c0,7.8,5.5,17.4,12.3,21.3l17.9,10.3v-22.7l35.2,5.2l35.2-5.2v22.7l17.9-10.3c6.8-3.9,12.3-13.5,12.3-21.3v-57.2
		C975.6-701.2,970-710.8,963.3-714.7"/>
	<path fill="#313130" d="M910.2-741.2c4.3,0,9,1,12.3,2.9l40.8,23.6c6.8,3.9,12.3,13.5,12.3,21.3v57.2c0,7.8-5.5,17.4-12.3,21.3
		l-17.9,10.3v-22.7l-35.2,5.2V-741.2z"/>
	<polygon fill="#D5B69C" points="875,-627.4 875,-604.7 878.9,-626.8 	"/>
	<polygon fill="#D5B69C" points="945.4,-627.4 945.4,-604.7 941.4,-626.8 	"/>
	<path fill="#63BB96" d="M910.2-713.3c-12.1,0-22,9.9-22,22c0,12.1,9.9,22,22,22c12.1,0,22-9.9,22-22
		C932.2-703.4,922.3-713.3,910.2-713.3 M910.2-674.2c-9.4,0-17-7.6-17-17c0-9.4,7.6-17,17-17c9.4,0,17,7.6,17,17
		C927.2-681.9,919.6-674.2,910.2-674.2"/>
	<path fill="#63BB96" d="M910.2-704c-7,0-12.7,5.7-12.7,12.7c0,7,5.7,12.7,12.7,12.7c7,0,12.7-5.7,12.7-12.7
		C922.9-698.3,917.2-704,910.2-704 M910.2-683.5c-4.3,0-7.7-3.5-7.7-7.7c0-4.3,3.5-7.7,7.7-7.7c4.3,0,7.7,3.5,7.7,7.7
		C917.9-687,914.4-683.5,910.2-683.5"/>
	<path fill="#63BB96" d="M910.2-694.5c-1.8,0-3.2,1.4-3.2,3.2c0,1.8,1.5,3.2,3.2,3.2c1.8,0,3.2-1.4,3.2-3.2
		C913.4-693,912-694.5,910.2-694.5"/>
	<path fill="#3FB289" d="M910.2-708.3c9.4,0,17,7.6,17,17c0,9.4-7.6,17-17,17v5c12.1,0,22-9.9,22-22c0-12.1-9.9-22-22-22V-708.3z"/>
	<path fill="#3FB289" d="M910.2-699c4.3,0,7.7,3.5,7.7,7.7c0,4.3-3.5,7.7-7.7,7.7v5c7,0,12.7-5.7,12.7-12.7c0-7-5.7-12.7-12.7-12.7
		V-699z"/>
	<path fill="#3FB289" d="M910.2-688c1.8,0,3.2-1.4,3.2-3.2c0-1.8-1.5-3.2-3.2-3.2V-688z"/>
	<path fill="#EED3B8" d="M943.2-656v1.9c0,4.8-2.9,6.4-7.5,6.4c-1.8,0-3.8-0.3-5.9-0.5c-2.2-0.2-4.6-0.5-7.3-0.5
		c-7.9-0.1-11,3.1-12.2,8.9h-0.2c-1.3-5.7-4.2-9-12.1-8.9c-2.6,0-5,0.3-7.1,0.5c-2.2,0.2-4.1,0.5-6,0.5c-4.6,0-7.4-1.7-7.4-6.4v-1.9
		h-8.9v3.7c0,9.7,4.3,15.9,14.1,15.9c2.6,0,5.4-0.2,8.3-0.5c2.8-0.3,5.5-0.6,8.2-0.6c3.1,0,5.9,0.7,6.1,7.9h10
		c0.2-7.2,3.2-7.9,6.1-7.9c2.6,0,5.3,0.3,8.2,0.6c2.8,0.3,5.6,0.5,8.3,0.5c10.5,0,14.2-6.5,14.2-15.8v-3.8H943.2z"/>
	<path fill="#FFFFFF" d="M885.7-643.4c0,2.5-2,4.5-4.5,4.5c-2.5,0-4.5-2-4.5-4.5c0-2.5,2-4.5,4.5-4.5
		C883.7-647.8,885.7-645.8,885.7-643.4"/>
	<path fill="#FFFFFF" d="M942.6-643.4c0,2.5-2,4.5-4.5,4.5s-4.5-2-4.5-4.5c0-2.5,2-4.5,4.5-4.5S942.6-645.8,942.6-643.4"/>
	<path fill="none" stroke="#A9856B" stroke-width="4" stroke-linecap="round" stroke-linejoin="round" stroke-miterlimit="10" d="
		M896-607.4h23.3c0,0,5.3,0,6.7-4.4"/>
	<path fill="#EED3B8" d="M820.7-636.3c0,7.8-5.5,17.4-12.3,21.3l-40.8,23.6c-6.8,3.9-17.8,3.9-24.5,0L702.2-615
		c-6.8-3.9-12.3-13.5-12.3-21.3v-57.2c0-7.8,5.5-17.4,12.3-21.3l40.8-23.6c6.8-3.9,17.8-3.9,24.5,0l40.8,23.6
		c6.8,3.9,12.3,13.5,12.3,21.3V-636.3z"/>
	<path fill="#3FB289" d="M808.4-714.7l-40.8-23.6c-6.8-3.9-17.8-3.9-24.5,0l-40.8,23.6c-6.8,3.9-12.3,13.5-12.3,21.3v57.2
		c0,7.8,5.5,17.4,12.3,21.3l17.9,10.3v-22.7l35.2,5.2l35.2-5.2v22.7l17.9-10.3c6.8-3.9,12.3-13.5,12.3-21.3v-57.2
		C820.7-701.2,815.2-710.8,808.4-714.7"/>
	<path fill="#3B3A3A" d="M808.4-714.7l-40.8-23.6c-6.8-3.9-17.8-3.9-24.5,0l-40.8,23.6c-6.8,3.9-12.3,13.5-12.3,21.3v57.2
		c0,7.8,5.5,17.4,12.3,21.3l17.9,10.3v-22.7l35.2,5.2l35.2-5.2v22.7l17.9-10.3c6.8-3.9,12.3-13.5,12.3-21.3v-57.2
		C820.7-701.2,815.2-710.8,808.4-714.7"/>
	<path fill="#313130" d="M755.3-741.2c4.3,0,9,1,12.3,2.9l40.8,23.6c6.8,3.9,12.3,13.5,12.3,21.3v57.2c0,7.8-5.5,17.4-12.3,21.3
		l-17.9,10.3v-22.7l-35.2,5.2V-741.2z"/>
	<path fill="#63BB96" d="M755.3-713.3c-12.1,0-22,9.9-22,22c0,12.1,9.9,22,22,22c12.1,0,22-9.9,22-22
		C777.3-703.4,767.4-713.3,755.3-713.3 M755.3-674.2c-9.4,0-17-7.6-17-17c0-9.4,7.6-17,17-17c9.4,0,17,7.6,17,17
		C772.3-681.9,764.7-674.2,755.3-674.2"/>
	<path fill="#63BB96" d="M755.3-704c-7,0-12.7,5.7-12.7,12.7c0,7,5.7,12.7,12.7,12.7c7,0,12.7-5.7,12.7-12.7
		C768-698.3,762.3-704,755.3-704 M755.3-683.5c-4.3,0-7.7-3.5-7.7-7.7c0-4.3,3.5-7.7,7.7-7.7c4.3,0,7.7,3.5,7.7,7.7
		C763-687,759.6-683.5,755.3-683.5"/>
	<path fill="#63BB96" d="M755.3-694.5c-1.8,0-3.2,1.4-3.2,3.2c0,1.8,1.5,3.2,3.2,3.2c1.8,0,3.2-1.4,3.2-3.2
		C758.5-693,757.1-694.5,755.3-694.5"/>
	<path fill="#3FB289" d="M755.3-708.3c9.4,0,17,7.6,17,17c0,9.4-7.6,17-17,17v5c12.1,0,22-9.9,22-22c0-12.1-9.9-22-22-22V-708.3z"/>
	<path fill="#3FB289" d="M755.3-699c4.3,0,7.7,3.5,7.7,7.7c0,4.3-3.5,7.7-7.7,7.7v5c7,0,12.7-5.7,12.7-12.7c0-7-5.7-12.7-12.7-12.7
		V-699z"/>
	<path fill="#3FB289" d="M755.3-688c1.8,0,3.2-1.4,3.2-3.2c0-1.8-1.5-3.2-3.2-3.2V-688z"/>
	<path fill="#EED3B8" d="M788.3-656v1.9c0,4.8-2.9,6.4-7.5,6.4c-1.8,0-3.8-0.3-5.9-0.5c-2.2-0.2-4.6-0.5-7.3-0.5
		c-7.9-0.1-11,3.1-12.2,8.9h-0.2c-1.3-5.7-4.2-9-12.1-8.9c-2.6,0-5,0.3-7.1,0.5c-2.2,0.2-4.1,0.5-6,0.5c-4.6,0-7.4-1.7-7.4-6.4v-1.9
		h-8.9v3.7c0,9.7,4.3,15.9,14.1,15.9c2.6,0,5.4-0.2,8.3-0.5c2.8-0.3,5.5-0.6,8.2-0.6c3.1,0,5.9,0.7,6.1,7.9h10
		c0.2-7.2,3.2-7.9,6.1-7.9c2.6,0,5.3,0.3,8.2,0.6c2.8,0.3,5.6,0.5,8.3,0.5c10.5,0,14.2-6.5,14.2-15.8v-3.8H788.3z"/>
	<path fill="#FFFFFF" d="M730.9-643.4c0,2.5-2,4.5-4.5,4.5c-2.5,0-4.5-2-4.5-4.5c0-2.5,2-4.5,4.5-4.5
		C728.9-647.8,730.9-645.8,730.9-643.4"/>
	<path fill="#FFFFFF" d="M787.7-643.4c0,2.5-2,4.5-4.5,4.5c-2.5,0-4.5-2-4.5-4.5c0-2.5,2-4.5,4.5-4.5
		C785.7-647.8,787.7-645.8,787.7-643.4"/>
	<path fill="none" stroke="#A9856B" stroke-width="4" stroke-linecap="round" stroke-linejoin="round" stroke-miterlimit="10" d="
		M741.1-607.4h23.3c0,0,5.3,0,6.7-4.4"/>
	<path fill="#EED3B8" d="M1137.6-837.8c0,7.8-5.5,17.4-12.3,21.3l-40.8,23.6c-6.8,3.9-17.8,3.9-24.5,0l-40.8-23.6
		c-6.8-3.9-12.3-13.5-12.3-21.3v-57.2c0-7.8,5.5-17.4,12.3-21.3l40.8-23.6c6.8-3.9,17.8-3.9,24.5,0l40.8,23.6
		c6.8,3.9,12.3,13.5,12.3,21.3V-837.8z"/>
	<polygon fill="#D5B69C" points="1037,-824.9 1072.2,-819.7 1107.4,-824.9 1107.4,-833.7 1037,-833.7 	"/>
	<path fill="#3FB289" d="M1125.3-916.2l-40.8-23.6c-6.8-3.9-17.8-3.9-24.5,0l-40.8,23.6c-6.8,3.9-12.3,13.5-12.3,21.3v57.2
		c0,7.8,5.5,17.4,12.3,21.3l17.9,10.3v-22.7l35.2,5.2l35.2-5.2v22.7l17.9-10.3c6.8-3.9,12.3-13.5,12.3-21.3v-57.2
		C1137.6-902.7,1132-912.3,1125.3-916.2"/>
	<path fill="#3B3A3A" d="M1125.3-916.2l-40.8-23.6c-6.8-3.9-17.8-3.9-24.5,0l-40.8,23.6c-6.8,3.9-12.3,13.5-12.3,21.3v57.2
		c0,7.8,5.5,17.4,12.3,21.3l17.9,10.3v-22.7l35.2,5.2l35.2-5.2v22.7l17.9-10.3c6.8-3.9,12.3-13.5,12.3-21.3v-57.2
		C1137.6-902.7,1132-912.3,1125.3-916.2"/>
	<path fill="#313130" d="M1072.2-942.7c4.3,0,9,1,12.3,2.9l40.8,23.6c6.8,3.9,12.3,13.5,12.3,21.3v57.2c0,7.8-5.5,17.4-12.3,21.3
		l-17.9,10.3v-22.7l-35.2,5.2V-942.7z"/>
	<polygon fill="#D5B69C" points="1037,-828.9 1037,-806.2 1040.9,-828.3 	"/>
	<polygon fill="#D5B69C" points="1107.4,-828.9 1107.4,-806.2 1103.4,-828.3 	"/>
	<path fill="#63BB96" d="M1072.2-914.8c-12.1,0-22,9.9-22,22c0,12.1,9.9,22,22,22c12.1,0,22-9.9,22-22
		C1094.2-904.9,1084.3-914.8,1072.2-914.8 M1072.2-875.7c-9.4,0-17-7.6-17-17c0-9.4,7.6-17,17-17c9.4,0,17,7.6,17,17
		C1089.2-883.4,1081.6-875.7,1072.2-875.7"/>
	<path fill="#63BB96" d="M1072.2-905.5c-7,0-12.7,5.7-12.7,12.7c0,7,5.7,12.7,12.7,12.7c7,0,12.7-5.7,12.7-12.7
		C1084.9-899.8,1079.2-905.5,1072.2-905.5 M1072.2-885c-4.3,0-7.7-3.5-7.7-7.7c0-4.3,3.5-7.7,7.7-7.7c4.3,0,7.7,3.5,7.7,7.7
		C1079.9-888.5,1076.4-885,1072.2-885"/>
	<path fill="#63BB96" d="M1072.2-896c-1.8,0-3.2,1.4-3.2,3.2c0,1.8,1.5,3.2,3.2,3.2s3.2-1.4,3.2-3.2
		C1075.4-894.5,1074-896,1072.2-896"/>
	<path fill="#3FB289" d="M1072.2-909.8c9.4,0,17,7.6,17,17c0,9.4-7.6,17-17,17v5c12.1,0,22-9.9,22-22c0-12.1-9.9-22-22-22V-909.8z"
		/>
	<path fill="#3FB289" d="M1072.2-900.5c4.3,0,7.7,3.5,7.7,7.7c0,4.3-3.5,7.7-7.7,7.7v5c7,0,12.7-5.7,12.7-12.7
		c0-7-5.7-12.7-12.7-12.7V-900.5z"/>
	<path fill="#3FB289" d="M1072.2-889.5c1.8,0,3.2-1.4,3.2-3.2c0-1.8-1.4-3.2-3.2-3.2V-889.5z"/>
	<path fill="#EED3B8" d="M1105.2-857.5v1.9c0,4.8-2.9,6.4-7.5,6.4c-1.8,0-3.8-0.3-5.9-0.5c-2.2-0.2-4.6-0.5-7.3-0.5
		c-7.9-0.1-11,3.1-12.2,8.9h-0.2c-1.3-5.7-4.2-9-12.1-8.9c-2.6,0-5,0.3-7.1,0.5c-2.2,0.2-4.1,0.5-6,0.5c-4.6,0-7.4-1.7-7.4-6.4v-1.9
		h-8.9v3.7c0,9.7,4.3,15.9,14.1,15.9c2.6,0,5.4-0.2,8.3-0.5c2.8-0.3,5.5-0.6,8.2-0.6c3.1,0,5.9,0.7,6.1,7.9h10
		c0.2-7.2,3.2-7.9,6.1-7.9c2.6,0,5.3,0.3,8.2,0.6c2.8,0.3,5.6,0.5,8.3,0.5c10.5,0,14.2-6.5,14.2-15.8v-3.8H1105.2z"/>
	<path fill="#FFFFFF" d="M1047.7-844.9c0,2.5-2,4.5-4.5,4.5c-2.5,0-4.5-2-4.5-4.5c0-2.5,2-4.5,4.5-4.5
		C1045.7-849.3,1047.7-847.3,1047.7-844.9"/>
	<path fill="#FFFFFF" d="M1104.6-844.9c0,2.5-2,4.5-4.5,4.5c-2.5,0-4.5-2-4.5-4.5c0-2.5,2-4.5,4.5-4.5
		C1102.6-849.3,1104.6-847.3,1104.6-844.9"/>
	<path fill="none" stroke="#A9856B" stroke-width="4" stroke-linecap="round" stroke-linejoin="round" stroke-miterlimit="10" d="
		M1058-808.9h23.3c0,0,5.3,0,6.7-4.4"/>
	<path opacity="0.5" fill="#D5B69C" d="M1091.9-847.6c2.1,0.2,4.1,0.5,5.9,0.5c4.6,0,7.5-1.6,7.5-6.4v-1.9h8.8v-2.7h-8.8v1.9
		c0,4.8-2.9,6.4-7.5,6.4c-1.8,0-3.8-0.3-5.9-0.5c-2.2-0.2-4.6-0.5-7.3-0.5c-7.9-0.1-11,3.1-12.2,8.9h-0.2c-1.3-5.7-4.2-9-12.1-8.9
		c-2.6,0-5,0.3-7.1,0.5c-2.2,0.2-4.1,0.5-6,0.5c-4.6,0-7.4-1.7-7.4-6.4v-1.9h-8.9v2.7h8.9v1.9c0,4.7,2.8,6.4,7.4,6.4
		c1.9,0,3.8-0.3,6-0.5c2.1-0.2,4.5-0.5,7.1-0.5c7.9-0.1,10.9,3.1,12.1,8.9h0.2c1.3-5.7,4.3-9,12.2-8.9
		C1087.3-848.1,1089.7-847.8,1091.9-847.6"/>
	<path fill="#EED3B8" d="M1337.2-838.3c0,7.8-5.5,17.4-12.3,21.3l-40.8,23.6c-6.8,3.9-17.8,3.9-24.5,0l-40.8-23.6
		c-6.8-3.9-12.3-13.5-12.3-21.3v-57.2c0-7.8,5.5-17.4,12.3-21.3l40.8-23.6c6.8-3.9,17.8-3.9,24.5,0l40.8,23.6
		c6.8,3.9,12.3,13.5,12.3,21.3V-838.3z"/>
	<polygon fill="#D5B69C" points="1236.6,-825.4 1271.8,-820.2 1307.1,-825.4 1307.1,-834.2 1236.6,-834.2 	"/>
	<path fill="#3FB289" d="M1325-916.7l-40.8-23.6c-6.8-3.9-17.8-3.9-24.5,0l-40.8,23.6c-6.8,3.9-12.3,13.5-12.3,21.3v57.2
		c0,7.8,5.5,17.4,12.3,21.3l17.9,10.3v-22.7l35.2,5.2l35.2-5.2v22.7L1325-817c6.8-3.9,12.3-13.5,12.3-21.3v-57.2
		C1337.2-903.2,1331.7-912.8,1325-916.7"/>
	<path fill="#313130" d="M1271.7-943.1c4.3,0,9,1,12.3,2.9l40.8,23.6c6.8,3.9,12.3,13.5,12.3,21.3v57.2c0,7.8-5.5,17.4-12.3,21.3
		l-17.9,10.3v-22.7l-35.2,5.2V-943.1z"/>
	<path fill="#313130" d="M1271.8-915.3c-12.1,0-22,9.9-22,22c0,12.1,9.9,22,22,22c12.1,0,22-9.9,22-22
		C1293.9-905.4,1284-915.3,1271.8-915.3 M1271.8-876.2c-9.4,0-17-7.6-17-17c0-9.4,7.6-17,17-17c9.4,0,17,7.6,17,17
		C1288.9-883.9,1281.2-876.2,1271.8-876.2"/>
	<path fill="#313130" d="M1271.8-906c-7,0-12.7,5.7-12.7,12.7c0,7,5.7,12.7,12.7,12.7c7,0,12.7-5.7,12.7-12.7
		C1284.6-900.3,1278.9-906,1271.8-906 M1271.8-885.5c-4.3,0-7.7-3.5-7.7-7.7c0-4.3,3.5-7.7,7.7-7.7c4.3,0,7.7,3.5,7.7,7.7
		C1279.6-889,1276.1-885.5,1271.8-885.5"/>
	<path fill="#313130" d="M1271.8-896.5c-1.8,0-3.2,1.4-3.2,3.2c0,1.8,1.4,3.2,3.2,3.2c1.8,0,3.2-1.4,3.2-3.2
		C1275.1-895,1273.6-896.5,1271.8-896.5"/>
	<path fill="#3FB289" d="M1271.8-910.3c9.4,0,17,7.6,17,17c0,9.4-7.6,17-17,17v5c12.1,0,22-9.9,22-22c0-12.1-9.9-22-22-22V-910.3z"
		/>
	<path fill="#3FB289" d="M1271.8-901c4.3,0,7.7,3.5,7.7,7.7c0,4.3-3.5,7.7-7.7,7.7v5c7,0,12.7-5.7,12.7-12.7c0-7-5.7-12.7-12.7-12.7
		V-901z"/>
	<path fill="#3FB289" d="M1271.8-890c1.8,0,3.2-1.4,3.2-3.2c0-1.8-1.5-3.2-3.2-3.2V-890z"/>
	<path fill="#FFFFFF" d="M1247.4-845.4c0,2.5-2,4.5-4.5,4.5s-4.5-2-4.5-4.5c0-2.5,2-4.5,4.5-4.5S1247.4-847.8,1247.4-845.4"/>
	<path fill="#FFFFFF" d="M1304.2-845.4c0,2.5-2,4.5-4.5,4.5s-4.5-2-4.5-4.5c0-2.5,2-4.5,4.5-4.5S1304.2-847.8,1304.2-845.4"/>
	<path fill="none" stroke="#A9856B" stroke-width="4" stroke-linecap="round" stroke-linejoin="round" stroke-miterlimit="10" d="
		M1257.7-809.4h23.3c0,0,5.3,0,6.7-4.4"/>
	<path fill="#EED3B8" d="M1300-837.2v1.6c0,4.1-2.5,5.5-6.4,5.5c-1.5,0-3.2-0.3-5-0.4c-1.9-0.2-3.9-0.4-6.2-0.4
		c-6.8-0.1-9.4,2.7-10.4,7.6h-0.2c-1.1-4.9-3.6-7.7-10.4-7.6c-2.2,0-4.3,0.3-6.1,0.4c-1.9,0.2-3.5,0.4-5.1,0.4
		c-3.9,0-6.3-1.4-6.3-5.5v-1.6h-7.6v3.1c0,8.3,3.7,13.6,12,13.6c2.2,0,4.6-0.2,7.1-0.4c2.4-0.3,4.7-0.5,7-0.5c2.7,0,5,0.6,5.2,6.8
		h8.6c0.2-6.2,2.7-6.8,5.2-6.8c2.2,0,4.6,0.3,7,0.5c2.4,0.3,4.8,0.4,7.1,0.4c8.9,0,12.1-5.6,12.1-13.5v-3.2H1300z"/>
	<path fill="#D5B69C" d="M1288.6-829.9c1.8,0.2,3.5,0.4,5,0.4c3.9,0,6.4-1.3,6.4-5.5v-1.6h7.5v-2.3h-7.5v1.6c0,4.1-2.5,5.5-6.4,5.5
		c-1.5,0-3.2-0.3-5-0.4c-1.9-0.2-3.9-0.4-6.2-0.4c-6.8-0.1-9.4,2.7-10.4,7.6h-0.2c-1.1-4.9-3.6-7.7-10.4-7.6c-2.2,0-4.3,0.3-6.1,0.4
		c-1.9,0.2-3.5,0.4-5.1,0.4c-3.9,0-6.3-1.4-6.3-5.5v-1.6h-7.6v2.3h7.6v1.6c0,4,2.4,5.5,6.3,5.5c1.6,0,3.2-0.3,5.1-0.4
		c1.8-0.2,3.8-0.4,6.1-0.4c6.8-0.1,9.3,2.7,10.4,7.6h0.2c1.1-4.9,3.7-7.7,10.4-7.6C1284.7-830.3,1286.7-830.1,1288.6-829.9"/>
	<polygon fill="#D5B69C" points="1236.3,-838.6 1236.3,-806.8 1240.3,-837.8 	"/>
	<polygon fill="#D5B69C" points="1307.4,-838.8 1307.2,-806.6 1303.4,-838 	"/>
	<path fill="#EED3B8" d="M1515.7-838.3c0,7.8-5.5,17.4-12.3,21.3l-40.8,23.6c-6.8,3.9-17.8,3.9-24.5,0l-40.8-23.6
		c-6.8-3.9-12.3-13.5-12.3-21.3v-57.2c0-7.8,5.5-17.4,12.3-21.3l40.8-23.6c6.8-3.9,17.8-3.9,24.5,0l40.8,23.6
		c6.8,3.9,12.3,13.5,12.3,21.3V-838.3z"/>
	<polygon fill="#D5B69C" points="1415.1,-825.4 1450.3,-820.2 1485.6,-825.4 1485.6,-834.2 1415.1,-834.2 	"/>
	<path fill="#3FB289" d="M1503.5-916.7l-40.8-23.6c-6.8-3.9-17.8-3.9-24.5,0l-40.8,23.6c-6.8,3.9-12.3,13.5-12.3,21.3v57.2
		c0,7.8,5.5,17.4,12.3,21.3l17.9,10.3v-22.7l35.2,5.2l35.2-5.2v22.7l17.9-10.3c6.8-3.9,12.3-13.5,12.3-21.3v-57.2
		C1515.7-903.2,1510.2-912.8,1503.5-916.7"/>
	<path fill="#313130" d="M1450.2-943.1c4.3,0,9,1,12.3,2.9l40.8,23.6c6.8,3.9,12.3,13.5,12.3,21.3v57.2c0,7.8-5.5,17.4-12.3,21.3
		l-17.9,10.3v-22.7l-35.2,5.2V-943.1z"/>
	<path fill="#313130" d="M1450.3-915.3c-12.1,0-22,9.9-22,22c0,12.1,9.9,22,22,22c12.1,0,22-9.9,22-22
		C1472.4-905.4,1462.5-915.3,1450.3-915.3 M1450.3-876.2c-9.4,0-17-7.6-17-17c0-9.4,7.6-17,17-17c9.4,0,17,7.6,17,17
		C1467.4-883.9,1459.7-876.2,1450.3-876.2"/>
	<path fill="#313130" d="M1450.3-906c-7,0-12.7,5.7-12.7,12.7c0,7,5.7,12.7,12.7,12.7c7,0,12.7-5.7,12.7-12.7
		C1463.1-900.3,1457.4-906,1450.3-906 M1450.3-885.5c-4.3,0-7.7-3.5-7.7-7.7c0-4.3,3.5-7.7,7.7-7.7c4.3,0,7.7,3.5,7.7,7.7
		C1458.1-889,1454.6-885.5,1450.3-885.5"/>
	<path fill="#313130" d="M1450.3-896.5c-1.8,0-3.2,1.4-3.2,3.2c0,1.8,1.4,3.2,3.2,3.2c1.8,0,3.2-1.4,3.2-3.2
		C1453.6-895,1452.1-896.5,1450.3-896.5"/>
	<path fill="#3FB289" d="M1450.3-910.3c9.4,0,17,7.6,17,17c0,9.4-7.6,17-17,17v5c12.1,0,22-9.9,22-22c0-12.1-9.9-22-22-22V-910.3z"
		/>
	<path fill="#3FB289" d="M1450.3-901c4.3,0,7.7,3.5,7.7,7.7c0,4.3-3.5,7.7-7.7,7.7v5c7,0,12.7-5.7,12.7-12.7c0-7-5.7-12.7-12.7-12.7
		V-901z"/>
	<path fill="#3FB289" d="M1450.3-890c1.8,0,3.2-1.4,3.2-3.2c0-1.8-1.5-3.2-3.2-3.2V-890z"/>
	<path fill="#FFFFFF" d="M1425.9-845.4c0,2.5-2,4.5-4.5,4.5s-4.5-2-4.5-4.5c0-2.5,2-4.5,4.5-4.5S1425.9-847.8,1425.9-845.4"/>
	<path fill="#FFFFFF" d="M1482.7-845.4c0,2.5-2,4.5-4.5,4.5s-4.5-2-4.5-4.5c0-2.5,2-4.5,4.5-4.5S1482.7-847.8,1482.7-845.4"/>
	<path fill="none" stroke="#A9856B" stroke-width="4" stroke-linecap="round" stroke-linejoin="round" stroke-miterlimit="10" d="
		M1436.2-809.4h23.3c0,0,5.3,0,6.7-4.4"/>
	<path fill="#EED3B8" d="M1478.5-835.2v1.6c0,4.1-2.5,5.5-6.4,5.5c-1.5,0-3.2-0.3-5-0.4c-1.9-0.2-3.9-0.4-6.2-0.4
		c-6.8-0.1-9.4,2.7-10.4,7.6h-0.2c-1.1-4.9-3.6-7.7-10.4-7.6c-2.2,0-4.3,0.3-6.1,0.4c-1.9,0.2-3.5,0.4-5.1,0.4
		c-3.9,0-6.3-1.4-6.3-5.5v-1.6h-7.6v3.1c0,8.3,3.7,13.6,12,13.6c2.2,0,4.6-0.2,7.1-0.4c2.4-0.3,4.7-0.5,7-0.5c2.7,0,5,0.6,5.2,6.8
		h8.6c0.2-6.2,2.7-6.8,5.2-6.8c2.2,0,4.6,0.3,7,0.5c2.4,0.3,4.8,0.4,7.1,0.4c8.9,0,12.1-5.6,12.1-13.5v-3.2H1478.5z"/>
	<path fill="#EED3B8" d="M1708.7-838.3c0,7.8-5.5,17.4-12.3,21.3l-40.8,23.6c-6.8,3.9-17.8,3.9-24.5,0l-40.8-23.6
		c-6.8-3.9-12.3-13.5-12.3-21.3v-57.2c0-7.8,5.5-17.4,12.3-21.3l40.8-23.6c6.8-3.9,17.8-3.9,24.5,0l40.8,23.6
		c6.8,3.9,12.3,13.5,12.3,21.3V-838.3z"/>
	<path fill="#3FB289" d="M1696.5-916.7l-40.8-23.6c-6.8-3.9-17.8-3.9-24.5,0l-40.8,23.6c-6.8,3.9-12.3,13.5-12.3,21.3v57.2
		c0,7.8,5.5,17.4,12.3,21.3l17.9,10.3v-22.7l35.2,8.7l35.2-8.7v22.7l17.9-10.3c6.8-3.9,12.3-13.5,12.3-21.3v-57.2
		C1708.7-903.2,1703.2-912.8,1696.5-916.7"/>
	<path fill="#313130" d="M1643.2-943.1c4.3,0,9,1,12.3,2.9l40.8,23.6c6.8,3.9,12.3,13.5,12.3,21.3v57.2c0,7.8-5.5,17.4-12.3,21.3
		l-17.9,10.3v-22.7l-35.2,7.9L1643.2-943.1z"/>
	<path fill="#313130" d="M1643.3-915.3c-12.1,0-22,9.9-22,22c0,12.1,9.9,22,22,22c12.1,0,22-9.9,22-22
		C1665.4-905.4,1655.5-915.3,1643.3-915.3 M1643.3-876.2c-9.4,0-17-7.6-17-17c0-9.4,7.6-17,17-17c9.4,0,17,7.6,17,17
		C1660.4-883.9,1652.7-876.2,1643.3-876.2"/>
	<path fill="#313130" d="M1643.3-906c-7,0-12.7,5.7-12.7,12.7c0,7,5.7,12.7,12.7,12.7c7,0,12.7-5.7,12.7-12.7
		C1656.1-900.3,1650.4-906,1643.3-906 M1643.3-885.5c-4.3,0-7.7-3.5-7.7-7.7c0-4.3,3.5-7.7,7.7-7.7c4.3,0,7.7,3.5,7.7,7.7
		C1651.1-889,1647.6-885.5,1643.3-885.5"/>
	<path fill="#313130" d="M1643.3-896.5c-1.8,0-3.2,1.4-3.2,3.2c0,1.8,1.4,3.2,3.2,3.2c1.8,0,3.2-1.4,3.2-3.2
		C1646.6-895,1645.1-896.5,1643.3-896.5"/>
	<path fill="#3FB289" d="M1643.3-910.3c9.4,0,17,7.6,17,17c0,9.4-7.6,17-17,17v5c12.1,0,22-9.9,22-22c0-12.1-9.9-22-22-22V-910.3z"
		/>
	<path fill="#3FB289" d="M1643.3-901c4.3,0,7.7,3.5,7.7,7.7c0,4.3-3.5,7.7-7.7,7.7v5c7,0,12.7-5.7,12.7-12.7c0-7-5.7-12.7-12.7-12.7
		V-901z"/>
	<path fill="#3FB289" d="M1643.3-890c1.8,0,3.2-1.4,3.2-3.2c0-1.8-1.5-3.2-3.2-3.2V-890z"/>
	<path fill="#FFFFFF" d="M1618.9-845.4c0,2.5-2,4.5-4.5,4.5s-4.5-2-4.5-4.5c0-2.5,2-4.5,4.5-4.5S1618.9-847.8,1618.9-845.4"/>
	<path fill="#FFFFFF" d="M1675.7-845.4c0,2.5-2,4.5-4.5,4.5c-2.5,0-4.5-2-4.5-4.5c0-2.5,2-4.5,4.5-4.5
		C1673.7-849.8,1675.7-847.8,1675.7-845.4"/>
	<path fill="none" stroke="#A9856B" stroke-width="4" stroke-linecap="round" stroke-linejoin="round" stroke-miterlimit="10" d="
		M1629.2-809.4h23.3c0,0,5.3,0,6.7-4.4"/>
	<path fill="#EED3B8" d="M1667-827.2c-2.2,0-4.7-0.2-7.1-0.5c-2.4-0.3-4.8-0.5-7-0.5c-2.5,0-9.5,0.5-9.6,6.7l0,0
		c-0.2-6.2-6.8-6.7-9.5-6.7c-2.2,0-4.6,0.3-7,0.5c-2.4,0.3-4.9,0.5-7.1,0.5c-7.1,0-10.9-3.8-11.9-10.1h-0.1v3.1
		c0,8.3,3.7,13.6,12,13.6c2.2,0,4.6-0.2,7.1-0.4c2.4-0.3,4.7-0.5,7-0.5c2.7,0,5,0.6,5.2,6.8h8.6c0.2-6.2,2.7-6.8,5.2-6.8
		c2.2,0,4.6,0.3,7,0.5c2.4,0.3,4.8,0.4,7.1,0.4c8.9,0,12.1-5.6,12.1-13.5v-2.5C1677.8-830.9,1674.3-827.2,1667-827.2z"/>
	<path fill="#EED3B8" d="M1708.7-627.4c0,7.8-5.5,17.4-12.3,21.3l-40.8,23.6c-6.8,3.9-17.8,3.9-24.5,0l-40.8-23.6
		c-6.8-3.9-12.3-13.5-12.3-21.3v-57.2c0-7.8,5.5-17.4,12.3-21.3l40.8-23.6c6.8-3.9,17.8-3.9,24.5,0l40.8,23.6
		c6.8,3.9,12.3,13.5,12.3,21.3V-627.4z"/>
	<path fill="#484848" d="M1696.5-705.8l-40.8-23.6c-6.8-3.9-17.8-3.9-24.5,0l-40.8,23.6c-6.8,3.9-12.3,13.5-12.3,21.3v57.2
		c0,7.8,5.5,17.4,12.3,21.3l17.9,10.3l0-24.4l35.2,10.3l35.1-9.9l0.1,23.9l17.9-10.3c6.8-3.9,12.3-13.5,12.3-21.3v-57.2
		C1708.7-692.3,1703.2-701.9,1696.5-705.8"/>
	<path fill="#313130" d="M1643.2-732.3c4.3,0,9,1,12.3,2.9l40.8,23.6c6.8,3.9,12.3,13.5,12.3,21.3v57.2c0,7.8-5.5,17.4-12.3,21.3
		l-17.9,10.3l0-24.1l-35.2,9.2L1643.2-732.3z"/>
	<path fill="#FFFFFF" d="M1618.9-634.5c0,2.5-2,4.5-4.5,4.5s-4.5-2-4.5-4.5c0-2.5,2-4.5,4.5-4.5S1618.9-637,1618.9-634.5"/>
	<path fill="#FFFFFF" d="M1675.7-634.5c0,2.5-2,4.5-4.5,4.5c-2.5,0-4.5-2-4.5-4.5c0-2.5,2-4.5,4.5-4.5
		C1673.7-639,1675.7-637,1675.7-634.5"/>
	<g>
		<path fill="#63BB96" d="M1643.2-704.4c-12.1,0-22,9.9-22,22c0,12.1,9.9,22,22,22c12.1,0,22-9.9,22-22
			C1665.3-694.5,1655.4-704.4,1643.2-704.4 M1643.2-665.4c-9.4,0-17-7.6-17-17c0-9.4,7.6-17,17-17c9.4,0,17,7.6,17,17
			C1660.3-673,1652.6-665.4,1643.2-665.4"/>
		<path fill="#63BB96" d="M1643.2-695.1c-7,0-12.7,5.7-12.7,12.7c0,7,5.7,12.7,12.7,12.7c7,0,12.7-5.7,12.7-12.7
			C1656-689.4,1650.3-695.1,1643.2-695.1 M1643.2-674.7c-4.3,0-7.7-3.5-7.7-7.7c0-4.3,3.5-7.7,7.7-7.7c4.3,0,7.7,3.5,7.7,7.7
			C1651-678.1,1647.5-674.7,1643.2-674.7"/>
		<path fill="#63BB96" d="M1643.2-685.6c-1.8,0-3.2,1.4-3.2,3.2c0,1.8,1.5,3.2,3.2,3.2c1.8,0,3.2-1.4,3.2-3.2
			C1646.5-684.2,1645-685.6,1643.2-685.6"/>
	</g>
	<g>
		<path fill="#3FB289" d="M1643.3-699.4c9.4,0,17,7.6,17,17c0,9.4-7.6,17-17,17v5c12.1,0,22-9.9,22-22c0-12.1-9.9-22-22-22V-699.4z"
			/>
		<path fill="#3FB289" d="M1643.3-690.1c4.3,0,7.7,3.5,7.7,7.7c0,4.3-3.5,7.7-7.7,7.7v5c7,0,12.7-5.7,12.7-12.7
			c0-7-5.7-12.7-12.7-12.7V-690.1z"/>
		<path fill="#3FB289" d="M1643.3-679.1c1.8,0,3.2-1.4,3.2-3.2c0-1.8-1.5-3.2-3.2-3.2V-679.1z"/>
	</g>
	<g>
		<path fill="#FFFFFF" d="M1666.7-617.6c-2.2,0-4.6-0.2-7-0.5c-2.4-0.3-4.7-0.5-6.9-0.5c-2.5,0-9.3,0.5-9.5,6.7l0,0
			c-0.2-6.2-6.7-6.7-9.4-6.7c-2.2,0-4.5,0.3-6.9,0.5c-2.4,0.3-4.8,0.5-7,0.5c-7,0-10.7-3.8-11.7-10.1h-0.1v3.1
			c0,8.3,3.6,13.6,11.9,13.6c2.2,0,4.6-0.2,7-0.4c2.4-0.3,4.7-0.5,6.9-0.5c2.6,0,5,0.6,5.2,6.8h8.5c0.2-6.2,2.7-6.8,5.1-6.8
			c2.2,0,4.5,0.3,6.9,0.5c2.4,0.3,4.8,0.4,7,0.4c8.8,0,12-5.6,12-13.5v-2.5C1677.4-621.3,1673.9-617.6,1666.7-617.6z"/>
		<path fill="#D5B69C" d="M1666.7-614.9c-2.2,0-4.6-0.2-7-0.5c-2.4-0.3-4.7-0.5-6.9-0.5c-2.5,0-9.3,0.5-9.5,6.7l0,0
			c-0.2-6.2-6.7-6.7-9.4-6.7c-2.2,0-4.5,0.3-6.9,0.5c-2.4,0.3-4.8,0.5-7,0.5c-7,0-10.7-3.8-11.7-10.1h-0.1v3.1
			c0,8.3,3.6,13.6,11.9,13.6c2.2,0,4.6-0.2,7-0.4c2.4-0.3,4.7-0.5,6.9-0.5c2.6,0,5,0.6,5.2,6.8h8.5c0.2-6.2,2.7-6.8,5.1-6.8
			c2.2,0,4.5,0.3,6.9,0.5c2.4,0.3,4.8,0.4,7,0.4c8.8,0,12-5.6,12-13.5v-2.5C1677.4-618.5,1673.9-614.9,1666.7-614.9z"/>
		<path fill="#EED3B8" d="M1666.7-613.3c-2.2,0-4.6-0.2-7-0.5c-2.4-0.3-4.7-0.5-6.9-0.5c-2.5,0-9.3,0.5-9.5,6.7l0,0
			c-0.2-6.2-6.7-6.7-9.4-6.7c-2.2,0-4.5,0.3-6.9,0.5c-2.4,0.3-4.8,0.5-7,0.5c-7,0-10.7-3.8-11.7-10.1h-0.1v3.1
			c0,8.3,3.6,13.6,11.9,13.6c2.2,0,4.6-0.2,7-0.4c2.4-0.3,4.7-0.5,6.9-0.5c2.6,0,5,0.6,5.2,6.8h8.5c0.2-6.2,2.7-6.8,5.1-6.8
			c2.2,0,4.5,0.3,6.9,0.5c2.4,0.3,4.8,0.4,7,0.4c8.8,0,12-5.6,12-13.5v-2.5C1677.4-616.9,1673.9-613.3,1666.7-613.3z"/>
	</g>
	<path fill="none" stroke="#A9856B" stroke-width="4" stroke-linecap="round" stroke-linejoin="round" stroke-miterlimit="10" d="
		M1629.2-598.5h23.3c0,0,5.3,0,6.7-4.4"/>
	<g>
		<path id="j" fill="#63BB96" d="M1721.1-644.8l10-6c1.9,3.4,3.7,6.3,7.9,6.3c4,0,6.6-1.6,6.6-7.7v-41.6h12.2v41.8
			c0,12.7-7.4,18.4-18.3,18.4C1729.6-633.6,1723.9-638.7,1721.1-644.8"/>
		<path id="s" fill="#3FB289" d="M1764.3-646.1l10-5.8c2.6,4.3,6,7.4,12.1,7.4c5.1,0,8.3-2.5,8.3-6c0-4.2-3.3-5.7-8.9-8.1l-3.1-1.3
			c-8.8-3.8-14.7-8.5-14.7-18.4c0-9.2,7-16.2,17.9-16.2c7.8,0,13.4,2.7,17.4,9.8l-9.5,6.1c-2.1-3.8-4.4-5.2-7.9-5.2
			c-3.6,0-5.9,2.3-5.9,5.2c0,3.7,2.3,5.2,7.5,7.4l3.1,1.3c10.4,4.5,16.2,9,16.2,19.2c0,11-8.6,17-20.3,17
			C1775.2-633.6,1767.9-639,1764.3-646.1"/>
	</g>
	<path fill="#EED3B8" d="M1432.7-627.4c0,7.8-5.5,17.4-12.3,21.3l-40.8,23.6c-6.8,3.9-17.8,3.9-24.5,0l-40.8-23.6
		c-6.8-3.9-12.3-13.5-12.3-21.3v-57.2c0-7.8,5.5-17.4,12.3-21.3l40.8-23.6c6.8-3.9,17.8-3.9,24.5,0l40.8,23.6
		c6.8,3.9,12.3,13.5,12.3,21.3V-627.4z"/>
	<path fill="#484848" d="M1420.5-705.8l-40.8-23.6c-6.8-3.9-17.8-3.9-24.5,0l-40.8,23.6c-6.8,3.9-12.3,13.5-12.3,21.3v57.2
		c0,7.8,5.5,17.4,12.3,21.3l17.9,10.3l0-24.4l35.2,10.3l35.1-9.9l0.1,23.9l17.9-10.3c6.8-3.9,12.3-13.5,12.3-21.3v-57.2
		C1432.7-692.3,1427.2-701.9,1420.5-705.8"/>
	<path fill="#313130" d="M1367.2-732.3c4.3,0,9,1,12.3,2.9l40.8,23.6c6.8,3.9,12.3,13.5,12.3,21.3v57.2c0,7.8-5.5,17.4-12.3,21.3
		l-17.9,10.3l0-24.1l-35.2,9.2L1367.2-732.3z"/>
	<path fill="#FFFFFF" d="M1342.9-634.5c0,2.5-2,4.5-4.5,4.5s-4.5-2-4.5-4.5c0-2.5,2-4.5,4.5-4.5S1342.9-637,1342.9-634.5"/>
	<path fill="#FFFFFF" d="M1399.7-634.5c0,2.5-2,4.5-4.5,4.5c-2.5,0-4.5-2-4.5-4.5c0-2.5,2-4.5,4.5-4.5
		C1397.7-639,1399.7-637,1399.7-634.5"/>
	<g>
		<path fill="#FFFFFF" d="M1390.7-617.6c-2.2,0-4.6-0.2-7-0.5c-2.4-0.3-4.7-0.5-6.9-0.5c-2.5,0-9.3,0.5-9.5,6.7l0,0
			c-0.2-6.2-6.7-6.7-9.4-6.7c-2.2,0-4.5,0.3-6.9,0.5c-2.4,0.3-4.8,0.5-7,0.5c-7,0-10.7-3.8-11.7-10.1h-0.1v3.1
			c0,8.3,3.6,13.6,11.9,13.6c2.2,0,4.6-0.2,7-0.4c2.4-0.3,4.7-0.5,6.9-0.5c2.6,0,5,0.6,5.2,6.8h8.5c0.2-6.2,2.7-6.8,5.1-6.8
			c2.2,0,4.5,0.3,6.9,0.5c2.4,0.3,4.8,0.4,7,0.4c8.8,0,12-5.6,12-13.5v-2.5C1401.4-621.3,1397.9-617.6,1390.7-617.6z"/>
		<path fill="#D5B69C" d="M1390.7-614.9c-2.2,0-4.6-0.2-7-0.5c-2.4-0.3-4.7-0.5-6.9-0.5c-2.5,0-9.3,0.5-9.5,6.7l0,0
			c-0.2-6.2-6.7-6.7-9.4-6.7c-2.2,0-4.5,0.3-6.9,0.5c-2.4,0.3-4.8,0.5-7,0.5c-7,0-10.7-3.8-11.7-10.1h-0.1v3.1
			c0,8.3,3.6,13.6,11.9,13.6c2.2,0,4.6-0.2,7-0.4c2.4-0.3,4.7-0.5,6.9-0.5c2.6,0,5,0.6,5.2,6.8h8.5c0.2-6.2,2.7-6.8,5.1-6.8
			c2.2,0,4.5,0.3,6.9,0.5c2.4,0.3,4.8,0.4,7,0.4c8.8,0,12-5.6,12-13.5v-2.5C1401.4-618.5,1397.9-614.9,1390.7-614.9z"/>
		<path fill="#EED3B8" d="M1390.7-613.3c-2.2,0-4.6-0.2-7-0.5c-2.4-0.3-4.7-0.5-6.9-0.5c-2.5,0-9.3,0.5-9.5,6.7l0,0
			c-0.2-6.2-6.7-6.7-9.4-6.7c-2.2,0-4.5,0.3-6.9,0.5c-2.4,0.3-4.8,0.5-7,0.5c-7,0-10.7-3.8-11.7-10.1h-0.1v3.1
			c0,8.3,3.6,13.6,11.9,13.6c2.2,0,4.6-0.2,7-0.4c2.4-0.3,4.7-0.5,6.9-0.5c2.6,0,5,0.6,5.2,6.8h8.5c0.2-6.2,2.7-6.8,5.1-6.8
			c2.2,0,4.5,0.3,6.9,0.5c2.4,0.3,4.8,0.4,7,0.4c8.8,0,12-5.6,12-13.5v-2.5C1401.4-616.9,1397.9-613.3,1390.7-613.3z"/>
	</g>
	<path fill="none" stroke="#A9856B" stroke-width="4" stroke-linecap="round" stroke-linejoin="round" stroke-miterlimit="10" d="
		M1353.2-598.5h23.3c0,0,5.3,0,6.7-4.4"/>
	<g>
		<path id="j_1_" fill="#63BB96" d="M1343.5-667l5.5-3.3c1.1,1.9,2,3.5,4.4,3.5c2.2,0,3.6-0.9,3.6-4.3v-23h6.8v23.1
			c0,7-4.1,10.2-10.1,10.2C1348.2-660.8,1345.1-663.6,1343.5-667"/>
		<path id="s_1_" fill="#3FB289" d="M1367.4-667.7l5.5-3.2c1.5,2.4,3.3,4.1,6.7,4.1c2.8,0,4.6-1.4,4.6-3.3c0-2.3-1.8-3.1-4.9-4.5
			l-1.7-0.7c-4.9-2.1-8.1-4.7-8.1-10.2c0-5.1,3.9-9,9.9-9c4.3,0,7.4,1.5,9.6,5.4l-5.3,3.4c-1.2-2.1-2.4-2.9-4.4-2.9
			c-2,0-3.2,1.3-3.2,2.9c0,2,1.3,2.9,4.2,4.1l1.7,0.7c5.8,2.5,9,5,9,10.6c0,6.1-4.8,9.4-11.2,9.4
			C1373.5-660.8,1369.4-663.8,1367.4-667.7"/>
	</g>
	<path fill="#EED3B8" d="M1432.7-357.1c0,7.8-5.5,17.4-12.3,21.3l-40.8,23.6c-6.8,3.9-17.8,3.9-24.5,0l-40.8-23.6
		c-6.8-3.9-12.3-13.5-12.3-21.3v-57.2c0-7.8,5.5-17.4,12.3-21.3l40.8-23.6c6.8-3.9,17.8-3.9,24.5,0l40.8,23.6
		c6.8,3.9,12.3,13.5,12.3,21.3V-357.1z"/>
	<path fill="#484848" d="M1420.5-435.5l-40.8-23.6c-6.8-3.9-17.8-3.9-24.5,0l-40.8,23.6c-6.8,3.9-12.3,13.5-12.3,21.3v57.2
		c0,7.8,5.5,17.4,12.3,21.3l17.9,10.3l0-24.4l35.2,10.3l35.1-9.9l0.1,23.9l17.9-10.3c6.8-3.9,12.3-13.5,12.3-21.3v-57.2
		C1432.7-422,1427.2-431.6,1420.5-435.5"/>
	<path fill="#313130" d="M1367.2-462c4.3,0,9,1,12.3,2.9l40.8,23.6c6.8,3.9,12.3,13.5,12.3,21.3v57.2c0,7.8-5.5,17.4-12.3,21.3
		l-17.9,10.3l0-24.1l-35.2,9.2L1367.2-462z"/>
	<path fill="#FFFFFF" d="M1342.9-364.2c0,2.5-2,4.5-4.5,4.5s-4.5-2-4.5-4.5c0-2.5,2-4.5,4.5-4.5S1342.9-366.6,1342.9-364.2"/>
	<path fill="#FFFFFF" d="M1399.7-364.2c0,2.5-2,4.5-4.5,4.5c-2.5,0-4.5-2-4.5-4.5c0-2.5,2-4.5,4.5-4.5
		C1397.7-368.7,1399.7-366.6,1399.7-364.2"/>
	<g>
		<path fill="#FFFFFF" d="M1390.7-347.3c-2.2,0-4.6-0.2-7-0.5c-2.4-0.3-4.7-0.5-6.9-0.5c-2.5,0-9.3,0.5-9.5,6.7l0,0
			c-0.2-6.2-6.7-6.7-9.4-6.7c-2.2,0-4.5,0.3-6.9,0.5c-2.4,0.3-4.8,0.5-7,0.5c-7,0-10.7-3.8-11.7-10.1h-0.1v3.1
			c0,8.3,3.6,13.6,11.9,13.6c2.2,0,4.6-0.2,7-0.4c2.4-0.3,4.7-0.5,6.9-0.5c2.6,0,5,0.6,5.2,6.8h8.5c0.2-6.2,2.7-6.8,5.1-6.8
			c2.2,0,4.5,0.3,6.9,0.5c2.4,0.3,4.8,0.4,7,0.4c8.8,0,12-5.6,12-13.5v-2.5C1401.4-351,1397.9-347.3,1390.7-347.3z"/>
		<path fill="#D5B69C" d="M1390.7-344.5c-2.2,0-4.6-0.2-7-0.5c-2.4-0.3-4.7-0.5-6.9-0.5c-2.5,0-9.3,0.5-9.5,6.7l0,0
			c-0.2-6.2-6.7-6.7-9.4-6.7c-2.2,0-4.5,0.3-6.9,0.5c-2.4,0.3-4.8,0.5-7,0.5c-7,0-10.7-3.8-11.7-10.1h-0.1v3.1
			c0,8.3,3.6,13.6,11.9,13.6c2.2,0,4.6-0.2,7-0.4c2.4-0.3,4.7-0.5,6.9-0.5c2.6,0,5,0.6,5.2,6.8h8.5c0.2-6.2,2.7-6.8,5.1-6.8
			c2.2,0,4.5,0.3,6.9,0.5c2.4,0.3,4.8,0.4,7,0.4c8.8,0,12-5.6,12-13.5v-2.5C1401.4-348.2,1397.9-344.5,1390.7-344.5z"/>
		<path fill="#EED3B8" d="M1390.7-342.9c-2.2,0-4.6-0.2-7-0.5c-2.4-0.3-4.7-0.5-6.9-0.5c-2.5,0-9.3,0.5-9.5,6.7l0,0
			c-0.2-6.2-6.7-6.7-9.4-6.7c-2.2,0-4.5,0.3-6.9,0.5c-2.4,0.3-4.8,0.5-7,0.5c-7,0-10.7-3.8-11.7-10.1h-0.1v3.1
			c0,8.3,3.6,13.6,11.9,13.6c2.2,0,4.6-0.2,7-0.4c2.4-0.3,4.7-0.5,6.9-0.5c2.6,0,5,0.6,5.2,6.8h8.5c0.2-6.2,2.7-6.8,5.1-6.8
			c2.2,0,4.5,0.3,6.9,0.5c2.4,0.3,4.8,0.4,7,0.4c8.8,0,12-5.6,12-13.5v-2.5C1401.4-346.6,1397.9-342.9,1390.7-342.9z"/>
	</g>
	<path fill="none" stroke="#A9856B" stroke-width="4" stroke-linecap="round" stroke-linejoin="round" stroke-miterlimit="10" d="
		M1353.2-328.2h23.3c0,0,5.3,0,6.7-4.4"/>
	<g>
		<path id="j_2_" fill="#63BB96" d="M1343.5-396.6l5.5-3.3c1.1,1.9,2,3.5,4.4,3.5c2.2,0,3.6-0.9,3.6-4.3v-23h6.8v23.1
			c0,7-4.1,10.2-10.1,10.2C1348.2-390.5,1345.1-393.3,1343.5-396.6"/>
		<path id="s_2_" fill="#3FB289" d="M1367.4-397.4l5.5-3.2c1.5,2.4,3.3,4.1,6.7,4.1c2.8,0,4.6-1.4,4.6-3.3c0-2.3-1.8-3.1-4.9-4.5
			l-1.7-0.7c-4.9-2.1-8.1-4.7-8.1-10.2c0-5.1,3.9-9,9.9-9c4.3,0,7.4,1.5,9.6,5.4l-5.3,3.4c-1.2-2.1-2.4-2.9-4.4-2.9
			c-2,0-3.2,1.3-3.2,2.9c0,2,1.3,2.9,4.2,4.1l1.7,0.7c5.8,2.5,9,5,9,10.6c0,6.1-4.8,9.4-11.2,9.4
			C1373.5-390.5,1369.4-393.5,1367.4-397.4"/>
	</g>
	<g>
		<rect x="1293.5" y="-299.7" fill="none" width="149.3" height="43.3"/>
		<path fill="#3FB289" d="M1321.9-297.3c-0.1,0.1-0.2,0.2-0.3,0.4c-0.1,0.1-0.2,0.2-0.3,0.4c-0.1-0.1-0.3-0.2-0.5-0.4
			c-0.2-0.1-0.4-0.3-0.7-0.4c-0.3-0.1-0.5-0.2-0.9-0.3c-0.3-0.1-0.7-0.1-1-0.1c-0.5,0-1,0.1-1.3,0.3c-0.4,0.2-0.7,0.4-1,0.7
			s-0.4,0.6-0.6,1c-0.1,0.4-0.2,0.8-0.2,1.2c0,0.4,0.1,0.8,0.2,1.1c0.1,0.3,0.3,0.6,0.6,0.8s0.5,0.4,0.9,0.5
			c0.3,0.2,0.7,0.3,1.1,0.4c0.5,0.2,1,0.3,1.6,0.5c0.6,0.2,1.1,0.5,1.6,0.8c0.5,0.3,0.9,0.8,1.3,1.3s0.5,1.2,0.5,2
			c0,0.6-0.1,1.2-0.4,1.8s-0.6,1-1,1.4c-0.4,0.4-0.9,0.7-1.5,0.9c-0.6,0.2-1.2,0.3-1.8,0.3c-0.6,0-1.1-0.1-1.6-0.2s-0.9-0.3-1.3-0.5
			c-0.4-0.2-0.7-0.5-1-0.7s-0.5-0.5-0.7-0.7l0.6-0.6c0.2,0.2,0.4,0.4,0.7,0.6c0.3,0.2,0.6,0.4,0.9,0.6s0.7,0.3,1,0.5
			c0.4,0.1,0.8,0.2,1.2,0.2c0.5,0,1-0.1,1.4-0.2c0.5-0.2,0.9-0.4,1.2-0.7c0.4-0.3,0.6-0.6,0.8-1c0.2-0.4,0.3-0.9,0.3-1.4
			c0-0.7-0.1-1.2-0.4-1.6c-0.3-0.4-0.7-0.8-1.1-1.1c-0.4-0.3-0.9-0.5-1.4-0.7c-0.5-0.2-1-0.3-1.4-0.5c-0.3-0.1-0.6-0.2-1-0.4
			s-0.7-0.4-1.1-0.6c-0.3-0.3-0.6-0.6-0.9-1s-0.4-0.9-0.4-1.5c0-0.5,0-1,0.2-1.5c0.1-0.5,0.4-0.9,0.7-1.3s0.7-0.7,1.3-1
			c0.5-0.2,1.1-0.4,1.9-0.4c0.6,0,1.1,0.1,1.7,0.3C1320.6-298.2,1321.2-297.8,1321.9-297.3z"/>
		<path fill="#3FB289" d="M1326.8-298.6h0.9v15.4h-0.9V-298.6z"/>
		<path fill="#3FB289" d="M1331.6-298.6h3.2c1.1,0,2.1,0.2,3,0.5c0.9,0.4,1.8,0.9,2.5,1.5c0.7,0.7,1.3,1.5,1.7,2.4
			c0.4,1,0.6,2,0.6,3.2c0,0.9-0.2,1.8-0.5,2.7c-0.3,0.9-0.8,1.7-1.5,2.5c-0.7,0.7-1.6,1.4-2.6,1.8c-1.1,0.5-2.4,0.7-3.9,0.7h-2.5
			V-298.6z M1332.5-297.7v13.6h1.9c1.2,0,2.3-0.2,3.2-0.6c0.9-0.4,1.7-0.9,2.3-1.5c0.6-0.6,1.1-1.4,1.4-2.2c0.3-0.8,0.5-1.7,0.5-2.5
			c0-1-0.2-2-0.5-2.8c-0.4-0.8-0.9-1.6-1.5-2.2c-0.6-0.6-1.3-1-2.2-1.4c-0.8-0.3-1.7-0.5-2.7-0.5H1332.5z"/>
		<path fill="#3FB289" d="M1346.2-283.2v-15.4h9.1v0.9h-8.2v6.3h7.4v0.9h-7.4v6.4h8.5v0.9H1346.2z"/>
		<path fill="#3FB289" d="M1369.8-283.2h-1.1c-1.1-1.5-2.3-2.9-3.4-4.3c-1.1-1.4-2.3-2.9-3.4-4.3c-0.3,0.3-0.7,0.6-1,0.9
			c-0.3,0.3-0.6,0.6-0.9,0.9v6.8h-0.9v-15.4h0.9v6.9c0,0.1,0,0.2,0,0.3c0,0.1,0,0.2,0,0.3c0.1-0.1,0.1-0.2,0.2-0.2
			c0.1-0.1,0.1-0.1,0.2-0.2c1.2-1.2,2.5-2.4,3.7-3.6s2.5-2.4,3.7-3.6h1.2l-6.5,6.1c1.2,1.6,2.5,3.1,3.7,4.6
			C1367.3-286.3,1368.5-284.7,1369.8-283.2z"/>
		<path fill="#3FB289" d="M1373-298.6h0.9v15.4h-0.9V-298.6z"/>
		<path fill="#3FB289" d="M1388.9-284.8l0.5,0.7c-0.6,0.3-1.2,0.6-1.9,0.8s-1.4,0.3-2.1,0.3c-1.1,0-2.1-0.2-3.1-0.6
			c-1-0.4-1.8-1-2.5-1.7c-0.7-0.7-1.3-1.5-1.7-2.5c-0.4-1-0.6-2-0.6-3.1c0-1.1,0.2-2.1,0.6-3.1c0.4-1,1-1.8,1.7-2.5
			c0.7-0.7,1.5-1.3,2.5-1.7c1-0.4,2-0.6,3.1-0.6c0.7,0,1.5,0.1,2.1,0.3s1.3,0.5,1.9,0.8c-0.1,0.1-0.2,0.2-0.3,0.4
			c-0.1,0.1-0.2,0.3-0.3,0.4c-0.5-0.3-1.1-0.5-1.7-0.7c-0.6-0.2-1.2-0.3-1.9-0.3c-1,0-1.9,0.2-2.7,0.6c-0.8,0.4-1.6,0.9-2.2,1.5
			c-0.6,0.6-1.1,1.4-1.5,2.2s-0.5,1.8-0.5,2.7c0,1,0.2,1.9,0.5,2.7s0.9,1.6,1.5,2.2c0.6,0.6,1.4,1.1,2.2,1.5
			c0.8,0.4,1.7,0.5,2.7,0.5c0.7,0,1.3-0.1,1.9-0.3C1387.8-284.3,1388.4-284.5,1388.9-284.8z"/>
		<path fill="#3FB289" d="M1403.2-283.2h-1.1c-1.1-1.5-2.3-2.9-3.4-4.3c-1.1-1.4-2.3-2.9-3.4-4.3c-0.3,0.3-0.7,0.6-1,0.9
			c-0.3,0.3-0.6,0.6-0.9,0.9v6.8h-0.9v-15.4h0.9v6.9c0,0.1,0,0.2,0,0.3c0,0.1,0,0.2,0,0.3c0.1-0.1,0.1-0.2,0.2-0.2
			c0.1-0.1,0.1-0.1,0.2-0.2c1.2-1.2,2.5-2.4,3.7-3.6s2.5-2.4,3.7-3.6h1.2l-6.5,6.1c1.2,1.6,2.5,3.1,3.7,4.6
			C1400.7-286.3,1401.9-284.7,1403.2-283.2z"/>
		<path fill="#3FB289" d="M1404.5-280v-1.7c1-0.1,1.8-0.4,2.5-1c0.7-0.6,1-1.4,1-2.5v-13.4h1.8v13.4c0,0.8-0.1,1.5-0.4,2.2
			c-0.3,0.6-0.6,1.2-1.1,1.6c-0.5,0.4-1,0.8-1.7,1S1405.3-280,1404.5-280z"/>
		<path fill="#3FB289" d="M1421.5-297c-0.2,0.2-0.3,0.4-0.5,0.7c-0.2,0.2-0.3,0.4-0.5,0.7c-0.1-0.1-0.3-0.2-0.5-0.4
			c-0.2-0.1-0.4-0.3-0.6-0.4c-0.2-0.1-0.5-0.2-0.8-0.3c-0.3-0.1-0.6-0.1-1-0.1c-0.9,0-1.5,0.2-1.9,0.7c-0.4,0.5-0.6,1.1-0.6,1.7
			c0,0.4,0.1,0.7,0.2,0.9c0.1,0.2,0.3,0.5,0.5,0.6s0.5,0.3,0.8,0.4c0.3,0.1,0.6,0.2,0.9,0.3c0.5,0.2,1,0.4,1.6,0.6
			c0.6,0.2,1.1,0.5,1.6,0.9c0.5,0.4,0.9,0.8,1.2,1.4c0.3,0.5,0.5,1.2,0.5,2c0,0.7-0.1,1.3-0.4,1.8s-0.6,1-1,1.4
			c-0.4,0.4-0.9,0.7-1.5,0.9s-1.1,0.3-1.8,0.3c-0.6,0-1.1-0.1-1.6-0.2c-0.5-0.2-1-0.4-1.5-0.6c-0.4-0.2-0.8-0.5-1.2-0.8
			c-0.3-0.3-0.6-0.6-0.8-0.9l1.1-1.1c0.2,0.2,0.4,0.4,0.7,0.6s0.5,0.4,0.9,0.6c0.3,0.2,0.6,0.3,1,0.5c0.4,0.1,0.8,0.2,1.2,0.2
			c0.4,0,0.7-0.1,1.1-0.2c0.4-0.1,0.7-0.3,0.9-0.5s0.5-0.5,0.6-0.8c0.2-0.3,0.2-0.7,0.2-1.1c0-0.6-0.1-1.1-0.4-1.4
			c-0.3-0.4-0.6-0.7-1.1-0.9c-0.4-0.2-0.9-0.4-1.3-0.6c-0.5-0.1-0.9-0.3-1.2-0.4c-0.3-0.1-0.6-0.2-0.9-0.4c-0.4-0.2-0.7-0.4-1-0.7
			c-0.3-0.3-0.6-0.7-0.8-1.1c-0.2-0.4-0.4-1-0.4-1.6c0-0.5,0.1-1,0.2-1.5c0.1-0.5,0.4-0.9,0.7-1.3c0.3-0.4,0.8-0.7,1.3-1
			c0.6-0.2,1.2-0.4,2-0.4c0.6,0,1.2,0.1,1.8,0.3S1420.8-297.7,1421.5-297z"/>
	</g>
	<path fill="#EED3B8" d="M1659.7-357.1c0,7.8-5.5,17.4-12.3,21.3l-40.8,23.6c-6.8,3.9-17.8,3.9-24.5,0l-40.8-23.6
		c-6.8-3.9-12.3-13.5-12.3-21.3v-57.2c0-7.8,5.5-17.4,12.3-21.3l40.8-23.6c6.8-3.9,17.8-3.9,24.5,0l40.8,23.6
		c6.8,3.9,12.3,13.5,12.3,21.3V-357.1z"/>
	<path fill="#484848" d="M1647.4-435.5l-40.8-23.6c-6.8-3.9-17.8-3.9-24.5,0l-40.8,23.6c-6.8,3.9-12.3,13.5-12.3,21.3v57.2
		c0,7.8,5.5,17.4,12.3,21.3l17.9,10.3l0-24.4l35.2,10.3l35.1-9.9l0.1,23.9l17.9-10.3c6.8-3.9,12.3-13.5,12.3-21.3v-57.2
		C1659.7-422,1654.2-431.6,1647.4-435.5"/>
	<path fill="#313130" d="M1594.2-462c4.3,0,9,1,12.3,2.9l40.8,23.6c6.8,3.9,12.3,13.5,12.3,21.3v57.2c0,7.8-5.5,17.4-12.3,21.3
		l-17.9,10.3l0-24.1l-35.2,9.2L1594.2-462z"/>
	<path fill="#FFFFFF" d="M1569.9-364.2c0,2.5-2,4.5-4.5,4.5s-4.5-2-4.5-4.5c0-2.5,2-4.5,4.5-4.5S1569.9-366.6,1569.9-364.2"/>
	<path fill="#FFFFFF" d="M1626.7-364.2c0,2.5-2,4.5-4.5,4.5s-4.5-2-4.5-4.5c0-2.5,2-4.5,4.5-4.5S1626.7-366.6,1626.7-364.2"/>
	<g>
		<path fill="#FFFFFF" d="M1617.7-348.3c-2.2,0-4.6-0.2-7-0.5c-2.4-0.3-4.7-0.5-6.9-0.5c-2.5,0-9.3,0.5-9.5,6.7l0,0
			c-0.2-6.2-6.7-6.7-9.4-6.7c-2.2,0-4.5,0.3-6.9,0.5c-2.4,0.3-4.8,0.5-7,0.5c-7,0-10.7-3.8-11.7-10.1h-0.1v3.1
			c0,8.3,3.6,13.6,11.9,13.6c2.2,0,4.6-0.2,7-0.4c2.4-0.3,4.7-0.5,6.9-0.5c2.6,0,5,0.6,5.2,6.8h8.5c0.2-6.2,2.7-6.8,5.1-6.8
			c2.2,0,4.5,0.3,6.9,0.5c2.4,0.3,4.8,0.4,7,0.4c8.8,0,12-5.6,12-13.5v-2.5C1628.4-352,1624.9-348.3,1617.7-348.3z"/>
		<path fill="#D5B69C" d="M1617.7-344.5c-2.2,0-4.6-0.2-7-0.5c-2.4-0.3-4.7-0.5-6.9-0.5c-2.5,0-9.3,0.5-9.5,6.7l0,0
			c-0.2-6.2-6.7-6.7-9.4-6.7c-2.2,0-4.5,0.3-6.9,0.5c-2.4,0.3-4.8,0.5-7,0.5c-7,0-10.7-3.8-11.7-10.1h-0.1v3.1
			c0,8.3,3.6,13.6,11.9,13.6c2.2,0,4.6-0.2,7-0.4c2.4-0.3,4.7-0.5,6.9-0.5c2.6,0,5,0.6,5.2,6.8h8.5c0.2-6.2,2.7-6.8,5.1-6.8
			c2.2,0,4.5,0.3,6.9,0.5c2.4,0.3,4.8,0.4,7,0.4c8.8,0,12-5.6,12-13.5v-2.5C1628.4-348.2,1624.9-344.5,1617.7-344.5z"/>
		<path fill="#EED3B8" d="M1617.7-342.9c-2.2,0-4.6-0.2-7-0.5c-2.4-0.3-4.7-0.5-6.9-0.5c-2.5,0-9.3,0.5-9.5,6.7l0,0
			c-0.2-6.2-6.7-6.7-9.4-6.7c-2.2,0-4.5,0.3-6.9,0.5c-2.4,0.3-4.8,0.5-7,0.5c-7,0-10.7-3.8-11.7-10.1h-0.1v3.1
			c0,8.3,3.6,13.6,11.9,13.6c2.2,0,4.6-0.2,7-0.4c2.4-0.3,4.7-0.5,6.9-0.5c2.6,0,5,0.6,5.2,6.8h8.5c0.2-6.2,2.7-6.8,5.1-6.8
			c2.2,0,4.5,0.3,6.9,0.5c2.4,0.3,4.8,0.4,7,0.4c8.8,0,12-5.6,12-13.5v-2.5C1628.4-346.6,1624.9-342.9,1617.7-342.9z"/>
	</g>
	<path fill="none" stroke="#A9856B" stroke-width="4" stroke-linecap="round" stroke-linejoin="round" stroke-miterlimit="10" d="
		M1580.2-328.2h23.3c0,0,5.3,0,6.7-4.4"/>
	<g>
		<path id="j_3_" fill="#63BB96" d="M1570.4-396.6l5.5-3.3c1.1,1.9,2,3.5,4.4,3.5c2.2,0,3.6-0.9,3.6-4.3v-23h6.8v23.1
			c0,7-4.1,10.2-10.1,10.2C1575.2-390.5,1572-393.3,1570.4-396.6"/>
		<path id="s_3_" fill="#3FB289" d="M1594.4-397.4l5.5-3.2c1.5,2.4,3.3,4.1,6.7,4.1c2.8,0,4.6-1.4,4.6-3.3c0-2.3-1.8-3.1-4.9-4.5
			l-1.7-0.7c-4.9-2.1-8.1-4.7-8.1-10.2c0-5.1,3.9-9,9.9-9c4.3,0,7.4,1.5,9.6,5.4l-5.3,3.4c-1.2-2.1-2.4-2.9-4.4-2.9
			c-2,0-3.2,1.3-3.2,2.9c0,2,1.3,2.9,4.2,4.1l1.7,0.7c5.8,2.5,9,5,9,10.6c0,6.1-4.8,9.4-11.2,9.4
			C1600.4-390.5,1596.4-393.5,1594.4-397.4"/>
	</g>
	<path fill="#FFFFFF" d="M309.3-489.7c0,3-2.4,5.4-5.4,5.4s-5.4-2.4-5.4-5.4c0-3,2.4-5.4,5.4-5.4S309.3-492.6,309.3-489.7"/>
	<path fill="#FFFFFF" d="M369.2-489.2c0,3.2-2.6,5.9-5.9,5.9c-3.2,0-5.9-2.6-5.9-5.9c0-3.2,2.6-5.9,5.9-5.9
		C366.6-495,369.2-492.4,369.2-489.2"/>
	<path id="j_7_" fill="#3FB289" d="M309.9-509.3l5.5-3.3c1.1,1.9,2,3.5,4.4,3.5c2.2,0,3.6-0.9,3.6-4.3v-23h6.8v23.1
		c0,7-4.1,10.2-10.1,10.2C314.7-503.1,311.5-505.9,309.9-509.3"/>
	<path id="s_7_" fill="#3FB289" d="M333.9-510l5.5-3.2c1.5,2.4,3.3,4.1,6.7,4.1c2.8,0,4.6-1.4,4.6-3.3c0-2.3-1.8-3.1-4.9-4.5
		l-1.7-0.7c-4.9-2.1-8.1-4.7-8.1-10.2c0-5.1,3.9-9,9.9-9c4.3,0,7.4,1.5,9.6,5.4l-5.3,3.4c-1.2-2.1-2.4-2.9-4.4-2.9
		c-2,0-3.2,1.3-3.2,2.9c0,2,1.3,2.9,4.2,4.1l1.7,0.7c5.8,2.5,9,5,9,10.6c0,6.1-4.8,9.4-11.2,9.4C339.9-503.1,335.9-506.1,333.9-510"
		/>
	<g>
		<rect x="1520.5" y="-299.7" fill="none" width="149.3" height="43.3"/>
		<path fill="#3FB289" d="M1548.8-297.3c-0.1,0.1-0.2,0.2-0.3,0.4c-0.1,0.1-0.2,0.2-0.3,0.4c-0.1-0.1-0.3-0.2-0.5-0.4
			c-0.2-0.1-0.4-0.3-0.7-0.4c-0.3-0.1-0.5-0.2-0.9-0.3c-0.3-0.1-0.7-0.1-1-0.1c-0.5,0-1,0.1-1.3,0.3c-0.4,0.2-0.7,0.4-1,0.7
			s-0.4,0.6-0.6,1c-0.1,0.4-0.2,0.8-0.2,1.2c0,0.4,0.1,0.8,0.2,1.1c0.1,0.3,0.3,0.6,0.6,0.8s0.5,0.4,0.9,0.5
			c0.3,0.2,0.7,0.3,1.1,0.4c0.5,0.2,1,0.3,1.6,0.5c0.6,0.2,1.1,0.5,1.6,0.8c0.5,0.3,0.9,0.8,1.3,1.3s0.5,1.2,0.5,2
			c0,0.6-0.1,1.2-0.4,1.8s-0.6,1-1,1.4c-0.4,0.4-0.9,0.7-1.5,0.9c-0.6,0.2-1.2,0.3-1.8,0.3c-0.6,0-1.1-0.1-1.6-0.2s-0.9-0.3-1.3-0.5
			c-0.4-0.2-0.7-0.5-1-0.7s-0.5-0.5-0.7-0.7l0.6-0.6c0.2,0.2,0.4,0.4,0.7,0.6c0.3,0.2,0.6,0.4,0.9,0.6s0.7,0.3,1,0.5
			c0.4,0.1,0.8,0.2,1.2,0.2c0.5,0,1-0.1,1.4-0.2c0.5-0.2,0.9-0.4,1.2-0.7c0.4-0.3,0.6-0.6,0.8-1c0.2-0.4,0.3-0.9,0.3-1.4
			c0-0.7-0.1-1.2-0.4-1.6c-0.3-0.4-0.7-0.8-1.1-1.1c-0.4-0.3-0.9-0.5-1.4-0.7c-0.5-0.2-1-0.3-1.4-0.5c-0.3-0.1-0.6-0.2-1-0.4
			s-0.7-0.4-1.1-0.6c-0.3-0.3-0.6-0.6-0.9-1s-0.4-0.9-0.4-1.5c0-0.5,0-1,0.2-1.5c0.1-0.5,0.4-0.9,0.7-1.3s0.7-0.7,1.3-1
			c0.5-0.2,1.1-0.4,1.9-0.4c0.6,0,1.1,0.1,1.7,0.3C1547.6-298.2,1548.2-297.8,1548.8-297.3z"/>
		<path fill="#3FB289" d="M1553.8-298.6h0.9v15.4h-0.9V-298.6z"/>
		<path fill="#3FB289" d="M1558.6-298.6h3.2c1.1,0,2.1,0.2,3,0.5c0.9,0.4,1.8,0.9,2.5,1.5c0.7,0.7,1.3,1.5,1.7,2.4
			c0.4,1,0.6,2,0.6,3.2c0,0.9-0.2,1.8-0.5,2.7c-0.3,0.9-0.8,1.7-1.5,2.5c-0.7,0.7-1.6,1.4-2.6,1.8c-1.1,0.5-2.4,0.7-3.9,0.7h-2.5
			V-298.6z M1559.5-297.7v13.6h1.9c1.2,0,2.3-0.2,3.2-0.6c0.9-0.4,1.7-0.9,2.3-1.5c0.6-0.6,1.1-1.4,1.4-2.2c0.3-0.8,0.5-1.7,0.5-2.5
			c0-1-0.2-2-0.5-2.8c-0.4-0.8-0.9-1.6-1.5-2.2c-0.6-0.6-1.3-1-2.2-1.4c-0.8-0.3-1.7-0.5-2.7-0.5H1559.5z"/>
		<path fill="#3FB289" d="M1573.1-283.2v-15.4h9.1v0.9h-8.2v6.3h7.4v0.9h-7.4v6.4h8.5v0.9H1573.1z"/>
		<path fill="#3FB289" d="M1596.7-283.2h-1.1c-1.1-1.5-2.3-2.9-3.4-4.3c-1.1-1.4-2.3-2.9-3.4-4.3c-0.3,0.3-0.7,0.6-1,0.9
			c-0.3,0.3-0.6,0.6-0.9,0.9v6.8h-0.9v-15.4h0.9v6.9c0,0.1,0,0.2,0,0.3c0,0.1,0,0.2,0,0.3c0.1-0.1,0.1-0.2,0.2-0.2
			c0.1-0.1,0.1-0.1,0.2-0.2c1.2-1.2,2.5-2.4,3.7-3.6s2.5-2.4,3.7-3.6h1.2l-6.5,6.1c1.2,1.6,2.5,3.1,3.7,4.6
			C1594.3-286.3,1595.5-284.7,1596.7-283.2z"/>
		<path fill="#3FB289" d="M1600-298.6h0.9v15.4h-0.9V-298.6z"/>
		<path fill="#3FB289" d="M1615.9-284.8l0.5,0.7c-0.6,0.3-1.2,0.6-1.9,0.8s-1.4,0.3-2.1,0.3c-1.1,0-2.1-0.2-3.1-0.6
			c-1-0.4-1.8-1-2.5-1.7c-0.7-0.7-1.3-1.5-1.7-2.5c-0.4-1-0.6-2-0.6-3.1c0-1.1,0.2-2.1,0.6-3.1c0.4-1,1-1.8,1.7-2.5
			c0.7-0.7,1.5-1.3,2.5-1.7c1-0.4,2-0.6,3.1-0.6c0.7,0,1.5,0.1,2.1,0.3s1.3,0.5,1.9,0.8c-0.1,0.1-0.2,0.2-0.3,0.4
			c-0.1,0.1-0.2,0.3-0.3,0.4c-0.5-0.3-1.1-0.5-1.7-0.7c-0.6-0.2-1.2-0.3-1.9-0.3c-1,0-1.9,0.2-2.7,0.6c-0.8,0.4-1.6,0.9-2.2,1.5
			c-0.6,0.6-1.1,1.4-1.5,2.2s-0.5,1.8-0.5,2.7c0,1,0.2,1.9,0.5,2.7s0.9,1.6,1.5,2.2c0.6,0.6,1.4,1.1,2.2,1.5
			c0.8,0.4,1.7,0.5,2.7,0.5c0.7,0,1.3-0.1,1.9-0.3C1614.8-284.3,1615.3-284.5,1615.9-284.8z"/>
		<path fill="#3FB289" d="M1630.1-283.2h-1.1c-1.1-1.5-2.3-2.9-3.4-4.3c-1.1-1.4-2.3-2.9-3.4-4.3c-0.3,0.3-0.7,0.6-1,0.9
			c-0.3,0.3-0.6,0.6-0.9,0.9v6.8h-0.9v-15.4h0.9v6.9c0,0.1,0,0.2,0,0.3c0,0.1,0,0.2,0,0.3c0.1-0.1,0.1-0.2,0.2-0.2
			c0.1-0.1,0.1-0.1,0.2-0.2c1.2-1.2,2.5-2.4,3.7-3.6s2.5-2.4,3.7-3.6h1.2l-6.5,6.1c1.2,1.6,2.5,3.1,3.7,4.6
			C1627.7-286.3,1628.9-284.7,1630.1-283.2z"/>
		<path fill="#3FB289" d="M1631.5-280v-1.7c1-0.1,1.8-0.4,2.5-1c0.7-0.6,1-1.4,1-2.5v-13.4h1.8v13.4c0,0.8-0.1,1.5-0.4,2.2
			c-0.3,0.6-0.6,1.2-1.1,1.6c-0.5,0.4-1,0.8-1.7,1S1632.2-280,1631.5-280z"/>
		<path fill="#3FB289" d="M1648.5-297c-0.2,0.2-0.3,0.4-0.5,0.7c-0.2,0.2-0.3,0.4-0.5,0.7c-0.1-0.1-0.3-0.2-0.5-0.4
			c-0.2-0.1-0.4-0.3-0.6-0.4c-0.2-0.1-0.5-0.2-0.8-0.3c-0.3-0.1-0.6-0.1-1-0.1c-0.9,0-1.5,0.2-1.9,0.7c-0.4,0.5-0.6,1.1-0.6,1.7
			c0,0.4,0.1,0.7,0.2,0.9c0.1,0.2,0.3,0.5,0.5,0.6s0.5,0.3,0.8,0.4c0.3,0.1,0.6,0.2,0.9,0.3c0.5,0.2,1,0.4,1.6,0.6
			c0.6,0.2,1.1,0.5,1.6,0.9c0.5,0.4,0.9,0.8,1.2,1.4c0.3,0.5,0.5,1.2,0.5,2c0,0.7-0.1,1.3-0.4,1.8s-0.6,1-1,1.4
			c-0.4,0.4-0.9,0.7-1.5,0.9s-1.1,0.3-1.8,0.3c-0.6,0-1.1-0.1-1.6-0.2c-0.5-0.2-1-0.4-1.5-0.6c-0.4-0.2-0.8-0.5-1.2-0.8
			c-0.3-0.3-0.6-0.6-0.8-0.9l1.1-1.1c0.2,0.2,0.4,0.4,0.7,0.6s0.5,0.4,0.9,0.6c0.3,0.2,0.6,0.3,1,0.5c0.4,0.1,0.8,0.2,1.2,0.2
			c0.4,0,0.7-0.1,1.1-0.2c0.4-0.1,0.7-0.3,0.9-0.5s0.5-0.5,0.6-0.8c0.2-0.3,0.2-0.7,0.2-1.1c0-0.6-0.1-1.1-0.4-1.4
			c-0.3-0.4-0.6-0.7-1.1-0.9c-0.4-0.2-0.9-0.4-1.3-0.6c-0.5-0.1-0.9-0.3-1.2-0.4c-0.3-0.1-0.6-0.2-0.9-0.4c-0.4-0.2-0.7-0.4-1-0.7
			c-0.3-0.3-0.6-0.7-0.8-1.1c-0.2-0.4-0.4-1-0.4-1.6c0-0.5,0.1-1,0.2-1.5c0.1-0.5,0.4-0.9,0.7-1.3c0.3-0.4,0.8-0.7,1.3-1
			c0.6-0.2,1.2-0.4,2-0.4c0.6,0,1.2,0.1,1.8,0.3S1647.7-297.7,1648.5-297z"/>
	</g>
	<path fill="#EED3B8" d="M154.2-133.4c0,7.8-5.5,17.4-12.3,21.3l-40.8,23.6c-6.8,3.9-17.8,3.9-24.5,0l-40.8-23.6
		c-6.8-3.9-12.3-13.5-12.3-21.3v-57.2c0-7.8,5.5-17.4,12.3-21.3l40.8-23.6c6.8-3.9,17.8-3.9,24.5,0l40.8,23.6
		c6.8,3.9,12.3,13.5,12.3,21.3V-133.4z"/>
	<path fill="#313130" d="M142-211.8l-40.8-23.6c-6.8-3.9-17.8-3.9-24.5,0l-40.8,23.6c-6.8,3.9-12.3,13.5-12.3,21.3v57.2
		c0,7.8,5.5,17.4,12.3,21.3l17.9,10.3l0-24.4l35.2,10.3l35.1-9.9l0.1,23.9l17.9-10.3c6.8-3.9,12.3-13.5,12.3-21.3v-57.2
		C154.2-198.3,148.7-207.9,142-211.8"/>
	<path fill="#0E0E0E" d="M88.7-238.2c4.3,0,9,1,12.3,2.9l40.8,23.6c6.8,3.9,12.3,13.5,12.3,21.3v57.2c0,7.8-5.5,17.4-12.3,21.3
		L124-101.7l0-24.1l-35.2,9.2L88.7-238.2z"/>
	<path fill="#FFFFFF" d="M65.3-143.9c0,2.7-2.2,4.9-4.9,4.9c-2.7,0-4.9-2.2-4.9-4.9c0-2.7,2.2-4.9,4.9-4.9
		C63.1-148.8,65.3-146.6,65.3-143.9"/>
	<path fill="#FFFFFF" d="M123.6-143.9c0,2.7-2.2,4.9-4.9,4.9c-2.7,0-4.9-2.2-4.9-4.9c0-2.7,2.2-4.9,4.9-4.9
		C121.4-148.8,123.6-146.6,123.6-143.9"/>
	<path fill="#FFFFFF" d="M112.2-124.6c-2.2,0-4.6-0.2-7-0.5c-2.4-0.3-4.7-0.5-6.9-0.5c-2.5,0-9.3,0.5-9.5,6.7l0,0
		c-0.2-6.2-6.7-6.7-9.4-6.7c-2.2,0-4.5,0.3-6.9,0.5c-2.4,0.3-4.8,0.5-7,0.5c-7,0-10.7-3.8-11.7-10.1h-0.1v3.1
		c0,8.3,3.6,13.6,11.9,13.6c2.2,0,4.6-0.2,7-0.4c2.4-0.3,4.7-0.5,6.9-0.5c2.6,0,5,0.6,5.2,6.8H93c0.2-6.2,2.7-6.8,5.1-6.8
		c2.2,0,4.5,0.3,6.9,0.5c2.4,0.3,4.8,0.4,7,0.4c8.8,0,12-5.6,12-13.5v-2.5C122.9-128.3,119.4-124.6,112.2-124.6z"/>
	<path fill="#EED3B8" d="M112.2-119.2c-2.2,0-4.6-0.2-7-0.5c-2.4-0.3-4.7-0.5-6.9-0.5c-2.5,0-9.3,0.5-9.5,6.7l0,0
		c-0.2-6.2-6.7-6.7-9.4-6.7c-2.2,0-4.5,0.3-6.9,0.5c-2.4,0.3-4.8,0.5-7,0.5c-7,0-10.7-3.8-11.7-10.1h-0.1v3.1
		c0,8.3,3.6,13.6,11.9,13.6c2.2,0,4.6-0.2,7-0.4c2.4-0.3,4.7-0.5,6.9-0.5c2.6,0,5,0.6,5.2,6.8H93c0.2-6.2,2.7-6.8,5.1-6.8
		c2.2,0,4.5,0.3,6.9,0.5c2.4,0.3,4.8,0.4,7,0.4c8.8,0,12-5.6,12-13.5v-2.5C122.9-122.9,119.4-119.2,112.2-119.2z"/>
	<g>
		<path id="j_9_" fill="#3FB289" d="M65-172.9l5.5-3.3c1.1,1.9,2,3.5,4.4,3.5c2.2,0,3.6-0.9,3.6-4.3v-23h6.8v23.1
			c0,7-4.1,10.2-10.1,10.2C69.7-166.7,66.6-169.5,65-172.9"/>
		<path id="s_9_" fill="#3FB289" d="M88.9-173.7l5.5-3.2c1.5,2.4,3.3,4.1,6.7,4.1c2.8,0,4.6-1.4,4.6-3.3c0-2.3-1.8-3.1-4.9-4.5
			l-1.7-0.7c-4.9-2.1-8.1-4.7-8.1-10.2c0-5.1,3.9-9,9.9-9c4.3,0,7.4,1.5,9.6,5.4l-5.3,3.4c-1.2-2.1-2.4-2.9-4.4-2.9
			c-2,0-3.2,1.3-3.2,2.9c0,2,1.3,2.9,4.2,4.1l1.7,0.7c5.8,2.5,9,5,9,10.6c0,6.1-4.8,9.4-11.2,9.4C95-166.7,90.9-169.7,88.9-173.7"/>
	</g>
	<path fill="#EED3B8" d="M394.7-204.9c0,7.8-5.5,17.4-12.3,21.3l-40.8,23.6c-6.8,3.9-17.8,3.9-24.5,0l-40.8-23.6
		c-6.8-3.9-12.3-13.5-12.3-21.3v-57.2c0-7.8,5.5-17.4,12.3-21.3l40.8-23.6c6.8-3.9,17.8-3.9,24.5,0l40.8,23.6
		c6.8,3.9,12.3,13.5,12.3,21.3V-204.9z"/>
	<path fill="#484848" d="M382.4-283.3l-40.8-23.6c-6.8-3.9-17.8-3.9-24.5,0l-40.8,23.6c-6.8,3.9-12.3,13.5-12.3,21.3v57.2
		c0,7.8,5.5,17.4,12.3,21.3l17.9,10.3l0-24.4l35.2,10.3l35.1-9.9l0.1,23.9l17.9-10.3c6.8-3.9,12.3-13.5,12.3-21.3v-57.2
		C394.7-269.9,389.2-279.4,382.4-283.3"/>
	<path fill="#313130" d="M329.2-309.8c4.3,0,9,1,12.3,2.9l40.8,23.6c6.8,3.9,12.3,13.5,12.3,21.3v57.2c0,7.8-5.5,17.4-12.3,21.3
		l-17.9,10.3l0-24.1l-35.2,9.2L329.2-309.8z"/>
	<path fill="#FFFFFF" d="M304.9-212c0,2.5-2,4.5-4.5,4.5c-2.5,0-4.5-2-4.5-4.5c0-2.5,2-4.5,4.5-4.5
		C302.9-216.5,304.9-214.5,304.9-212"/>
	<path fill="#FFFFFF" d="M361.7-212c0,2.5-2,4.5-4.5,4.5c-2.5,0-4.5-2-4.5-4.5c0-2.5,2-4.5,4.5-4.5
		C359.7-216.5,361.7-214.5,361.7-212"/>
	<g>
		<path fill="#FFFFFF" d="M352.7-196.1c-2.2,0-4.6-0.2-7-0.5c-2.4-0.3-4.7-0.5-6.9-0.5c-2.5,0-9.3,0.5-9.5,6.7l0,0
			c-0.2-6.2-6.7-6.7-9.4-6.7c-2.2,0-4.5,0.3-6.9,0.5c-2.4,0.3-4.8,0.5-7,0.5c-7,0-10.7-3.8-11.7-10.1h-0.1v3.1
			c0,8.3,3.6,13.6,11.9,13.6c2.2,0,4.6-0.2,7-0.4c2.4-0.3,4.7-0.5,6.9-0.5c2.6,0,5,0.6,5.2,6.8h8.5c0.2-6.2,2.7-6.8,5.1-6.8
			c2.2,0,4.5,0.3,6.9,0.5c2.4,0.3,4.8,0.4,7,0.4c8.8,0,12-5.6,12-13.5v-2.5C363.4-199.8,359.9-196.1,352.7-196.1z"/>
		<path fill="#D5B69C" d="M352.7-192.4c-2.2,0-4.6-0.2-7-0.5c-2.4-0.3-4.7-0.5-6.9-0.5c-2.5,0-9.3,0.5-9.5,6.7l0,0
			c-0.2-6.2-6.7-6.7-9.4-6.7c-2.2,0-4.5,0.3-6.9,0.5c-2.4,0.3-4.8,0.5-7,0.5c-7,0-10.7-3.8-11.7-10.1h-0.1v3.1
			c0,8.3,3.6,13.6,11.9,13.6c2.2,0,4.6-0.2,7-0.4c2.4-0.3,4.7-0.5,6.9-0.5c2.6,0,5,0.6,5.2,6.8h8.5c0.2-6.2,2.7-6.8,5.1-6.8
			c2.2,0,4.5,0.3,6.9,0.5c2.4,0.3,4.8,0.4,7,0.4c8.8,0,12-5.6,12-13.5v-2.5C363.4-196.1,359.9-192.4,352.7-192.4z"/>
		<path fill="#EED3B8" d="M352.7-190.8c-2.2,0-4.6-0.2-7-0.5c-2.4-0.3-4.7-0.5-6.9-0.5c-2.5,0-9.3,0.5-9.5,6.7l0,0
			c-0.2-6.2-6.7-6.7-9.4-6.7c-2.2,0-4.5,0.3-6.9,0.5c-2.4,0.3-4.8,0.5-7,0.5c-7,0-10.7-3.8-11.7-10.1h-0.1v3.1
			c0,8.3,3.6,13.6,11.9,13.6c2.2,0,4.6-0.2,7-0.4c2.4-0.3,4.7-0.5,6.9-0.5c2.6,0,5,0.6,5.2,6.8h8.5c0.2-6.2,2.7-6.8,5.1-6.8
			c2.2,0,4.5,0.3,6.9,0.5c2.4,0.3,4.8,0.4,7,0.4c8.8,0,12-5.6,12-13.5v-2.5C363.4-194.5,359.9-190.8,352.7-190.8z"/>
	</g>
	<path fill="none" stroke="#A9856B" stroke-width="4" stroke-linecap="round" stroke-linejoin="round" stroke-miterlimit="10" d="
		M315.2-176h23.3c0,0,5.3,0,6.7-4.4"/>
	<g>
		<path id="j_8_" fill="#63BB96" d="M305.5-244.5l5.5-3.3c1.1,1.9,2,3.5,4.4,3.5c2.2,0,3.6-0.9,3.6-4.3v-23h6.8v23.1
			c0,7-4.1,10.2-10.1,10.2C310.2-238.3,307.1-241.1,305.5-244.5"/>
		<path id="s_8_" fill="#3FB289" d="M329.4-245.2l5.5-3.2c1.5,2.4,3.3,4.1,6.7,4.1c2.8,0,4.6-1.4,4.6-3.3c0-2.3-1.8-3.1-4.9-4.5
			l-1.7-0.7c-4.9-2.1-8.1-4.7-8.1-10.2c0-5.1,3.9-9,9.9-9c4.3,0,7.4,1.5,9.6,5.4l-5.3,3.4c-1.2-2.1-2.4-2.9-4.4-2.9
			c-2,0-3.2,1.3-3.2,2.9c0,2,1.3,2.9,4.2,4.1l1.7,0.7c5.8,2.5,9,5,9,10.6c0,6.1-4.8,9.4-11.2,9.4
			C335.5-238.3,331.4-241.3,329.4-245.2"/>
	</g>
	<path fill="#FFFFFF" d="M187.3,150.3c0,11.2-7.9,24.9-17.6,30.4l-58.5,33.8c-9.7,5.6-25.5,5.6-35.2,0l-58.5-33.8
		C7.9,175.1,0,161.4,0,150.3V68.4C0,57.2,7.9,43.5,17.6,38L76.1,4.2c9.7-5.6,25.5-5.6,35.2,0L169.7,38c9.7,5.6,17.6,19.3,17.6,30.4
		V150.3z"/>
	<g>
		<path fill="#EED3B8" d="M159,137.9c0,7.8-5.5,17.4-12.3,21.3l-40.8,23.6c-6.8,3.9-17.8,3.9-24.5,0l-40.8-23.6
			c-6.8-3.9-12.3-13.5-12.3-21.3V80.8c0-7.8,5.5-17.4,12.3-21.3l40.8-23.6c6.8-3.9,17.8-3.9,24.5,0l40.8,23.6
			C153.5,63.4,159,73,159,80.8V137.9z"/>
		<path fill="#484848" d="M146.8,59.5l-40.8-23.6c-6.8-3.9-17.8-3.9-24.5,0L40.5,59.5C33.8,63.4,28.3,73,28.3,80.8v57.2
			c0,7.8,5.5,17.4,12.3,21.3l17.9,10.3l0-24.4l35.2,10.3l35.1-9.9l0.1,23.9l17.9-10.3c6.8-3.9,12.3-13.5,12.3-21.3V80.8
			C159,73,153.5,63.4,146.8,59.5"/>
		<path fill="#313130" d="M93.6,33c4.3,0,9,1,12.3,2.9l40.8,23.6c6.8,3.9,12.3,13.5,12.3,21.3V138c0,7.8-5.5,17.4-12.3,21.3
			l-17.9,10.3l0-24.1l-35.2,9.2L93.6,33z"/>
		<path fill="#FFFFFF" d="M69.2,130.8c0,2.5-2,4.5-4.5,4.5s-4.5-2-4.5-4.5c0-2.5,2-4.5,4.5-4.5S69.2,128.4,69.2,130.8"/>
		<path fill="#FFFFFF" d="M126.1,130.8c0,2.5-2,4.5-4.5,4.5s-4.5-2-4.5-4.5c0-2.5,2-4.5,4.5-4.5S126.1,128.4,126.1,130.8"/>
		<g>
			<path fill="#FFFFFF" d="M117,146.7c-2.2,0-4.6-0.2-7-0.5c-2.4-0.3-4.7-0.5-6.9-0.5c-2.5,0-9.3,0.5-9.5,6.7l0,0
				c-0.2-6.2-6.7-6.7-9.4-6.7c-2.2,0-4.5,0.3-6.9,0.5c-2.4,0.3-4.8,0.5-7,0.5c-7,0-10.7-3.8-11.7-10.1h-0.1v3.1
				c0,8.3,3.6,13.6,11.9,13.6c2.2,0,4.6-0.2,7-0.4c2.4-0.3,4.7-0.5,6.9-0.5c2.6,0,5,0.6,5.2,6.8h8.5c0.2-6.2,2.7-6.8,5.1-6.8
				c2.2,0,4.5,0.3,6.9,0.5c2.4,0.3,4.8,0.4,7,0.4c8.8,0,12-5.6,12-13.5v-2.5C127.7,143,124.2,146.7,117,146.7z"/>
			<path fill="#D5B69C" d="M117,150.5c-2.2,0-4.6-0.2-7-0.5c-2.4-0.3-4.7-0.5-6.9-0.5c-2.5,0-9.3,0.5-9.5,6.7l0,0
				c-0.2-6.2-6.7-6.7-9.4-6.7c-2.2,0-4.5,0.3-6.9,0.5c-2.4,0.3-4.8,0.5-7,0.5c-7,0-10.7-3.8-11.7-10.1h-0.1v3.1
				c0,8.3,3.6,13.6,11.9,13.6c2.2,0,4.6-0.2,7-0.4c2.4-0.3,4.7-0.5,6.9-0.5c2.6,0,5,0.6,5.2,6.8h8.5c0.2-6.2,2.7-6.8,5.1-6.8
				c2.2,0,4.5,0.3,6.9,0.5c2.4,0.3,4.8,0.4,7,0.4c8.8,0,12-5.6,12-13.5v-2.5C127.7,146.8,124.2,150.5,117,150.5z"/>
			<path fill="#EED3B8" d="M117,152.1c-2.2,0-4.6-0.2-7-0.5c-2.4-0.3-4.7-0.5-6.9-0.5c-2.5,0-9.3,0.5-9.5,6.7l0,0
				c-0.2-6.2-6.7-6.7-9.4-6.7c-2.2,0-4.5,0.3-6.9,0.5c-2.4,0.3-4.8,0.5-7,0.5c-7,0-10.7-3.8-11.7-10.1h-0.1v3.1
				c0,8.3,3.6,13.6,11.9,13.6c2.2,0,4.6-0.2,7-0.4c2.4-0.3,4.7-0.5,6.9-0.5c2.6,0,5,0.6,5.2,6.8h8.5c0.2-6.2,2.7-6.8,5.1-6.8
				c2.2,0,4.5,0.3,6.9,0.5c2.4,0.3,4.8,0.4,7,0.4c8.8,0,12-5.6,12-13.5v-2.5C127.7,148.4,124.2,152.1,117,152.1z"/>
		</g>
		<path fill="none" stroke="#A9856B" stroke-width="4" stroke-linecap="round" stroke-linejoin="round" stroke-miterlimit="10" d="
			M79.5,166.8h23.3c0,0,5.3,0,6.7-4.4"/>
		<g>
			<path id="j_11_" fill="#63BB96" d="M69.8,98.4l5.5-3.3c1.1,1.9,2,3.5,4.4,3.5c2.2,0,3.6-0.9,3.6-4.3v-23h6.8v23.1
				c0,7-4.1,10.2-10.1,10.2C74.5,104.5,71.4,101.7,69.8,98.4"/>
			<path id="s_11_" fill="#3FB289" d="M93.7,97.6l5.5-3.2c1.5,2.4,3.3,4.1,6.7,4.1c2.8,0,4.6-1.4,4.6-3.3c0-2.3-1.8-3.1-4.9-4.5
				l-1.7-0.7c-4.9-2.1-8.1-4.7-8.1-10.2c0-5.1,3.9-9,9.9-9c4.3,0,7.4,1.5,9.6,5.4l-5.3,3.4c-1.2-2.1-2.4-2.9-4.4-2.9
				c-2,0-3.2,1.3-3.2,2.9c0,2,1.3,2.9,4.2,4.1l1.7,0.7c5.8,2.5,9,5,9,10.6c0,6.1-4.8,9.4-11.2,9.4C99.8,104.5,95.7,101.5,93.7,97.6"
				/>
		</g>
	</g>
	<g>
		<rect x="255.5" y="-147.5" fill="none" width="149.3" height="43.3"/>
		<path fill="#3FB289" d="M283.9-145.1c-0.1,0.1-0.2,0.2-0.3,0.4c-0.1,0.1-0.2,0.2-0.3,0.4c-0.1-0.1-0.3-0.2-0.5-0.4
			c-0.2-0.1-0.4-0.3-0.7-0.4c-0.3-0.1-0.5-0.2-0.9-0.3c-0.3-0.1-0.7-0.1-1-0.1c-0.5,0-1,0.1-1.3,0.3c-0.4,0.2-0.7,0.4-1,0.7
			s-0.4,0.6-0.6,1c-0.1,0.4-0.2,0.8-0.2,1.2c0,0.4,0.1,0.8,0.2,1.1c0.1,0.3,0.3,0.6,0.6,0.8s0.5,0.4,0.9,0.5
			c0.3,0.2,0.7,0.3,1.1,0.4c0.5,0.2,1,0.3,1.6,0.5c0.6,0.2,1.1,0.5,1.6,0.8c0.5,0.3,0.9,0.8,1.3,1.3s0.5,1.2,0.5,2
			c0,0.6-0.1,1.2-0.4,1.8s-0.6,1-1,1.4c-0.4,0.4-0.9,0.7-1.5,0.9c-0.6,0.2-1.2,0.3-1.8,0.3c-0.6,0-1.1-0.1-1.6-0.2s-0.9-0.3-1.3-0.5
			c-0.4-0.2-0.7-0.5-1-0.7s-0.5-0.5-0.7-0.7l0.6-0.6c0.2,0.2,0.4,0.4,0.7,0.6c0.3,0.2,0.6,0.4,0.9,0.6s0.7,0.3,1,0.5
			c0.4,0.1,0.8,0.2,1.2,0.2c0.5,0,1-0.1,1.4-0.2c0.5-0.2,0.9-0.4,1.2-0.7c0.4-0.3,0.6-0.6,0.8-1c0.2-0.4,0.3-0.9,0.3-1.4
			c0-0.7-0.1-1.2-0.4-1.6c-0.3-0.4-0.7-0.8-1.1-1.1c-0.4-0.3-0.9-0.5-1.4-0.7c-0.5-0.2-1-0.3-1.4-0.5c-0.3-0.1-0.6-0.2-1-0.4
			s-0.7-0.4-1.1-0.6c-0.3-0.3-0.6-0.6-0.9-1s-0.4-0.9-0.4-1.5c0-0.5,0-1,0.2-1.5c0.1-0.5,0.4-0.9,0.7-1.3s0.7-0.7,1.3-1
			c0.5-0.2,1.1-0.4,1.9-0.4c0.6,0,1.1,0.1,1.7,0.3C282.6-146,283.2-145.6,283.9-145.1z"/>
		<path fill="#3FB289" d="M288.8-146.4h0.9v15.4h-0.9V-146.4z"/>
		<path fill="#3FB289" d="M293.6-146.4h3.2c1.1,0,2.1,0.2,3,0.5c0.9,0.4,1.8,0.9,2.5,1.5c0.7,0.7,1.3,1.5,1.7,2.4
			c0.4,1,0.6,2,0.6,3.2c0,0.9-0.2,1.8-0.5,2.7c-0.3,0.9-0.8,1.7-1.5,2.5c-0.7,0.7-1.6,1.4-2.6,1.8c-1.1,0.5-2.4,0.7-3.9,0.7h-2.5
			V-146.4z M294.5-145.5v13.6h1.9c1.2,0,2.3-0.2,3.2-0.6c0.9-0.4,1.7-0.9,2.3-1.5c0.6-0.6,1.1-1.4,1.4-2.2c0.3-0.8,0.5-1.7,0.5-2.5
			c0-1-0.2-2-0.5-2.8c-0.4-0.8-0.9-1.6-1.5-2.2c-0.6-0.6-1.3-1-2.2-1.4c-0.8-0.3-1.7-0.5-2.7-0.5H294.5z"/>
		<path fill="#3FB289" d="M308.2-131v-15.4h9.1v0.9h-8.2v6.3h7.4v0.9h-7.4v6.4h8.5v0.9H308.2z"/>
		<path fill="#3FB289" d="M331.7-131h-1.1c-1.1-1.5-2.3-2.9-3.4-4.3c-1.1-1.4-2.3-2.9-3.4-4.3c-0.3,0.3-0.7,0.6-1,0.9
			c-0.3,0.3-0.6,0.6-0.9,0.9v6.8H321v-15.4h0.9v6.9c0,0.1,0,0.2,0,0.3c0,0.1,0,0.2,0,0.3c0.1-0.1,0.1-0.2,0.2-0.2
			c0.1-0.1,0.1-0.1,0.2-0.2c1.2-1.2,2.5-2.4,3.7-3.6s2.5-2.4,3.7-3.6h1.2l-6.5,6.1c1.2,1.6,2.5,3.1,3.7,4.6
			C329.3-134.1,330.5-132.5,331.7-131z"/>
		<path fill="#3FB289" d="M335-146.4h0.9v15.4H335V-146.4z"/>
		<path fill="#3FB289" d="M350.9-132.7l0.5,0.7c-0.6,0.3-1.2,0.6-1.9,0.8s-1.4,0.3-2.1,0.3c-1.1,0-2.1-0.2-3.1-0.6
			c-1-0.4-1.8-1-2.5-1.7c-0.7-0.7-1.3-1.5-1.7-2.5c-0.4-1-0.6-2-0.6-3.1c0-1.1,0.2-2.1,0.6-3.1c0.4-1,1-1.8,1.7-2.5
			c0.7-0.7,1.5-1.3,2.5-1.7c1-0.4,2-0.6,3.1-0.6c0.7,0,1.5,0.1,2.1,0.3s1.3,0.5,1.9,0.8c-0.1,0.1-0.2,0.2-0.3,0.4
			c-0.1,0.1-0.2,0.3-0.3,0.4c-0.5-0.3-1.1-0.5-1.7-0.7c-0.6-0.2-1.2-0.3-1.9-0.3c-1,0-1.9,0.2-2.7,0.6c-0.8,0.4-1.6,0.9-2.2,1.5
			c-0.6,0.6-1.1,1.4-1.5,2.2s-0.5,1.8-0.5,2.7c0,1,0.2,1.9,0.5,2.7s0.9,1.6,1.5,2.2c0.6,0.6,1.4,1.1,2.2,1.5
			c0.8,0.4,1.7,0.5,2.7,0.5c0.7,0,1.3-0.1,1.9-0.3C349.8-132.1,350.4-132.4,350.9-132.7z"/>
		<path fill="#3FB289" d="M365.1-131H364c-1.1-1.5-2.3-2.9-3.4-4.3c-1.1-1.4-2.3-2.9-3.4-4.3c-0.3,0.3-0.7,0.6-1,0.9
			c-0.3,0.3-0.6,0.6-0.9,0.9v6.8h-0.9v-15.4h0.9v6.9c0,0.1,0,0.2,0,0.3c0,0.1,0,0.2,0,0.3c0.1-0.1,0.1-0.2,0.2-0.2
			c0.1-0.1,0.1-0.1,0.2-0.2c1.2-1.2,2.5-2.4,3.7-3.6s2.5-2.4,3.7-3.6h1.2l-6.5,6.1c1.2,1.6,2.5,3.1,3.7,4.6
			C362.7-134.1,363.9-132.5,365.1-131z"/>
		<path fill="#3FB289" d="M366.5-127.8v-1.7c1-0.1,1.8-0.4,2.5-1c0.7-0.6,1-1.4,1-2.5v-13.4h1.8v13.4c0,0.8-0.1,1.5-0.4,2.2
			c-0.3,0.6-0.6,1.2-1.1,1.6c-0.5,0.4-1,0.8-1.7,1C367.9-128,367.2-127.8,366.5-127.8z"/>
		<path fill="#3FB289" d="M383.5-144.9c-0.2,0.2-0.3,0.4-0.5,0.7c-0.2,0.2-0.3,0.4-0.5,0.7c-0.1-0.1-0.3-0.2-0.5-0.4
			c-0.2-0.1-0.4-0.3-0.6-0.4c-0.2-0.1-0.5-0.2-0.8-0.3c-0.3-0.1-0.6-0.1-1-0.1c-0.9,0-1.5,0.2-1.9,0.7c-0.4,0.5-0.6,1.1-0.6,1.7
			c0,0.4,0.1,0.7,0.2,0.9c0.1,0.2,0.3,0.5,0.5,0.6s0.5,0.3,0.8,0.4c0.3,0.1,0.6,0.2,0.9,0.3c0.5,0.2,1,0.4,1.6,0.6
			c0.6,0.2,1.1,0.5,1.6,0.9c0.5,0.4,0.9,0.8,1.2,1.4c0.3,0.5,0.5,1.2,0.5,2c0,0.7-0.1,1.3-0.4,1.8s-0.6,1-1,1.4
			c-0.4,0.4-0.9,0.7-1.5,0.9s-1.1,0.3-1.8,0.3c-0.6,0-1.1-0.1-1.6-0.2c-0.5-0.2-1-0.4-1.5-0.6c-0.4-0.2-0.8-0.5-1.2-0.8
			c-0.3-0.3-0.6-0.6-0.8-0.9l1.1-1.1c0.2,0.2,0.4,0.4,0.7,0.6s0.5,0.4,0.9,0.6c0.3,0.2,0.6,0.3,1,0.5c0.4,0.1,0.8,0.2,1.2,0.2
			c0.4,0,0.7-0.1,1.1-0.2c0.4-0.1,0.7-0.3,0.9-0.5s0.5-0.5,0.6-0.8c0.2-0.3,0.2-0.7,0.2-1.1c0-0.6-0.1-1.1-0.4-1.4
			c-0.3-0.4-0.6-0.7-1.1-0.9c-0.4-0.2-0.9-0.4-1.3-0.6c-0.5-0.1-0.9-0.3-1.2-0.4c-0.3-0.1-0.6-0.2-0.9-0.4c-0.4-0.2-0.7-0.4-1-0.7
			c-0.3-0.3-0.6-0.7-0.8-1.1c-0.2-0.4-0.4-1-0.4-1.6c0-0.5,0.1-1,0.2-1.5c0.1-0.5,0.4-0.9,0.7-1.3c0.3-0.4,0.8-0.7,1.3-1
			c0.6-0.2,1.2-0.4,2-0.4c0.6,0,1.2,0.1,1.8,0.3S382.7-145.5,383.5-144.9z"/>
	</g>
	<g>
		<path fill="#DADCDB" d="M1132.7-440l-28.7-16.6l-15.9-9.2c-7.4-4.3-19.5-4.3-26.8,0l-15.6,9l-29.1,16.8
			c-7.4,4.3-13.4,14.7-13.4,23.2v62.5c0,4.7,1.8,10,4.7,14.5c1.5,2.4,3.3,4.5,5.3,6.3c1.1,1,2.2,1.8,3.4,2.5l44.6,25.8
			c7.4,4.3,19.5,4.3,26.8,0l44.6-25.8c2-1.1,3.9-2.7,5.5-4.6c3.3-3.6,5.8-8.3,7-12.9c0.4-1.3,0.6-2.6,0.7-3.9
			c0.1-0.6,0.1-1.2,0.1-1.8v-62.5v0C1146.1-425.3,1140.1-435.8,1132.7-440z"/>
		<g>
			<path fill="#DADCDB" d="M1003.2-280.5c0,5.5,4.5,10,10,10h122.9c5.5,0,10-4.5,10-10v-73.7c0-5.5-4.5-10-10-10h-122.9
				c-5.5,0-10,4.5-10,10V-280.5z"/>
		</g>
	</g>
	<g>
		<path fill="#EED3B8" d="M1140.1-357.6c0,7.8-5.5,17.4-12.3,21.3l-40.8,23.6c-6.8,3.9-17.8,3.9-24.5,0l-40.8-23.6
			c-6.8-3.9-12.3-13.5-12.3-21.3v-57.2c0-7.8,5.5-17.4,12.3-21.3l40.8-23.6c6.8-3.9,17.8-3.9,24.5,0l40.8,23.6
			c6.8,3.9,12.3,13.5,12.3,21.3V-357.6z"/>
		<path fill="#484848" d="M1127.8-436l-40.8-23.6c-6.8-3.9-17.8-3.9-24.5,0l-40.8,23.6c-6.8,3.9-12.3,13.5-12.3,21.3v57.2
			c0,7.8,5.5,17.4,12.3,21.3l17.9,10.3l0-24.4l35.2,10.3l35.1-9.9l0.1,23.9l17.9-10.3c6.8-3.9,12.3-13.5,12.3-21.3v-57.2
			C1140.1-422.6,1134.5-432.1,1127.8-436"/>
		<path fill="#313130" d="M1074.6-462.5c4.3,0,9,1,12.3,2.9l40.8,23.6c6.8,3.9,12.3,13.5,12.3,21.3v57.2c0,7.8-5.5,17.4-12.3,21.3
			l-17.9,10.3l0-24.1l-35.2,9.2L1074.6-462.5z"/>
		<path fill="#FFFFFF" d="M1050.2-364.7c0,2.5-2,4.5-4.5,4.5c-2.5,0-4.5-2-4.5-4.5c0-2.5,2-4.5,4.5-4.5
			C1048.2-369.2,1050.2-367.2,1050.2-364.7"/>
		<path fill="#FFFFFF" d="M1107.1-364.7c0,2.5-2,4.5-4.5,4.5s-4.5-2-4.5-4.5c0-2.5,2-4.5,4.5-4.5S1107.1-367.2,1107.1-364.7"/>
		<g>
			<path fill="#FFFFFF" d="M1098.1-348.8c-2.2,0-4.6-0.2-7-0.5c-2.4-0.3-4.7-0.5-6.9-0.5c-2.5,0-9.3,0.5-9.5,6.7l0,0
				c-0.2-6.2-6.7-6.7-9.4-6.7c-2.2,0-4.5,0.3-6.9,0.5c-2.4,0.3-4.8,0.5-7,0.5c-7,0-10.7-3.8-11.7-10.1h-0.1v3.1
				c0,8.3,3.6,13.6,11.9,13.6c2.2,0,4.6-0.2,7-0.4c2.4-0.3,4.7-0.5,6.9-0.5c2.6,0,5,0.6,5.2,6.8h8.5c0.2-6.2,2.7-6.8,5.1-6.8
				c2.2,0,4.5,0.3,6.9,0.5c2.4,0.3,4.8,0.4,7,0.4c8.8,0,12-5.6,12-13.5v-2.5C1108.7-352.5,1105.3-348.8,1098.1-348.8z"/>
			<path fill="#D5B69C" d="M1098.1-345.1c-2.2,0-4.6-0.2-7-0.5c-2.4-0.3-4.7-0.5-6.9-0.5c-2.5,0-9.3,0.5-9.5,6.7l0,0
				c-0.2-6.2-6.7-6.7-9.4-6.7c-2.2,0-4.5,0.3-6.9,0.5c-2.4,0.3-4.8,0.5-7,0.5c-7,0-10.7-3.8-11.7-10.1h-0.1v3.1
				c0,8.3,3.6,13.6,11.9,13.6c2.2,0,4.6-0.2,7-0.4c2.4-0.3,4.7-0.5,6.9-0.5c2.6,0,5,0.6,5.2,6.8h8.5c0.2-6.2,2.7-6.8,5.1-6.8
				c2.2,0,4.5,0.3,6.9,0.5c2.4,0.3,4.8,0.4,7,0.4c8.8,0,12-5.6,12-13.5v-2.5C1108.7-348.8,1105.3-345.1,1098.1-345.1z"/>
			<path fill="#EED3B8" d="M1098.1-343.5c-2.2,0-4.6-0.2-7-0.5c-2.4-0.3-4.7-0.5-6.9-0.5c-2.5,0-9.3,0.5-9.5,6.7l0,0
				c-0.2-6.2-6.7-6.7-9.4-6.7c-2.2,0-4.5,0.3-6.9,0.5c-2.4,0.3-4.8,0.5-7,0.5c-7,0-10.7-3.8-11.7-10.1h-0.1v3.1
				c0,8.3,3.6,13.6,11.9,13.6c2.2,0,4.6-0.2,7-0.4c2.4-0.3,4.7-0.5,6.9-0.5c2.6,0,5,0.6,5.2,6.8h8.5c0.2-6.2,2.7-6.8,5.1-6.8
				c2.2,0,4.5,0.3,6.9,0.5c2.4,0.3,4.8,0.4,7,0.4c8.8,0,12-5.6,12-13.5v-2.5C1108.7-347.2,1105.3-343.5,1098.1-343.5z"/>
		</g>
		<path fill="none" stroke="#A9856B" stroke-width="4" stroke-linecap="round" stroke-linejoin="round" stroke-miterlimit="10" d="
			M1060.5-328.7h23.3c0,0,5.3,0,6.7-4.4"/>
		<g>
			<path id="j_4_" fill="#63BB96" d="M1050.8-397.2l5.5-3.3c1.1,1.9,2,3.5,4.4,3.5c2.2,0,3.6-0.9,3.6-4.3v-23h6.8v23.1
				c0,7-4.1,10.2-10.1,10.2C1055.6-391,1052.4-393.8,1050.8-397.2"/>
			<path id="s_4_" fill="#3FB289" d="M1074.8-397.9l5.5-3.2c1.5,2.4,3.3,4.1,6.7,4.1c2.8,0,4.6-1.4,4.6-3.3c0-2.3-1.8-3.1-4.9-4.5
				l-1.7-0.7c-4.9-2.1-8.1-4.7-8.1-10.2c0-5.1,3.9-9,9.9-9c4.3,0,7.4,1.5,9.6,5.4l-5.3,3.4c-1.2-2.1-2.4-2.9-4.4-2.9
				c-2,0-3.2,1.3-3.2,2.9c0,2,1.3,2.9,4.2,4.1l1.7,0.7c5.8,2.5,9,5,9,10.6c0,6.1-4.8,9.4-11.2,9.4
				C1080.8-391,1076.7-394,1074.8-397.9"/>
		</g>
	</g>
	<g>
		<rect x="1000" y="-300.2" fill="none" width="149.3" height="43.3"/>
		<path fill="#3FB289" d="M1028.3-297.8c-0.1,0.1-0.2,0.2-0.3,0.4c-0.1,0.1-0.2,0.2-0.3,0.4c-0.1-0.1-0.3-0.2-0.5-0.4
			c-0.2-0.1-0.4-0.3-0.7-0.4c-0.3-0.1-0.5-0.2-0.9-0.3c-0.3-0.1-0.7-0.1-1-0.1c-0.5,0-1,0.1-1.3,0.3c-0.4,0.2-0.7,0.4-1,0.7
			s-0.4,0.6-0.6,1c-0.1,0.4-0.2,0.8-0.2,1.2c0,0.4,0.1,0.8,0.2,1.1c0.1,0.3,0.3,0.6,0.6,0.8s0.5,0.4,0.9,0.5
			c0.3,0.2,0.7,0.3,1.1,0.4c0.5,0.2,1,0.3,1.6,0.5c0.6,0.2,1.1,0.5,1.6,0.8c0.5,0.3,0.9,0.8,1.3,1.3s0.5,1.2,0.5,2
			c0,0.6-0.1,1.2-0.4,1.8s-0.6,1-1,1.4c-0.4,0.4-0.9,0.7-1.5,0.9c-0.6,0.2-1.2,0.3-1.8,0.3c-0.6,0-1.1-0.1-1.6-0.2s-0.9-0.3-1.3-0.5
			c-0.4-0.2-0.7-0.5-1-0.7s-0.5-0.5-0.7-0.7l0.6-0.6c0.2,0.2,0.4,0.4,0.7,0.6c0.3,0.2,0.6,0.4,0.9,0.6s0.7,0.3,1,0.5
			c0.4,0.1,0.8,0.2,1.2,0.2c0.5,0,1-0.1,1.4-0.2c0.5-0.2,0.9-0.4,1.2-0.7c0.4-0.3,0.6-0.6,0.8-1c0.2-0.4,0.3-0.9,0.3-1.4
			c0-0.7-0.1-1.2-0.4-1.6c-0.3-0.4-0.7-0.8-1.1-1.1c-0.4-0.3-0.9-0.5-1.4-0.7c-0.5-0.2-1-0.3-1.4-0.5c-0.3-0.1-0.6-0.2-1-0.4
			s-0.7-0.4-1.1-0.6c-0.3-0.3-0.6-0.6-0.9-1s-0.4-0.9-0.4-1.5c0-0.5,0-1,0.2-1.5c0.1-0.5,0.4-0.9,0.7-1.3s0.7-0.7,1.3-1
			c0.5-0.2,1.1-0.4,1.9-0.4c0.6,0,1.1,0.1,1.7,0.3C1027.1-298.7,1027.7-298.3,1028.3-297.8z"/>
		<path fill="#3FB289" d="M1033.3-299.1h0.9v15.4h-0.9V-299.1z"/>
		<path fill="#3FB289" d="M1038.1-299.1h3.2c1.1,0,2.1,0.2,3,0.5c0.9,0.4,1.8,0.9,2.5,1.5c0.7,0.7,1.3,1.5,1.7,2.4
			c0.4,1,0.6,2,0.6,3.2c0,0.9-0.2,1.8-0.5,2.7c-0.3,0.9-0.8,1.7-1.5,2.5c-0.7,0.7-1.6,1.4-2.6,1.8c-1.1,0.5-2.4,0.7-3.9,0.7h-2.5
			V-299.1z M1039-298.2v13.6h1.9c1.2,0,2.3-0.2,3.2-0.6c0.9-0.4,1.7-0.9,2.3-1.5c0.6-0.6,1.1-1.4,1.4-2.2c0.3-0.8,0.5-1.7,0.5-2.5
			c0-1-0.2-2-0.5-2.8c-0.4-0.8-0.9-1.6-1.5-2.2c-0.6-0.6-1.3-1-2.2-1.4c-0.8-0.3-1.7-0.5-2.7-0.5H1039z"/>
		<path fill="#3FB289" d="M1052.7-283.7v-15.4h9.1v0.9h-8.2v6.3h7.4v0.9h-7.4v6.4h8.5v0.9H1052.7z"/>
		<path fill="#3FB289" d="M1076.2-283.7h-1.1c-1.1-1.5-2.3-2.9-3.4-4.3c-1.1-1.4-2.3-2.9-3.4-4.3c-0.3,0.3-0.7,0.6-1,0.9
			c-0.3,0.3-0.6,0.6-0.9,0.9v6.8h-0.9v-15.4h0.9v6.9c0,0.1,0,0.2,0,0.3c0,0.1,0,0.2,0,0.3c0.1-0.1,0.1-0.2,0.2-0.2
			c0.1-0.1,0.1-0.1,0.2-0.2c1.2-1.2,2.5-2.4,3.7-3.6s2.5-2.4,3.7-3.6h1.2l-6.5,6.1c1.2,1.6,2.5,3.1,3.7,4.6
			C1073.8-286.8,1075-285.2,1076.2-283.7z"/>
		<path fill="#3FB289" d="M1079.5-299.1h0.9v15.4h-0.9V-299.1z"/>
		<path fill="#3FB289" d="M1095.4-285.3l0.5,0.7c-0.6,0.3-1.2,0.6-1.9,0.8s-1.4,0.3-2.1,0.3c-1.1,0-2.1-0.2-3.1-0.6
			c-1-0.4-1.8-1-2.5-1.7c-0.7-0.7-1.3-1.5-1.7-2.5c-0.4-1-0.6-2-0.6-3.1c0-1.1,0.2-2.1,0.6-3.1c0.4-1,1-1.8,1.7-2.5
			c0.7-0.7,1.5-1.3,2.5-1.7c1-0.4,2-0.6,3.1-0.6c0.7,0,1.5,0.1,2.1,0.3s1.3,0.5,1.9,0.8c-0.1,0.1-0.2,0.2-0.3,0.4
			c-0.1,0.1-0.2,0.3-0.3,0.4c-0.5-0.3-1.1-0.5-1.7-0.7c-0.6-0.2-1.2-0.3-1.9-0.3c-1,0-1.9,0.2-2.7,0.6c-0.8,0.4-1.6,0.9-2.2,1.5
			c-0.6,0.6-1.1,1.4-1.5,2.2s-0.5,1.8-0.5,2.7c0,1,0.2,1.9,0.5,2.7s0.9,1.6,1.5,2.2c0.6,0.6,1.4,1.1,2.2,1.5
			c0.8,0.4,1.7,0.5,2.7,0.5c0.7,0,1.3-0.1,1.9-0.3C1094.3-284.8,1094.8-285,1095.4-285.3z"/>
		<path fill="#3FB289" d="M1109.6-283.7h-1.1c-1.1-1.5-2.3-2.9-3.4-4.3c-1.1-1.4-2.3-2.9-3.4-4.3c-0.3,0.3-0.7,0.6-1,0.9
			c-0.3,0.3-0.6,0.6-0.9,0.9v6.8h-0.9v-15.4h0.9v6.9c0,0.1,0,0.2,0,0.3c0,0.1,0,0.2,0,0.3c0.1-0.1,0.1-0.2,0.2-0.2
			c0.1-0.1,0.1-0.1,0.2-0.2c1.2-1.2,2.5-2.4,3.7-3.6s2.5-2.4,3.7-3.6h1.2l-6.5,6.1c1.2,1.6,2.5,3.1,3.7,4.6
			C1107.2-286.8,1108.4-285.2,1109.6-283.7z"/>
		<path fill="#3FB289" d="M1111-280.5v-1.7c1-0.1,1.8-0.4,2.5-1c0.7-0.6,1-1.4,1-2.5v-13.4h1.8v13.4c0,0.8-0.1,1.5-0.4,2.2
			c-0.3,0.6-0.6,1.2-1.1,1.6c-0.5,0.4-1,0.8-1.7,1S1111.7-280.5,1111-280.5z"/>
		<path fill="#3FB289" d="M1128-297.6c-0.2,0.2-0.3,0.4-0.5,0.7c-0.2,0.2-0.3,0.4-0.5,0.7c-0.1-0.1-0.3-0.2-0.5-0.4
			c-0.2-0.1-0.4-0.3-0.6-0.4c-0.2-0.1-0.5-0.2-0.8-0.3c-0.3-0.1-0.6-0.1-1-0.1c-0.9,0-1.5,0.2-1.9,0.7c-0.4,0.5-0.6,1.1-0.6,1.7
			c0,0.4,0.1,0.7,0.2,0.9c0.1,0.2,0.3,0.5,0.5,0.6s0.5,0.3,0.8,0.4c0.3,0.1,0.6,0.2,0.9,0.3c0.5,0.2,1,0.4,1.6,0.6
			c0.6,0.2,1.1,0.5,1.6,0.9c0.5,0.4,0.9,0.8,1.2,1.4c0.3,0.5,0.5,1.2,0.5,2c0,0.7-0.1,1.3-0.4,1.8s-0.6,1-1,1.4
			c-0.4,0.4-0.9,0.7-1.5,0.9s-1.1,0.3-1.8,0.3c-0.6,0-1.1-0.1-1.6-0.2c-0.5-0.2-1-0.4-1.5-0.6c-0.4-0.2-0.8-0.5-1.2-0.8
			c-0.3-0.3-0.6-0.6-0.8-0.9l1.1-1.1c0.2,0.2,0.4,0.4,0.7,0.6s0.5,0.4,0.9,0.6c0.3,0.2,0.6,0.3,1,0.5c0.4,0.1,0.8,0.2,1.2,0.2
			c0.4,0,0.7-0.1,1.1-0.2c0.4-0.1,0.7-0.3,0.9-0.5s0.5-0.5,0.6-0.8c0.2-0.3,0.2-0.7,0.2-1.1c0-0.6-0.1-1.1-0.4-1.4
			c-0.3-0.4-0.6-0.7-1.1-0.9c-0.4-0.2-0.9-0.4-1.3-0.6c-0.5-0.1-0.9-0.3-1.2-0.4c-0.3-0.1-0.6-0.2-0.9-0.4c-0.4-0.2-0.7-0.4-1-0.7
			c-0.3-0.3-0.6-0.7-0.8-1.1c-0.2-0.4-0.4-1-0.4-1.6c0-0.5,0.1-1,0.2-1.5c0.1-0.5,0.4-0.9,0.7-1.3c0.3-0.4,0.8-0.7,1.3-1
			c0.6-0.2,1.2-0.4,2-0.4c0.6,0,1.2,0.1,1.8,0.3S1127.2-298.2,1128-297.6z"/>
	</g>
	<path fill="#EED3B8" d="M105-357.6c0,7.8-5.5,17.4-12.3,21.3l-40.8,23.6c-6.8,3.9-17.8,3.9-24.5,0l-40.8-23.6
		c-6.8-3.9-12.3-13.5-12.3-21.3v-57.2c0-7.8,5.5-17.4,12.3-21.3l40.8-23.6c6.8-3.9,17.8-3.9,24.5,0L92.7-436
		c6.8,3.9,12.3,13.5,12.3,21.3V-357.6z"/>
	<path fill="#242626" d="M92.7-436l-40.8-23.6c-6.8-3.9-17.8-3.9-24.5,0L-13.6-436c-6.8,3.9-12.3,13.5-12.3,21.3v57.2
		c0,7.8,5.5,17.4,12.3,21.3L4.3-326l0-24.4L39.6-340l35.1-9.9l0.1,23.9l17.9-10.3c6.8-3.9,12.3-13.5,12.3-21.3v-57.2
		C105-422.6,99.4-432.1,92.7-436"/>
	<path fill="#0E0E0E" d="M39.5-462.5c4.3,0,9,1,12.3,2.9L92.6-436c6.8,3.9,12.3,13.5,12.3,21.3v57.2c0,7.8-5.5,17.4-12.3,21.3
		L74.7-326l0-24.1l-35.2,9.2L39.5-462.5z"/>
	<path fill="#FFFFFF" d="M15.1-364.7c0,2.5-2,4.5-4.5,4.5s-4.5-2-4.5-4.5c0-2.5,2-4.5,4.5-4.5S15.1-367.2,15.1-364.7"/>
	<path fill="#FFFFFF" d="M72-364.7c0,2.5-2,4.5-4.5,4.5s-4.5-2-4.5-4.5c0-2.5,2-4.5,4.5-4.5S72-367.2,72-364.7"/>
	<g>
		<path fill="#FFFFFF" d="M63-348.8c-2.2,0-4.6-0.2-7-0.5c-2.4-0.3-4.7-0.5-6.9-0.5c-2.5,0-9.3,0.5-9.5,6.7l0,0
			c-0.2-6.2-6.7-6.7-9.4-6.7c-2.2,0-4.5,0.3-6.9,0.5c-2.4,0.3-4.8,0.5-7,0.5c-7,0-10.7-3.8-11.7-10.1H4.3v3.1
			c0,8.3,3.6,13.6,11.9,13.6c2.2,0,4.6-0.2,7-0.4c2.4-0.3,4.7-0.5,6.9-0.5c2.6,0,5,0.6,5.2,6.8h8.5c0.2-6.2,2.7-6.8,5.1-6.8
			c2.2,0,4.5,0.3,6.9,0.5c2.4,0.3,4.8,0.4,7,0.4c8.8,0,12-5.6,12-13.5v-2.5C73.6-352.5,70.2-348.8,63-348.8z"/>
		<path fill="#D5B69C" d="M63-345.1c-2.2,0-4.6-0.2-7-0.5c-2.4-0.3-4.7-0.5-6.9-0.5c-2.5,0-9.3,0.5-9.5,6.7l0,0
			c-0.2-6.2-6.7-6.7-9.4-6.7c-2.2,0-4.5,0.3-6.9,0.5c-2.4,0.3-4.8,0.5-7,0.5c-7,0-10.7-3.8-11.7-10.1H4.3v3.1
			c0,8.3,3.6,13.6,11.9,13.6c2.2,0,4.6-0.2,7-0.4c2.4-0.3,4.7-0.5,6.9-0.5c2.6,0,5,0.6,5.2,6.8h8.5c0.2-6.2,2.7-6.8,5.1-6.8
			c2.2,0,4.5,0.3,6.9,0.5c2.4,0.3,4.8,0.4,7,0.4c8.8,0,12-5.6,12-13.5v-2.5C73.6-348.8,70.2-345.1,63-345.1z"/>
		<path fill="#EED3B8" d="M63-343.5c-2.2,0-4.6-0.2-7-0.5c-2.4-0.3-4.7-0.5-6.9-0.5c-2.5,0-9.3,0.5-9.5,6.7l0,0
			c-0.2-6.2-6.7-6.7-9.4-6.7c-2.2,0-4.5,0.3-6.9,0.5c-2.4,0.3-4.8,0.5-7,0.5c-7,0-10.7-3.8-11.7-10.1H4.3v3.1
			c0,8.3,3.6,13.6,11.9,13.6c2.2,0,4.6-0.2,7-0.4c2.4-0.3,4.7-0.5,6.9-0.5c2.6,0,5,0.6,5.2,6.8h8.5c0.2-6.2,2.7-6.8,5.1-6.8
			c2.2,0,4.5,0.3,6.9,0.5c2.4,0.3,4.8,0.4,7,0.4c8.8,0,12-5.6,12-13.5v-2.5C73.6-347.2,70.2-343.5,63-343.5z"/>
	</g>
	<path fill="none" stroke="#A9856B" stroke-width="4" stroke-linecap="round" stroke-linejoin="round" stroke-miterlimit="10" d="
		M25.4-328.7h23.3c0,0,5.3,0,6.7-4.4"/>
	<path fill="none" stroke="#774E31" stroke-width="6" stroke-linecap="round" stroke-linejoin="round" stroke-miterlimit="10" d="
		M317.9-451.6h23.3c0,0,10.6,0,10.5-10.2"/>
	<g>
		<path id="j_5_" fill="#63BB96" d="M15.7-397.2l5.5-3.3c1.1,1.9,2,3.5,4.4,3.5c2.2,0,3.6-0.9,3.6-4.3v-23H36v23.1
			c0,7-4.1,10.2-10.1,10.2C20.4-391,17.3-393.8,15.7-397.2"/>
		<path id="s_5_" fill="#3FB289" d="M39.6-397.9l5.5-3.2c1.5,2.4,3.3,4.1,6.7,4.1c2.8,0,4.6-1.4,4.6-3.3c0-2.3-1.8-3.1-4.9-4.5
			l-1.7-0.7c-4.9-2.1-8.1-4.7-8.1-10.2c0-5.1,3.9-9,9.9-9c4.3,0,7.4,1.5,9.6,5.4l-5.3,3.4c-1.2-2.1-2.4-2.9-4.4-2.9
			c-2,0-3.2,1.3-3.2,2.9c0,2,1.3,2.9,4.2,4.1l1.7,0.7c5.8,2.5,9,5,9,10.6c0,6.1-4.8,9.4-11.2,9.4C45.7-391,41.6-394,39.6-397.9"/>
	</g>
	<g>
		<path fill="#3FB289" d="M-6.8-297.8c-0.1,0.1-0.2,0.2-0.3,0.4c-0.1,0.1-0.2,0.2-0.3,0.4c-0.1-0.1-0.3-0.2-0.5-0.4
			c-0.2-0.1-0.4-0.3-0.7-0.4c-0.3-0.1-0.5-0.2-0.9-0.3c-0.3-0.1-0.7-0.1-1-0.1c-0.5,0-1,0.1-1.3,0.3c-0.4,0.2-0.7,0.4-1,0.7
			s-0.4,0.6-0.6,1c-0.1,0.4-0.2,0.8-0.2,1.2c0,0.4,0.1,0.8,0.2,1.1c0.1,0.3,0.3,0.6,0.6,0.8s0.5,0.4,0.9,0.5
			c0.3,0.2,0.7,0.3,1.1,0.4c0.5,0.2,1,0.3,1.6,0.5c0.6,0.2,1.1,0.5,1.6,0.8c0.5,0.3,0.9,0.8,1.3,1.3s0.5,1.2,0.5,2
			c0,0.6-0.1,1.2-0.4,1.8s-0.6,1-1,1.4c-0.4,0.4-0.9,0.7-1.5,0.9c-0.6,0.2-1.2,0.3-1.8,0.3c-0.6,0-1.1-0.1-1.6-0.2s-0.9-0.3-1.3-0.5
			c-0.4-0.2-0.7-0.5-1-0.7s-0.5-0.5-0.7-0.7l0.6-0.6c0.2,0.2,0.4,0.4,0.7,0.6c0.3,0.2,0.6,0.4,0.9,0.6s0.7,0.3,1,0.5
			c0.4,0.1,0.8,0.2,1.2,0.2c0.5,0,1-0.1,1.4-0.2c0.5-0.2,0.9-0.4,1.2-0.7c0.4-0.3,0.6-0.6,0.8-1c0.2-0.4,0.3-0.9,0.3-1.4
			c0-0.7-0.1-1.2-0.4-1.6c-0.3-0.4-0.7-0.8-1.1-1.1c-0.4-0.3-0.9-0.5-1.4-0.7c-0.5-0.2-1-0.3-1.4-0.5c-0.3-0.1-0.6-0.2-1-0.4
			s-0.7-0.4-1.1-0.6c-0.3-0.3-0.6-0.6-0.9-1s-0.4-0.9-0.4-1.5c0-0.5,0-1,0.2-1.5c0.1-0.5,0.4-0.9,0.7-1.3s0.7-0.7,1.3-1
			c0.5-0.2,1.1-0.4,1.9-0.4c0.6,0,1.1,0.1,1.7,0.3C-8-298.7-7.4-298.3-6.8-297.8z"/>
		<path fill="#3FB289" d="M-1.8-299.1h0.9v15.4h-0.9V-299.1z"/>
		<path fill="#3FB289" d="M3-299.1h3.2c1.1,0,2.1,0.2,3,0.5c0.9,0.4,1.8,0.9,2.5,1.5c0.7,0.7,1.3,1.5,1.7,2.4c0.4,1,0.6,2,0.6,3.2
			c0,0.9-0.2,1.8-0.5,2.7c-0.3,0.9-0.8,1.7-1.5,2.5c-0.7,0.7-1.6,1.4-2.6,1.8c-1.1,0.5-2.4,0.7-3.9,0.7H3V-299.1z M3.9-298.2v13.6
			h1.9c1.2,0,2.3-0.2,3.2-0.6c0.9-0.4,1.7-0.9,2.3-1.5c0.6-0.6,1.1-1.4,1.4-2.2c0.3-0.8,0.5-1.7,0.5-2.5c0-1-0.2-2-0.5-2.8
			c-0.4-0.8-0.9-1.6-1.5-2.2c-0.6-0.6-1.3-1-2.2-1.4c-0.8-0.3-1.7-0.5-2.7-0.5H3.9z"/>
		<path fill="#3FB289" d="M17.5-283.7v-15.4h9.1v0.9h-8.2v6.3h7.4v0.9h-7.4v6.4H27v0.9H17.5z"/>
		<path fill="#3FB289" d="M41.1-283.7H40c-1.1-1.5-2.3-2.9-3.4-4.3c-1.1-1.4-2.3-2.9-3.4-4.3c-0.3,0.3-0.7,0.6-1,0.9
			c-0.3,0.3-0.6,0.6-0.9,0.9v6.8h-0.9v-15.4h0.9v6.9c0,0.1,0,0.2,0,0.3c0,0.1,0,0.2,0,0.3c0.1-0.1,0.1-0.2,0.2-0.2
			c0.1-0.1,0.1-0.1,0.2-0.2c1.2-1.2,2.5-2.4,3.7-3.6s2.5-2.4,3.7-3.6h1.2l-6.5,6.1c1.2,1.6,2.5,3.1,3.7,4.6
			C38.7-286.8,39.9-285.2,41.1-283.7z"/>
		<path fill="#3FB289" d="M44.4-299.1h0.9v15.4h-0.9V-299.1z"/>
		<path fill="#3FB289" d="M60.3-285.3l0.5,0.7c-0.6,0.3-1.2,0.6-1.9,0.8s-1.4,0.3-2.1,0.3c-1.1,0-2.1-0.2-3.1-0.6
			c-1-0.4-1.8-1-2.5-1.7c-0.7-0.7-1.3-1.5-1.7-2.5c-0.4-1-0.6-2-0.6-3.1c0-1.1,0.2-2.1,0.6-3.1c0.4-1,1-1.8,1.7-2.5
			c0.7-0.7,1.5-1.3,2.5-1.7c1-0.4,2-0.6,3.1-0.6c0.7,0,1.5,0.1,2.1,0.3s1.3,0.5,1.9,0.8c-0.1,0.1-0.2,0.2-0.3,0.4
			c-0.1,0.1-0.2,0.3-0.3,0.4c-0.5-0.3-1.1-0.5-1.7-0.7c-0.6-0.2-1.2-0.3-1.9-0.3c-1,0-1.9,0.2-2.7,0.6c-0.8,0.4-1.6,0.9-2.2,1.5
			c-0.6,0.6-1.1,1.4-1.5,2.2s-0.5,1.8-0.5,2.7c0,1,0.2,1.9,0.5,2.7s0.9,1.6,1.5,2.2c0.6,0.6,1.4,1.1,2.2,1.5
			c0.8,0.4,1.7,0.5,2.7,0.5c0.7,0,1.3-0.1,1.9-0.3C59.2-284.8,59.7-285,60.3-285.3z"/>
		<path fill="#3FB289" d="M74.5-283.7h-1.1c-1.1-1.5-2.3-2.9-3.4-4.3c-1.1-1.4-2.3-2.9-3.4-4.3c-0.3,0.3-0.7,0.6-1,0.9
			c-0.3,0.3-0.6,0.6-0.9,0.9v6.8h-0.9v-15.4h0.9v6.9c0,0.1,0,0.2,0,0.3c0,0.1,0,0.2,0,0.3c0.1-0.1,0.1-0.2,0.2-0.2
			c0.1-0.1,0.1-0.1,0.2-0.2c1.2-1.2,2.5-2.4,3.7-3.6s2.5-2.4,3.7-3.6h1.2l-6.5,6.1c1.2,1.6,2.5,3.1,3.7,4.6
			C72.1-286.8,73.3-285.2,74.5-283.7z"/>
		<path fill="#3FB289" d="M75.9-280.5v-1.7c1-0.1,1.8-0.4,2.5-1c0.7-0.6,1-1.4,1-2.5v-13.4h1.8v13.4c0,0.8-0.1,1.5-0.4,2.2
			c-0.3,0.6-0.6,1.2-1.1,1.6c-0.5,0.4-1,0.8-1.7,1S76.6-280.5,75.9-280.5z"/>
		<path fill="#3FB289" d="M92.9-297.6c-0.2,0.2-0.3,0.4-0.5,0.7c-0.2,0.2-0.3,0.4-0.5,0.7c-0.1-0.1-0.3-0.2-0.5-0.4
			c-0.2-0.1-0.4-0.3-0.6-0.4c-0.2-0.1-0.5-0.2-0.8-0.3c-0.3-0.1-0.6-0.1-1-0.1c-0.9,0-1.5,0.2-1.9,0.7c-0.4,0.5-0.6,1.1-0.6,1.7
			c0,0.4,0.1,0.7,0.2,0.9c0.1,0.2,0.3,0.5,0.5,0.6s0.5,0.3,0.8,0.4c0.3,0.1,0.6,0.2,0.9,0.3c0.5,0.2,1,0.4,1.6,0.6
			c0.6,0.2,1.1,0.5,1.6,0.9c0.5,0.4,0.9,0.8,1.2,1.4c0.3,0.5,0.5,1.2,0.5,2c0,0.7-0.1,1.3-0.4,1.8s-0.6,1-1,1.4
			c-0.4,0.4-0.9,0.7-1.5,0.9s-1.1,0.3-1.8,0.3c-0.6,0-1.1-0.1-1.6-0.2c-0.5-0.2-1-0.4-1.5-0.6c-0.4-0.2-0.8-0.5-1.2-0.8
			c-0.3-0.3-0.6-0.6-0.8-0.9l1.1-1.1c0.2,0.2,0.4,0.4,0.7,0.6s0.5,0.4,0.9,0.6c0.3,0.2,0.6,0.3,1,0.5c0.4,0.1,0.8,0.2,1.2,0.2
			c0.4,0,0.7-0.1,1.1-0.2c0.4-0.1,0.7-0.3,0.9-0.5s0.5-0.5,0.6-0.8c0.2-0.3,0.2-0.7,0.2-1.1c0-0.6-0.1-1.1-0.4-1.4
			c-0.3-0.4-0.6-0.7-1.1-0.9c-0.4-0.2-0.9-0.4-1.3-0.6c-0.5-0.1-0.9-0.3-1.2-0.4c-0.3-0.1-0.6-0.2-0.9-0.4c-0.4-0.2-0.7-0.4-1-0.7
			c-0.3-0.3-0.6-0.7-0.8-1.1c-0.2-0.4-0.4-1-0.4-1.6c0-0.5,0.1-1,0.2-1.5c0.1-0.5,0.4-0.9,0.7-1.3c0.3-0.4,0.8-0.7,1.3-1
			c0.6-0.2,1.2-0.4,2-0.4c0.6,0,1.2,0.1,1.8,0.3S92.1-298.2,92.9-297.6z"/>
	</g>
	<g>
		<path fill="#E0E0E0" d="M115-650.5c0,7.8-5.5,17.4-12.3,21.3l-40.8,23.6c-6.8,3.9-17.8,3.9-24.5,0l-40.8-23.6
			c-6.7-3.9-12.3-13.5-12.3-21.3v-57.2c0-7.8,5.5-17.4,12.3-21.3l40.8-23.6c6.8-3.9,17.8-3.9,24.5,0l40.8,23.6
			c6.8,3.9,12.3,13.5,12.3,21.3V-650.5z"/>
		<path fill="#242626" d="M102.8-729l-40.8-23.6c-6.8-3.9-17.8-3.9-24.5,0L-3.5-729c-6.8,3.9-12.3,13.5-12.3,21.3v57.2
			c0,7.8,5.5,17.4,12.3,21.3L14.4-619l0-24.4L49.7-633l35.1-9.9l0.1,23.9l17.9-10.3c6.8-3.9,12.3-13.5,12.3-21.3v-57.2
			C115-715.5,109.5-725.1,102.8-729"/>
		<path fill="#0E0E0E" d="M49.5-755.4c4.3,0,9,1,12.3,2.9l40.8,23.6c6.8,3.9,12.3,13.5,12.3,21.3v57.2c0,7.8-5.5,17.4-12.3,21.3
			l-17.9,10.3l0-24.1l-35.2,9.2L49.5-755.4z"/>
		<path fill="#FFFFFF" d="M25.2-657.6c0,2.5-2,4.5-4.5,4.5s-4.5-2-4.5-4.5c0-2.5,2-4.5,4.5-4.5S25.2-660.1,25.2-657.6"/>
		<path fill="#FFFFFF" d="M82.1-657.6c0,2.5-2,4.5-4.5,4.5s-4.5-2-4.5-4.5c0-2.5,2-4.5,4.5-4.5S82.1-660.1,82.1-657.6"/>
		<path fill="#B5B5B5" d="M73-641.8c-2.2,0-4.6-0.2-7-0.5c-2.4-0.3-4.7-0.5-6.9-0.5c-2.5,0-9.3,0.5-9.5,6.7l0,0
			c-0.2-6.2-6.7-6.7-9.4-6.7c-2.2,0-4.5,0.3-6.9,0.5c-2.4,0.3-4.8,0.5-7,0.5c-7,0-10.7-3.8-11.7-10.1h-0.1v3.1
			c0,8.3,3.6,13.6,11.9,13.6c2.2,0,4.6-0.2,7-0.4c2.4-0.3,4.7-0.5,6.9-0.5c2.6,0,5,0.6,5.2,6.8h8.5c0.2-6.2,2.7-6.8,5.1-6.8
			c2.2,0,4.5,0.3,6.9,0.5c2.4,0.3,4.8,0.4,7,0.4c8.8,0,12-5.6,12-13.5v-2.5C83.7-645.5,80.2-641.8,73-641.8z"/>
		<path fill="#E0E0E0" d="M73-638c-2.2,0-4.6-0.2-7-0.5c-2.4-0.3-4.7-0.5-6.9-0.5c-2.5,0-9.3,0.5-9.5,6.7l0,0
			c-0.2-6.2-6.7-6.7-9.4-6.7c-2.2,0-4.5,0.3-6.9,0.5c-2.4,0.3-4.8,0.5-7,0.5c-7,0-10.7-3.8-11.7-10.1h-0.1v3.1
			c0,8.3,3.6,13.6,11.9,13.6c2.2,0,4.6-0.2,7-0.4c2.4-0.3,4.7-0.5,6.9-0.5c2.6,0,5,0.6,5.2,6.8h8.5c0.2-6.2,2.7-6.8,5.1-6.8
			c2.2,0,4.5,0.3,6.9,0.5c2.4,0.3,4.8,0.4,7,0.4c8.8,0,12-5.6,12-13.5v-2.5C83.7-641.7,80.2-638,73-638z"/>
		<path fill="#E0E0E0" d="M73-636.4c-2.2,0-4.6-0.2-7-0.5c-2.4-0.3-4.7-0.5-6.9-0.5c-2.5,0-9.3,0.5-9.5,6.7l0,0
			c-0.2-6.2-6.7-6.7-9.4-6.7c-2.2,0-4.5,0.3-6.9,0.5c-2.4,0.3-4.8,0.5-7,0.5c-7,0-10.7-3.8-11.7-10.1h-0.1v3.1
			c0,8.3,3.6,13.6,11.9,13.6c2.2,0,4.6-0.2,7-0.4c2.4-0.3,4.7-0.5,6.9-0.5c2.6,0,5,0.6,5.2,6.8h8.5c0.2-6.2,2.7-6.8,5.1-6.8
			c2.2,0,4.5,0.3,6.9,0.5c2.4,0.3,4.8,0.4,7,0.4c8.8,0,12-5.6,12-13.5v-2.5C83.7-640.1,80.2-636.4,73-636.4z"/>
		<path fill="none" stroke="#B5B5B5" stroke-width="4" stroke-linecap="round" stroke-linejoin="round" stroke-miterlimit="10" d="
			M35.5-621.7h23.3c0,0,5.3,0,6.7-4.4"/>
		<g>
			<path id="j_6_" fill="#E2E2E1" d="M25.8-690.1l5.5-3.3c1.1,1.9,2,3.5,4.4,3.5c2.2,0,3.6-0.9,3.6-4.3v-23h6.8v23.1
				c0,7-4.1,10.2-10.1,10.2C30.5-683.9,27.4-686.7,25.8-690.1"/>
			<path id="s_6_" fill="#E2E2E1" d="M49.7-690.8l5.5-3.2c1.5,2.4,3.3,4.1,6.7,4.1c2.8,0,4.6-1.4,4.6-3.3c0-2.3-1.8-3.1-4.9-4.5
				l-1.7-0.7c-4.9-2.1-8.1-4.7-8.1-10.2c0-5.1,3.9-9,9.9-9c4.3,0,7.4,1.5,9.6,5.4l-5.3,3.4c-1.2-2.1-2.4-2.9-4.4-2.9
				c-2,0-3.2,1.3-3.2,2.9c0,2,1.3,2.9,4.2,4.1l1.7,0.7c5.8,2.5,9,5,9,10.6c0,6.1-4.8,9.4-11.2,9.4C55.8-683.9,51.7-686.9,49.7-690.8
				"/>
		</g>
	</g>
	<rect x="602.5" y="-34" fill="#4AB484" width="448.5" height="165"/>
	<path fill="#313130" d="M451.8-461.7"/>
	<path fill="#313130" d="M304.9-473.5"/>
	<path fill="none" stroke="#774E31" stroke-width="6" stroke-linecap="round" stroke-linejoin="round" stroke-miterlimit="10" d="
		M71.3-101.6h23.3c0,0,10.6,0,10.5-10.2"/>
	<g>
		<path fill="#EED2B7" d="M670.3,53.5c0,3.2-2.3,7.1-5,8.7l-16.7,9.6c-2.8,1.6-7.3,1.6-10,0l-16.7-9.6c-2.8-1.6-5-5.5-5-8.7V30.2
			c0-3.2,2.3-7.1,5-8.7l16.7-9.6c2.8-1.6,7.3-1.6,10,0l16.7,9.6c2.8,1.6,5,5.5,5,8.7V53.5z"/>
		<path fill="#494848" d="M665.3,21.5l-16.7-9.6c-2.8-1.6-7.3-1.6-10,0l-16.7,9.6c-2.8,1.6-5,5.5-5,8.7v23.3c0,3.2,2.3,7.1,5,8.7
			l7.3,4.2l0-9.9l14.4,4.2l14.3-4l0.1,9.8l7.3-4.2c2.8-1.6,5-5.5,5-8.7V30.2C670.3,27,668.1,23.1,665.3,21.5"/>
		<path fill="#313231" d="M643.6,10.7c1.8,0,3.7,0.4,5,1.2l16.7,9.6c2.8,1.6,5,5.5,5,8.7v23.3c0,3.2-2.3,7.1-5,8.7l-7.3,4.2l0-9.8
			l-14.4,3.8L643.6,10.7z"/>
		<path fill="#FFFFFF" d="M633.6,50.6c0,1-0.8,1.8-1.8,1.8c-1,0-1.8-0.8-1.8-1.8c0-1,0.8-1.8,1.8-1.8
			C632.8,48.8,633.6,49.6,633.6,50.6"/>
		<path fill="#FFFFFF" d="M656.8,50.6c0,1-0.8,1.8-1.8,1.8c-1,0-1.8-0.8-1.8-1.8c0-1,0.8-1.8,1.8-1.8
			C656,48.8,656.8,49.6,656.8,50.6"/>
		<g>
			<path fill="#FFFFFF" d="M653.2,57.1c-0.9,0-1.9-0.1-2.9-0.2c-1-0.1-1.9-0.2-2.8-0.2c-1,0-3.8,0.2-3.9,2.8l0,0
				c-0.1-2.5-2.7-2.8-3.8-2.8c-0.9,0-1.8,0.1-2.8,0.2c-1,0.1-2,0.2-2.9,0.2c-2.9,0-4.4-1.6-4.8-4.1h-0.1v1.3c0,3.4,1.5,5.6,4.9,5.6
				c0.9,0,1.9-0.1,2.8-0.2c1-0.1,1.9-0.2,2.8-0.2c1.1,0,2,0.3,2.1,2.8h3.5c0.1-2.5,1.1-2.8,2.1-2.8c0.9,0,1.8,0.1,2.8,0.2
				c1,0.1,1.9,0.2,2.8,0.2c3.6,0,4.9-2.3,4.9-5.5v-1C657.5,55.6,656.1,57.1,653.2,57.1z"/>
			<path fill="#D4B59B" d="M653.2,58.6c-0.9,0-1.9-0.1-2.9-0.2c-1-0.1-1.9-0.2-2.8-0.2c-1,0-3.8,0.2-3.9,2.8l0,0
				c-0.1-2.5-2.7-2.8-3.8-2.8c-0.9,0-1.8,0.1-2.8,0.2c-1,0.1-2,0.2-2.9,0.2c-2.9,0-4.4-1.6-4.8-4.1h-0.1v1.3c0,3.4,1.5,5.6,4.9,5.6
				c0.9,0,1.9-0.1,2.8-0.2c1-0.1,1.9-0.2,2.8-0.2c1.1,0,2,0.3,2.1,2.8h3.5c0.1-2.5,1.1-2.8,2.1-2.8c0.9,0,1.8,0.1,2.8,0.2
				c1,0.1,1.9,0.2,2.8,0.2c3.6,0,4.9-2.3,4.9-5.5v-1C657.5,57.1,656.1,58.6,653.2,58.6z"/>
			<path fill="#EED2B7" d="M653.2,59.3c-0.9,0-1.9-0.1-2.9-0.2c-1-0.1-1.9-0.2-2.8-0.2c-1,0-3.8,0.2-3.9,2.8l0,0
				c-0.1-2.5-2.7-2.8-3.8-2.8c-0.9,0-1.8,0.1-2.8,0.2c-1,0.1-2,0.2-2.9,0.2c-2.9,0-4.4-1.6-4.8-4.1h-0.1v1.3c0,3.4,1.5,5.6,4.9,5.6
				c0.9,0,1.9-0.1,2.8-0.2c1-0.1,1.9-0.2,2.8-0.2c1.1,0,2,0.3,2.1,2.8h3.5c0.1-2.5,1.1-2.8,2.1-2.8c0.9,0,1.8,0.1,2.8,0.2
				c1,0.1,1.9,0.2,2.8,0.2c3.6,0,4.9-2.3,4.9-5.5v-1C657.5,57.8,656.1,59.3,653.2,59.3z"/>
		</g>
		<path fill="none" stroke="#A6846B" stroke-linecap="round" stroke-linejoin="round" stroke-miterlimit="10" d="M637.8,65.3h9.5
			c0,0,2.2,0,2.7-1.8"/>
		<g>
			<path id="j_10_" fill="#64BA95" d="M633.9,37.4l2.3-1.4c0.4,0.8,0.8,1.4,1.8,1.4c0.9,0,1.5-0.4,1.5-1.7v-9.4h2.8v9.4
				c0,2.9-1.7,4.2-4.1,4.2C635.8,39.9,634.5,38.7,633.9,37.4"/>
			<path id="s_10_" fill="#40B288" d="M643.6,37.1l2.3-1.3c0.6,1,1.4,1.7,2.7,1.7c1.1,0,1.9-0.6,1.9-1.4c0-0.9-0.8-1.3-2-1.8
				l-0.7-0.3c-2-0.8-3.3-1.9-3.3-4.2c0-2.1,1.6-3.7,4.1-3.7c1.8,0,3,0.6,3.9,2.2l-2.2,1.4c-0.5-0.8-1-1.2-1.8-1.2
				c-0.8,0-1.3,0.5-1.3,1.2c0,0.8,0.5,1.2,1.7,1.7l0.7,0.3c2.4,1,3.7,2,3.7,4.3c0,2.5-2,3.9-4.6,3.9
				C646.1,39.9,644.5,38.7,643.6,37.1"/>
		</g>
	</g>
	<g>
		<rect x="687.3" y="25.1" fill="none" width="502" height="108.2"/>
		<path fill="#FFFFFF" d="M706.8,30c-0.2,0.2-0.4,0.5-0.6,0.7c-0.2,0.2-0.3,0.5-0.5,0.7c-0.3-0.2-0.6-0.5-1-0.8
			c-0.4-0.3-0.8-0.6-1.4-0.8c-0.5-0.3-1.1-0.5-1.8-0.6c-0.6-0.2-1.3-0.2-2.1-0.2c-1.1,0-2,0.2-2.7,0.5c-0.8,0.3-1.4,0.8-2,1.4
			s-0.9,1.3-1.2,2s-0.4,1.6-0.4,2.4c0,0.9,0.1,1.6,0.4,2.2c0.3,0.6,0.7,1.1,1.2,1.6c0.5,0.4,1.1,0.8,1.8,1.1
			c0.7,0.3,1.4,0.6,2.2,0.9c1,0.3,2,0.7,3.2,1.1c1.2,0.4,2.3,1,3.4,1.7c1,0.7,1.9,1.6,2.6,2.7c0.7,1.1,1.1,2.4,1.1,4
			c0,1.3-0.2,2.5-0.7,3.6c-0.5,1.1-1.2,2-2,2.8c-0.9,0.8-1.9,1.4-3,1.8c-1.2,0.4-2.4,0.6-3.7,0.6c-1.2,0-2.3-0.2-3.3-0.5
			c-1-0.3-1.9-0.7-2.7-1.1c-0.8-0.5-1.5-0.9-2-1.4c-0.6-0.5-1-1-1.4-1.3l1.3-1.3c0.4,0.4,0.9,0.9,1.4,1.3s1.1,0.9,1.8,1.2
			c0.6,0.4,1.4,0.7,2.1,0.9c0.8,0.2,1.6,0.4,2.5,0.4c1,0,2-0.2,2.9-0.5c0.9-0.3,1.8-0.8,2.5-1.4c0.7-0.6,1.3-1.3,1.7-2.1
			c0.4-0.8,0.7-1.8,0.7-2.9c0-1.3-0.3-2.5-0.9-3.3c-0.6-0.9-1.3-1.6-2.2-2.2c-0.9-0.6-1.9-1-2.9-1.4c-1.1-0.4-2-0.7-2.9-1
			c-0.6-0.2-1.2-0.4-2-0.7c-0.8-0.3-1.5-0.7-2.2-1.3c-0.7-0.5-1.3-1.2-1.8-2c-0.5-0.8-0.8-1.9-0.8-3.1c-0.1-1,0.1-2,0.3-3
			c0.3-1,0.8-1.9,1.4-2.7c0.7-0.8,1.5-1.4,2.6-2c1-0.5,2.3-0.8,3.8-0.8c1.1,0,2.3,0.2,3.5,0.6C704.2,28.2,705.4,28.9,706.8,30z"/>
		<path fill="#FFFFFF" d="M716.8,27.4h1.8v31.5h-1.8V27.4z"/>
		<path fill="#FFFFFF" d="M726.7,27.4h6.6c2.2,0,4.2,0.4,6.1,1.1c1.9,0.7,3.6,1.8,5,3.2s2.6,3,3.4,5c0.8,2,1.3,4.1,1.3,6.5
			c0,1.8-0.3,3.6-0.9,5.4c-0.6,1.9-1.6,3.6-3,5.1c-1.4,1.5-3.2,2.8-5.4,3.8c-2.2,1-4.9,1.5-8.1,1.5h-5.1V27.4z M728.6,29.2V57h3.9
			c2.5,0,4.7-0.4,6.5-1.2c1.9-0.8,3.4-1.8,4.6-3.1c1.2-1.3,2.2-2.8,2.8-4.4c0.6-1.7,0.9-3.4,0.9-5.2c0-2.1-0.4-4.1-1.1-5.8
			c-0.7-1.7-1.7-3.2-3-4.4c-1.3-1.2-2.8-2.1-4.5-2.8c-1.7-0.6-3.5-1-5.4-1H728.6z"/>
		<path fill="#FFFFFF" d="M756.5,58.9V27.4h18.7v1.8h-16.8v12.9h15.1v1.8h-15.1v13.2h17.5v1.8H756.5z"/>
		<path fill="#FFFFFF" d="M804.7,58.9h-2.3c-2.3-3-4.7-5.9-7-8.8c-2.3-2.9-4.6-5.9-7-8.9c-0.7,0.6-1.4,1.3-2,1.9
			c-0.6,0.6-1.3,1.2-1.9,1.9v14h-1.8V27.4h1.8v14.1c0,0.2,0,0.5,0,0.7c0,0.2,0,0.4-0.1,0.7c0.1-0.2,0.3-0.3,0.4-0.5
			c0.1-0.2,0.3-0.3,0.4-0.5c2.5-2.4,5.1-4.9,7.6-7.3c2.5-2.4,5.1-4.8,7.6-7.3h2.4l-13.2,12.6c2.5,3.2,5.1,6.3,7.5,9.5
			C799.7,52.5,802.2,55.7,804.7,58.9z"/>
		<path fill="#FFFFFF" d="M811.4,27.4h1.8v31.5h-1.8V27.4z"/>
		<path fill="#FFFFFF" d="M843.9,55.4l1,1.5c-1.2,0.7-2.5,1.2-3.8,1.6c-1.4,0.4-2.8,0.6-4.3,0.6c-2.2,0-4.3-0.4-6.3-1.3
			c-2-0.8-3.7-2-5.1-3.4c-1.5-1.5-2.6-3.2-3.4-5.1c-0.8-1.9-1.3-4-1.3-6.3c0-2.2,0.4-4.3,1.3-6.3s2-3.7,3.4-5.1
			c1.5-1.5,3.2-2.6,5.1-3.5c1.9-0.9,4-1.3,6.3-1.3c1.5,0,3,0.2,4.3,0.6c1.4,0.4,2.7,0.9,3.9,1.7c-0.2,0.2-0.4,0.5-0.5,0.8
			c-0.2,0.3-0.3,0.5-0.5,0.8c-1.1-0.6-2.2-1.1-3.4-1.5c-1.2-0.3-2.5-0.5-3.8-0.5c-2,0-3.8,0.4-5.5,1.1c-1.7,0.8-3.2,1.8-4.5,3.1
			c-1.3,1.3-2.3,2.8-3,4.6c-0.7,1.7-1.1,3.6-1.1,5.6c0,2,0.4,3.8,1.1,5.5c0.7,1.7,1.7,3.2,3,4.5c1.3,1.3,2.8,2.3,4.5,3.1
			c1.7,0.8,3.5,1.1,5.5,1.1c1.4,0,2.6-0.2,3.8-0.5C841.6,56.6,842.8,56.1,843.9,55.4z"/>
		<path fill="#FFFFFF" d="M873,58.9h-2.3c-2.3-3-4.7-5.9-7-8.8c-2.3-2.9-4.6-5.9-7-8.9c-0.7,0.6-1.4,1.3-2,1.9
			c-0.6,0.6-1.3,1.2-1.9,1.9v14H851V27.4h1.8v14.1c0,0.2,0,0.5,0,0.7c0,0.2,0,0.4-0.1,0.7c0.1-0.2,0.3-0.3,0.4-0.5
			c0.1-0.2,0.3-0.3,0.4-0.5c2.5-2.4,5.1-4.9,7.6-7.3c2.5-2.4,5.1-4.8,7.6-7.3h2.4L858,39.9c2.5,3.2,5.1,6.3,7.5,9.5
			C868,52.5,870.5,55.7,873,58.9z"/>
		<path fill="#FFFFFF" d="M875.8,65.3v-3.6c2.1-0.1,3.8-0.8,5.1-2c1.3-1.2,2-2.9,2-5.1V27.4h3.7v27.5c0,1.7-0.3,3.2-0.8,4.5
			c-0.6,1.3-1.3,2.4-2.3,3.3c-1,0.9-2.1,1.6-3.4,2C878.7,65.1,877.3,65.3,875.8,65.3z"/>
		<path fill="#FFFFFF" d="M910.6,30.5c-0.4,0.4-0.7,0.9-1.1,1.3c-0.3,0.5-0.7,0.9-1.1,1.3c-0.2-0.2-0.6-0.5-0.9-0.8
			c-0.4-0.3-0.8-0.5-1.3-0.8s-1.1-0.4-1.7-0.6c-0.6-0.2-1.3-0.2-2-0.2c-1.7,0-3,0.5-3.9,1.5c-0.8,1-1.3,2.2-1.3,3.5
			c0,0.8,0.1,1.4,0.4,1.9c0.3,0.5,0.7,0.9,1.1,1.3c0.5,0.3,1,0.6,1.6,0.9c0.6,0.2,1.2,0.5,1.8,0.7c1,0.4,2.1,0.8,3.2,1.3
			c1.1,0.5,2.2,1.1,3.2,1.9c1,0.8,1.8,1.7,2.4,2.8c0.6,1.1,1,2.4,1,4c0,1.3-0.2,2.6-0.7,3.6c-0.5,1.1-1.2,2-2,2.8
			c-0.9,0.8-1.9,1.4-3,1.8c-1.1,0.4-2.3,0.6-3.6,0.6c-1.1,0-2.2-0.2-3.3-0.5c-1.1-0.3-2.1-0.7-3-1.2s-1.7-1-2.4-1.6
			c-0.7-0.6-1.3-1.2-1.6-1.8l2.3-2.3c0.4,0.4,0.9,0.9,1.4,1.3s1.1,0.9,1.8,1.3c0.6,0.4,1.3,0.7,2.1,0.9c0.7,0.2,1.6,0.4,2.4,0.4
			c0.8,0,1.5-0.1,2.2-0.3c0.7-0.2,1.4-0.6,1.9-1c0.6-0.4,1-1,1.3-1.6c0.3-0.7,0.5-1.4,0.5-2.3c0-1.2-0.3-2.2-0.9-2.9
			s-1.3-1.4-2.2-1.9c-0.9-0.5-1.7-0.9-2.7-1.2c-0.9-0.3-1.7-0.6-2.4-0.9c-0.5-0.2-1.2-0.5-1.9-0.9c-0.8-0.4-1.5-0.8-2.1-1.5
			c-0.7-0.6-1.3-1.4-1.7-2.3c-0.5-0.9-0.7-2-0.8-3.4c0-1,0.1-2,0.4-3c0.3-1,0.8-1.9,1.5-2.7c0.7-0.8,1.6-1.5,2.7-2
			c1.1-0.5,2.5-0.8,4.2-0.8c1.2,0,2.4,0.2,3.7,0.6C907.6,28.2,909,29.1,910.6,30.5z"/>
	</g>
	<g>
	</g>
	<g>
	</g>
	<g>
	</g>
	<g>
	</g>
	<g>
	</g>
	<g>
	</g>
</g>
</svg>
