<?xml version="1.0" encoding="utf-8"?>
<!-- Generator: Adobe Illustrator 17.0.0, SVG Export Plug-In . SVG Version: 6.00 Build 0)  -->
<!DOCTYPE svg PUBLIC "-//W3C//DTD SVG 1.1//EN" "http://www.w3.org/Graphics/SVG/1.1/DTD/svg11.dtd">
<svg version="1.1" xmlns="http://www.w3.org/2000/svg" xmlns:xlink="http://www.w3.org/1999/xlink" x="0px" y="0px" width="130.8px"
	 height="152.6px" viewBox="0 0 130.8 152.6" enable-background="new 0 0 130.8 152.6" xml:space="preserve">
<g id="cut_line">
	<g>
		<g>
			<g>
				<line fill="none" stroke="#DE398D" stroke-miterlimit="10" x1="-152.9" y1="-44.5" x2="-152.9" y2="-46"/>
				<path fill="none" stroke="#DE398D" stroke-miterlimit="10" stroke-dasharray="2.9962,2.9962" d="M-152.9-49v-58v0
					c0-8.5-6-19-13.4-23.2l-28.7-16.6L-211-156c-7.4-4.3-19.5-4.3-26.8,0l-15.6,9l-29.1,16.8c-7.4,4.3-13.4,14.7-13.4,23.2v59.5"/>
				<line fill="none" stroke="#DE398D" stroke-miterlimit="10" x1="-295.8" y1="-46" x2="-295.8" y2="-44.5"/>
			</g>
		</g>
		<g>
			<g>
				<line fill="none" stroke="#DE398D" stroke-miterlimit="10" x1="-295.8" y1="-54.4" x2="-295.8" y2="-52.9"/>
				<path fill="none" stroke="#DE398D" stroke-miterlimit="10" stroke-dasharray="2.9785,2.9785" d="M-295.8-49.9v79.2
					c0,5.5,4.5,10,10,10h122.9c5.5,0,10-4.5,10-10v-80.7"/>
				<line fill="none" stroke="#DE398D" stroke-miterlimit="10" x1="-152.9" y1="-52.9" x2="-152.9" y2="-54.4"/>
			</g>
		</g>
	</g>
	<g>
		<path fill="#DE398D" d="M-191-147.4c0,0.1,0,0.2,0,0.2s0,0.2,0,0.2c-0.1,0-0.3,0-0.4,0c-0.1,0-0.3-0.1-0.4-0.1
			c-0.1-0.1-0.3-0.2-0.4-0.3c-0.1-0.1-0.2-0.3-0.2-0.4c0-0.1-0.1-0.3,0-0.5c0-0.2,0.1-0.3,0.1-0.4c0.1-0.1,0.2-0.3,0.3-0.3
			s0.3-0.2,0.4-0.2c0.1,0,0.3,0,0.5,0c0.2,0,0.3,0.1,0.5,0.2c0.1,0.1,0.2,0.2,0.3,0.3c0.1,0.1,0.2,0.2,0.2,0.3
			c-0.1,0-0.2,0.1-0.2,0.1c-0.1,0-0.2,0.1-0.2,0.1c-0.1-0.1-0.2-0.3-0.3-0.3c-0.2-0.1-0.4-0.1-0.5-0.1c-0.2,0-0.3,0.2-0.4,0.3
			c-0.1,0.2-0.1,0.3-0.1,0.5c0,0.2,0.2,0.3,0.3,0.4C-191.3-147.4-191.1-147.4-191-147.4z"/>
		<path fill="#DE398D" d="M-188.6-145.4l-0.4-0.2l0.2-0.3l0.2-0.2c-0.2,0.1-0.4,0.2-0.6,0.2c-0.2,0-0.4,0-0.6-0.1
			c-0.2-0.1-0.3-0.3-0.4-0.4s0-0.4,0.1-0.5l0.8-1.4l0.4,0.2l-0.7,1.2c0,0.1-0.1,0.2,0,0.3c0,0.1,0.1,0.2,0.2,0.3
			c0.1,0.1,0.2,0.1,0.3,0.1c0.1,0,0.2,0,0.3,0c0.1,0,0.2-0.1,0.3-0.1c0.1-0.1,0.1-0.1,0.2-0.2l0.5-0.9l0.4,0.2L-188.6-145.4z"/>
		<path fill="#DE398D" d="M-185.8-148.1l0.4,0.2l-0.7,1.2l0.5,0.3l-0.2,0.4l-0.5-0.3l-0.9,1.6l-0.4-0.2l0.9-1.6l-0.4-0.3l0.2-0.4
			l0.4,0.2L-185.8-148.1z"/>
		<path fill="#DE398D" d="M-184.3-143l-0.4-0.2l2.2-3.9l0.4,0.2L-184.3-143z"/>
		<path fill="#DE398D" d="M-183.3-142.4l-0.4-0.2l1.1-2l0.4,0.2L-183.3-142.4z M-182.3-145.4c0-0.1,0.1-0.1,0.2-0.2
			c0.1,0,0.2,0,0.2,0c0.1,0,0.1,0.1,0.1,0.2c0,0.1,0,0.2,0,0.2c0,0.1-0.1,0.1-0.2,0.1c-0.1,0-0.2,0-0.2,0c-0.1,0-0.1-0.1-0.1-0.2
			C-182.3-145.2-182.3-145.3-182.3-145.4z"/>
		<path fill="#DE398D" d="M-181.5-143.9l0.4,0.2l0,0c0,0.1-0.1,0.2-0.1,0.2c0,0.1-0.1,0.2-0.1,0.2c0.2-0.1,0.4-0.2,0.6-0.2
			c0.2,0,0.4,0,0.6,0.1c0.2,0.1,0.3,0.3,0.4,0.4c0.1,0.2,0,0.4-0.1,0.5l-0.8,1.4l-0.4-0.2l0.7-1.2c0-0.1,0.1-0.2,0-0.3
			c0-0.1-0.1-0.2-0.2-0.3c-0.1-0.1-0.2-0.1-0.3-0.1c-0.1,0-0.2,0-0.3,0c-0.1,0-0.2,0.1-0.3,0.1c-0.1,0.1-0.1,0.1-0.2,0.2l-0.5,0.9
			l-0.4-0.2L-181.5-143.9z"/>
		<path fill="#DE398D" d="M-177.7-140.6c-0.3,0-0.6-0.1-0.9-0.1c-0.3,0-0.6-0.1-0.9-0.1c0,0.1,0,0.2,0.1,0.3
			c0.1,0.1,0.1,0.2,0.3,0.2c0.2,0.1,0.3,0.1,0.5,0.1l0.1,0.5c-0.1,0-0.3,0-0.4,0c-0.1,0-0.3-0.1-0.4-0.1c-0.1-0.1-0.3-0.2-0.4-0.3
			c-0.1-0.1-0.2-0.3-0.2-0.4c0-0.1-0.1-0.3,0-0.5c0-0.2,0.1-0.3,0.1-0.4c0.1-0.1,0.2-0.3,0.3-0.3c0.1-0.1,0.3-0.2,0.4-0.2
			c0.1,0,0.3,0,0.5,0c0.2,0,0.3,0.1,0.5,0.2c0.1,0.1,0.2,0.1,0.3,0.2c0.1,0.1,0.1,0.2,0.2,0.3c0,0.1,0,0.3,0,0.4
			C-177.6-140.9-177.6-140.8-177.7-140.6z M-178.3-141.6c-0.1-0.1-0.3-0.1-0.4-0.1c-0.1,0-0.3,0.1-0.4,0.1c0,0-0.1,0.1-0.1,0.2
			c0.2,0,0.4,0.1,0.6,0.1c0.2,0,0.4,0.1,0.6,0.1c0-0.1,0-0.2-0.1-0.2C-178.2-141.5-178.2-141.6-178.3-141.6z"/>
	</g>
</g>
<g id="main_graphic">
	<polygon fill="#EED3B8" points="126.5,-148.8 69.2,-116.3 12.5,-149.6 13,-215.5 70.2,-247.9 127,-214.6 	"/>
	<polygon fill="#313130" points="126.5,-148.8 99.3,-133.3 99.1,-166.4 69.9,-155.2 40.9,-166.4 40.9,-132.8 12.5,-149.6 13,-215.5 
		70.2,-247.9 127,-214.6 	"/>
	<path fill="#EED3B8" d="M555.1-528.5c0,7.8-5.5,17.4-12.3,21.3L502-483.6c-6.8,3.9-17.8,3.9-24.5,0l-40.8-23.6
		c-6.8-3.9-12.3-13.5-12.3-21.3v-57.2c0-7.8,5.5-17.4,12.3-21.3l40.8-23.6c6.8-3.9,17.8-3.9,24.5,0l40.8,23.6
		c6.8,3.9,12.3,13.5,12.3,21.3V-528.5z"/>
	<polygon fill="#D5B69C" points="454.5,-515.6 489.7,-510.4 525,-515.6 525,-524.4 454.5,-524.4 	"/>
	<path fill="#3FB289" d="M542.9-606.9L502-630.5c-6.8-3.9-17.8-3.9-24.5,0l-40.8,23.6c-6.8,3.9-12.3,13.5-12.3,21.3v57.2
		c0,7.8,5.5,17.4,12.3,21.3l17.9,10.3v-22.7l35.2,5.2l35.2-5.2v22.7l17.9-10.3c6.8-3.9,12.3-13.5,12.3-21.3v-57.2
		C555.1-593.4,549.6-603,542.9-606.9"/>
	<path fill="#3B3A3A" d="M542.9-606.9L502-630.5c-6.8-3.9-17.8-3.9-24.5,0l-40.8,23.6c-6.8,3.9-12.3,13.5-12.3,21.3v57.2
		c0,7.8,5.5,17.4,12.3,21.3l17.9,10.3v-22.7l35.2,5.2l35.2-5.2v22.7l17.9-10.3c6.8-3.9,12.3-13.5,12.3-21.3v-57.2
		C555.1-593.4,549.6-603,542.9-606.9"/>
	<path fill="#313130" d="M489.7-633.4c4.3,0,9,1,12.3,2.9l40.8,23.6c6.8,3.9,12.3,13.5,12.3,21.3v57.2c0,7.8-5.5,17.4-12.3,21.3
		L525-496.9v-22.7l-35.2,5.2V-633.4z"/>
	<polygon fill="#D5B69C" points="454.5,-519.6 454.5,-496.9 458.5,-519 	"/>
	<polygon fill="#D5B69C" points="525,-519.6 525,-496.9 521,-519 	"/>
	<path fill="#63BB96" d="M489.7-605.5c-12.1,0-22,9.9-22,22c0,12.1,9.9,22,22,22c12.1,0,22-9.9,22-22
		C511.8-595.6,501.9-605.5,489.7-605.5 M489.7-566.4c-9.4,0-17-7.6-17-17c0-9.4,7.6-17,17-17c9.4,0,17,7.6,17,17
		C506.8-574.1,499.1-566.4,489.7-566.4"/>
	<path fill="#63BB96" d="M489.7-596.2c-7,0-12.7,5.7-12.7,12.7c0,7,5.7,12.7,12.7,12.7c7,0,12.7-5.7,12.7-12.7
		C502.5-590.5,496.8-596.2,489.7-596.2 M489.7-575.7c-4.3,0-7.7-3.5-7.7-7.7c0-4.3,3.5-7.7,7.7-7.7c4.3,0,7.7,3.5,7.7,7.7
		C497.5-579.2,494-575.7,489.7-575.7"/>
	<path fill="#63BB96" d="M489.7-586.7c-1.8,0-3.2,1.4-3.2,3.2c0,1.8,1.5,3.2,3.2,3.2c1.8,0,3.2-1.4,3.2-3.2
		C493-585.3,491.5-586.7,489.7-586.7"/>
	<path fill="#3FB289" d="M489.7-600.5c9.4,0,17,7.6,17,17c0,9.4-7.6,17-17,17v5c12.1,0,22-9.9,22-22c0-12.1-9.9-22-22-22V-600.5z"/>
	<path fill="#3FB289" d="M489.7-591.2c4.3,0,7.7,3.5,7.7,7.7c0,4.3-3.5,7.7-7.7,7.7v5c7,0,12.7-5.7,12.7-12.7
		c0-7-5.7-12.7-12.7-12.7V-591.2z"/>
	<path fill="#3FB289" d="M489.7-580.2c1.8,0,3.2-1.4,3.2-3.2c0-1.8-1.5-3.2-3.2-3.2V-580.2z"/>
	<path fill="#EED3B8" d="M521.5-548.2v1.9c0,4.8-2.9,6.4-7.5,6.4c-1.8,0-3.8-0.3-5.9-0.5c-2.2-0.2-4.6-0.5-7.3-0.5
		c-7.9-0.1-11,3.1-12.2,8.9h-0.2c-1.3-5.7-4.2-9-12.1-8.9c-2.6,0-5,0.3-7.1,0.5c-2.2,0.2-4.1,0.5-6,0.5c-4.6,0-7.4-1.7-7.4-6.4v-1.9
		h-8.9v3.7c0,9.7,4.3,15.9,14.1,15.9c2.6,0,5.4-0.2,8.3-0.5c2.8-0.3,5.5-0.6,8.2-0.6c3.1,0,5.9,0.7,6.1,7.9h10
		c0.2-7.2,3.2-7.9,6.1-7.9c2.6,0,5.3,0.3,8.2,0.6c2.8,0.3,5.6,0.5,8.3,0.5c10.5,0,14.2-6.5,14.2-15.8v-3.8H521.5z"/>
	<path fill="#D5B69C" d="M508.4-537.9c2.1,0.2,4.1,0.5,5.9,0.5c4.6,0,7.5-1.6,7.5-6.4v-1.9h8.8v-2.7h-8.8v1.9c0,4.8-2.9,6.4-7.5,6.4
		c-1.8,0-3.8-0.3-5.9-0.5c-2.2-0.2-4.6-0.5-7.3-0.5c-7.9-0.1-11,3.1-12.2,8.9h-0.2c-1.3-5.7-4.2-9-12.1-8.9c-2.6,0-5,0.3-7.1,0.5
		c-2.2,0.2-4.1,0.5-6,0.5c-4.6,0-7.4-1.7-7.4-6.4v-1.9h-8.9v2.7h8.9v1.9c0,4.7,2.8,6.4,7.4,6.4c1.9,0,3.8-0.3,6-0.5
		c2.1-0.2,4.5-0.5,7.1-0.5c7.9-0.1,10.9,3.1,12.1,8.9h0.2c1.3-5.7,4.3-9,12.2-8.9C503.8-538.4,506.2-538.1,508.4-537.9"/>
	<path fill="#FFFFFF" d="M462.1-533.8c0,2.5-2,4.5-4.5,4.5s-4.5-2-4.5-4.5c0-2.5,2-4.5,4.5-4.5S462.1-536.3,462.1-533.8"/>
	<path fill="#FFFFFF" d="M523.4-533.8c0,2.5-2,4.5-4.5,4.5c-2.5,0-4.5-2-4.5-4.5c0-2.5,2-4.5,4.5-4.5
		C521.4-538.3,523.4-536.3,523.4-533.8"/>
	<path fill="none" stroke="#A9856B" stroke-width="4" stroke-linecap="round" stroke-linejoin="round" stroke-miterlimit="10" d="
		M475.6-499.6h23.3c0,0,5.3,0,6.7-4.4"/>
	<path fill="#EED3B8" d="M711.6-528.5c0,7.8-5.5,17.4-12.3,21.3l-40.8,23.6c-6.8,3.9-17.8,3.9-24.5,0l-40.8-23.6
		c-6.8-3.9-12.3-13.5-12.3-21.3v-57.2c0-7.8,5.5-17.4,12.3-21.3l40.8-23.6c6.8-3.9,17.8-3.9,24.5,0l40.8,23.6
		c6.8,3.9,12.3,13.5,12.3,21.3V-528.5z"/>
	<polygon fill="#D5B69C" points="611,-515.6 646.2,-510.4 681.5,-515.6 681.5,-524.4 611,-524.4 	"/>
	<path fill="#3FB289" d="M699.4-606.9l-40.8-23.6c-6.8-3.9-17.8-3.9-24.5,0l-40.8,23.6c-6.8,3.9-12.3,13.5-12.3,21.3v57.2
		c0,7.8,5.5,17.4,12.3,21.3l17.9,10.3v-22.7l35.2,5.2l35.2-5.2v22.7l17.9-10.3c6.8-3.9,12.3-13.5,12.3-21.3v-57.2
		C711.6-593.4,706.1-603,699.4-606.9"/>
	<path fill="#3B3A3A" d="M699.4-606.9l-40.8-23.6c-6.8-3.9-17.8-3.9-24.5,0l-40.8,23.6c-6.8,3.9-12.3,13.5-12.3,21.3v57.2
		c0,7.8,5.5,17.4,12.3,21.3l17.9,10.3v-22.7l35.2,5.2l35.2-5.2v22.7l17.9-10.3c6.8-3.9,12.3-13.5,12.3-21.3v-57.2
		C711.6-593.4,706.1-603,699.4-606.9"/>
	<path fill="#313130" d="M646.2-633.4c4.3,0,9,1,12.3,2.9l40.8,23.6c6.8,3.9,12.3,13.5,12.3,21.3v57.2c0,7.8-5.5,17.4-12.3,21.3
		l-17.9,10.3v-22.7l-35.2,5.2V-633.4z"/>
	<polygon fill="#D5B69C" points="611,-519.6 611,-496.9 615,-519 	"/>
	<polygon fill="#D5B69C" points="681.5,-519.6 681.5,-496.9 677.5,-519 	"/>
	<path fill="#63BB96" d="M646.2-605.5c-12.1,0-22,9.9-22,22c0,12.1,9.9,22,22,22c12.1,0,22-9.9,22-22
		C668.3-595.6,658.4-605.5,646.2-605.5 M646.2-566.4c-9.4,0-17-7.6-17-17c0-9.4,7.6-17,17-17c9.4,0,17,7.6,17,17
		C663.3-574.1,655.6-566.4,646.2-566.4"/>
	<path fill="#63BB96" d="M646.2-596.2c-7,0-12.7,5.7-12.7,12.7c0,7,5.7,12.7,12.7,12.7c7,0,12.7-5.7,12.7-12.7
		C659-590.5,653.3-596.2,646.2-596.2 M646.2-575.7c-4.3,0-7.7-3.5-7.7-7.7c0-4.3,3.5-7.7,7.7-7.7c4.3,0,7.7,3.5,7.7,7.7
		C654-579.2,650.5-575.7,646.2-575.7"/>
	<path fill="#63BB96" d="M646.2-586.7c-1.8,0-3.2,1.4-3.2,3.2c0,1.8,1.5,3.2,3.2,3.2c1.8,0,3.2-1.4,3.2-3.2
		C649.5-585.3,648-586.7,646.2-586.7"/>
	<path fill="#3FB289" d="M646.2-600.5c9.4,0,17,7.6,17,17c0,9.4-7.6,17-17,17v5c12.1,0,22-9.9,22-22c0-12.1-9.9-22-22-22V-600.5z"/>
	<path fill="#3FB289" d="M646.2-591.2c4.3,0,7.7,3.5,7.7,7.7c0,4.3-3.5,7.7-7.7,7.7v5c7,0,12.7-5.7,12.7-12.7
		c0-7-5.7-12.7-12.7-12.7V-591.2z"/>
	<path fill="#3FB289" d="M646.2-580.2c1.8,0,3.2-1.4,3.2-3.2c0-1.8-1.5-3.2-3.2-3.2V-580.2z"/>
	<path fill="#EED3B8" d="M679.3-548.2v1.9c0,4.8-2.9,6.4-7.5,6.4c-1.8,0-3.8-0.3-5.9-0.5c-2.2-0.2-4.6-0.5-7.3-0.5
		c-7.9-0.1-11,3.1-12.2,8.9h-0.2c-1.3-5.7-4.2-9-12.1-8.9c-2.6,0-5,0.3-7.1,0.5c-2.2,0.2-4.1,0.5-6,0.5c-4.6,0-7.4-1.7-7.4-6.4v-1.9
		h-8.9v3.7c0,9.7,4.3,15.9,14.1,15.9c2.6,0,5.4-0.2,8.3-0.5c2.8-0.3,5.5-0.6,8.2-0.6c3.1,0,5.9,0.7,6.1,7.9h10
		c0.2-7.2,3.2-7.9,6.1-7.9c2.6,0,5.3,0.3,8.2,0.6c2.8,0.3,5.6,0.5,8.3,0.5c10.5,0,14.2-6.5,14.2-15.8v-3.8H679.3z"/>
	<path fill="#FFFFFF" d="M621.8-535.6c0,2.5-2,4.5-4.5,4.5c-2.5,0-4.5-2-4.5-4.5c0-2.5,2-4.5,4.5-4.5
		C619.8-540.1,621.8-538.1,621.8-535.6"/>
	<path fill="#FFFFFF" d="M678.7-535.6c0,2.5-2,4.5-4.5,4.5c-2.5,0-4.5-2-4.5-4.5c0-2.5,2-4.5,4.5-4.5
		C676.6-540.1,678.7-538.1,678.7-535.6"/>
	<path fill="none" stroke="#A9856B" stroke-width="4" stroke-linecap="round" stroke-linejoin="round" stroke-miterlimit="10" d="
		M632.1-499.6h23.3c0,0,5.3,0,6.7-4.4"/>
	<path fill="#EED3B8" d="M711.6-326.5c0,7.8-5.5,17.4-12.3,21.3l-40.8,23.6c-6.8,3.9-17.8,3.9-24.5,0l-40.8-23.6
		c-6.8-3.9-12.3-13.5-12.3-21.3v-57.2c0-7.8,5.5-17.4,12.3-21.3l40.8-23.6c6.8-3.9,17.8-3.9,24.5,0l40.8,23.6
		c6.8,3.9,12.3,13.5,12.3,21.3V-326.5z"/>
	<path fill="#3FB289" d="M699.4-404.9l-40.8-23.6c-6.8-3.9-17.8-3.9-24.5,0l-40.8,23.6c-6.8,3.9-12.3,13.5-12.3,21.3v57.2
		c0,7.8,5.5,17.4,12.3,21.3l17.9,10.3v-22.7l35.2,5.2l35.2-5.2v22.7l17.9-10.3c6.8-3.9,12.3-13.5,12.3-21.3v-57.2
		C711.6-391.4,706.1-401,699.4-404.9"/>
	<path fill="#3B3A3A" d="M699.4-404.9l-40.8-23.6c-6.8-3.9-17.8-3.9-24.5,0l-40.8,23.6c-6.8,3.9-12.3,13.5-12.3,21.3v57.2
		c0,7.8,5.5,17.4,12.3,21.3l17.9,10.3v-22.7l35.2,5.2l35.2-5.2v22.7l17.9-10.3c6.8-3.9,12.3-13.5,12.3-21.3v-57.2
		C711.6-391.4,706.1-401,699.4-404.9"/>
	<path fill="#313130" d="M646.2-431.4c4.3,0,9,1,12.3,2.9l40.8,23.6c6.8,3.9,12.3,13.5,12.3,21.3v57.2c0,7.8-5.5,17.4-12.3,21.3
		l-17.9,10.3v-22.7l-35.2,5.2V-431.4z"/>
	<polygon fill="#D5B69C" points="611,-317.6 611,-294.9 615,-317 	"/>
	<polygon fill="#D5B69C" points="681.5,-317.6 681.5,-294.9 677.5,-317 	"/>
	<path fill="#63BB96" d="M646.2-403.5c-12.1,0-22,9.9-22,22c0,12.1,9.9,22,22,22c12.1,0,22-9.9,22-22
		C668.3-393.6,658.4-403.5,646.2-403.5 M646.2-364.4c-9.4,0-17-7.6-17-17c0-9.4,7.6-17,17-17c9.4,0,17,7.6,17,17
		C663.3-372.1,655.6-364.4,646.2-364.4"/>
	<path fill="#63BB96" d="M646.2-394.2c-7,0-12.7,5.7-12.7,12.7c0,7,5.7,12.7,12.7,12.7c7,0,12.7-5.7,12.7-12.7
		C659-388.5,653.3-394.2,646.2-394.2 M646.2-373.7c-4.3,0-7.7-3.5-7.7-7.7c0-4.3,3.5-7.7,7.7-7.7c4.3,0,7.7,3.5,7.7,7.7
		C654-377.2,650.5-373.7,646.2-373.7"/>
	<path fill="#63BB96" d="M646.2-384.7c-1.8,0-3.2,1.4-3.2,3.2c0,1.8,1.5,3.2,3.2,3.2c1.8,0,3.2-1.4,3.2-3.2
		C649.5-383.3,648-384.7,646.2-384.7"/>
	<path fill="#3FB289" d="M646.2-398.5c9.4,0,17,7.6,17,17c0,9.4-7.6,17-17,17v5c12.1,0,22-9.9,22-22c0-12.1-9.9-22-22-22V-398.5z"/>
	<path fill="#3FB289" d="M646.2-389.2c4.3,0,7.7,3.5,7.7,7.7c0,4.3-3.5,7.7-7.7,7.7v5c7,0,12.7-5.7,12.7-12.7
		c0-7-5.7-12.7-12.7-12.7V-389.2z"/>
	<path fill="#3FB289" d="M646.2-378.2c1.8,0,3.2-1.4,3.2-3.2c0-1.8-1.5-3.2-3.2-3.2V-378.2z"/>
	<path fill="#EED3B8" d="M679.3-346.2v1.9c0,4.8-2.9,6.4-7.5,6.4c-1.8,0-3.8-0.3-5.9-0.5c-2.2-0.2-4.6-0.5-7.3-0.5
		c-7.9-0.1-11,3.1-12.2,8.9h-0.2c-1.3-5.7-4.2-9-12.1-8.9c-2.6,0-5,0.3-7.1,0.5c-2.2,0.2-4.1,0.5-6,0.5c-4.6,0-7.4-1.7-7.4-6.4v-1.9
		h-8.9v3.7c0,9.7,4.3,15.9,14.1,15.9c2.6,0,5.4-0.2,8.3-0.5c2.8-0.3,5.5-0.6,8.2-0.6c3.1,0,5.9,0.7,6.1,7.9h10
		c0.2-7.2,3.2-7.9,6.1-7.9c2.6,0,5.3,0.3,8.2,0.6c2.8,0.3,5.6,0.5,8.3,0.5c10.5,0,14.2-6.5,14.2-15.8v-3.8H679.3z"/>
	<path fill="#FFFFFF" d="M621.8-333.6c0,2.5-2,4.5-4.5,4.5c-2.5,0-4.5-2-4.5-4.5c0-2.5,2-4.5,4.5-4.5
		C619.8-338.1,621.8-336.1,621.8-333.6"/>
	<path fill="#FFFFFF" d="M678.7-333.6c0,2.5-2,4.5-4.5,4.5c-2.5,0-4.5-2-4.5-4.5c0-2.5,2-4.5,4.5-4.5
		C676.6-338.1,678.7-336.1,678.7-333.6"/>
	<path fill="none" stroke="#A9856B" stroke-width="4" stroke-linecap="round" stroke-linejoin="round" stroke-miterlimit="10" d="
		M632.1-297.6h23.3c0,0,5.3,0,6.7-4.4"/>
	<path fill="#EED3B8" d="M556.8-326.5c0,7.8-5.5,17.4-12.3,21.3l-40.8,23.6c-6.8,3.9-17.8,3.9-24.5,0l-40.8-23.6
		c-6.8-3.9-12.3-13.5-12.3-21.3v-57.2c0-7.8,5.5-17.4,12.3-21.3l40.8-23.6c6.8-3.9,17.8-3.9,24.5,0l40.8,23.6
		c6.8,3.9,12.3,13.5,12.3,21.3V-326.5z"/>
	<path fill="#3FB289" d="M544.5-404.9l-40.8-23.6c-6.8-3.9-17.8-3.9-24.5,0l-40.8,23.6c-6.8,3.9-12.3,13.5-12.3,21.3v57.2
		c0,7.8,5.5,17.4,12.3,21.3l17.9,10.3v-22.7l35.2,5.2l35.2-5.2v22.7l17.9-10.3c6.8-3.9,12.3-13.5,12.3-21.3v-57.2
		C556.8-391.4,551.2-401,544.5-404.9"/>
	<path fill="#3B3A3A" d="M544.5-404.9l-40.8-23.6c-6.8-3.9-17.8-3.9-24.5,0l-40.8,23.6c-6.8,3.9-12.3,13.5-12.3,21.3v57.2
		c0,7.8,5.5,17.4,12.3,21.3l17.9,10.3v-22.7l35.2,5.2l35.2-5.2v22.7l17.9-10.3c6.8-3.9,12.3-13.5,12.3-21.3v-57.2
		C556.8-391.4,551.2-401,544.5-404.9"/>
	<path fill="#313130" d="M491.4-431.4c4.3,0,9,1,12.3,2.9l40.8,23.6c6.8,3.9,12.3,13.5,12.3,21.3v57.2c0,7.8-5.5,17.4-12.3,21.3
		l-17.9,10.3v-22.7l-35.2,5.2V-431.4z"/>
	<path fill="#63BB96" d="M491.4-403.5c-12.1,0-22,9.9-22,22c0,12.1,9.9,22,22,22c12.1,0,22-9.9,22-22
		C513.4-393.6,503.5-403.5,491.4-403.5 M491.4-364.4c-9.4,0-17-7.6-17-17c0-9.4,7.6-17,17-17c9.4,0,17,7.6,17,17
		C508.4-372.1,500.8-364.4,491.4-364.4"/>
	<path fill="#63BB96" d="M491.4-394.2c-7,0-12.7,5.7-12.7,12.7c0,7,5.7,12.7,12.7,12.7c7,0,12.7-5.7,12.7-12.7
		C504.1-388.5,498.4-394.2,491.4-394.2 M491.4-373.7c-4.3,0-7.7-3.5-7.7-7.7c0-4.3,3.5-7.7,7.7-7.7c4.3,0,7.7,3.5,7.7,7.7
		C499.1-377.2,495.6-373.7,491.4-373.7"/>
	<path fill="#63BB96" d="M491.4-384.7c-1.8,0-3.2,1.4-3.2,3.2c0,1.8,1.5,3.2,3.2,3.2c1.8,0,3.2-1.4,3.2-3.2
		C494.6-383.3,493.2-384.7,491.4-384.7"/>
	<path fill="#3FB289" d="M491.4-398.5c9.4,0,17,7.6,17,17c0,9.4-7.6,17-17,17v5c12.1,0,22-9.9,22-22c0-12.1-9.9-22-22-22V-398.5z"/>
	<path fill="#3FB289" d="M491.4-389.2c4.3,0,7.7,3.5,7.7,7.7c0,4.3-3.5,7.7-7.7,7.7v5c7,0,12.7-5.7,12.7-12.7
		c0-7-5.7-12.7-12.7-12.7V-389.2z"/>
	<path fill="#3FB289" d="M491.4-378.2c1.8,0,3.2-1.4,3.2-3.2c0-1.8-1.5-3.2-3.2-3.2V-378.2z"/>
	<path fill="#EED3B8" d="M524.4-346.2v1.9c0,4.8-2.9,6.4-7.5,6.4c-1.8,0-3.8-0.3-5.9-0.5c-2.2-0.2-4.6-0.5-7.3-0.5
		c-7.9-0.1-11,3.1-12.2,8.9h-0.2c-1.3-5.7-4.2-9-12.1-8.9c-2.6,0-5,0.3-7.1,0.5c-2.2,0.2-4.1,0.5-6,0.5c-4.6,0-7.4-1.7-7.4-6.4v-1.9
		h-8.9v3.7c0,9.7,4.3,15.9,14.1,15.9c2.6,0,5.4-0.2,8.3-0.5c2.8-0.3,5.5-0.6,8.2-0.6c3.1,0,5.9,0.7,6.1,7.9h10
		c0.2-7.2,3.2-7.9,6.1-7.9c2.6,0,5.3,0.3,8.2,0.6c2.8,0.3,5.6,0.5,8.3,0.5c10.5,0,14.2-6.5,14.2-15.8v-3.8H524.4z"/>
	<path fill="#FFFFFF" d="M466.9-333.6c0,2.5-2,4.5-4.5,4.5c-2.5,0-4.5-2-4.5-4.5c0-2.5,2-4.5,4.5-4.5
		C464.9-338.1,466.9-336.1,466.9-333.6"/>
	<path fill="#FFFFFF" d="M523.8-333.6c0,2.5-2,4.5-4.5,4.5c-2.5,0-4.5-2-4.5-4.5c0-2.5,2-4.5,4.5-4.5
		C521.8-338.1,523.8-336.1,523.8-333.6"/>
	<path fill="none" stroke="#A9856B" stroke-width="4" stroke-linecap="round" stroke-linejoin="round" stroke-miterlimit="10" d="
		M477.2-297.6h23.3c0,0,5.3,0,6.7-4.4"/>
	<path fill="#EED3B8" d="M873.6-528c0,7.8-5.5,17.4-12.3,21.3l-40.8,23.6c-6.8,3.9-17.8,3.9-24.5,0l-40.8-23.6
		c-6.8-3.9-12.3-13.5-12.3-21.3v-57.2c0-7.8,5.5-17.4,12.3-21.3L796-630c6.8-3.9,17.8-3.9,24.5,0l40.8,23.6
		c6.8,3.9,12.3,13.5,12.3,21.3V-528z"/>
	<polygon fill="#D5B69C" points="773,-515.1 808.2,-509.9 843.5,-515.1 843.5,-523.9 773,-523.9 	"/>
	<path fill="#3FB289" d="M861.4-606.4L820.5-630c-6.8-3.9-17.8-3.9-24.5,0l-40.8,23.6c-6.8,3.9-12.3,13.5-12.3,21.3v57.2
		c0,7.8,5.5,17.4,12.3,21.3l17.9,10.3v-22.7l35.2,5.2l35.2-5.2v22.7l17.9-10.3c6.8-3.9,12.3-13.5,12.3-21.3v-57.2
		C873.6-592.9,868.1-602.5,861.4-606.4"/>
	<path fill="#3B3A3A" d="M861.4-606.4L820.5-630c-6.8-3.9-17.8-3.9-24.5,0l-40.8,23.6c-6.8,3.9-12.3,13.5-12.3,21.3v57.2
		c0,7.8,5.5,17.4,12.3,21.3l17.9,10.3v-22.7l35.2,5.2l35.2-5.2v22.7l17.9-10.3c6.8-3.9,12.3-13.5,12.3-21.3v-57.2
		C873.6-592.9,868.1-602.5,861.4-606.4"/>
	<path fill="#313130" d="M808.2-632.9c4.3,0,9,1,12.3,2.9l40.8,23.6c6.8,3.9,12.3,13.5,12.3,21.3v57.2c0,7.8-5.5,17.4-12.3,21.3
		l-17.9,10.3v-22.7l-35.2,5.2V-632.9z"/>
	<polygon fill="#D5B69C" points="773,-519.1 773,-496.4 777,-518.5 	"/>
	<polygon fill="#D5B69C" points="843.5,-519.1 843.5,-496.4 839.5,-518.5 	"/>
	<path fill="#63BB96" d="M808.2-605c-12.1,0-22,9.9-22,22c0,12.1,9.9,22,22,22c12.1,0,22-9.9,22-22C830.3-595.1,820.4-605,808.2-605
		 M808.2-565.9c-9.4,0-17-7.6-17-17c0-9.4,7.6-17,17-17c9.4,0,17,7.6,17,17C825.3-573.6,817.6-565.9,808.2-565.9"/>
	<path fill="#63BB96" d="M808.2-595.7c-7,0-12.7,5.7-12.7,12.7c0,7,5.7,12.7,12.7,12.7c7,0,12.7-5.7,12.7-12.7
		C821-590,815.3-595.7,808.2-595.7 M808.2-575.2c-4.3,0-7.7-3.5-7.7-7.7c0-4.3,3.5-7.7,7.7-7.7c4.3,0,7.7,3.5,7.7,7.7
		C816-578.7,812.5-575.2,808.2-575.2"/>
	<path fill="#63BB96" d="M808.2-586.2c-1.8,0-3.2,1.4-3.2,3.2c0,1.8,1.5,3.2,3.2,3.2s3.2-1.4,3.2-3.2
		C811.5-584.8,810-586.2,808.2-586.2"/>
	<path fill="#3FB289" d="M808.2-600c9.4,0,17,7.6,17,17c0,9.4-7.6,17-17,17v5c12.1,0,22-9.9,22-22c0-12.1-9.9-22-22-22V-600z"/>
	<path fill="#3FB289" d="M808.2-590.7c4.3,0,7.7,3.5,7.7,7.7c0,4.3-3.5,7.7-7.7,7.7v5c7,0,12.7-5.7,12.7-12.7
		c0-7-5.7-12.7-12.7-12.7V-590.7z"/>
	<path fill="#3FB289" d="M808.2-579.7c1.8,0,3.2-1.4,3.2-3.2c0-1.8-1.4-3.2-3.2-3.2V-579.7z"/>
	<path fill="#EED3B8" d="M841.3-547.7v1.9c0,4.8-2.9,6.4-7.5,6.4c-1.8,0-3.8-0.3-5.9-0.5c-2.2-0.2-4.6-0.5-7.3-0.5
		c-7.9-0.1-11,3.1-12.2,8.9h-0.2c-1.3-5.7-4.2-9-12.1-8.9c-2.6,0-5,0.3-7.1,0.5c-2.2,0.2-4.1,0.5-6,0.5c-4.6,0-7.4-1.7-7.4-6.4v-1.9
		h-8.9v3.7c0,9.7,4.3,15.9,14.1,15.9c2.6,0,5.4-0.2,8.3-0.5c2.8-0.3,5.5-0.6,8.2-0.6c3.1,0,5.9,0.7,6.1,7.9h10
		c0.2-7.2,3.2-7.9,6.1-7.9c2.6,0,5.3,0.3,8.2,0.6c2.8,0.3,5.6,0.5,8.3,0.5c10.5,0,14.2-6.5,14.2-15.8v-3.8H841.3z"/>
	<path fill="#FFFFFF" d="M783.8-535.1c0,2.5-2,4.5-4.5,4.5c-2.5,0-4.5-2-4.5-4.5c0-2.5,2-4.5,4.5-4.5
		C781.8-539.6,783.8-537.6,783.8-535.1"/>
	<path fill="#FFFFFF" d="M840.7-535.1c0,2.5-2,4.5-4.5,4.5c-2.5,0-4.5-2-4.5-4.5c0-2.5,2-4.5,4.5-4.5
		C838.6-539.6,840.7-537.6,840.7-535.1"/>
	<path fill="none" stroke="#A9856B" stroke-width="4" stroke-linecap="round" stroke-linejoin="round" stroke-miterlimit="10" d="
		M794.1-499.1h23.3c0,0,5.3,0,6.7-4.4"/>
	<path opacity="0.5" fill="#D5B69C" d="M828-537.8c2.1,0.2,4.1,0.5,5.9,0.5c4.6,0,7.5-1.6,7.5-6.4v-1.9h8.8v-2.7h-8.8v1.9
		c0,4.8-2.9,6.4-7.5,6.4c-1.8,0-3.8-0.3-5.9-0.5c-2.2-0.2-4.6-0.5-7.3-0.5c-7.9-0.1-11,3.1-12.2,8.9h-0.2c-1.3-5.7-4.2-9-12.1-8.9
		c-2.6,0-5,0.3-7.1,0.5c-2.2,0.2-4.1,0.5-6,0.5c-4.6,0-7.4-1.7-7.4-6.4v-1.9h-8.9v2.7h8.9v1.9c0,4.7,2.8,6.4,7.4,6.4
		c1.9,0,3.8-0.3,6-0.5c2.1-0.2,4.5-0.5,7.1-0.5c7.9-0.1,10.9,3.1,12.1,8.9h0.2c1.3-5.7,4.3-9,12.2-8.9
		C823.4-538.3,825.8-538,828-537.8"/>
	<path fill="#EED3B8" d="M1073.3-528.5c0,7.8-5.5,17.4-12.3,21.3l-40.8,23.6c-6.8,3.9-17.8,3.9-24.5,0l-40.8-23.6
		c-6.8-3.9-12.3-13.5-12.3-21.3v-57.2c0-7.8,5.5-17.4,12.3-21.3l40.8-23.6c6.8-3.9,17.8-3.9,24.5,0l40.8,23.6
		c6.8,3.9,12.3,13.5,12.3,21.3V-528.5z"/>
	<polygon fill="#D5B69C" points="972.7,-515.6 1007.9,-510.4 1043.1,-515.6 1043.1,-524.4 972.7,-524.4 	"/>
	<path fill="#3FB289" d="M1061-606.9l-40.8-23.6c-6.8-3.9-17.8-3.9-24.5,0l-40.8,23.6c-6.8,3.9-12.3,13.5-12.3,21.3v57.2
		c0,7.8,5.5,17.4,12.3,21.3l17.9,10.3v-22.7l35.2,5.2l35.2-5.2v22.7l17.9-10.3c6.8-3.9,12.3-13.5,12.3-21.3v-57.2
		C1073.3-593.4,1067.8-603,1061-606.9"/>
	<path fill="#313130" d="M1007.8-633.4c4.3,0,9,1,12.3,2.9l40.8,23.6c6.8,3.9,12.3,13.5,12.3,21.3v57.2c0,7.8-5.5,17.4-12.3,21.3
		l-17.9,10.3v-22.7l-35.2,5.2V-633.4z"/>
	<path fill="#313130" d="M1007.9-605.5c-12.1,0-22,9.9-22,22c0,12.1,9.9,22,22,22c12.1,0,22-9.9,22-22
		C1029.9-595.6,1020.1-605.5,1007.9-605.5 M1007.9-566.4c-9.4,0-17-7.6-17-17c0-9.4,7.6-17,17-17c9.4,0,17,7.6,17,17
		C1024.9-574.1,1017.3-566.4,1007.9-566.4"/>
	<path fill="#313130" d="M1007.9-596.2c-7,0-12.7,5.7-12.7,12.7c0,7,5.7,12.7,12.7,12.7c7,0,12.7-5.7,12.7-12.7
		C1020.6-590.5,1014.9-596.2,1007.9-596.2 M1007.9-575.7c-4.3,0-7.7-3.5-7.7-7.7c0-4.3,3.5-7.7,7.7-7.7c4.3,0,7.7,3.5,7.7,7.7
		C1015.6-579.2,1012.2-575.7,1007.9-575.7"/>
	<path fill="#313130" d="M1007.9-586.7c-1.8,0-3.2,1.4-3.2,3.2c0,1.8,1.4,3.2,3.2,3.2c1.8,0,3.2-1.4,3.2-3.2
		C1011.2-585.3,1009.7-586.7,1007.9-586.7"/>
	<path fill="#3FB289" d="M1007.9-600.5c9.4,0,17,7.6,17,17c0,9.4-7.6,17-17,17v5c12.1,0,22-9.9,22-22c0-12.1-9.9-22-22-22V-600.5z"
		/>
	<path fill="#3FB289" d="M1007.9-591.2c4.3,0,7.7,3.5,7.7,7.7c0,4.3-3.5,7.7-7.7,7.7v5c7,0,12.7-5.7,12.7-12.7
		c0-7-5.7-12.7-12.7-12.7V-591.2z"/>
	<path fill="#3FB289" d="M1007.9-580.2c1.8,0,3.2-1.4,3.2-3.2c0-1.8-1.5-3.2-3.2-3.2V-580.2z"/>
	<path fill="#FFFFFF" d="M983.5-535.6c0,2.5-2,4.5-4.5,4.5s-4.5-2-4.5-4.5c0-2.5,2-4.5,4.5-4.5S983.5-538.1,983.5-535.6"/>
	<path fill="#FFFFFF" d="M1040.3-535.6c0,2.5-2,4.5-4.5,4.5s-4.5-2-4.5-4.5c0-2.5,2-4.5,4.5-4.5S1040.3-538.1,1040.3-535.6"/>
	<path fill="none" stroke="#A9856B" stroke-width="4" stroke-linecap="round" stroke-linejoin="round" stroke-miterlimit="10" d="
		M993.8-499.6h23.3c0,0,5.3,0,6.7-4.4"/>
	<path fill="#EED3B8" d="M1036.1-527.5v1.6c0,4.1-2.5,5.5-6.4,5.5c-1.5,0-3.2-0.3-5-0.4c-1.9-0.2-3.9-0.4-6.2-0.4
		c-6.8-0.1-9.4,2.7-10.4,7.6h-0.2c-1.1-4.9-3.6-7.7-10.4-7.6c-2.2,0-4.3,0.3-6.1,0.4c-1.9,0.2-3.5,0.4-5.1,0.4
		c-3.9,0-6.3-1.4-6.3-5.5v-1.6h-7.6v3.1c0,8.3,3.7,13.6,12,13.6c2.2,0,4.6-0.2,7.1-0.4c2.4-0.3,4.7-0.5,7-0.5c2.7,0,5,0.6,5.2,6.8
		h8.6c0.2-6.2,2.7-6.8,5.2-6.8c2.2,0,4.6,0.3,7,0.5c2.4,0.3,4.8,0.4,7.1,0.4c8.9,0,12.1-5.6,12.1-13.5v-3.2H1036.1z"/>
	<path fill="#D5B69C" d="M1024.7-520.1c1.8,0.2,3.5,0.4,5,0.4c3.9,0,6.4-1.3,6.4-5.5v-1.6h7.5v-2.3h-7.5v1.6c0,4.1-2.5,5.5-6.4,5.5
		c-1.5,0-3.2-0.3-5-0.4c-1.9-0.2-3.9-0.4-6.2-0.4c-6.8-0.1-9.4,2.7-10.4,7.6h-0.2c-1.1-4.9-3.6-7.7-10.4-7.6c-2.2,0-4.3,0.3-6.1,0.4
		c-1.9,0.2-3.5,0.4-5.1,0.4c-3.9,0-6.3-1.4-6.3-5.5v-1.6h-7.6v2.3h7.6v1.6c0,4,2.4,5.5,6.3,5.5c1.6,0,3.2-0.3,5.1-0.4
		c1.8-0.2,3.8-0.4,6.1-0.4c6.8-0.1,9.3,2.7,10.4,7.6h0.2c1.1-4.9,3.7-7.7,10.4-7.6C1020.8-520.6,1022.8-520.3,1024.7-520.1"/>
	<polygon fill="#D5B69C" points="972.4,-528.9 972.4,-497 976.4,-528 	"/>
	<polygon fill="#D5B69C" points="1043.5,-529 1043.2,-496.8 1039.5,-528.2 	"/>
	<path fill="#EED3B8" d="M1251.8-528.5c0,7.8-5.5,17.4-12.3,21.3l-40.8,23.6c-6.8,3.9-17.8,3.9-24.5,0l-40.8-23.6
		c-6.8-3.9-12.3-13.5-12.3-21.3v-57.2c0-7.8,5.5-17.4,12.3-21.3l40.8-23.6c6.8-3.9,17.8-3.9,24.5,0l40.8,23.6
		c6.8,3.9,12.3,13.5,12.3,21.3V-528.5z"/>
	<polygon fill="#D5B69C" points="1151.2,-515.6 1186.4,-510.4 1221.6,-515.6 1221.6,-524.4 1151.2,-524.4 	"/>
	<path fill="#3FB289" d="M1239.5-606.9l-40.8-23.6c-6.8-3.9-17.8-3.9-24.5,0l-40.8,23.6c-6.8,3.9-12.3,13.5-12.3,21.3v57.2
		c0,7.8,5.5,17.4,12.3,21.3l17.9,10.3v-22.7l35.2,5.2l35.2-5.2v22.7l17.9-10.3c6.8-3.9,12.3-13.5,12.3-21.3v-57.2
		C1251.8-593.4,1246.3-603,1239.5-606.9"/>
	<path fill="#313130" d="M1186.3-633.4c4.3,0,9,1,12.3,2.9l40.8,23.6c6.8,3.9,12.3,13.5,12.3,21.3v57.2c0,7.8-5.5,17.4-12.3,21.3
		l-17.9,10.3v-22.7l-35.2,5.2V-633.4z"/>
	<path fill="#313130" d="M1186.4-605.5c-12.1,0-22,9.9-22,22c0,12.1,9.9,22,22,22c12.1,0,22-9.9,22-22
		C1208.4-595.6,1198.6-605.5,1186.4-605.5 M1186.4-566.4c-9.4,0-17-7.6-17-17c0-9.4,7.6-17,17-17c9.4,0,17,7.6,17,17
		C1203.4-574.1,1195.8-566.4,1186.4-566.4"/>
	<path fill="#313130" d="M1186.4-596.2c-7,0-12.7,5.7-12.7,12.7c0,7,5.7,12.7,12.7,12.7c7,0,12.7-5.7,12.7-12.7
		C1199.1-590.5,1193.4-596.2,1186.4-596.2 M1186.4-575.7c-4.3,0-7.7-3.5-7.7-7.7c0-4.3,3.5-7.7,7.7-7.7c4.3,0,7.7,3.5,7.7,7.7
		C1194.1-579.2,1190.7-575.7,1186.4-575.7"/>
	<path fill="#313130" d="M1186.4-586.7c-1.8,0-3.2,1.4-3.2,3.2c0,1.8,1.4,3.2,3.2,3.2c1.8,0,3.2-1.4,3.2-3.2
		C1189.7-585.3,1188.2-586.7,1186.4-586.7"/>
	<path fill="#3FB289" d="M1186.4-600.5c9.4,0,17,7.6,17,17c0,9.4-7.6,17-17,17v5c12.1,0,22-9.9,22-22c0-12.1-9.9-22-22-22V-600.5z"
		/>
	<path fill="#3FB289" d="M1186.4-591.2c4.3,0,7.7,3.5,7.7,7.7c0,4.3-3.5,7.7-7.7,7.7v5c7,0,12.7-5.7,12.7-12.7
		c0-7-5.7-12.7-12.7-12.7V-591.2z"/>
	<path fill="#3FB289" d="M1186.4-580.2c1.8,0,3.2-1.4,3.2-3.2c0-1.8-1.5-3.2-3.2-3.2V-580.2z"/>
	<path fill="#FFFFFF" d="M1162-535.6c0,2.5-2,4.5-4.5,4.5c-2.5,0-4.5-2-4.5-4.5c0-2.5,2-4.5,4.5-4.5
		C1160-540.1,1162-538.1,1162-535.6"/>
	<path fill="#FFFFFF" d="M1218.8-535.6c0,2.5-2,4.5-4.5,4.5c-2.5,0-4.5-2-4.5-4.5c0-2.5,2-4.5,4.5-4.5
		C1216.8-540.1,1218.8-538.1,1218.8-535.6"/>
	<path fill="none" stroke="#A9856B" stroke-width="4" stroke-linecap="round" stroke-linejoin="round" stroke-miterlimit="10" d="
		M1172.3-499.6h23.3c0,0,5.3,0,6.7-4.4"/>
	<path fill="#EED3B8" d="M1214.6-525.5v1.6c0,4.1-2.5,5.5-6.4,5.5c-1.5,0-3.2-0.3-5-0.4c-1.9-0.2-3.9-0.4-6.2-0.4
		c-6.8-0.1-9.4,2.7-10.4,7.6h-0.2c-1.1-4.9-3.6-7.7-10.4-7.6c-2.2,0-4.3,0.3-6.1,0.4c-1.9,0.2-3.5,0.4-5.1,0.4
		c-3.9,0-6.3-1.4-6.3-5.5v-1.6h-7.6v3.1c0,8.3,3.7,13.6,12,13.6c2.2,0,4.6-0.2,7.1-0.4c2.4-0.3,4.7-0.5,7-0.5c2.7,0,5,0.6,5.2,6.8
		h8.6c0.2-6.2,2.7-6.8,5.2-6.8c2.2,0,4.6,0.3,7,0.5c2.4,0.3,4.8,0.4,7.1,0.4c8.9,0,12.1-5.6,12.1-13.5v-3.2H1214.6z"/>
	<path fill="#EED3B8" d="M1444.8-528.5c0,7.8-5.5,17.4-12.3,21.3l-40.8,23.6c-6.8,3.9-17.8,3.9-24.5,0l-40.8-23.6
		c-6.8-3.9-12.3-13.5-12.3-21.3v-57.2c0-7.8,5.5-17.4,12.3-21.3l40.8-23.6c6.8-3.9,17.8-3.9,24.5,0l40.8,23.6
		c6.8,3.9,12.3,13.5,12.3,21.3V-528.5z"/>
	<path fill="#3FB289" d="M1432.5-606.9l-40.8-23.6c-6.8-3.9-17.8-3.9-24.5,0l-40.8,23.6c-6.8,3.9-12.3,13.5-12.3,21.3v57.2
		c0,7.8,5.5,17.4,12.3,21.3l17.9,10.3v-22.7l35.2,8.7l35.2-8.7v22.7l17.9-10.3c6.8-3.9,12.3-13.5,12.3-21.3v-57.2
		C1444.8-593.4,1439.3-603,1432.5-606.9"/>
	<path fill="#313130" d="M1379.3-633.4c4.3,0,9,1,12.3,2.9l40.8,23.6c6.8,3.9,12.3,13.5,12.3,21.3v57.2c0,7.8-5.5,17.4-12.3,21.3
		l-17.9,10.3v-22.7l-35.2,7.9L1379.3-633.4z"/>
	<path fill="#313130" d="M1379.4-605.5c-12.1,0-22,9.9-22,22c0,12.1,9.9,22,22,22c12.1,0,22-9.9,22-22
		C1401.4-595.6,1391.6-605.5,1379.4-605.5 M1379.4-566.4c-9.4,0-17-7.6-17-17c0-9.4,7.6-17,17-17c9.4,0,17,7.6,17,17
		C1396.4-574.1,1388.8-566.4,1379.4-566.4"/>
	<path fill="#313130" d="M1379.4-596.2c-7,0-12.7,5.7-12.7,12.7c0,7,5.7,12.7,12.7,12.7c7,0,12.7-5.7,12.7-12.7
		C1392.1-590.5,1386.4-596.2,1379.4-596.2 M1379.4-575.7c-4.3,0-7.7-3.5-7.7-7.7c0-4.3,3.5-7.7,7.7-7.7c4.3,0,7.7,3.5,7.7,7.7
		C1387.1-579.2,1383.7-575.7,1379.4-575.7"/>
	<path fill="#313130" d="M1379.4-586.7c-1.8,0-3.2,1.4-3.2,3.2c0,1.8,1.4,3.2,3.2,3.2c1.8,0,3.2-1.4,3.2-3.2
		C1382.7-585.3,1381.2-586.7,1379.4-586.7"/>
	<path fill="#3FB289" d="M1379.4-600.5c9.4,0,17,7.6,17,17c0,9.4-7.6,17-17,17v5c12.1,0,22-9.9,22-22c0-12.1-9.9-22-22-22V-600.5z"
		/>
	<path fill="#3FB289" d="M1379.4-591.2c4.3,0,7.7,3.5,7.7,7.7c0,4.3-3.5,7.7-7.7,7.7v5c7,0,12.7-5.7,12.7-12.7
		c0-7-5.7-12.7-12.7-12.7V-591.2z"/>
	<path fill="#3FB289" d="M1379.4-580.2c1.8,0,3.2-1.4,3.2-3.2c0-1.8-1.5-3.2-3.2-3.2V-580.2z"/>
	<path fill="#FFFFFF" d="M1355-535.6c0,2.5-2,4.5-4.5,4.5c-2.5,0-4.5-2-4.5-4.5c0-2.5,2-4.5,4.5-4.5
		C1353-540.1,1355-538.1,1355-535.6"/>
	<path fill="#FFFFFF" d="M1411.8-535.6c0,2.5-2,4.5-4.5,4.5s-4.5-2-4.5-4.5c0-2.5,2-4.5,4.5-4.5S1411.8-538.1,1411.8-535.6"/>
	<path fill="none" stroke="#A9856B" stroke-width="4" stroke-linecap="round" stroke-linejoin="round" stroke-miterlimit="10" d="
		M1365.3-499.6h23.3c0,0,5.3,0,6.7-4.4"/>
	<path fill="#EED3B8" d="M1403.1-517.5c-2.2,0-4.7-0.2-7.1-0.5c-2.4-0.3-4.8-0.5-7-0.5c-2.5,0-9.5,0.5-9.6,6.7l0,0
		c-0.2-6.2-6.8-6.7-9.5-6.7c-2.2,0-4.6,0.3-7,0.5c-2.4,0.3-4.9,0.5-7.1,0.5c-7.1,0-10.9-3.8-11.9-10.1h-0.1v3.1
		c0,8.3,3.7,13.6,12,13.6c2.2,0,4.6-0.2,7.1-0.4c2.4-0.3,4.7-0.5,7-0.5c2.7,0,5,0.6,5.2,6.8h8.6c0.2-6.2,2.7-6.8,5.2-6.8
		c2.2,0,4.6,0.3,7,0.5c2.4,0.3,4.8,0.4,7.1,0.4c8.9,0,12.1-5.6,12.1-13.5v-2.5C1413.9-521.1,1410.4-517.5,1403.1-517.5z"/>
	<path fill="#EED3B8" d="M1444.8-317.6c0,7.8-5.5,17.4-12.3,21.3l-40.8,23.6c-6.8,3.9-17.8,3.9-24.5,0l-40.8-23.6
		c-6.8-3.9-12.3-13.5-12.3-21.3v-57.2c0-7.8,5.5-17.4,12.3-21.3l40.8-23.6c6.8-3.9,17.8-3.9,24.5,0l40.8,23.6
		c6.8,3.9,12.3,13.5,12.3,21.3V-317.6z"/>
	<path fill="#484848" d="M1432.5-396l-40.8-23.6c-6.8-3.9-17.8-3.9-24.5,0l-40.8,23.6c-6.8,3.9-12.3,13.5-12.3,21.3v57.2
		c0,7.8,5.5,17.4,12.3,21.3l17.9,10.3l0-24.4l35.2,10.3l35.1-9.9l0.1,23.9l17.9-10.3c6.8-3.9,12.3-13.5,12.3-21.3v-57.2
		C1444.8-382.6,1439.3-392.1,1432.5-396"/>
	<path fill="#313130" d="M1379.3-422.5c4.3,0,9,1,12.3,2.9l40.8,23.6c6.8,3.9,12.3,13.5,12.3,21.3v57.2c0,7.8-5.5,17.4-12.3,21.3
		l-17.9,10.3l0-24.1l-35.2,9.2L1379.3-422.5z"/>
	<path fill="#FFFFFF" d="M1355-324.7c0,2.5-2,4.5-4.5,4.5c-2.5,0-4.5-2-4.5-4.5c0-2.5,2-4.5,4.5-4.5
		C1353-329.2,1355-327.2,1355-324.7"/>
	<path fill="#FFFFFF" d="M1411.8-324.7c0,2.5-2,4.5-4.5,4.5s-4.5-2-4.5-4.5c0-2.5,2-4.5,4.5-4.5S1411.8-327.2,1411.8-324.7"/>
	<g>
		<path fill="#63BB96" d="M1379.3-394.6c-12.1,0-22,9.9-22,22c0,12.1,9.9,22,22,22c12.1,0,22-9.9,22-22
			C1401.3-384.7,1391.4-394.6,1379.3-394.6 M1379.3-355.6c-9.4,0-17-7.6-17-17c0-9.4,7.6-17,17-17c9.4,0,17,7.6,17,17
			C1396.3-363.2,1388.7-355.6,1379.3-355.6"/>
		<path fill="#63BB96" d="M1379.3-385.3c-7,0-12.7,5.7-12.7,12.7c0,7,5.7,12.7,12.7,12.7c7,0,12.7-5.7,12.7-12.7
			C1392-379.6,1386.3-385.3,1379.3-385.3 M1379.3-364.9c-4.3,0-7.7-3.5-7.7-7.7c0-4.3,3.5-7.7,7.7-7.7c4.3,0,7.7,3.5,7.7,7.7
			C1387-368.3,1383.6-364.9,1379.3-364.9"/>
		<path fill="#63BB96" d="M1379.3-375.8c-1.8,0-3.2,1.4-3.2,3.2c0,1.8,1.5,3.2,3.2,3.2c1.8,0,3.2-1.4,3.2-3.2
			C1382.5-374.4,1381.1-375.8,1379.3-375.8"/>
	</g>
	<g>
		<path fill="#3FB289" d="M1379.4-389.6c9.4,0,17,7.6,17,17c0,9.4-7.6,17-17,17v5c12.1,0,22-9.9,22-22c0-12.1-9.9-22-22-22V-389.6z"
			/>
		<path fill="#3FB289" d="M1379.4-380.3c4.3,0,7.7,3.5,7.7,7.7c0,4.3-3.5,7.7-7.7,7.7v5c7,0,12.7-5.7,12.7-12.7
			c0-7-5.7-12.7-12.7-12.7V-380.3z"/>
		<path fill="#3FB289" d="M1379.4-369.3c1.8,0,3.2-1.4,3.2-3.2c0-1.8-1.5-3.2-3.2-3.2V-369.3z"/>
	</g>
	<g>
		<path fill="#FFFFFF" d="M1402.8-307.8c-2.2,0-4.6-0.2-7-0.5c-2.4-0.3-4.7-0.5-6.9-0.5c-2.5,0-9.3,0.5-9.5,6.7l0,0
			c-0.2-6.2-6.7-6.7-9.4-6.7c-2.2,0-4.5,0.3-6.9,0.5c-2.4,0.3-4.8,0.5-7,0.5c-7,0-10.7-3.8-11.7-10.1h-0.1v3.1
			c0,8.3,3.6,13.6,11.9,13.6c2.2,0,4.6-0.2,7-0.4c2.4-0.3,4.7-0.5,6.9-0.5c2.6,0,5,0.6,5.2,6.8h8.5c0.2-6.2,2.7-6.8,5.1-6.8
			c2.2,0,4.5,0.3,6.9,0.5c2.4,0.3,4.8,0.4,7,0.4c8.8,0,12-5.6,12-13.5v-2.5C1413.5-311.5,1410-307.8,1402.8-307.8z"/>
		<path fill="#D5B69C" d="M1402.8-305.1c-2.2,0-4.6-0.2-7-0.5c-2.4-0.3-4.7-0.5-6.9-0.5c-2.5,0-9.3,0.5-9.5,6.7l0,0
			c-0.2-6.2-6.7-6.7-9.4-6.7c-2.2,0-4.5,0.3-6.9,0.5c-2.4,0.3-4.8,0.5-7,0.5c-7,0-10.7-3.8-11.7-10.1h-0.1v3.1
			c0,8.3,3.6,13.6,11.9,13.6c2.2,0,4.6-0.2,7-0.4c2.4-0.3,4.7-0.5,6.9-0.5c2.6,0,5,0.6,5.2,6.8h8.5c0.2-6.2,2.7-6.8,5.1-6.8
			c2.2,0,4.5,0.3,6.9,0.5c2.4,0.3,4.8,0.4,7,0.4c8.8,0,12-5.6,12-13.5v-2.5C1413.5-308.8,1410-305.1,1402.8-305.1z"/>
		<path fill="#EED3B8" d="M1402.8-303.5c-2.2,0-4.6-0.2-7-0.5c-2.4-0.3-4.7-0.5-6.9-0.5c-2.5,0-9.3,0.5-9.5,6.7l0,0
			c-0.2-6.2-6.7-6.7-9.4-6.7c-2.2,0-4.5,0.3-6.9,0.5c-2.4,0.3-4.8,0.5-7,0.5c-7,0-10.7-3.8-11.7-10.1h-0.1v3.1
			c0,8.3,3.6,13.6,11.9,13.6c2.2,0,4.6-0.2,7-0.4c2.4-0.3,4.7-0.5,6.9-0.5c2.6,0,5,0.6,5.2,6.8h8.5c0.2-6.2,2.7-6.8,5.1-6.8
			c2.2,0,4.5,0.3,6.9,0.5c2.4,0.3,4.8,0.4,7,0.4c8.8,0,12-5.6,12-13.5v-2.5C1413.5-307.2,1410-303.5,1402.8-303.5z"/>
	</g>
	<path fill="none" stroke="#A9856B" stroke-width="4" stroke-linecap="round" stroke-linejoin="round" stroke-miterlimit="10" d="
		M1365.3-288.7h23.3c0,0,5.3,0,6.7-4.4"/>
	<g>
		<path id="j" fill="#63BB96" d="M1457.1-335l10-6c1.9,3.4,3.7,6.3,7.9,6.3c4,0,6.6-1.6,6.6-7.7V-384h12.2v41.8
			c0,12.7-7.4,18.4-18.3,18.4C1465.7-323.8,1460-328.9,1457.1-335"/>
		<path id="s" fill="#3FB289" d="M1500.4-336.3l10-5.8c2.6,4.3,6,7.4,12.1,7.4c5.1,0,8.3-2.5,8.3-6c0-4.2-3.3-5.7-8.9-8.1l-3.1-1.3
			c-8.8-3.8-14.7-8.5-14.7-18.4c0-9.2,7-16.2,17.9-16.2c7.8,0,13.4,2.7,17.4,9.8l-9.5,6.1c-2.1-3.8-4.4-5.2-7.9-5.2
			c-3.6,0-5.9,2.3-5.9,5.2c0,3.7,2.3,5.2,7.5,7.4l3.1,1.3c10.4,4.5,16.2,9,16.2,19.2c0,11-8.6,17-20.3,17
			C1511.3-323.8,1504-329.2,1500.4-336.3"/>
	</g>
	<path fill="#EED3B8" d="M1168.8-317.6c0,7.8-5.5,17.4-12.3,21.3l-40.8,23.6c-6.8,3.9-17.8,3.9-24.5,0l-40.8-23.6
		c-6.8-3.9-12.3-13.5-12.3-21.3v-57.2c0-7.8,5.5-17.4,12.3-21.3l40.8-23.6c6.8-3.9,17.8-3.9,24.5,0l40.8,23.6
		c6.8,3.9,12.3,13.5,12.3,21.3V-317.6z"/>
	<path fill="#484848" d="M1156.5-396l-40.8-23.6c-6.8-3.9-17.8-3.9-24.5,0l-40.8,23.6c-6.8,3.9-12.3,13.5-12.3,21.3v57.2
		c0,7.8,5.5,17.4,12.3,21.3l17.9,10.3l0-24.4l35.2,10.3l35.1-9.9l0.1,23.9l17.9-10.3c6.8-3.9,12.3-13.5,12.3-21.3v-57.2
		C1168.8-382.6,1163.3-392.1,1156.5-396"/>
	<path fill="#313130" d="M1103.3-422.5c4.3,0,9,1,12.3,2.9l40.8,23.6c6.8,3.9,12.3,13.5,12.3,21.3v57.2c0,7.8-5.5,17.4-12.3,21.3
		l-17.9,10.3l0-24.1l-35.2,9.2L1103.3-422.5z"/>
	<path fill="#FFFFFF" d="M1079-324.7c0,2.5-2,4.5-4.5,4.5c-2.5,0-4.5-2-4.5-4.5c0-2.5,2-4.5,4.5-4.5
		C1077-329.2,1079-327.2,1079-324.7"/>
	<path fill="#FFFFFF" d="M1135.8-324.7c0,2.5-2,4.5-4.5,4.5s-4.5-2-4.5-4.5c0-2.5,2-4.5,4.5-4.5S1135.8-327.2,1135.8-324.7"/>
	<g>
		<path fill="#FFFFFF" d="M1126.8-307.8c-2.2,0-4.6-0.2-7-0.5c-2.4-0.3-4.7-0.5-6.9-0.5c-2.5,0-9.3,0.5-9.5,6.7l0,0
			c-0.2-6.2-6.7-6.7-9.4-6.7c-2.2,0-4.5,0.3-6.9,0.5c-2.4,0.3-4.8,0.5-7,0.5c-7,0-10.7-3.8-11.7-10.1h-0.1v3.1
			c0,8.3,3.6,13.6,11.9,13.6c2.2,0,4.6-0.2,7-0.4c2.4-0.3,4.7-0.5,6.9-0.5c2.6,0,5,0.6,5.2,6.8h8.5c0.2-6.2,2.7-6.8,5.1-6.8
			c2.2,0,4.5,0.3,6.9,0.5c2.4,0.3,4.8,0.4,7,0.4c8.8,0,12-5.6,12-13.5v-2.5C1137.5-311.5,1134-307.8,1126.8-307.8z"/>
		<path fill="#D5B69C" d="M1126.8-305.1c-2.2,0-4.6-0.2-7-0.5c-2.4-0.3-4.7-0.5-6.9-0.5c-2.5,0-9.3,0.5-9.5,6.7l0,0
			c-0.2-6.2-6.7-6.7-9.4-6.7c-2.2,0-4.5,0.3-6.9,0.5c-2.4,0.3-4.8,0.5-7,0.5c-7,0-10.7-3.8-11.7-10.1h-0.1v3.1
			c0,8.3,3.6,13.6,11.9,13.6c2.2,0,4.6-0.2,7-0.4c2.4-0.3,4.7-0.5,6.9-0.5c2.6,0,5,0.6,5.2,6.8h8.5c0.2-6.2,2.7-6.8,5.1-6.8
			c2.2,0,4.5,0.3,6.9,0.5c2.4,0.3,4.8,0.4,7,0.4c8.8,0,12-5.6,12-13.5v-2.5C1137.5-308.8,1134-305.1,1126.8-305.1z"/>
		<path fill="#EED3B8" d="M1126.8-303.5c-2.2,0-4.6-0.2-7-0.5c-2.4-0.3-4.7-0.5-6.9-0.5c-2.5,0-9.3,0.5-9.5,6.7l0,0
			c-0.2-6.2-6.7-6.7-9.4-6.7c-2.2,0-4.5,0.3-6.9,0.5c-2.4,0.3-4.8,0.5-7,0.5c-7,0-10.7-3.8-11.7-10.1h-0.1v3.1
			c0,8.3,3.6,13.6,11.9,13.6c2.2,0,4.6-0.2,7-0.4c2.4-0.3,4.7-0.5,6.9-0.5c2.6,0,5,0.6,5.2,6.8h8.5c0.2-6.2,2.7-6.8,5.1-6.8
			c2.2,0,4.5,0.3,6.9,0.5c2.4,0.3,4.8,0.4,7,0.4c8.8,0,12-5.6,12-13.5v-2.5C1137.5-307.2,1134-303.5,1126.8-303.5z"/>
	</g>
	<path fill="none" stroke="#A9856B" stroke-width="4" stroke-linecap="round" stroke-linejoin="round" stroke-miterlimit="10" d="
		M1089.3-288.7h23.3c0,0,5.3,0,6.7-4.4"/>
	<g>
		<path id="j_1_" fill="#63BB96" d="M1079.5-357.2l5.5-3.3c1.1,1.9,2,3.5,4.4,3.5c2.2,0,3.6-0.9,3.6-4.3v-23h6.8v23.1
			c0,7-4.1,10.2-10.1,10.2C1084.3-351,1081.1-353.8,1079.5-357.2"/>
		<path id="s_1_" fill="#3FB289" d="M1103.5-357.9l5.5-3.2c1.5,2.4,3.3,4.1,6.7,4.1c2.8,0,4.6-1.4,4.6-3.3c0-2.3-1.8-3.1-4.9-4.5
			l-1.7-0.7c-4.9-2.1-8.1-4.7-8.1-10.2c0-5.1,3.9-9,9.9-9c4.3,0,7.4,1.5,9.6,5.4l-5.3,3.4c-1.2-2.1-2.4-2.9-4.4-2.9
			c-2,0-3.2,1.3-3.2,2.9c0,2,1.3,2.9,4.2,4.1l1.7,0.7c5.8,2.5,9,5,9,10.6c0,6.1-4.8,9.4-11.2,9.4
			C1109.6-351,1105.5-354,1103.5-357.9"/>
	</g>
	<path fill="#EED3B8" d="M1168.8-47.3c0,7.8-5.5,17.4-12.3,21.3l-40.8,23.6c-6.8,3.9-17.8,3.9-24.5,0L1050.3-26
		c-6.8-3.9-12.3-13.5-12.3-21.3v-57.2c0-7.8,5.5-17.4,12.3-21.3l40.8-23.6c6.8-3.9,17.8-3.9,24.5,0l40.8,23.6
		c6.8,3.9,12.3,13.5,12.3,21.3V-47.3z"/>
	<path fill="#484848" d="M1156.5-125.7l-40.8-23.6c-6.8-3.9-17.8-3.9-24.5,0l-40.8,23.6c-6.8,3.9-12.3,13.5-12.3,21.3v57.2
		c0,7.8,5.5,17.4,12.3,21.3l17.9,10.3l0-24.4l35.2,10.3l35.1-9.9l0.1,23.9l17.9-10.3c6.8-3.9,12.3-13.5,12.3-21.3v-57.2
		C1168.8-112.2,1163.3-121.8,1156.5-125.7"/>
	<path fill="#313130" d="M1103.3-152.2c4.3,0,9,1,12.3,2.9l40.8,23.6c6.8,3.9,12.3,13.5,12.3,21.3v57.2c0,7.8-5.5,17.4-12.3,21.3
		l-17.9,10.3l0-24.1l-35.2,9.2L1103.3-152.2z"/>
	<path fill="#FFFFFF" d="M1079-54.4c0,2.5-2,4.5-4.5,4.5c-2.5,0-4.5-2-4.5-4.5c0-2.5,2-4.5,4.5-4.5C1077-58.9,1079-56.9,1079-54.4"
		/>
	<path fill="#FFFFFF" d="M1135.8-54.4c0,2.5-2,4.5-4.5,4.5s-4.5-2-4.5-4.5c0-2.5,2-4.5,4.5-4.5S1135.8-56.9,1135.8-54.4"/>
	<g>
		<path fill="#FFFFFF" d="M1126.8-37.5c-2.2,0-4.6-0.2-7-0.5c-2.4-0.3-4.7-0.5-6.9-0.5c-2.5,0-9.3,0.5-9.5,6.7l0,0
			c-0.2-6.2-6.7-6.7-9.4-6.7c-2.2,0-4.5,0.3-6.9,0.5c-2.4,0.3-4.8,0.5-7,0.5c-7,0-10.7-3.8-11.7-10.1h-0.1v3.1
			c0,8.3,3.6,13.6,11.9,13.6c2.2,0,4.6-0.2,7-0.4c2.4-0.3,4.7-0.5,6.9-0.5c2.6,0,5,0.6,5.2,6.8h8.5c0.2-6.2,2.7-6.8,5.1-6.8
			c2.2,0,4.5,0.3,6.9,0.5c2.4,0.3,4.8,0.4,7,0.4c8.8,0,12-5.6,12-13.5v-2.5C1137.5-41.2,1134-37.5,1126.8-37.5z"/>
		<path fill="#D5B69C" d="M1126.8-34.8c-2.2,0-4.6-0.2-7-0.5c-2.4-0.3-4.7-0.5-6.9-0.5c-2.5,0-9.3,0.5-9.5,6.7l0,0
			c-0.2-6.2-6.7-6.7-9.4-6.7c-2.2,0-4.5,0.3-6.9,0.5c-2.4,0.3-4.8,0.5-7,0.5c-7,0-10.7-3.8-11.7-10.1h-0.1v3.1
			c0,8.3,3.6,13.6,11.9,13.6c2.2,0,4.6-0.2,7-0.4c2.4-0.3,4.7-0.5,6.9-0.5c2.6,0,5,0.6,5.2,6.8h8.5c0.2-6.2,2.7-6.8,5.1-6.8
			c2.2,0,4.5,0.3,6.9,0.5c2.4,0.3,4.8,0.4,7,0.4c8.8,0,12-5.6,12-13.5v-2.5C1137.5-38.4,1134-34.8,1126.8-34.8z"/>
		<path fill="#EED3B8" d="M1126.8-33.2c-2.2,0-4.6-0.2-7-0.5c-2.4-0.3-4.7-0.5-6.9-0.5c-2.5,0-9.3,0.5-9.5,6.7l0,0
			c-0.2-6.2-6.7-6.7-9.4-6.7c-2.2,0-4.5,0.3-6.9,0.5c-2.4,0.3-4.8,0.5-7,0.5c-7,0-10.7-3.8-11.7-10.1h-0.1v3.1
			c0,8.3,3.6,13.6,11.9,13.6c2.2,0,4.6-0.2,7-0.4c2.4-0.3,4.7-0.5,6.9-0.5c2.6,0,5,0.6,5.2,6.8h8.5c0.2-6.2,2.7-6.8,5.1-6.8
			c2.2,0,4.5,0.3,6.9,0.5c2.4,0.3,4.8,0.4,7,0.4c8.8,0,12-5.6,12-13.5v-2.5C1137.5-36.8,1134-33.2,1126.8-33.2z"/>
	</g>
	<path fill="none" stroke="#A9856B" stroke-width="4" stroke-linecap="round" stroke-linejoin="round" stroke-miterlimit="10" d="
		M1089.3-18.4h23.3c0,0,5.3,0,6.7-4.4"/>
	<g>
		<path id="j_2_" fill="#63BB96" d="M1079.5-86.9l5.5-3.3c1.1,1.9,2,3.5,4.4,3.5c2.2,0,3.6-0.9,3.6-4.3v-23h6.8v23.1
			c0,7-4.1,10.2-10.1,10.2C1084.3-80.7,1081.1-83.5,1079.5-86.9"/>
		<path id="s_2_" fill="#3FB289" d="M1103.5-87.6l5.5-3.2c1.5,2.4,3.3,4.1,6.7,4.1c2.8,0,4.6-1.4,4.6-3.3c0-2.3-1.8-3.1-4.9-4.5
			l-1.7-0.7c-4.9-2.1-8.1-4.7-8.1-10.2c0-5.1,3.9-9,9.9-9c4.3,0,7.4,1.5,9.6,5.4l-5.3,3.4c-1.2-2.1-2.4-2.9-4.4-2.9
			c-2,0-3.2,1.3-3.2,2.9c0,2,1.3,2.9,4.2,4.1l1.7,0.7c5.8,2.5,9,5,9,10.6c0,6.1-4.8,9.4-11.2,9.4
			C1109.6-80.7,1105.5-83.7,1103.5-87.6"/>
	</g>
	<g>
		<rect x="1029.6" y="10.1" fill="none" width="149.3" height="43.3"/>
		<path fill="#3FB289" d="M1057.9,12.5c-0.1,0.1-0.2,0.2-0.3,0.4c-0.1,0.1-0.2,0.2-0.3,0.4c-0.1-0.1-0.3-0.2-0.5-0.4
			c-0.2-0.1-0.4-0.3-0.7-0.4c-0.3-0.1-0.5-0.2-0.9-0.3c-0.3-0.1-0.7-0.1-1-0.1c-0.5,0-1,0.1-1.3,0.3c-0.4,0.2-0.7,0.4-1,0.7
			s-0.4,0.6-0.6,1c-0.1,0.4-0.2,0.8-0.2,1.2c0,0.4,0.1,0.8,0.2,1.1c0.1,0.3,0.3,0.6,0.6,0.8s0.5,0.4,0.9,0.5
			c0.3,0.2,0.7,0.3,1.1,0.4c0.5,0.2,1,0.3,1.6,0.5c0.6,0.2,1.1,0.5,1.6,0.8c0.5,0.3,0.9,0.8,1.3,1.3s0.5,1.2,0.5,2
			c0,0.6-0.1,1.2-0.4,1.8s-0.6,1-1,1.4c-0.4,0.4-0.9,0.7-1.5,0.9c-0.6,0.2-1.2,0.3-1.8,0.3c-0.6,0-1.1-0.1-1.6-0.2s-0.9-0.3-1.3-0.5
			c-0.4-0.2-0.7-0.5-1-0.7s-0.5-0.5-0.7-0.7l0.6-0.6c0.2,0.2,0.4,0.4,0.7,0.6c0.3,0.2,0.6,0.4,0.9,0.6s0.7,0.3,1,0.5
			c0.4,0.1,0.8,0.2,1.2,0.2c0.5,0,1-0.1,1.4-0.2c0.5-0.2,0.9-0.4,1.2-0.7c0.4-0.3,0.6-0.6,0.8-1c0.2-0.4,0.3-0.9,0.3-1.4
			c0-0.7-0.1-1.2-0.4-1.6c-0.3-0.4-0.7-0.8-1.1-1.1c-0.4-0.3-0.9-0.5-1.4-0.7c-0.5-0.2-1-0.3-1.4-0.5c-0.3-0.1-0.6-0.2-1-0.4
			s-0.7-0.4-1.1-0.6c-0.3-0.3-0.6-0.6-0.9-1s-0.4-0.9-0.4-1.5c0-0.5,0-1,0.2-1.5c0.1-0.5,0.4-0.9,0.7-1.3s0.7-0.7,1.3-1
			c0.5-0.2,1.1-0.4,1.9-0.4c0.6,0,1.1,0.1,1.7,0.3C1056.7,11.6,1057.3,12,1057.9,12.5z"/>
		<path fill="#3FB289" d="M1062.9,11.2h0.9v15.4h-0.9V11.2z"/>
		<path fill="#3FB289" d="M1067.7,11.2h3.2c1.1,0,2.1,0.2,3,0.5c0.9,0.4,1.8,0.9,2.5,1.5c0.7,0.7,1.3,1.5,1.7,2.4
			c0.4,1,0.6,2,0.6,3.2c0,0.9-0.2,1.8-0.5,2.7c-0.3,0.9-0.8,1.7-1.5,2.5c-0.7,0.7-1.6,1.4-2.6,1.8c-1.1,0.5-2.4,0.7-3.9,0.7h-2.5
			V11.2z M1068.6,12.1v13.6h1.9c1.2,0,2.3-0.2,3.2-0.6c0.9-0.4,1.7-0.9,2.3-1.5c0.6-0.6,1.1-1.4,1.4-2.2c0.3-0.8,0.5-1.7,0.5-2.5
			c0-1-0.2-2-0.5-2.8c-0.4-0.8-0.9-1.6-1.5-2.2c-0.6-0.6-1.3-1-2.2-1.4c-0.8-0.3-1.7-0.5-2.7-0.5H1068.6z"/>
		<path fill="#3FB289" d="M1082.3,26.6V11.2h9.1v0.9h-8.2v6.3h7.4v0.9h-7.4v6.4h8.5v0.9H1082.3z"/>
		<path fill="#3FB289" d="M1105.8,26.6h-1.1c-1.1-1.5-2.3-2.9-3.4-4.3c-1.1-1.4-2.3-2.9-3.4-4.3c-0.3,0.3-0.7,0.6-1,0.9
			c-0.3,0.3-0.6,0.6-0.9,0.9v6.8h-0.9V11.2h0.9v6.9c0,0.1,0,0.2,0,0.3c0,0.1,0,0.2,0,0.3c0.1-0.1,0.1-0.2,0.2-0.2
			c0.1-0.1,0.1-0.1,0.2-0.2c1.2-1.2,2.5-2.4,3.7-3.6s2.5-2.4,3.7-3.6h1.2l-6.5,6.1c1.2,1.6,2.5,3.1,3.7,4.6
			C1103.4,23.5,1104.6,25.1,1105.8,26.6z"/>
		<path fill="#3FB289" d="M1109.1,11.2h0.9v15.4h-0.9V11.2z"/>
		<path fill="#3FB289" d="M1125,25l0.5,0.7c-0.6,0.3-1.2,0.6-1.9,0.8s-1.4,0.3-2.1,0.3c-1.1,0-2.1-0.2-3.1-0.6c-1-0.4-1.8-1-2.5-1.7
			c-0.7-0.7-1.3-1.5-1.7-2.5c-0.4-1-0.6-2-0.6-3.1c0-1.1,0.2-2.1,0.6-3.1c0.4-1,1-1.8,1.7-2.5c0.7-0.7,1.5-1.3,2.5-1.7
			c1-0.4,2-0.6,3.1-0.6c0.7,0,1.5,0.1,2.1,0.3s1.3,0.5,1.9,0.8c-0.1,0.1-0.2,0.2-0.3,0.4c-0.1,0.1-0.2,0.3-0.3,0.4
			c-0.5-0.3-1.1-0.5-1.7-0.7c-0.6-0.2-1.2-0.3-1.9-0.3c-1,0-1.9,0.2-2.7,0.6c-0.8,0.4-1.6,0.9-2.2,1.5c-0.6,0.6-1.1,1.4-1.5,2.2
			c-0.4,0.9-0.5,1.8-0.5,2.7c0,1,0.2,1.9,0.5,2.7s0.9,1.6,1.5,2.2c0.6,0.6,1.4,1.1,2.2,1.5c0.8,0.4,1.7,0.5,2.7,0.5
			c0.7,0,1.3-0.1,1.9-0.3C1123.9,25.5,1124.5,25.3,1125,25z"/>
		<path fill="#3FB289" d="M1139.2,26.6h-1.1c-1.1-1.5-2.3-2.9-3.4-4.3c-1.1-1.4-2.3-2.9-3.4-4.3c-0.3,0.3-0.7,0.6-1,0.9
			c-0.3,0.3-0.6,0.6-0.9,0.9v6.8h-0.9V11.2h0.9v6.9c0,0.1,0,0.2,0,0.3c0,0.1,0,0.2,0,0.3c0.1-0.1,0.1-0.2,0.2-0.2
			c0.1-0.1,0.1-0.1,0.2-0.2c1.2-1.2,2.5-2.4,3.7-3.6s2.5-2.4,3.7-3.6h1.2l-6.5,6.1c1.2,1.6,2.5,3.1,3.7,4.6
			C1136.8,23.5,1138,25.1,1139.2,26.6z"/>
		<path fill="#3FB289" d="M1140.6,29.8v-1.7c1-0.1,1.8-0.4,2.5-1c0.7-0.6,1-1.4,1-2.5V11.2h1.8v13.4c0,0.8-0.1,1.5-0.4,2.2
			c-0.3,0.6-0.6,1.2-1.1,1.6c-0.5,0.4-1,0.8-1.7,1S1141.3,29.8,1140.6,29.8z"/>
		<path fill="#3FB289" d="M1157.6,12.8c-0.2,0.2-0.3,0.4-0.5,0.7c-0.2,0.2-0.3,0.4-0.5,0.7c-0.1-0.1-0.3-0.2-0.5-0.4
			c-0.2-0.1-0.4-0.3-0.6-0.4c-0.2-0.1-0.5-0.2-0.8-0.3c-0.3-0.1-0.6-0.1-1-0.1c-0.9,0-1.5,0.2-1.9,0.7c-0.4,0.5-0.6,1.1-0.6,1.7
			c0,0.4,0.1,0.7,0.2,0.9c0.1,0.2,0.3,0.5,0.5,0.6s0.5,0.3,0.8,0.4c0.3,0.1,0.6,0.2,0.9,0.3c0.5,0.2,1,0.4,1.6,0.6
			c0.6,0.2,1.1,0.5,1.6,0.9c0.5,0.4,0.9,0.8,1.2,1.4c0.3,0.5,0.5,1.2,0.5,2c0,0.7-0.1,1.3-0.4,1.8s-0.6,1-1,1.4
			c-0.4,0.4-0.9,0.7-1.5,0.9s-1.1,0.3-1.8,0.3c-0.6,0-1.1-0.1-1.6-0.2c-0.5-0.2-1-0.4-1.5-0.6c-0.4-0.2-0.8-0.5-1.2-0.8
			c-0.3-0.3-0.6-0.6-0.8-0.9l1.1-1.1c0.2,0.2,0.4,0.4,0.7,0.6s0.5,0.4,0.9,0.6c0.3,0.2,0.6,0.3,1,0.5c0.4,0.1,0.8,0.2,1.2,0.2
			c0.4,0,0.7-0.1,1.1-0.2c0.4-0.1,0.7-0.3,0.9-0.5s0.5-0.5,0.6-0.8c0.2-0.3,0.2-0.7,0.2-1.1c0-0.6-0.1-1.1-0.4-1.4
			c-0.3-0.4-0.6-0.7-1.1-0.9c-0.4-0.2-0.9-0.4-1.3-0.6c-0.5-0.1-0.9-0.3-1.2-0.4c-0.3-0.1-0.6-0.2-0.9-0.4c-0.4-0.2-0.7-0.4-1-0.7
			c-0.3-0.3-0.6-0.7-0.8-1.1c-0.2-0.4-0.4-1-0.4-1.6c0-0.5,0.1-1,0.2-1.5c0.1-0.5,0.4-0.9,0.7-1.3c0.3-0.4,0.8-0.7,1.3-1
			c0.6-0.2,1.2-0.4,2-0.4c0.6,0,1.2,0.1,1.8,0.3S1156.8,12.1,1157.6,12.8z"/>
	</g>
	<path fill="#EED3B8" d="M1395.8-47.3c0,7.8-5.5,17.4-12.3,21.3l-40.8,23.6c-6.8,3.9-17.8,3.9-24.5,0L1277.3-26
		c-6.8-3.9-12.3-13.5-12.3-21.3v-57.2c0-7.8,5.5-17.4,12.3-21.3l40.8-23.6c6.8-3.9,17.8-3.9,24.5,0l40.8,23.6
		c6.8,3.9,12.3,13.5,12.3,21.3V-47.3z"/>
	<path fill="#484848" d="M1383.5-125.7l-40.8-23.6c-6.8-3.9-17.8-3.9-24.5,0l-40.8,23.6c-6.8,3.9-12.3,13.5-12.3,21.3v57.2
		c0,7.8,5.5,17.4,12.3,21.3l17.9,10.3l0-24.4l35.2,10.3l35.1-9.9l0.1,23.9l17.9-10.3c6.8-3.9,12.3-13.5,12.3-21.3v-57.2
		C1395.8-112.2,1390.2-121.8,1383.5-125.7"/>
	<path fill="#313130" d="M1330.3-152.2c4.3,0,9,1,12.3,2.9l40.8,23.6c6.8,3.9,12.3,13.5,12.3,21.3v57.2c0,7.8-5.5,17.4-12.3,21.3
		l-17.9,10.3l0-24.1l-35.2,9.2L1330.3-152.2z"/>
	<path fill="#FFFFFF" d="M1305.9-54.4c0,2.5-2,4.5-4.5,4.5s-4.5-2-4.5-4.5c0-2.5,2-4.5,4.5-4.5S1305.9-56.9,1305.9-54.4"/>
	<path fill="#FFFFFF" d="M1362.8-54.4c0,2.5-2,4.5-4.5,4.5c-2.5,0-4.5-2-4.5-4.5c0-2.5,2-4.5,4.5-4.5
		C1360.8-58.9,1362.8-56.9,1362.8-54.4"/>
	<g>
		<path fill="#FFFFFF" d="M1353.8-38.5c-2.2,0-4.6-0.2-7-0.5c-2.4-0.3-4.7-0.5-6.9-0.5c-2.5,0-9.3,0.5-9.5,6.7l0,0
			c-0.2-6.2-6.7-6.7-9.4-6.7c-2.2,0-4.5,0.3-6.9,0.5c-2.4,0.3-4.8,0.5-7,0.5c-7,0-10.7-3.8-11.7-10.1h-0.1v3.1
			c0,8.3,3.6,13.6,11.9,13.6c2.2,0,4.6-0.2,7-0.4c2.4-0.3,4.7-0.5,6.9-0.5c2.6,0,5,0.6,5.2,6.8h8.5c0.2-6.2,2.7-6.8,5.1-6.8
			c2.2,0,4.5,0.3,6.9,0.5c2.4,0.3,4.8,0.4,7,0.4c8.8,0,12-5.6,12-13.5v-2.5C1364.4-42.2,1361-38.5,1353.8-38.5z"/>
		<path fill="#D5B69C" d="M1353.8-34.8c-2.2,0-4.6-0.2-7-0.5c-2.4-0.3-4.7-0.5-6.9-0.5c-2.5,0-9.3,0.5-9.5,6.7l0,0
			c-0.2-6.2-6.7-6.7-9.4-6.7c-2.2,0-4.5,0.3-6.9,0.5c-2.4,0.3-4.8,0.5-7,0.5c-7,0-10.7-3.8-11.7-10.1h-0.1v3.1
			c0,8.3,3.6,13.6,11.9,13.6c2.2,0,4.6-0.2,7-0.4c2.4-0.3,4.7-0.5,6.9-0.5c2.6,0,5,0.6,5.2,6.8h8.5c0.2-6.2,2.7-6.8,5.1-6.8
			c2.2,0,4.5,0.3,6.9,0.5c2.4,0.3,4.8,0.4,7,0.4c8.8,0,12-5.6,12-13.5v-2.5C1364.4-38.4,1361-34.8,1353.8-34.8z"/>
		<path fill="#EED3B8" d="M1353.8-33.2c-2.2,0-4.6-0.2-7-0.5c-2.4-0.3-4.7-0.5-6.9-0.5c-2.5,0-9.3,0.5-9.5,6.7l0,0
			c-0.2-6.2-6.7-6.7-9.4-6.7c-2.2,0-4.5,0.3-6.9,0.5c-2.4,0.3-4.8,0.5-7,0.5c-7,0-10.7-3.8-11.7-10.1h-0.1v3.1
			c0,8.3,3.6,13.6,11.9,13.6c2.2,0,4.6-0.2,7-0.4c2.4-0.3,4.7-0.5,6.9-0.5c2.6,0,5,0.6,5.2,6.8h8.5c0.2-6.2,2.7-6.8,5.1-6.8
			c2.2,0,4.5,0.3,6.9,0.5c2.4,0.3,4.8,0.4,7,0.4c8.8,0,12-5.6,12-13.5v-2.5C1364.4-36.8,1361-33.2,1353.8-33.2z"/>
	</g>
	<path fill="none" stroke="#A9856B" stroke-width="4" stroke-linecap="round" stroke-linejoin="round" stroke-miterlimit="10" d="
		M1316.2-18.4h23.3c0,0,5.3,0,6.7-4.4"/>
	<g>
		<path id="j_3_" fill="#63BB96" d="M1306.5-86.9l5.5-3.3c1.1,1.9,2,3.5,4.4,3.5c2.2,0,3.6-0.9,3.6-4.3v-23h6.8v23.1
			c0,7-4.1,10.2-10.1,10.2C1311.2-80.7,1308.1-83.5,1306.5-86.9"/>
		<path id="s_3_" fill="#3FB289" d="M1330.5-87.6l5.5-3.2c1.5,2.4,3.3,4.1,6.7,4.1c2.8,0,4.6-1.4,4.6-3.3c0-2.3-1.8-3.1-4.9-4.5
			l-1.7-0.7c-4.9-2.1-8.1-4.7-8.1-10.2c0-5.1,3.9-9,9.9-9c4.3,0,7.4,1.5,9.6,5.4l-5.3,3.4c-1.2-2.1-2.4-2.9-4.4-2.9
			c-2,0-3.2,1.3-3.2,2.9c0,2,1.3,2.9,4.2,4.1l1.7,0.7c5.8,2.5,9,5,9,10.6c0,6.1-4.8,9.4-11.2,9.4
			C1336.5-80.7,1332.4-83.7,1330.5-87.6"/>
	</g>
	<path fill="#FFFFFF" d="M45.4-179.9c0,3-2.4,5.4-5.4,5.4c-3,0-5.4-2.4-5.4-5.4c0-3,2.4-5.4,5.4-5.4C43-185.2,45.4-182.8,45.4-179.9
		"/>
	<path fill="#FFFFFF" d="M105.3-179.4c0,3.2-2.6,5.9-5.9,5.9c-3.2,0-5.9-2.6-5.9-5.9c0-3.2,2.6-5.9,5.9-5.9
		C102.6-185.2,105.3-182.6,105.3-179.4"/>
	<path id="j_7_" fill="#3FB289" d="M46-199.5l5.5-3.3c1.1,1.9,2,3.5,4.4,3.5c2.2,0,3.6-0.9,3.6-4.3v-23h6.8v23.1
		c0,7-4.1,10.2-10.1,10.2C50.7-193.3,47.6-196.1,46-199.5"/>
	<path id="s_7_" fill="#3FB289" d="M69.9-200.2l5.5-3.2c1.5,2.4,3.3,4.1,6.7,4.1c2.8,0,4.6-1.4,4.6-3.3c0-2.3-1.8-3.1-4.9-4.5
		l-1.7-0.7c-4.9-2.1-8.1-4.7-8.1-10.2c0-5.1,3.9-9,9.9-9c4.3,0,7.4,1.5,9.6,5.4l-5.3,3.4c-1.2-2.1-2.4-2.9-4.4-2.9
		c-2,0-3.2,1.3-3.2,2.9c0,2,1.3,2.9,4.2,4.1l1.7,0.7c5.8,2.5,9,5,9,10.6c0,6.1-4.8,9.4-11.2,9.4C76-193.3,71.9-196.3,69.9-200.2"/>
	<g>
		<rect x="1256.6" y="10.1" fill="none" width="149.3" height="43.3"/>
		<path fill="#3FB289" d="M1284.9,12.5c-0.1,0.1-0.2,0.2-0.3,0.4c-0.1,0.1-0.2,0.2-0.3,0.4c-0.1-0.1-0.3-0.2-0.5-0.4
			c-0.2-0.1-0.4-0.3-0.7-0.4c-0.3-0.1-0.5-0.2-0.9-0.3c-0.3-0.1-0.7-0.1-1-0.1c-0.5,0-1,0.1-1.3,0.3c-0.4,0.2-0.7,0.4-1,0.7
			s-0.4,0.6-0.6,1c-0.1,0.4-0.2,0.8-0.2,1.2c0,0.4,0.1,0.8,0.2,1.1c0.1,0.3,0.3,0.6,0.6,0.8s0.5,0.4,0.9,0.5
			c0.3,0.2,0.7,0.3,1.1,0.4c0.5,0.2,1,0.3,1.6,0.5c0.6,0.2,1.1,0.5,1.6,0.8c0.5,0.3,0.9,0.8,1.3,1.3s0.5,1.2,0.5,2
			c0,0.6-0.1,1.2-0.4,1.8s-0.6,1-1,1.4c-0.4,0.4-0.9,0.7-1.5,0.9c-0.6,0.2-1.2,0.3-1.8,0.3c-0.6,0-1.1-0.1-1.6-0.2s-0.9-0.3-1.3-0.5
			c-0.4-0.2-0.7-0.5-1-0.7s-0.5-0.5-0.7-0.7l0.6-0.6c0.2,0.2,0.4,0.4,0.7,0.6c0.3,0.2,0.6,0.4,0.9,0.6s0.7,0.3,1,0.5
			c0.4,0.1,0.8,0.2,1.2,0.2c0.5,0,1-0.1,1.4-0.2c0.5-0.2,0.9-0.4,1.2-0.7c0.4-0.3,0.6-0.6,0.8-1c0.2-0.4,0.3-0.9,0.3-1.4
			c0-0.7-0.1-1.2-0.4-1.6c-0.3-0.4-0.7-0.8-1.1-1.1c-0.4-0.3-0.9-0.5-1.4-0.7c-0.5-0.2-1-0.3-1.4-0.5c-0.3-0.1-0.6-0.2-1-0.4
			s-0.7-0.4-1.1-0.6c-0.3-0.3-0.6-0.6-0.9-1s-0.4-0.9-0.4-1.5c0-0.5,0-1,0.2-1.5c0.1-0.5,0.4-0.9,0.7-1.3s0.7-0.7,1.3-1
			c0.5-0.2,1.1-0.4,1.9-0.4c0.6,0,1.1,0.1,1.7,0.3C1283.6,11.6,1284.3,12,1284.9,12.5z"/>
		<path fill="#3FB289" d="M1289.8,11.2h0.9v15.4h-0.9V11.2z"/>
		<path fill="#3FB289" d="M1294.7,11.2h3.2c1.1,0,2.1,0.2,3,0.5c0.9,0.4,1.8,0.9,2.5,1.5c0.7,0.7,1.3,1.5,1.7,2.4
			c0.4,1,0.6,2,0.6,3.2c0,0.9-0.2,1.8-0.5,2.7c-0.3,0.9-0.8,1.7-1.5,2.5c-0.7,0.7-1.6,1.4-2.6,1.8c-1.1,0.5-2.4,0.7-3.9,0.7h-2.5
			V11.2z M1295.6,12.1v13.6h1.9c1.2,0,2.3-0.2,3.2-0.6c0.9-0.4,1.7-0.9,2.3-1.5c0.6-0.6,1.1-1.4,1.4-2.2c0.3-0.8,0.5-1.7,0.5-2.5
			c0-1-0.2-2-0.5-2.8c-0.4-0.8-0.9-1.6-1.5-2.2c-0.6-0.6-1.3-1-2.2-1.4c-0.8-0.3-1.7-0.5-2.7-0.5H1295.6z"/>
		<path fill="#3FB289" d="M1309.2,26.6V11.2h9.1v0.9h-8.2v6.3h7.4v0.9h-7.4v6.4h8.5v0.9H1309.2z"/>
		<path fill="#3FB289" d="M1332.8,26.6h-1.1c-1.1-1.5-2.3-2.9-3.4-4.3c-1.1-1.4-2.3-2.9-3.4-4.3c-0.3,0.3-0.7,0.6-1,0.9
			c-0.3,0.3-0.6,0.6-0.9,0.9v6.8h-0.9V11.2h0.9v6.9c0,0.1,0,0.2,0,0.3c0,0.1,0,0.2,0,0.3c0.1-0.1,0.1-0.2,0.2-0.2
			c0.1-0.1,0.1-0.1,0.2-0.2c1.2-1.2,2.5-2.4,3.7-3.6s2.5-2.4,3.7-3.6h1.2l-6.5,6.1c1.2,1.6,2.5,3.1,3.7,4.6
			C1330.3,23.5,1331.6,25.1,1332.8,26.6z"/>
		<path fill="#3FB289" d="M1336.1,11.2h0.9v15.4h-0.9V11.2z"/>
		<path fill="#3FB289" d="M1351.9,25l0.5,0.7c-0.6,0.3-1.2,0.6-1.9,0.8s-1.4,0.3-2.1,0.3c-1.1,0-2.1-0.2-3.1-0.6
			c-1-0.4-1.8-1-2.5-1.7c-0.7-0.7-1.3-1.5-1.7-2.5c-0.4-1-0.6-2-0.6-3.1c0-1.1,0.2-2.1,0.6-3.1c0.4-1,1-1.8,1.7-2.5
			c0.7-0.7,1.5-1.3,2.5-1.7c1-0.4,2-0.6,3.1-0.6c0.7,0,1.5,0.1,2.1,0.3s1.3,0.5,1.9,0.8c-0.1,0.1-0.2,0.2-0.3,0.4
			c-0.1,0.1-0.2,0.3-0.3,0.4c-0.5-0.3-1.1-0.5-1.7-0.7c-0.6-0.2-1.2-0.3-1.9-0.3c-1,0-1.9,0.2-2.7,0.6c-0.8,0.4-1.6,0.9-2.2,1.5
			c-0.6,0.6-1.1,1.4-1.5,2.2c-0.4,0.9-0.5,1.8-0.5,2.7c0,1,0.2,1.9,0.5,2.7s0.9,1.6,1.5,2.2c0.6,0.6,1.4,1.1,2.2,1.5
			c0.8,0.4,1.7,0.5,2.7,0.5c0.7,0,1.3-0.1,1.9-0.3C1350.9,25.5,1351.4,25.3,1351.9,25z"/>
		<path fill="#3FB289" d="M1366.2,26.6h-1.1c-1.1-1.5-2.3-2.9-3.4-4.3c-1.1-1.4-2.3-2.9-3.4-4.3c-0.3,0.3-0.7,0.6-1,0.9
			c-0.3,0.3-0.6,0.6-0.9,0.9v6.8h-0.9V11.2h0.9v6.9c0,0.1,0,0.2,0,0.3c0,0.1,0,0.2,0,0.3c0.1-0.1,0.1-0.2,0.2-0.2
			c0.1-0.1,0.1-0.1,0.2-0.2c1.2-1.2,2.5-2.4,3.7-3.6s2.5-2.4,3.7-3.6h1.2l-6.5,6.1c1.2,1.6,2.5,3.1,3.7,4.6
			C1363.7,23.5,1365,25.1,1366.2,26.6z"/>
		<path fill="#3FB289" d="M1367.5,29.8v-1.7c1-0.1,1.8-0.4,2.5-1c0.7-0.6,1-1.4,1-2.5V11.2h1.8v13.4c0,0.8-0.1,1.5-0.4,2.2
			c-0.3,0.6-0.6,1.2-1.1,1.6c-0.5,0.4-1,0.8-1.7,1S1368.3,29.8,1367.5,29.8z"/>
		<path fill="#3FB289" d="M1384.6,12.8c-0.2,0.2-0.3,0.4-0.5,0.7c-0.2,0.2-0.3,0.4-0.5,0.7c-0.1-0.1-0.3-0.2-0.5-0.4
			c-0.2-0.1-0.4-0.3-0.6-0.4c-0.2-0.1-0.5-0.2-0.8-0.3c-0.3-0.1-0.6-0.1-1-0.1c-0.9,0-1.5,0.2-1.9,0.7c-0.4,0.5-0.6,1.1-0.6,1.7
			c0,0.4,0.1,0.7,0.2,0.9c0.1,0.2,0.3,0.5,0.5,0.6s0.5,0.3,0.8,0.4c0.3,0.1,0.6,0.2,0.9,0.3c0.5,0.2,1,0.4,1.6,0.6
			c0.6,0.2,1.1,0.5,1.6,0.9c0.5,0.4,0.9,0.8,1.2,1.4c0.3,0.5,0.5,1.2,0.5,2c0,0.7-0.1,1.3-0.4,1.8s-0.6,1-1,1.4
			c-0.4,0.4-0.9,0.7-1.5,0.9s-1.1,0.3-1.8,0.3c-0.6,0-1.1-0.1-1.6-0.2c-0.5-0.2-1-0.4-1.5-0.6c-0.4-0.2-0.8-0.5-1.2-0.8
			c-0.3-0.3-0.6-0.6-0.8-0.9l1.1-1.1c0.2,0.2,0.4,0.4,0.7,0.6s0.5,0.4,0.9,0.6c0.3,0.2,0.6,0.3,1,0.5c0.4,0.1,0.8,0.2,1.2,0.2
			c0.4,0,0.7-0.1,1.1-0.2c0.4-0.1,0.7-0.3,0.9-0.5s0.5-0.5,0.6-0.8c0.2-0.3,0.2-0.7,0.2-1.1c0-0.6-0.1-1.1-0.4-1.4
			c-0.3-0.4-0.6-0.7-1.1-0.9c-0.4-0.2-0.9-0.4-1.3-0.6c-0.5-0.1-0.9-0.3-1.2-0.4c-0.3-0.1-0.6-0.2-0.9-0.4c-0.4-0.2-0.7-0.4-1-0.7
			c-0.3-0.3-0.6-0.7-0.8-1.1c-0.2-0.4-0.4-1-0.4-1.6c0-0.5,0.1-1,0.2-1.5c0.1-0.5,0.4-0.9,0.7-1.3c0.3-0.4,0.8-0.7,1.3-1
			c0.6-0.2,1.2-0.4,2-0.4c0.6,0,1.2,0.1,1.8,0.3S1383.8,12.1,1384.6,12.8z"/>
	</g>
	<path fill="#EED3B8" d="M-109.7,176.4c0,7.8-5.5,17.4-12.3,21.3l-40.8,23.6c-6.8,3.9-17.8,3.9-24.5,0l-40.8-23.6
		c-6.8-3.9-12.3-13.5-12.3-21.3v-57.2c0-7.8,5.5-17.4,12.3-21.3l40.8-23.6c6.8-3.9,17.8-3.9,24.5,0L-122,98
		c6.8,3.9,12.3,13.5,12.3,21.3V176.4z"/>
	<path fill="#313130" d="M-122,98l-40.8-23.6c-6.8-3.9-17.8-3.9-24.5,0L-228.2,98c-6.8,3.9-12.3,13.5-12.3,21.3v57.2
		c0,7.8,5.5,17.4,12.3,21.3l17.9,10.3l0-24.4l35.2,10.3l35.1-9.9l0.1,23.9l17.9-10.3c6.8-3.9,12.3-13.5,12.3-21.3v-57.2
		C-109.7,111.5-115.2,101.9-122,98"/>
	<path fill="#0E0E0E" d="M-175.2,71.5c4.3,0,9,1,12.3,2.9l40.8,23.6c6.8,3.9,12.3,13.5,12.3,21.3v57.2c0,7.8-5.5,17.4-12.3,21.3
		l-17.9,10.3l0-24.1l-35.2,9.2L-175.2,71.5z"/>
	<path fill="#FFFFFF" d="M-198.7,165.9c0,2.7-2.2,4.9-4.9,4.9s-4.9-2.2-4.9-4.9c0-2.7,2.2-4.9,4.9-4.9S-198.7,163.2-198.7,165.9"/>
	<path fill="#FFFFFF" d="M-140.4,165.9c0,2.7-2.2,4.9-4.9,4.9c-2.7,0-4.9-2.2-4.9-4.9c0-2.7,2.2-4.9,4.9-4.9
		C-142.6,161-140.4,163.2-140.4,165.9"/>
	<path fill="#FFFFFF" d="M-151.7,185.2c-2.2,0-4.6-0.2-7-0.5c-2.4-0.3-4.7-0.5-6.9-0.5c-2.5,0-9.3,0.5-9.5,6.7l0,0
		c-0.2-6.2-6.7-6.7-9.4-6.7c-2.2,0-4.5,0.3-6.9,0.5c-2.4,0.3-4.8,0.5-7,0.5c-7,0-10.7-3.8-11.7-10.1h-0.1v3.1
		c0,8.3,3.6,13.6,11.9,13.6c2.2,0,4.6-0.2,7-0.4c2.4-0.3,4.7-0.5,6.9-0.5c2.6,0,5,0.6,5.2,6.8h8.5c0.2-6.2,2.7-6.8,5.1-6.8
		c2.2,0,4.5,0.3,6.9,0.5c2.4,0.3,4.8,0.4,7,0.4c8.8,0,12-5.6,12-13.5v-2.5C-141,181.5-144.5,185.2-151.7,185.2z"/>
	<path fill="#EED3B8" d="M-151.7,190.6c-2.2,0-4.6-0.2-7-0.5c-2.4-0.3-4.7-0.5-6.9-0.5c-2.5,0-9.3,0.5-9.5,6.7l0,0
		c-0.2-6.2-6.7-6.7-9.4-6.7c-2.2,0-4.5,0.3-6.9,0.5c-2.4,0.3-4.8,0.5-7,0.5c-7,0-10.7-3.8-11.7-10.1h-0.1v3.1
		c0,8.3,3.6,13.6,11.9,13.6c2.2,0,4.6-0.2,7-0.4c2.4-0.3,4.7-0.5,6.9-0.5c2.6,0,5,0.6,5.2,6.8h8.5c0.2-6.2,2.7-6.8,5.1-6.8
		c2.2,0,4.5,0.3,6.9,0.5c2.4,0.3,4.8,0.4,7,0.4c8.8,0,12-5.6,12-13.5v-2.5C-141,186.9-144.5,190.6-151.7,190.6z"/>
	<g>
		<path id="j_9_" fill="#3FB289" d="M-199,136.9l5.5-3.3c1.1,1.9,2,3.5,4.4,3.5c2.2,0,3.6-0.9,3.6-4.3v-23h6.8v23.1
			c0,7-4.1,10.2-10.1,10.2C-194.2,143-197.4,140.2-199,136.9"/>
		<path id="s_9_" fill="#3FB289" d="M-175,136.1l5.5-3.2c1.5,2.4,3.3,4.1,6.7,4.1c2.8,0,4.6-1.4,4.6-3.3c0-2.3-1.8-3.1-4.9-4.5
			l-1.7-0.7c-4.9-2.1-8.1-4.7-8.1-10.2c0-5.1,3.9-9,9.9-9c4.3,0,7.4,1.5,9.6,5.4l-5.3,3.4c-1.2-2.1-2.4-2.9-4.4-2.9
			c-2,0-3.2,1.3-3.2,2.9c0,2,1.3,2.9,4.2,4.1l1.7,0.7c5.8,2.5,9,5,9,10.6c0,6.1-4.8,9.4-11.2,9.4C-169,143-173,140-175,136.1"/>
	</g>
	<g>
		<path fill="#EED3B8" d="M130.8,104.9c0,7.8-5.5,17.4-12.3,21.3l-40.8,23.6c-6.8,3.9-17.8,3.9-24.5,0l-40.8-23.6
			C5.5,122.2,0,112.7,0,104.9V47.7c0-7.8,5.5-17.4,12.3-21.3L53.1,2.9C59.9-1,70.9-1,77.7,2.9l40.8,23.6
			c6.8,3.9,12.3,13.5,12.3,21.3V104.9z"/>
		<path fill="#484848" d="M118.5,26.5L77.7,2.9C70.9-1,59.9-1,53.1,2.9L12.3,26.5C5.5,30.4,0,39.9,0,47.7v57.2
			c0,7.8,5.5,17.4,12.3,21.3l17.9,10.3l0-24.4l35.2,10.3l35.1-9.9l0.1,23.9l17.9-10.3c6.8-3.9,12.3-13.5,12.3-21.3V47.7
			C130.8,39.9,125.3,30.4,118.5,26.5"/>
		<path fill="#313130" d="M65.3,0c4.3,0,9,1,12.3,2.9l40.8,23.6c6.8,3.9,12.3,13.5,12.3,21.3v57.2c0,7.8-5.5,17.4-12.3,21.3
			l-17.9,10.3l0-24.1l-35.2,9.2L65.3,0z"/>
		<path fill="#FFFFFF" d="M41,97.8c0,2.5-2,4.5-4.5,4.5c-2.5,0-4.5-2-4.5-4.5c0-2.5,2-4.5,4.5-4.5C39,93.3,41,95.3,41,97.8"/>
		<path fill="#FFFFFF" d="M97.8,97.8c0,2.5-2,4.5-4.5,4.5s-4.5-2-4.5-4.5c0-2.5,2-4.5,4.5-4.5S97.8,95.3,97.8,97.8"/>
		<g>
			<path fill="#FFFFFF" d="M88.8,113.6c-2.2,0-4.6-0.2-7-0.5c-2.4-0.3-4.7-0.5-6.9-0.5c-2.5,0-9.3,0.5-9.5,6.7l0,0
				c-0.2-6.2-6.7-6.7-9.4-6.7c-2.2,0-4.5,0.3-6.9,0.5c-2.4,0.3-4.8,0.5-7,0.5c-7,0-10.7-3.8-11.7-10.1h-0.1v3.1
				c0,8.3,3.6,13.6,11.9,13.6c2.2,0,4.6-0.2,7-0.4c2.4-0.3,4.7-0.5,6.9-0.5c2.6,0,5,0.6,5.2,6.8h8.5c0.2-6.2,2.7-6.8,5.1-6.8
				c2.2,0,4.5,0.3,6.9,0.5c2.4,0.3,4.8,0.4,7,0.4c8.8,0,12-5.6,12-13.5v-2.5C99.4,110,96,113.6,88.8,113.6z"/>
			<path fill="#D5B69C" d="M88.8,117.4c-2.2,0-4.6-0.2-7-0.5c-2.4-0.3-4.7-0.5-6.9-0.5c-2.5,0-9.3,0.5-9.5,6.7l0,0
				c-0.2-6.2-6.7-6.7-9.4-6.7c-2.2,0-4.5,0.3-6.9,0.5c-2.4,0.3-4.8,0.5-7,0.5c-7,0-10.7-3.8-11.7-10.1h-0.1v3.1
				c0,8.3,3.6,13.6,11.9,13.6c2.2,0,4.6-0.2,7-0.4c2.4-0.3,4.7-0.5,6.9-0.5c2.6,0,5,0.6,5.2,6.8h8.5c0.2-6.2,2.7-6.8,5.1-6.8
				c2.2,0,4.5,0.3,6.9,0.5c2.4,0.3,4.8,0.4,7,0.4c8.8,0,12-5.6,12-13.5V108C99.4,113.7,96,117.4,88.8,117.4z"/>
			<path fill="#EED3B8" d="M88.8,119c-2.2,0-4.6-0.2-7-0.5c-2.4-0.3-4.7-0.5-6.9-0.5c-2.5,0-9.3,0.5-9.5,6.7l0,0
				c-0.2-6.2-6.7-6.7-9.4-6.7c-2.2,0-4.5,0.3-6.9,0.5c-2.4,0.3-4.8,0.5-7,0.5c-7,0-10.7-3.8-11.7-10.1h-0.1v3.1
				c0,8.3,3.6,13.6,11.9,13.6c2.2,0,4.6-0.2,7-0.4c2.4-0.3,4.7-0.5,6.9-0.5c2.6,0,5,0.6,5.2,6.8h8.5c0.2-6.2,2.7-6.8,5.1-6.8
				c2.2,0,4.5,0.3,6.9,0.5c2.4,0.3,4.8,0.4,7,0.4c8.8,0,12-5.6,12-13.5v-2.5C99.4,115.3,96,119,88.8,119z"/>
		</g>
		<path fill="none" stroke="#A9856B" stroke-width="4" stroke-linecap="round" stroke-linejoin="round" stroke-miterlimit="10" d="
			M51.2,133.8h23.3c0,0,5.3,0,6.7-4.4"/>
		<g>
			<path id="j_8_" fill="#63BB96" d="M41.5,65.3L47,62c1.1,1.9,2,3.5,4.4,3.5c2.2,0,3.6-0.9,3.6-4.3v-23h6.8v23.1
				c0,7-4.1,10.2-10.1,10.2C46.3,71.5,43.1,68.7,41.5,65.3"/>
			<path id="s_8_" fill="#3FB289" d="M65.5,64.6l5.5-3.2c1.5,2.4,3.3,4.1,6.7,4.1c2.8,0,4.6-1.4,4.6-3.3c0-2.3-1.8-3.1-4.9-4.5
				l-1.7-0.7c-4.9-2.1-8.1-4.7-8.1-10.2c0-5.1,3.9-9,9.9-9c4.3,0,7.4,1.5,9.6,5.4l-5.3,3.4c-1.2-2.1-2.4-2.9-4.4-2.9
				c-2,0-3.2,1.3-3.2,2.9c0,2,1.3,2.9,4.2,4.1l1.7,0.7c5.8,2.5,9,5,9,10.6c0,6.1-4.8,9.4-11.2,9.4C71.5,71.5,67.5,68.5,65.5,64.6"/>
		</g>
		<g>
			<rect x="-8.4" y="162.3" fill="none" width="149.3" height="43.3"/>
			<path fill="#3FB289" d="M19.9,164.7c-0.1,0.1-0.2,0.2-0.3,0.4c-0.1,0.1-0.2,0.2-0.3,0.4c-0.1-0.1-0.3-0.2-0.5-0.4
				c-0.2-0.1-0.4-0.3-0.7-0.4c-0.3-0.1-0.5-0.2-0.9-0.3c-0.3-0.1-0.7-0.1-1-0.1c-0.5,0-1,0.1-1.3,0.3c-0.4,0.2-0.7,0.4-1,0.7
				s-0.4,0.6-0.6,1c-0.1,0.4-0.2,0.8-0.2,1.2c0,0.4,0.1,0.8,0.2,1.1c0.1,0.3,0.3,0.6,0.6,0.8s0.5,0.4,0.9,0.5
				c0.3,0.2,0.7,0.3,1.1,0.4c0.5,0.2,1,0.3,1.6,0.5c0.6,0.2,1.1,0.5,1.6,0.8c0.5,0.3,0.9,0.8,1.3,1.3s0.5,1.2,0.5,2
				c0,0.6-0.1,1.2-0.4,1.8s-0.6,1-1,1.4c-0.4,0.4-0.9,0.7-1.5,0.9c-0.6,0.2-1.2,0.3-1.8,0.3c-0.6,0-1.1-0.1-1.6-0.2
				s-0.9-0.3-1.3-0.5c-0.4-0.2-0.7-0.5-1-0.7s-0.5-0.5-0.7-0.7l0.6-0.6c0.2,0.2,0.4,0.4,0.7,0.6c0.3,0.2,0.6,0.4,0.9,0.6
				s0.7,0.3,1,0.5c0.4,0.1,0.8,0.2,1.2,0.2c0.5,0,1-0.1,1.4-0.2c0.5-0.2,0.9-0.4,1.2-0.7c0.4-0.3,0.6-0.6,0.8-1
				c0.2-0.4,0.3-0.9,0.3-1.4c0-0.7-0.1-1.2-0.4-1.6c-0.3-0.4-0.7-0.8-1.1-1.1c-0.4-0.3-0.9-0.5-1.4-0.7c-0.5-0.2-1-0.3-1.4-0.5
				c-0.3-0.1-0.6-0.2-1-0.4s-0.7-0.4-1.1-0.6c-0.3-0.3-0.6-0.6-0.9-1s-0.4-0.9-0.4-1.5c0-0.5,0-1,0.2-1.5c0.1-0.5,0.4-0.9,0.7-1.3
				s0.7-0.7,1.3-1c0.5-0.2,1.1-0.4,1.9-0.4c0.6,0,1.1,0.1,1.7,0.3C18.7,163.8,19.3,164.2,19.9,164.7z"/>
			<path fill="#3FB289" d="M24.9,163.4h0.9v15.4h-0.9V163.4z"/>
			<path fill="#3FB289" d="M29.7,163.4h3.2c1.1,0,2.1,0.2,3,0.5c0.9,0.4,1.8,0.9,2.5,1.5c0.7,0.7,1.3,1.5,1.7,2.4
				c0.4,1,0.6,2,0.6,3.2c0,0.9-0.2,1.8-0.5,2.7c-0.3,0.9-0.8,1.7-1.5,2.5c-0.7,0.7-1.6,1.4-2.6,1.8c-1.1,0.5-2.4,0.7-3.9,0.7h-2.5
				V163.4z M30.6,164.3v13.6h1.9c1.2,0,2.3-0.2,3.2-0.6c0.9-0.4,1.7-0.9,2.3-1.5c0.6-0.6,1.1-1.4,1.4-2.2c0.3-0.8,0.5-1.7,0.5-2.5
				c0-1-0.2-2-0.5-2.8c-0.4-0.8-0.9-1.6-1.5-2.2c-0.6-0.6-1.3-1-2.2-1.4c-0.8-0.3-1.7-0.5-2.7-0.5H30.6z"/>
			<path fill="#3FB289" d="M44.2,178.8v-15.4h9.1v0.9h-8.2v6.3h7.4v0.9h-7.4v6.4h8.5v0.9H44.2z"/>
			<path fill="#3FB289" d="M67.8,178.8h-1.1c-1.1-1.5-2.3-2.9-3.4-4.3c-1.1-1.4-2.3-2.9-3.4-4.3c-0.3,0.3-0.7,0.6-1,0.9
				c-0.3,0.3-0.6,0.6-0.9,0.9v6.8h-0.9v-15.4H58v6.9c0,0.1,0,0.2,0,0.3c0,0.1,0,0.2,0,0.3c0.1-0.1,0.1-0.2,0.2-0.2
				c0.1-0.1,0.1-0.1,0.2-0.2c1.2-1.2,2.5-2.4,3.7-3.6s2.5-2.4,3.7-3.6H67l-6.5,6.1c1.2,1.6,2.5,3.1,3.7,4.6
				C65.4,175.7,66.6,177.2,67.8,178.8z"/>
			<path fill="#3FB289" d="M71.1,163.4H72v15.4h-0.9V163.4z"/>
			<path fill="#3FB289" d="M87,177.1l0.5,0.7c-0.6,0.3-1.2,0.6-1.9,0.8s-1.4,0.3-2.1,0.3c-1.1,0-2.1-0.2-3.1-0.6
				c-1-0.4-1.8-1-2.5-1.7c-0.7-0.7-1.3-1.5-1.7-2.5c-0.4-1-0.6-2-0.6-3.1c0-1.1,0.2-2.1,0.6-3.1c0.4-1,1-1.8,1.7-2.5
				c0.7-0.7,1.5-1.3,2.5-1.7c1-0.4,2-0.6,3.1-0.6c0.7,0,1.5,0.1,2.1,0.3s1.3,0.5,1.9,0.8c-0.1,0.1-0.2,0.2-0.3,0.4
				c-0.1,0.1-0.2,0.3-0.3,0.4c-0.5-0.3-1.1-0.5-1.7-0.7c-0.6-0.2-1.2-0.3-1.9-0.3c-1,0-1.9,0.2-2.7,0.6c-0.8,0.4-1.6,0.9-2.2,1.5
				c-0.6,0.6-1.1,1.4-1.5,2.2s-0.5,1.8-0.5,2.7c0,1,0.2,1.9,0.5,2.7s0.9,1.6,1.5,2.2c0.6,0.6,1.4,1.1,2.2,1.5
				c0.8,0.4,1.7,0.5,2.7,0.5c0.7,0,1.3-0.1,1.9-0.3C85.9,177.7,86.4,177.4,87,177.1z"/>
			<path fill="#3FB289" d="M101.2,178.8h-1.1c-1.1-1.5-2.3-2.9-3.4-4.3c-1.1-1.4-2.3-2.9-3.4-4.3c-0.3,0.3-0.7,0.6-1,0.9
				c-0.3,0.3-0.6,0.6-0.9,0.9v6.8h-0.9v-15.4h0.9v6.9c0,0.1,0,0.2,0,0.3c0,0.1,0,0.2,0,0.3c0.1-0.1,0.1-0.2,0.2-0.2
				c0.1-0.1,0.1-0.1,0.2-0.2c1.2-1.2,2.5-2.4,3.7-3.6s2.5-2.4,3.7-3.6h1.2l-6.5,6.1c1.2,1.6,2.5,3.1,3.7,4.6
				C98.8,175.7,100,177.2,101.2,178.8z"/>
			<path fill="#3FB289" d="M102.6,182v-1.7c1-0.1,1.8-0.4,2.5-1c0.7-0.6,1-1.4,1-2.5v-13.4h1.8v13.4c0,0.8-0.1,1.5-0.4,2.2
				c-0.3,0.6-0.6,1.2-1.1,1.6c-0.5,0.4-1,0.8-1.7,1S103.3,182,102.6,182z"/>
			<path fill="#3FB289" d="M119.6,164.9c-0.2,0.2-0.3,0.4-0.5,0.7c-0.2,0.2-0.3,0.4-0.5,0.7c-0.1-0.1-0.3-0.2-0.5-0.4
				c-0.2-0.1-0.4-0.3-0.6-0.4c-0.2-0.1-0.5-0.2-0.8-0.3c-0.3-0.1-0.6-0.1-1-0.1c-0.9,0-1.5,0.2-1.9,0.7c-0.4,0.5-0.6,1.1-0.6,1.7
				c0,0.4,0.1,0.7,0.2,0.9c0.1,0.2,0.3,0.5,0.5,0.6s0.5,0.3,0.8,0.4c0.3,0.1,0.6,0.2,0.9,0.3c0.5,0.2,1,0.4,1.6,0.6
				c0.6,0.2,1.1,0.5,1.6,0.9c0.5,0.4,0.9,0.8,1.2,1.4c0.3,0.5,0.5,1.2,0.5,2c0,0.7-0.1,1.3-0.4,1.8s-0.6,1-1,1.4
				c-0.4,0.4-0.9,0.7-1.5,0.9s-1.1,0.3-1.8,0.3c-0.6,0-1.1-0.1-1.6-0.2c-0.5-0.2-1-0.4-1.5-0.6c-0.4-0.2-0.8-0.5-1.2-0.8
				c-0.3-0.3-0.6-0.6-0.8-0.9l1.1-1.1c0.2,0.2,0.4,0.4,0.7,0.6s0.5,0.4,0.9,0.6c0.3,0.2,0.6,0.3,1,0.5c0.4,0.1,0.8,0.2,1.2,0.2
				c0.4,0,0.7-0.1,1.1-0.2c0.4-0.1,0.7-0.3,0.9-0.5s0.5-0.5,0.6-0.8c0.2-0.3,0.2-0.7,0.2-1.1c0-0.6-0.1-1.1-0.4-1.4
				c-0.3-0.4-0.6-0.7-1.1-0.9c-0.4-0.2-0.9-0.4-1.3-0.6c-0.5-0.1-0.9-0.3-1.2-0.4c-0.3-0.1-0.6-0.2-0.9-0.4c-0.4-0.2-0.7-0.4-1-0.7
				c-0.3-0.3-0.6-0.7-0.8-1.1c-0.2-0.4-0.4-1-0.4-1.6c0-0.5,0.1-1,0.2-1.5c0.1-0.5,0.4-0.9,0.7-1.3c0.3-0.4,0.8-0.7,1.3-1
				c0.6-0.2,1.2-0.4,2-0.4c0.6,0,1.2,0.1,1.8,0.3S118.8,164.3,119.6,164.9z"/>
		</g>
	</g>
	<g>
		<path fill="#DADCDB" d="M868.8-130.2l-28.7-16.6l-15.9-9.2c-7.4-4.3-19.5-4.3-26.8,0l-15.6,9l-29.1,16.8
			c-7.4,4.3-13.4,14.7-13.4,23.2v62.5c0,4.7,1.8,10,4.7,14.5c1.5,2.4,3.3,4.5,5.3,6.3c1.1,1,2.2,1.8,3.4,2.5l44.6,25.8
			c7.4,4.3,19.5,4.3,26.8,0l44.6-25.8c2-1.1,3.9-2.7,5.5-4.6c3.3-3.6,5.8-8.3,7-12.9c0.4-1.3,0.6-2.6,0.7-3.9
			c0.1-0.6,0.1-1.2,0.1-1.8V-107v0C882.2-115.5,876.2-126,868.8-130.2z"/>
		<g>
			<path fill="#DADCDB" d="M739.3,29.3c0,5.5,4.5,10,10,10h122.9c5.5,0,10-4.5,10-10v-73.7c0-5.5-4.5-10-10-10H749.3
				c-5.5,0-10,4.5-10,10V29.3z"/>
		</g>
	</g>
	<g>
		<path fill="#EED3B8" d="M876.1-47.8c0,7.8-5.5,17.4-12.3,21.3L823-3c-6.8,3.9-17.8,3.9-24.5,0l-40.8-23.6
			c-6.8-3.9-12.3-13.5-12.3-21.3V-105c0-7.8,5.5-17.4,12.3-21.3l40.8-23.6c6.8-3.9,17.8-3.9,24.5,0l40.8,23.6
			c6.8,3.9,12.3,13.5,12.3,21.3V-47.8z"/>
		<path fill="#484848" d="M863.9-126.2L823-149.8c-6.8-3.9-17.8-3.9-24.5,0l-40.8,23.6c-6.8,3.9-12.3,13.5-12.3,21.3v57.2
			c0,7.8,5.5,17.4,12.3,21.3l17.9,10.3l0-24.4l35.2,10.3l35.1-9.9l0.1,23.9l17.9-10.3c6.8-3.9,12.3-13.5,12.3-21.3V-105
			C876.1-112.8,870.6-122.3,863.9-126.2"/>
		<path fill="#313130" d="M810.6-152.7c4.3,0,9,1,12.3,2.9l40.8,23.6c6.8,3.9,12.3,13.5,12.3,21.3v57.2c0,7.8-5.5,17.4-12.3,21.3
			l-17.9,10.3l0-24.1L810.6-31L810.6-152.7z"/>
		<path fill="#FFFFFF" d="M786.3-54.9c0,2.5-2,4.5-4.5,4.5c-2.5,0-4.5-2-4.5-4.5c0-2.5,2-4.5,4.5-4.5
			C784.3-59.4,786.3-57.4,786.3-54.9"/>
		<path fill="#FFFFFF" d="M843.2-54.9c0,2.5-2,4.5-4.5,4.5s-4.5-2-4.5-4.5c0-2.5,2-4.5,4.5-4.5S843.2-57.4,843.2-54.9"/>
		<g>
			<path fill="#FFFFFF" d="M834.1-39c-2.2,0-4.6-0.2-7-0.5c-2.4-0.3-4.7-0.5-6.9-0.5c-2.5,0-9.3,0.5-9.5,6.7l0,0
				c-0.2-6.2-6.7-6.7-9.4-6.7c-2.2,0-4.5,0.3-6.9,0.5c-2.4,0.3-4.8,0.5-7,0.5c-7,0-10.7-3.8-11.7-10.1h-0.1v3.1
				c0,8.3,3.6,13.6,11.9,13.6c2.2,0,4.6-0.2,7-0.4c2.4-0.3,4.7-0.5,6.9-0.5c2.6,0,5,0.6,5.2,6.8h8.5c0.2-6.2,2.7-6.8,5.1-6.8
				c2.2,0,4.5,0.3,6.9,0.5c2.4,0.3,4.8,0.4,7,0.4c8.8,0,12-5.6,12-13.5v-2.5C844.8-42.7,841.3-39,834.1-39z"/>
			<path fill="#D5B69C" d="M834.1-35.3c-2.2,0-4.6-0.2-7-0.5c-2.4-0.3-4.7-0.5-6.9-0.5c-2.5,0-9.3,0.5-9.5,6.7l0,0
				c-0.2-6.2-6.7-6.7-9.4-6.7c-2.2,0-4.5,0.3-6.9,0.5c-2.4,0.3-4.8,0.5-7,0.5c-7,0-10.7-3.8-11.7-10.1h-0.1v3.1
				c0,8.3,3.6,13.6,11.9,13.6c2.2,0,4.6-0.2,7-0.4c2.4-0.3,4.7-0.5,6.9-0.5c2.6,0,5,0.6,5.2,6.8h8.5c0.2-6.2,2.7-6.8,5.1-6.8
				c2.2,0,4.5,0.3,6.9,0.5c2.4,0.3,4.8,0.4,7,0.4c8.8,0,12-5.6,12-13.5v-2.5C844.8-39,841.3-35.3,834.1-35.3z"/>
			<path fill="#EED3B8" d="M834.1-33.7c-2.2,0-4.6-0.2-7-0.5c-2.4-0.3-4.7-0.5-6.9-0.5c-2.5,0-9.3,0.5-9.5,6.7l0,0
				c-0.2-6.2-6.7-6.7-9.4-6.7c-2.2,0-4.5,0.3-6.9,0.5c-2.4,0.3-4.8,0.5-7,0.5c-7,0-10.7-3.8-11.7-10.1h-0.1v3.1
				c0,8.3,3.6,13.6,11.9,13.6c2.2,0,4.6-0.2,7-0.4c2.4-0.3,4.7-0.5,6.9-0.5c2.6,0,5,0.6,5.2,6.8h8.5c0.2-6.2,2.7-6.8,5.1-6.8
				c2.2,0,4.5,0.3,6.9,0.5c2.4,0.3,4.8,0.4,7,0.4c8.8,0,12-5.6,12-13.5V-43C844.8-37.4,841.3-33.7,834.1-33.7z"/>
		</g>
		<path fill="none" stroke="#A9856B" stroke-width="4" stroke-linecap="round" stroke-linejoin="round" stroke-miterlimit="10" d="
			M796.6-18.9h23.3c0,0,5.3,0,6.7-4.4"/>
		<g>
			<path id="j_4_" fill="#63BB96" d="M786.9-87.4l5.5-3.3c1.1,1.9,2,3.5,4.4,3.5c2.2,0,3.6-0.9,3.6-4.3v-23h6.8v23.1
				c0,7-4.1,10.2-10.1,10.2C791.6-81.2,788.5-84,786.9-87.4"/>
			<path id="s_4_" fill="#3FB289" d="M810.8-88.1l5.5-3.2c1.5,2.4,3.3,4.1,6.7,4.1c2.8,0,4.6-1.4,4.6-3.3c0-2.3-1.8-3.1-4.9-4.5
				l-1.7-0.7c-4.9-2.1-8.1-4.7-8.1-10.2c0-5.1,3.9-9,9.9-9c4.3,0,7.4,1.5,9.6,5.4l-5.3,3.4c-1.2-2.1-2.4-2.9-4.4-2.9
				c-2,0-3.2,1.3-3.2,2.9c0,2,1.3,2.9,4.2,4.1l1.7,0.7c5.8,2.5,9,5,9,10.6c0,6.1-4.8,9.4-11.2,9.4C816.9-81.2,812.8-84.2,810.8-88.1
				"/>
		</g>
	</g>
	<g>
		<rect x="736.1" y="9.6" fill="none" width="149.3" height="43.3"/>
		<path fill="#3FB289" d="M764.4,12c-0.1,0.1-0.2,0.2-0.3,0.4c-0.1,0.1-0.2,0.2-0.3,0.4c-0.1-0.1-0.3-0.2-0.5-0.4
			c-0.2-0.1-0.4-0.3-0.7-0.4c-0.3-0.1-0.5-0.2-0.9-0.3c-0.3-0.1-0.7-0.1-1-0.1c-0.5,0-1,0.1-1.3,0.3c-0.4,0.2-0.7,0.4-1,0.7
			s-0.4,0.6-0.6,1c-0.1,0.4-0.2,0.8-0.2,1.2c0,0.4,0.1,0.8,0.2,1.1c0.1,0.3,0.3,0.6,0.6,0.8s0.5,0.4,0.9,0.5
			c0.3,0.2,0.7,0.3,1.1,0.4c0.5,0.2,1,0.3,1.6,0.5c0.6,0.2,1.1,0.5,1.6,0.8c0.5,0.3,0.9,0.8,1.3,1.3s0.5,1.2,0.5,2
			c0,0.6-0.1,1.2-0.4,1.8s-0.6,1-1,1.4c-0.4,0.4-0.9,0.7-1.5,0.9c-0.6,0.2-1.2,0.3-1.8,0.3c-0.6,0-1.1-0.1-1.6-0.2s-0.9-0.3-1.3-0.5
			c-0.4-0.2-0.7-0.5-1-0.7s-0.5-0.5-0.7-0.7l0.6-0.6c0.2,0.2,0.4,0.4,0.7,0.6c0.3,0.2,0.6,0.4,0.9,0.6s0.7,0.3,1,0.5
			c0.4,0.1,0.8,0.2,1.2,0.2c0.5,0,1-0.1,1.4-0.2c0.5-0.2,0.9-0.4,1.2-0.7c0.4-0.3,0.6-0.6,0.8-1c0.2-0.4,0.3-0.9,0.3-1.4
			c0-0.7-0.1-1.2-0.4-1.6c-0.3-0.4-0.7-0.8-1.1-1.1c-0.4-0.3-0.9-0.5-1.4-0.7c-0.5-0.2-1-0.3-1.4-0.5c-0.3-0.1-0.6-0.2-1-0.4
			s-0.7-0.4-1.1-0.6c-0.3-0.3-0.6-0.6-0.9-1c-0.3-0.4-0.4-0.9-0.4-1.5c0-0.5,0-1,0.2-1.5c0.1-0.5,0.4-0.9,0.7-1.3s0.7-0.7,1.3-1
			c0.5-0.2,1.1-0.4,1.9-0.4c0.6,0,1.1,0.1,1.7,0.3C763.2,11.1,763.8,11.5,764.4,12z"/>
		<path fill="#3FB289" d="M769.3,10.7h0.9v15.4h-0.9V10.7z"/>
		<path fill="#3FB289" d="M774.2,10.7h3.2c1.1,0,2.1,0.2,3,0.5c0.9,0.4,1.8,0.9,2.5,1.5c0.7,0.7,1.3,1.5,1.7,2.4
			c0.4,1,0.6,2,0.6,3.2c0,0.9-0.2,1.8-0.5,2.7c-0.3,0.9-0.8,1.7-1.5,2.5c-0.7,0.7-1.6,1.4-2.6,1.8c-1.1,0.5-2.4,0.7-3.9,0.7h-2.5
			V10.7z M775.1,11.6v13.6h1.9c1.2,0,2.3-0.2,3.2-0.6c0.9-0.4,1.7-0.9,2.3-1.5c0.6-0.6,1.1-1.4,1.4-2.2c0.3-0.8,0.5-1.7,0.5-2.5
			c0-1-0.2-2-0.5-2.8c-0.4-0.8-0.9-1.6-1.5-2.2c-0.6-0.6-1.3-1-2.2-1.4c-0.8-0.3-1.7-0.5-2.7-0.5H775.1z"/>
		<path fill="#3FB289" d="M788.7,26.1V10.7h9.1v0.9h-8.2v6.3h7.4v0.9h-7.4v6.4h8.5v0.9H788.7z"/>
		<path fill="#3FB289" d="M812.3,26.1h-1.1c-1.1-1.5-2.3-2.9-3.4-4.3c-1.1-1.4-2.3-2.9-3.4-4.3c-0.3,0.3-0.7,0.6-1,0.9
			c-0.3,0.3-0.6,0.6-0.9,0.9v6.8h-0.9V10.7h0.9v6.9c0,0.1,0,0.2,0,0.3c0,0.1,0,0.2,0,0.3c0.1-0.1,0.1-0.2,0.2-0.2
			c0.1-0.1,0.1-0.1,0.2-0.2c1.2-1.2,2.5-2.4,3.7-3.6s2.5-2.4,3.7-3.6h1.2l-6.5,6.1c1.2,1.6,2.5,3.1,3.7,4.6
			C809.9,23,811.1,24.6,812.3,26.1z"/>
		<path fill="#3FB289" d="M815.6,10.7h0.9v15.4h-0.9V10.7z"/>
		<path fill="#3FB289" d="M831.4,24.4l0.5,0.7c-0.6,0.3-1.2,0.6-1.9,0.8s-1.4,0.3-2.1,0.3c-1.1,0-2.1-0.2-3.1-0.6
			c-1-0.4-1.8-1-2.5-1.7c-0.7-0.7-1.3-1.5-1.7-2.5c-0.4-1-0.6-2-0.6-3.1c0-1.1,0.2-2.1,0.6-3.1c0.4-1,1-1.8,1.7-2.5
			c0.7-0.7,1.5-1.3,2.5-1.7c1-0.4,2-0.6,3.1-0.6c0.7,0,1.5,0.1,2.1,0.3s1.3,0.5,1.9,0.8c-0.1,0.1-0.2,0.2-0.3,0.4
			c-0.1,0.1-0.2,0.3-0.3,0.4c-0.5-0.3-1.1-0.5-1.7-0.7c-0.6-0.2-1.2-0.3-1.9-0.3c-1,0-1.9,0.2-2.7,0.6c-0.8,0.4-1.6,0.9-2.2,1.5
			c-0.6,0.6-1.1,1.4-1.5,2.2c-0.4,0.9-0.5,1.8-0.5,2.7c0,1,0.2,1.9,0.5,2.7s0.9,1.6,1.5,2.2c0.6,0.6,1.4,1.1,2.2,1.5
			c0.8,0.4,1.7,0.5,2.7,0.5c0.7,0,1.3-0.1,1.9-0.3C830.4,25,830.9,24.7,831.4,24.4z"/>
		<path fill="#3FB289" d="M845.7,26.1h-1.1c-1.1-1.5-2.3-2.9-3.4-4.3c-1.1-1.4-2.3-2.9-3.4-4.3c-0.3,0.3-0.7,0.6-1,0.9
			c-0.3,0.3-0.6,0.6-0.9,0.9v6.8h-0.9V10.7h0.9v6.9c0,0.1,0,0.2,0,0.3c0,0.1,0,0.2,0,0.3c0.1-0.1,0.1-0.2,0.2-0.2
			c0.1-0.1,0.1-0.1,0.2-0.2c1.2-1.2,2.5-2.4,3.7-3.6s2.5-2.4,3.7-3.6h1.2l-6.5,6.1c1.2,1.6,2.5,3.1,3.7,4.6
			C843.3,23,844.5,24.6,845.7,26.1z"/>
		<path fill="#3FB289" d="M847,29.3v-1.7c1-0.1,1.8-0.4,2.5-1c0.7-0.6,1-1.4,1-2.5V10.7h1.8v13.4c0,0.8-0.1,1.5-0.4,2.2
			c-0.3,0.6-0.6,1.2-1.1,1.6c-0.5,0.4-1,0.8-1.7,1S847.8,29.3,847,29.3z"/>
		<path fill="#3FB289" d="M864.1,12.2c-0.2,0.2-0.3,0.4-0.5,0.7c-0.2,0.2-0.3,0.4-0.5,0.7c-0.1-0.1-0.3-0.2-0.5-0.4
			c-0.2-0.1-0.4-0.3-0.6-0.4c-0.2-0.1-0.5-0.2-0.8-0.3c-0.3-0.1-0.6-0.1-1-0.1c-0.9,0-1.5,0.2-1.9,0.7c-0.4,0.5-0.6,1.1-0.6,1.7
			c0,0.4,0.1,0.7,0.2,0.9c0.1,0.2,0.3,0.5,0.5,0.6s0.5,0.3,0.8,0.4c0.3,0.1,0.6,0.2,0.9,0.3c0.5,0.2,1,0.4,1.6,0.6
			c0.6,0.2,1.1,0.5,1.6,0.9c0.5,0.4,0.9,0.8,1.2,1.4c0.3,0.5,0.5,1.2,0.5,2c0,0.7-0.1,1.3-0.4,1.8s-0.6,1-1,1.4
			c-0.4,0.4-0.9,0.7-1.5,0.9s-1.1,0.3-1.8,0.3c-0.6,0-1.1-0.1-1.6-0.2c-0.5-0.2-1-0.4-1.5-0.6c-0.4-0.2-0.8-0.5-1.2-0.8
			c-0.3-0.3-0.6-0.6-0.8-0.9l1.1-1.1c0.2,0.2,0.4,0.4,0.7,0.6s0.5,0.4,0.9,0.6c0.3,0.2,0.6,0.3,1,0.5c0.4,0.1,0.8,0.2,1.2,0.2
			c0.4,0,0.7-0.1,1.1-0.2c0.4-0.1,0.7-0.3,0.9-0.5s0.5-0.5,0.6-0.8c0.2-0.3,0.2-0.7,0.2-1.1c0-0.6-0.1-1.1-0.4-1.4
			c-0.3-0.4-0.6-0.7-1.1-0.9c-0.4-0.2-0.9-0.4-1.3-0.6c-0.5-0.1-0.9-0.3-1.2-0.4c-0.3-0.1-0.6-0.2-0.9-0.4c-0.4-0.2-0.7-0.4-1-0.7
			c-0.3-0.3-0.6-0.7-0.8-1.1c-0.2-0.4-0.4-1-0.4-1.6c0-0.5,0.1-1,0.2-1.5c0.1-0.5,0.4-0.9,0.7-1.3c0.3-0.4,0.8-0.7,1.3-1
			c0.6-0.2,1.2-0.4,2-0.4c0.6,0,1.2,0.1,1.8,0.3S863.3,11.6,864.1,12.2z"/>
	</g>
	<path fill="#EED3B8" d="M-159-47.8c0,7.8-5.5,17.4-12.3,21.3L-212.1-3c-6.8,3.9-17.8,3.9-24.5,0l-40.8-23.6
		c-6.8-3.9-12.3-13.5-12.3-21.3V-105c0-7.8,5.5-17.4,12.3-21.3l40.8-23.6c6.8-3.9,17.8-3.9,24.5,0l40.8,23.6
		c6.8,3.9,12.3,13.5,12.3,21.3V-47.8z"/>
	<path fill="#242626" d="M-171.3-126.2l-40.8-23.6c-6.8-3.9-17.8-3.9-24.5,0l-40.8,23.6c-6.8,3.9-12.3,13.5-12.3,21.3v57.2
		c0,7.8,5.5,17.4,12.3,21.3l17.9,10.3l0-24.4l35.2,10.3l35.1-9.9l0.1,23.9l17.9-10.3c6.8-3.9,12.3-13.5,12.3-21.3V-105
		C-159-112.8-164.5-122.3-171.3-126.2"/>
	<path fill="#0E0E0E" d="M-224.5-152.7c4.3,0,9,1,12.3,2.9l40.8,23.6c6.8,3.9,12.3,13.5,12.3,21.3v57.2c0,7.8-5.5,17.4-12.3,21.3
		l-17.9,10.3l0-24.1l-35.2,9.2L-224.5-152.7z"/>
	<path fill="#FFFFFF" d="M-248.8-54.9c0,2.5-2,4.5-4.5,4.5s-4.5-2-4.5-4.5c0-2.5,2-4.5,4.5-4.5S-248.8-57.4-248.8-54.9"/>
	<path fill="#FFFFFF" d="M-192-54.9c0,2.5-2,4.5-4.5,4.5s-4.5-2-4.5-4.5c0-2.5,2-4.5,4.5-4.5S-192-57.4-192-54.9"/>
	<g>
		<path fill="#FFFFFF" d="M-201-39c-2.2,0-4.6-0.2-7-0.5c-2.4-0.3-4.7-0.5-6.9-0.5c-2.5,0-9.3,0.5-9.5,6.7l0,0
			c-0.2-6.2-6.7-6.7-9.4-6.7c-2.2,0-4.5,0.3-6.9,0.5c-2.4,0.3-4.8,0.5-7,0.5c-7,0-10.7-3.8-11.7-10.1h-0.1v3.1
			c0,8.3,3.6,13.6,11.9,13.6c2.2,0,4.6-0.2,7-0.4c2.4-0.3,4.7-0.5,6.9-0.5c2.6,0,5,0.6,5.2,6.8h8.5c0.2-6.2,2.7-6.8,5.1-6.8
			c2.2,0,4.5,0.3,6.9,0.5c2.4,0.3,4.8,0.4,7,0.4c8.8,0,12-5.6,12-13.5v-2.5C-190.3-42.7-193.8-39-201-39z"/>
		<path fill="#D5B69C" d="M-201-35.3c-2.2,0-4.6-0.2-7-0.5c-2.4-0.3-4.7-0.5-6.9-0.5c-2.5,0-9.3,0.5-9.5,6.7l0,0
			c-0.2-6.2-6.7-6.7-9.4-6.7c-2.2,0-4.5,0.3-6.9,0.5c-2.4,0.3-4.8,0.5-7,0.5c-7,0-10.7-3.8-11.7-10.1h-0.1v3.1
			c0,8.3,3.6,13.6,11.9,13.6c2.2,0,4.6-0.2,7-0.4c2.4-0.3,4.7-0.5,6.9-0.5c2.6,0,5,0.6,5.2,6.8h8.5c0.2-6.2,2.7-6.8,5.1-6.8
			c2.2,0,4.5,0.3,6.9,0.5c2.4,0.3,4.8,0.4,7,0.4c8.8,0,12-5.6,12-13.5v-2.5C-190.3-39-193.8-35.3-201-35.3z"/>
		<path fill="#EED3B8" d="M-201-33.7c-2.2,0-4.6-0.2-7-0.5c-2.4-0.3-4.7-0.5-6.9-0.5c-2.5,0-9.3,0.5-9.5,6.7l0,0
			c-0.2-6.2-6.7-6.7-9.4-6.7c-2.2,0-4.5,0.3-6.9,0.5c-2.4,0.3-4.8,0.5-7,0.5c-7,0-10.7-3.8-11.7-10.1h-0.1v3.1
			c0,8.3,3.6,13.6,11.9,13.6c2.2,0,4.6-0.2,7-0.4c2.4-0.3,4.7-0.5,6.9-0.5c2.6,0,5,0.6,5.2,6.8h8.5c0.2-6.2,2.7-6.8,5.1-6.8
			c2.2,0,4.5,0.3,6.9,0.5c2.4,0.3,4.8,0.4,7,0.4c8.8,0,12-5.6,12-13.5V-43C-190.3-37.4-193.8-33.7-201-33.7z"/>
	</g>
	<path fill="none" stroke="#A9856B" stroke-width="4" stroke-linecap="round" stroke-linejoin="round" stroke-miterlimit="10" d="
		M-238.5-18.9h23.3c0,0,5.3,0,6.7-4.4"/>
	<path fill="none" stroke="#774E31" stroke-width="6" stroke-linecap="round" stroke-linejoin="round" stroke-miterlimit="10" d="
		M53.9-141.8h23.3c0,0,10.6,0,10.5-10.2"/>
	<g>
		<path id="j_5_" fill="#63BB96" d="M-248.2-87.4l5.5-3.3c1.1,1.9,2,3.5,4.4,3.5c2.2,0,3.6-0.9,3.6-4.3v-23h6.8v23.1
			c0,7-4.1,10.2-10.1,10.2C-243.5-81.2-246.6-84-248.2-87.4"/>
		<path id="s_5_" fill="#3FB289" d="M-224.3-88.1l5.5-3.2c1.5,2.4,3.3,4.1,6.7,4.1c2.8,0,4.6-1.4,4.6-3.3c0-2.3-1.8-3.1-4.9-4.5
			l-1.7-0.7c-4.9-2.1-8.1-4.7-8.1-10.2c0-5.1,3.9-9,9.9-9c4.3,0,7.4,1.5,9.6,5.4l-5.3,3.4c-1.2-2.1-2.4-2.9-4.4-2.9
			c-2,0-3.2,1.3-3.2,2.9c0,2,1.3,2.9,4.2,4.1l1.7,0.7c5.8,2.5,9,5,9,10.6c0,6.1-4.8,9.4-11.2,9.4C-218.2-81.2-222.3-84.2-224.3-88.1
			"/>
	</g>
	<g>
		<path fill="#3FB289" d="M-270.7,12c-0.1,0.1-0.2,0.2-0.3,0.4c-0.1,0.1-0.2,0.2-0.3,0.4c-0.1-0.1-0.3-0.2-0.5-0.4
			c-0.2-0.1-0.4-0.3-0.7-0.4c-0.3-0.1-0.5-0.2-0.9-0.3c-0.3-0.1-0.7-0.1-1-0.1c-0.5,0-1,0.1-1.3,0.3c-0.4,0.2-0.7,0.4-1,0.7
			s-0.4,0.6-0.6,1c-0.1,0.4-0.2,0.8-0.2,1.2c0,0.4,0.1,0.8,0.2,1.1c0.1,0.3,0.3,0.6,0.6,0.8s0.5,0.4,0.9,0.5
			c0.3,0.2,0.7,0.3,1.1,0.4c0.5,0.2,1,0.3,1.6,0.5c0.6,0.2,1.1,0.5,1.6,0.8c0.5,0.3,0.9,0.8,1.3,1.3s0.5,1.2,0.5,2
			c0,0.6-0.1,1.2-0.4,1.8s-0.6,1-1,1.4c-0.4,0.4-0.9,0.7-1.5,0.9c-0.6,0.2-1.2,0.3-1.8,0.3c-0.6,0-1.1-0.1-1.6-0.2s-0.9-0.3-1.3-0.5
			c-0.4-0.2-0.7-0.5-1-0.7s-0.5-0.5-0.7-0.7l0.6-0.6c0.2,0.2,0.4,0.4,0.7,0.6c0.3,0.2,0.6,0.4,0.9,0.6s0.7,0.3,1,0.5
			c0.4,0.1,0.8,0.2,1.2,0.2c0.5,0,1-0.1,1.4-0.2c0.5-0.2,0.9-0.4,1.2-0.7c0.4-0.3,0.6-0.6,0.8-1c0.2-0.4,0.3-0.9,0.3-1.4
			c0-0.7-0.1-1.2-0.4-1.6c-0.3-0.4-0.7-0.8-1.1-1.1c-0.4-0.3-0.9-0.5-1.4-0.7c-0.5-0.2-1-0.3-1.4-0.5c-0.3-0.1-0.6-0.2-1-0.4
			s-0.7-0.4-1.1-0.6c-0.3-0.3-0.6-0.6-0.9-1c-0.3-0.4-0.4-0.9-0.4-1.5c0-0.5,0-1,0.2-1.5c0.1-0.5,0.4-0.9,0.7-1.3s0.7-0.7,1.3-1
			c0.5-0.2,1.1-0.4,1.9-0.4c0.6,0,1.1,0.1,1.7,0.3C-272,11.1-271.3,11.5-270.7,12z"/>
		<path fill="#3FB289" d="M-265.8,10.7h0.9v15.4h-0.9V10.7z"/>
		<path fill="#3FB289" d="M-260.9,10.7h3.2c1.1,0,2.1,0.2,3,0.5c0.9,0.4,1.8,0.9,2.5,1.5c0.7,0.7,1.3,1.5,1.7,2.4
			c0.4,1,0.6,2,0.6,3.2c0,0.9-0.2,1.8-0.5,2.7c-0.3,0.9-0.8,1.7-1.5,2.5c-0.7,0.7-1.6,1.4-2.6,1.8c-1.1,0.5-2.4,0.7-3.9,0.7h-2.5
			V10.7z M-260,11.6v13.6h1.9c1.2,0,2.3-0.2,3.2-0.6c0.9-0.4,1.7-0.9,2.3-1.5c0.6-0.6,1.1-1.4,1.4-2.2c0.3-0.8,0.5-1.7,0.5-2.5
			c0-1-0.2-2-0.5-2.8c-0.4-0.8-0.9-1.6-1.5-2.2c-0.6-0.6-1.3-1-2.2-1.4c-0.8-0.3-1.7-0.5-2.7-0.5H-260z"/>
		<path fill="#3FB289" d="M-246.4,26.1V10.7h9.1v0.9h-8.2v6.3h7.4v0.9h-7.4v6.4h8.5v0.9H-246.4z"/>
		<path fill="#3FB289" d="M-222.8,26.1h-1.1c-1.1-1.5-2.3-2.9-3.4-4.3c-1.1-1.4-2.3-2.9-3.4-4.3c-0.3,0.3-0.7,0.6-1,0.9
			c-0.3,0.3-0.6,0.6-0.9,0.9v6.8h-0.9V10.7h0.9v6.9c0,0.1,0,0.2,0,0.3c0,0.1,0,0.2,0,0.3c0.1-0.1,0.1-0.2,0.2-0.2
			c0.1-0.1,0.1-0.1,0.2-0.2c1.2-1.2,2.5-2.4,3.7-3.6s2.5-2.4,3.7-3.6h1.2l-6.5,6.1c1.2,1.6,2.5,3.1,3.7,4.6
			C-225.3,23-224,24.6-222.8,26.1z"/>
		<path fill="#3FB289" d="M-219.6,10.7h0.9v15.4h-0.9V10.7z"/>
		<path fill="#3FB289" d="M-203.7,24.4l0.5,0.7c-0.6,0.3-1.2,0.6-1.9,0.8s-1.4,0.3-2.1,0.3c-1.1,0-2.1-0.2-3.1-0.6
			c-1-0.4-1.8-1-2.5-1.7c-0.7-0.7-1.3-1.5-1.7-2.5c-0.4-1-0.6-2-0.6-3.1c0-1.1,0.2-2.1,0.6-3.1c0.4-1,1-1.8,1.7-2.5
			c0.7-0.7,1.5-1.3,2.5-1.7c1-0.4,2-0.6,3.1-0.6c0.7,0,1.5,0.1,2.1,0.3s1.3,0.5,1.9,0.8c-0.1,0.1-0.2,0.2-0.3,0.4
			c-0.1,0.1-0.2,0.3-0.3,0.4c-0.5-0.3-1.1-0.5-1.7-0.7c-0.6-0.2-1.2-0.3-1.9-0.3c-1,0-1.9,0.2-2.7,0.6c-0.8,0.4-1.6,0.9-2.2,1.5
			c-0.6,0.6-1.1,1.4-1.5,2.2c-0.4,0.9-0.5,1.8-0.5,2.7c0,1,0.2,1.9,0.5,2.7s0.9,1.6,1.5,2.2c0.6,0.6,1.4,1.1,2.2,1.5
			c0.8,0.4,1.7,0.5,2.7,0.5c0.7,0,1.3-0.1,1.9-0.3C-204.8,25-204.2,24.7-203.7,24.4z"/>
		<path fill="#3FB289" d="M-189.4,26.1h-1.1c-1.1-1.5-2.3-2.9-3.4-4.3c-1.1-1.4-2.3-2.9-3.4-4.3c-0.3,0.3-0.7,0.6-1,0.9
			c-0.3,0.3-0.6,0.6-0.9,0.9v6.8h-0.9V10.7h0.9v6.9c0,0.1,0,0.2,0,0.3c0,0.1,0,0.2,0,0.3c0.1-0.1,0.1-0.2,0.2-0.2
			c0.1-0.1,0.1-0.1,0.2-0.2c1.2-1.2,2.5-2.4,3.7-3.6s2.5-2.4,3.7-3.6h1.2l-6.5,6.1c1.2,1.6,2.5,3.1,3.7,4.6
			C-191.9,23-190.6,24.6-189.4,26.1z"/>
		<path fill="#3FB289" d="M-188.1,29.3v-1.7c1-0.1,1.8-0.4,2.5-1c0.7-0.6,1-1.4,1-2.5V10.7h1.8v13.4c0,0.8-0.1,1.5-0.4,2.2
			c-0.3,0.6-0.6,1.2-1.1,1.6c-0.5,0.4-1,0.8-1.7,1S-187.3,29.3-188.1,29.3z"/>
		<path fill="#3FB289" d="M-171,12.2c-0.2,0.2-0.3,0.4-0.5,0.7c-0.2,0.2-0.3,0.4-0.5,0.7c-0.1-0.1-0.3-0.2-0.5-0.4
			c-0.2-0.1-0.4-0.3-0.6-0.4c-0.2-0.1-0.5-0.2-0.8-0.3c-0.3-0.1-0.6-0.1-1-0.1c-0.9,0-1.5,0.2-1.9,0.7c-0.4,0.5-0.6,1.1-0.6,1.7
			c0,0.4,0.1,0.7,0.2,0.9c0.1,0.2,0.3,0.5,0.5,0.6s0.5,0.3,0.8,0.4c0.3,0.1,0.6,0.2,0.9,0.3c0.5,0.2,1,0.4,1.6,0.6
			c0.6,0.2,1.1,0.5,1.6,0.9c0.5,0.4,0.9,0.8,1.2,1.4c0.3,0.5,0.5,1.2,0.5,2c0,0.7-0.1,1.3-0.4,1.8s-0.6,1-1,1.4
			c-0.4,0.4-0.9,0.7-1.5,0.9s-1.1,0.3-1.8,0.3c-0.6,0-1.1-0.1-1.6-0.2c-0.5-0.2-1-0.4-1.5-0.6c-0.4-0.2-0.8-0.5-1.2-0.8
			c-0.3-0.3-0.6-0.6-0.8-0.9l1.1-1.1c0.2,0.2,0.4,0.4,0.7,0.6s0.5,0.4,0.9,0.6c0.3,0.2,0.6,0.3,1,0.5c0.4,0.1,0.8,0.2,1.2,0.2
			c0.4,0,0.7-0.1,1.1-0.2c0.4-0.1,0.7-0.3,0.9-0.5s0.5-0.5,0.6-0.8c0.2-0.3,0.2-0.7,0.2-1.1c0-0.6-0.1-1.1-0.4-1.4
			c-0.3-0.4-0.6-0.7-1.1-0.9c-0.4-0.2-0.9-0.4-1.3-0.6c-0.5-0.1-0.9-0.3-1.2-0.4c-0.3-0.1-0.6-0.2-0.9-0.4c-0.4-0.2-0.7-0.4-1-0.7
			c-0.3-0.3-0.6-0.7-0.8-1.1c-0.2-0.4-0.4-1-0.4-1.6c0-0.5,0.1-1,0.2-1.5c0.1-0.5,0.4-0.9,0.7-1.3c0.3-0.4,0.8-0.7,1.3-1
			c0.6-0.2,1.2-0.4,2-0.4c0.6,0,1.2,0.1,1.8,0.3S-171.8,11.6-171,12.2z"/>
	</g>
	<g>
		<path fill="#E0E0E0" d="M-148.9-340.8c0,7.8-5.5,17.4-12.3,21.3l-40.8,23.6c-6.8,3.9-17.8,3.9-24.5,0l-40.8-23.6
			c-6.8-3.9-12.3-13.5-12.3-21.3v-57.2c0-7.8,5.5-17.4,12.3-21.3l40.8-23.6c6.8-3.9,17.8-3.9,24.5,0l40.8,23.6
			c6.8,3.9,12.3,13.5,12.3,21.3V-340.8z"/>
		<path fill="#242626" d="M-161.2-419.2l-40.8-23.6c-6.8-3.9-17.8-3.9-24.5,0l-40.8,23.6c-6.8,3.9-12.3,13.5-12.3,21.3v57.2
			c0,7.8,5.5,17.4,12.3,21.3l17.9,10.3l0-24.4l35.2,10.3l35.1-9.9l0.1,23.9l17.9-10.3c6.8-3.9,12.3-13.5,12.3-21.3v-57.2
			C-148.9-405.7-154.4-415.3-161.2-419.2"/>
		<path fill="#0E0E0E" d="M-214.4-445.6c4.3,0,9,1,12.3,2.9l40.8,23.6c6.8,3.9,12.3,13.5,12.3,21.3v57.2c0,7.8-5.5,17.4-12.3,21.3
			l-17.9,10.3l0-24.1l-35.2,9.2L-214.4-445.6z"/>
		<path fill="#FFFFFF" d="M-238.7-347.9c0,2.5-2,4.5-4.5,4.5s-4.5-2-4.5-4.5c0-2.5,2-4.5,4.5-4.5S-238.7-350.3-238.7-347.9"/>
		<path fill="#FFFFFF" d="M-181.9-347.9c0,2.5-2,4.5-4.5,4.5c-2.5,0-4.5-2-4.5-4.5c0-2.5,2-4.5,4.5-4.5
			C-183.9-352.3-181.9-350.3-181.9-347.9"/>
		<path fill="#B5B5B5" d="M-190.9-332c-2.2,0-4.6-0.2-7-0.5c-2.4-0.3-4.7-0.5-6.9-0.5c-2.5,0-9.3,0.5-9.5,6.7l0,0
			c-0.2-6.2-6.7-6.7-9.4-6.7c-2.2,0-4.5,0.3-6.9,0.5c-2.4,0.3-4.8,0.5-7,0.5c-7,0-10.7-3.8-11.7-10.1h-0.1v3.1
			c0,8.3,3.6,13.6,11.9,13.6c2.2,0,4.6-0.2,7-0.4c2.4-0.3,4.7-0.5,6.9-0.5c2.6,0,5,0.6,5.2,6.8h8.5c0.2-6.2,2.7-6.8,5.1-6.8
			c2.2,0,4.5,0.3,6.9,0.5c2.4,0.3,4.8,0.4,7,0.4c8.8,0,12-5.6,12-13.5v-2.5C-180.2-335.7-183.7-332-190.9-332z"/>
		<path fill="#E0E0E0" d="M-190.9-328.2c-2.2,0-4.6-0.2-7-0.5c-2.4-0.3-4.7-0.5-6.9-0.5c-2.5,0-9.3,0.5-9.5,6.7l0,0
			c-0.2-6.2-6.7-6.7-9.4-6.7c-2.2,0-4.5,0.3-6.9,0.5c-2.4,0.3-4.8,0.5-7,0.5c-7,0-10.7-3.8-11.7-10.1h-0.1v3.1
			c0,8.3,3.6,13.6,11.9,13.6c2.2,0,4.6-0.2,7-0.4c2.4-0.3,4.7-0.5,6.9-0.5c2.6,0,5,0.6,5.2,6.8h8.5c0.2-6.2,2.7-6.8,5.1-6.8
			c2.2,0,4.5,0.3,6.9,0.5c2.4,0.3,4.8,0.4,7,0.4c8.8,0,12-5.6,12-13.5v-2.5C-180.2-331.9-183.7-328.2-190.9-328.2z"/>
		<path fill="#E0E0E0" d="M-190.9-326.6c-2.2,0-4.6-0.2-7-0.5c-2.4-0.3-4.7-0.5-6.9-0.5c-2.5,0-9.3,0.5-9.5,6.7l0,0
			c-0.2-6.2-6.7-6.7-9.4-6.7c-2.2,0-4.5,0.3-6.9,0.5c-2.4,0.3-4.8,0.5-7,0.5c-7,0-10.7-3.8-11.7-10.1h-0.1v3.1
			c0,8.3,3.6,13.6,11.9,13.6c2.2,0,4.6-0.2,7-0.4c2.4-0.3,4.7-0.5,6.9-0.5c2.6,0,5,0.6,5.2,6.8h8.5c0.2-6.2,2.7-6.8,5.1-6.8
			c2.2,0,4.5,0.3,6.9,0.5c2.4,0.3,4.8,0.4,7,0.4c8.8,0,12-5.6,12-13.5v-2.5C-180.2-330.3-183.7-326.6-190.9-326.6z"/>
		<path fill="none" stroke="#B5B5B5" stroke-width="4" stroke-linecap="round" stroke-linejoin="round" stroke-miterlimit="10" d="
			M-228.4-311.9h23.3c0,0,5.3,0,6.7-4.4"/>
		<g>
			<path id="j_6_" fill="#E2E2E1" d="M-238.1-380.3l5.5-3.3c1.1,1.9,2,3.5,4.4,3.5c2.2,0,3.6-0.9,3.6-4.3v-23h6.8v23.1
				c0,7-4.1,10.2-10.1,10.2C-233.4-374.1-236.5-376.9-238.1-380.3"/>
			<path id="s_6_" fill="#E2E2E1" d="M-214.2-381.1l5.5-3.2c1.5,2.4,3.3,4.1,6.7,4.1c2.8,0,4.6-1.4,4.6-3.3c0-2.3-1.8-3.1-4.9-4.5
				l-1.7-0.7c-4.9-2.1-8.1-4.7-8.1-10.2c0-5.1,3.9-9,9.9-9c4.3,0,7.4,1.5,9.6,5.4l-5.3,3.4c-1.2-2.1-2.4-2.9-4.4-2.9
				c-2,0-3.2,1.3-3.2,2.9c0,2,1.3,2.9,4.2,4.1l1.7,0.7c5.8,2.5,9,5,9,10.6c0,6.1-4.8,9.4-11.2,9.4
				C-208.1-374.1-212.2-377.1-214.2-381.1"/>
		</g>
	</g>
	<rect x="338.6" y="275.8" fill="#4AB484" width="448.5" height="165"/>
	<path fill="#313130" d="M187.8-151.9"/>
	<path fill="#313130" d="M40.9-163.7"/>
	<path fill="none" stroke="#774E31" stroke-width="6" stroke-linecap="round" stroke-linejoin="round" stroke-miterlimit="10" d="
		M-192.6,208.2h23.3c0,0,10.6,0,10.5-10.2"/>
	<g>
		<path fill="#EED2B7" d="M406.4,363.3c0,3.2-2.3,7.1-5,8.7l-16.7,9.6c-2.8,1.6-7.3,1.6-10,0L358,372c-2.8-1.6-5-5.5-5-8.7V340
			c0-3.2,2.3-7.1,5-8.7l16.7-9.6c2.8-1.6,7.3-1.6,10,0l16.7,9.6c2.8,1.6,5,5.5,5,8.7V363.3z"/>
		<path fill="#494848" d="M401.4,331.3l-16.7-9.6c-2.8-1.6-7.3-1.6-10,0l-16.7,9.6c-2.8,1.6-5,5.5-5,8.7v23.3c0,3.2,2.3,7.1,5,8.7
			l7.3,4.2l0-9.9l14.4,4.2l14.3-4l0.1,9.8l7.3-4.2c2.8-1.6,5-5.5,5-8.7V340C406.4,336.8,404.1,332.9,401.4,331.3"/>
		<path fill="#313231" d="M379.6,320.5c1.8,0,3.7,0.4,5,1.2l16.7,9.6c2.8,1.6,5,5.5,5,8.7v23.3c0,3.2-2.3,7.1-5,8.7l-7.3,4.2l0-9.8
			l-14.4,3.8L379.6,320.5z"/>
		<path fill="#FFFFFF" d="M369.7,360.4c0,1-0.8,1.8-1.8,1.8c-1,0-1.8-0.8-1.8-1.8c0-1,0.8-1.8,1.8-1.8
			C368.9,358.6,369.7,359.4,369.7,360.4"/>
		<path fill="#FFFFFF" d="M392.9,360.4c0,1-0.8,1.8-1.8,1.8c-1,0-1.8-0.8-1.8-1.8c0-1,0.8-1.8,1.8-1.8
			C392.1,358.6,392.9,359.4,392.9,360.4"/>
		<g>
			<path fill="#FFFFFF" d="M389.2,366.9c-0.9,0-1.9-0.1-2.9-0.2c-1-0.1-1.9-0.2-2.8-0.2c-1,0-3.8,0.2-3.9,2.8l0,0
				c-0.1-2.5-2.7-2.8-3.8-2.8c-0.9,0-1.8,0.1-2.8,0.2c-1,0.1-2,0.2-2.9,0.2c-2.9,0-4.4-1.6-4.8-4.1h-0.1v1.3c0,3.4,1.5,5.6,4.9,5.6
				c0.9,0,1.9-0.1,2.8-0.2c1-0.1,1.9-0.2,2.8-0.2c1.1,0,2,0.3,2.1,2.8h3.5c0.1-2.5,1.1-2.8,2.1-2.8c0.9,0,1.8,0.1,2.8,0.2
				c1,0.1,1.9,0.2,2.8,0.2c3.6,0,4.9-2.3,4.9-5.5v-1C393.6,365.4,392.2,366.9,389.2,366.9z"/>
			<path fill="#D4B59B" d="M389.2,368.4c-0.9,0-1.9-0.1-2.9-0.2c-1-0.1-1.9-0.2-2.8-0.2c-1,0-3.8,0.2-3.9,2.8l0,0
				c-0.1-2.5-2.7-2.8-3.8-2.8c-0.9,0-1.8,0.1-2.8,0.2c-1,0.1-2,0.2-2.9,0.2c-2.9,0-4.4-1.6-4.8-4.1h-0.1v1.3c0,3.4,1.5,5.6,4.9,5.6
				c0.9,0,1.9-0.1,2.8-0.2c1-0.1,1.9-0.2,2.8-0.2c1.1,0,2,0.3,2.1,2.8h3.5c0.1-2.5,1.1-2.8,2.1-2.8c0.9,0,1.8,0.1,2.8,0.2
				c1,0.1,1.9,0.2,2.8,0.2c3.6,0,4.9-2.3,4.9-5.5v-1C393.6,366.9,392.2,368.4,389.2,368.4z"/>
			<path fill="#EED2B7" d="M389.2,369.1c-0.9,0-1.9-0.1-2.9-0.2c-1-0.1-1.9-0.2-2.8-0.2c-1,0-3.8,0.2-3.9,2.8l0,0
				c-0.1-2.5-2.7-2.8-3.8-2.8c-0.9,0-1.8,0.1-2.8,0.2c-1,0.1-2,0.2-2.9,0.2c-2.9,0-4.4-1.6-4.8-4.1h-0.1v1.3c0,3.4,1.5,5.6,4.9,5.6
				c0.9,0,1.9-0.1,2.8-0.2c1-0.1,1.9-0.2,2.8-0.2c1.1,0,2,0.3,2.1,2.8h3.5c0.1-2.5,1.1-2.8,2.1-2.8c0.9,0,1.8,0.1,2.8,0.2
				c1,0.1,1.9,0.2,2.8,0.2c3.6,0,4.9-2.3,4.9-5.5v-1C393.6,367.6,392.2,369.1,389.2,369.1z"/>
		</g>
		<path fill="none" stroke="#A6846B" stroke-linecap="round" stroke-linejoin="round" stroke-miterlimit="10" d="M373.9,375.1h9.5
			c0,0,2.2,0,2.7-1.8"/>
		<g>
			<path id="j_10_" fill="#64BA95" d="M369.9,347.1l2.3-1.4c0.4,0.8,0.8,1.4,1.8,1.4c0.9,0,1.5-0.4,1.5-1.7v-9.4h2.8v9.4
				c0,2.9-1.7,4.2-4.1,4.2C371.9,349.7,370.6,348.5,369.9,347.1"/>
			<path id="s_10_" fill="#40B288" d="M379.7,346.8l2.3-1.3c0.6,1,1.4,1.7,2.7,1.7c1.1,0,1.9-0.6,1.9-1.4c0-0.9-0.8-1.3-2-1.8
				l-0.7-0.3c-2-0.8-3.3-1.9-3.3-4.2c0-2.1,1.6-3.7,4.1-3.7c1.8,0,3,0.6,3.9,2.2l-2.2,1.4c-0.5-0.8-1-1.2-1.8-1.2
				c-0.8,0-1.3,0.5-1.3,1.2c0,0.8,0.5,1.2,1.7,1.7l0.7,0.3c2.4,1,3.7,2,3.7,4.3c0,2.5-2,3.9-4.6,3.9
				C382.2,349.7,380.5,348.4,379.7,346.8"/>
		</g>
	</g>
	<g>
		<rect x="423.4" y="334.9" fill="none" width="502" height="108.2"/>
		<path fill="#FFFFFF" d="M442.8,339.8c-0.2,0.2-0.4,0.5-0.6,0.7c-0.2,0.2-0.3,0.5-0.5,0.7c-0.3-0.2-0.6-0.5-1-0.8
			c-0.4-0.3-0.8-0.6-1.4-0.8c-0.5-0.3-1.1-0.5-1.8-0.6c-0.6-0.2-1.3-0.2-2.1-0.2c-1.1,0-2,0.2-2.7,0.5c-0.8,0.3-1.4,0.8-2,1.4
			s-0.9,1.3-1.2,2s-0.4,1.6-0.4,2.4c0,0.9,0.1,1.6,0.4,2.2c0.3,0.6,0.7,1.1,1.2,1.6c0.5,0.4,1.1,0.8,1.8,1.1
			c0.7,0.3,1.4,0.6,2.2,0.9c1,0.3,2,0.7,3.2,1.1c1.2,0.4,2.3,1,3.4,1.7c1,0.7,1.9,1.6,2.6,2.7c0.7,1.1,1.1,2.4,1.1,4
			c0,1.3-0.2,2.5-0.7,3.6c-0.5,1.1-1.2,2-2,2.8c-0.9,0.8-1.9,1.4-3,1.8c-1.2,0.4-2.4,0.6-3.7,0.6c-1.2,0-2.3-0.2-3.3-0.5
			c-1-0.3-1.9-0.7-2.7-1.1c-0.8-0.5-1.5-0.9-2-1.4c-0.6-0.5-1-1-1.4-1.3l1.3-1.3c0.4,0.4,0.9,0.9,1.4,1.3s1.1,0.9,1.8,1.2
			c0.6,0.4,1.4,0.7,2.1,0.9c0.8,0.2,1.6,0.4,2.5,0.4c1,0,2-0.2,2.9-0.5c0.9-0.3,1.8-0.8,2.5-1.4c0.7-0.6,1.3-1.3,1.7-2.1
			c0.4-0.8,0.7-1.8,0.7-2.9c0-1.3-0.3-2.5-0.9-3.3c-0.6-0.9-1.3-1.6-2.2-2.2c-0.9-0.6-1.9-1-2.9-1.4c-1.1-0.4-2-0.7-2.9-1
			c-0.6-0.2-1.2-0.4-2-0.7c-0.8-0.3-1.5-0.7-2.2-1.3c-0.7-0.5-1.3-1.2-1.8-2c-0.5-0.8-0.8-1.9-0.8-3.1c-0.1-1,0.1-2,0.3-3
			c0.3-1,0.8-1.9,1.4-2.7c0.7-0.8,1.5-1.4,2.6-2c1-0.5,2.3-0.8,3.8-0.8c1.1,0,2.3,0.2,3.5,0.6C440.3,337.9,441.5,338.7,442.8,339.8z
			"/>
		<path fill="#FFFFFF" d="M452.9,337.1h1.8v31.5h-1.8V337.1z"/>
		<path fill="#FFFFFF" d="M462.8,337.1h6.6c2.2,0,4.2,0.4,6.1,1.1c1.9,0.7,3.6,1.8,5,3.2s2.6,3,3.4,5c0.8,2,1.3,4.1,1.3,6.5
			c0,1.8-0.3,3.6-0.9,5.4c-0.6,1.9-1.6,3.6-3,5.1c-1.4,1.5-3.2,2.8-5.4,3.8c-2.2,1-4.9,1.5-8.1,1.5h-5.1V337.1z M464.7,338.9v27.9
			h3.9c2.5,0,4.7-0.4,6.5-1.2c1.9-0.8,3.4-1.8,4.6-3.1c1.2-1.3,2.2-2.8,2.8-4.4c0.6-1.7,0.9-3.4,0.9-5.2c0-2.1-0.4-4.1-1.1-5.8
			c-0.7-1.7-1.7-3.2-3-4.4c-1.3-1.2-2.8-2.1-4.5-2.8c-1.7-0.6-3.5-1-5.4-1H464.7z"/>
		<path fill="#FFFFFF" d="M492.6,368.6v-31.5h18.7v1.8h-16.8v12.9h15.1v1.8h-15.1v13.2h17.5v1.8H492.6z"/>
		<path fill="#FFFFFF" d="M540.8,368.6h-2.3c-2.3-3-4.7-5.9-7-8.8c-2.3-2.9-4.6-5.9-7-8.9c-0.7,0.6-1.4,1.3-2,1.9
			c-0.6,0.6-1.3,1.2-1.9,1.9v14h-1.8v-31.5h1.8v14.1c0,0.2,0,0.5,0,0.7c0,0.2,0,0.4-0.1,0.7c0.1-0.2,0.3-0.3,0.4-0.5
			c0.1-0.2,0.3-0.3,0.4-0.5c2.5-2.4,5.1-4.9,7.6-7.3c2.5-2.4,5.1-4.8,7.6-7.3h2.4l-13.2,12.6c2.5,3.2,5.1,6.3,7.5,9.5
			C535.8,362.3,538.3,365.5,540.8,368.6z"/>
		<path fill="#FFFFFF" d="M547.5,337.1h1.8v31.5h-1.8V337.1z"/>
		<path fill="#FFFFFF" d="M579.9,365.2l1,1.5c-1.2,0.7-2.5,1.2-3.8,1.6c-1.4,0.4-2.8,0.6-4.3,0.6c-2.2,0-4.3-0.4-6.3-1.3
			c-2-0.8-3.7-2-5.1-3.4c-1.5-1.5-2.6-3.2-3.4-5.1c-0.8-1.9-1.3-4-1.3-6.3c0-2.2,0.4-4.3,1.3-6.3s2-3.7,3.4-5.1
			c1.5-1.5,3.2-2.6,5.1-3.5c1.9-0.9,4-1.3,6.3-1.3c1.5,0,3,0.2,4.3,0.6c1.4,0.4,2.7,0.9,3.9,1.7c-0.2,0.2-0.4,0.5-0.5,0.8
			c-0.2,0.3-0.3,0.5-0.5,0.8c-1.1-0.6-2.2-1.1-3.4-1.5c-1.2-0.3-2.5-0.5-3.8-0.5c-2,0-3.8,0.4-5.5,1.1c-1.7,0.8-3.2,1.8-4.5,3.1
			c-1.3,1.3-2.3,2.8-3,4.6c-0.7,1.7-1.1,3.6-1.1,5.6c0,2,0.4,3.8,1.1,5.5c0.7,1.7,1.7,3.2,3,4.5c1.3,1.3,2.8,2.3,4.5,3.1
			c1.7,0.8,3.5,1.1,5.5,1.1c1.4,0,2.6-0.2,3.8-0.5C577.7,366.3,578.9,365.9,579.9,365.2z"/>
		<path fill="#FFFFFF" d="M609.1,368.6h-2.3c-2.3-3-4.7-5.9-7-8.8c-2.3-2.9-4.6-5.9-7-8.9c-0.7,0.6-1.4,1.3-2,1.9
			c-0.6,0.6-1.3,1.2-1.9,1.9v14h-1.8v-31.5h1.8v14.1c0,0.2,0,0.5,0,0.7c0,0.2,0,0.4-0.1,0.7c0.1-0.2,0.3-0.3,0.4-0.5
			c0.1-0.2,0.3-0.3,0.4-0.5c2.5-2.4,5.1-4.9,7.6-7.3c2.5-2.4,5.1-4.8,7.6-7.3h2.4l-13.2,12.6c2.5,3.2,5.1,6.3,7.5,9.5
			C604.1,362.3,606.6,365.5,609.1,368.6z"/>
		<path fill="#FFFFFF" d="M611.8,375.1v-3.6c2.1-0.1,3.8-0.8,5.1-2c1.3-1.2,2-2.9,2-5.1v-27.3h3.7v27.5c0,1.7-0.3,3.2-0.8,4.5
			c-0.6,1.3-1.3,2.4-2.3,3.3c-1,0.9-2.1,1.6-3.4,2C614.8,374.8,613.4,375.1,611.8,375.1z"/>
		<path fill="#FFFFFF" d="M646.7,340.3c-0.4,0.4-0.7,0.9-1.1,1.3c-0.3,0.5-0.7,0.9-1.1,1.3c-0.2-0.2-0.6-0.5-0.9-0.8
			c-0.4-0.3-0.8-0.5-1.3-0.8s-1.1-0.4-1.7-0.6c-0.6-0.2-1.3-0.2-2-0.2c-1.7,0-3,0.5-3.9,1.5c-0.8,1-1.3,2.2-1.3,3.5
			c0,0.8,0.1,1.4,0.4,1.9c0.3,0.5,0.7,0.9,1.1,1.3c0.5,0.3,1,0.6,1.6,0.9c0.6,0.2,1.2,0.5,1.8,0.7c1,0.4,2.1,0.8,3.2,1.3
			c1.1,0.5,2.2,1.1,3.2,1.9c1,0.8,1.8,1.7,2.4,2.8c0.6,1.1,1,2.4,1,4c0,1.3-0.2,2.6-0.7,3.6c-0.5,1.1-1.2,2-2,2.8
			c-0.9,0.8-1.9,1.4-3,1.8c-1.1,0.4-2.3,0.6-3.6,0.6c-1.1,0-2.2-0.2-3.3-0.5c-1.1-0.3-2.1-0.7-3-1.2s-1.7-1-2.4-1.6
			c-0.7-0.6-1.3-1.2-1.6-1.8l2.3-2.3c0.4,0.4,0.9,0.9,1.4,1.3s1.1,0.9,1.8,1.3c0.6,0.4,1.3,0.7,2.1,0.9c0.7,0.2,1.6,0.4,2.4,0.4
			c0.8,0,1.5-0.1,2.2-0.3c0.7-0.2,1.4-0.6,1.9-1c0.6-0.4,1-1,1.3-1.6c0.3-0.7,0.5-1.4,0.5-2.3c0-1.2-0.3-2.2-0.9-2.9
			s-1.3-1.4-2.2-1.9c-0.9-0.5-1.7-0.9-2.7-1.2c-0.9-0.3-1.7-0.6-2.4-0.9c-0.5-0.2-1.2-0.5-1.9-0.9c-0.8-0.4-1.5-0.8-2.1-1.5
			c-0.7-0.6-1.3-1.4-1.7-2.3c-0.5-0.9-0.7-2-0.8-3.4c0-1,0.1-2,0.4-3c0.3-1,0.8-1.9,1.5-2.7c0.7-0.8,1.6-1.5,2.7-2
			c1.1-0.5,2.5-0.8,4.2-0.8c1.2,0,2.4,0.2,3.7,0.6C643.6,338,645.1,338.9,646.7,340.3z"/>
	</g>
	<g>
	</g>
	<g>
	</g>
	<g>
	</g>
	<g>
	</g>
	<g>
	</g>
	<g>
	</g>
</g>
</svg>
